M48
INCH,TZ
T1C0.0157
T2C0.0276
T3C0.0295
T4C0.0315
T5C0.0354
T6C0.0394
T7C0.0433
%
G90
G05
T1
X45100Y-39200
X47100Y-28100
X51800Y-36600
X53400Y-49800
T2
X47500Y-44000
X47500Y-47000
X46000Y-44000
X46000Y-47000
X45900Y-34100
X46400Y-34100
X46900Y-34100
X47400Y-34100
X47000Y-32100
X50000Y-32100
X33800Y-38300
X36800Y-38300
X49000Y-44000
X49000Y-47000
T3
X53400Y-32100
X53400Y-35100
T4
X55900Y-32600
X56900Y-31600
X56900Y-33600
X55900Y-37000
X56900Y-36000
X56900Y-38000
X46800Y-39300
X46800Y-40481
X38000Y-31800
X38000Y-32800
X38000Y-33800
X38000Y-34800
X38000Y-35800
X38000Y-36800
X38000Y-37800
X38000Y-38800
X38000Y-39800
X38000Y-40800
X38000Y-41800
X38000Y-42800
X38000Y-43800
X38000Y-44800
X38000Y-45800
X44000Y-31800
X44000Y-32800
X44000Y-33800
X44000Y-34800
X44000Y-35800
X44000Y-36800
X44000Y-37800
X44000Y-38800
X44000Y-39800
X44000Y-40800
X44000Y-41800
X44000Y-42800
X44000Y-43800
X44000Y-44800
X44000Y-45800
X34100Y-41400
X35100Y-40400
X35100Y-42400
X47000Y-26700
X47000Y-29700
X48000Y-26700
X48000Y-29700
X49000Y-26700
X49000Y-29700
X50000Y-26700
X50000Y-29700
X51000Y-26700
X51000Y-29700
X52000Y-26700
X52000Y-29700
X53000Y-26700
X53000Y-29700
X55900Y-41500
X56900Y-40500
X56900Y-42500
T5
X60100Y-36600
X60100Y-37600
X48900Y-36100
X48900Y-37100
X48900Y-38100
X50449Y-24291
X51400Y-24600
X35700Y-29700
X36288Y-28891
X35712Y-44491
X36300Y-45300
X50400Y-50000
X51351Y-49691
T6
X51000Y-35100
X52000Y-35100
X51000Y-40100
X52000Y-40100
X51000Y-34100
X52000Y-34100
X50300Y-37200
X50300Y-38200
T7
X51328Y-44000
X51328Y-46559
X53100Y-44000
X53100Y-46559
T0
M30
