G04 #@! TF.GenerationSoftware,KiCad,Pcbnew,(5.1.4)-1*
G04 #@! TF.CreationDate,2022-06-01T15:16:57+01:00*
G04 #@! TF.ProjectId,Swarm-B,53776172-6d2d-4422-9e6b-696361645f70,rev?*
G04 #@! TF.SameCoordinates,Original*
G04 #@! TF.FileFunction,Copper,L2,Bot*
G04 #@! TF.FilePolarity,Positive*
%FSLAX46Y46*%
G04 Gerber Fmt 4.6, Leading zero omitted, Abs format (unit mm)*
G04 Created by KiCad (PCBNEW (5.1.4)-1) date 2022-06-01 15:16:57*
%MOMM*%
%LPD*%
G04 APERTURE LIST*
%ADD10C,1.440000*%
%ADD11O,1.600000X1.600000*%
%ADD12R,1.600000X1.600000*%
%ADD13C,1.800000*%
%ADD14C,0.100000*%
%ADD15R,1.700000X1.700000*%
%ADD16O,1.700000X1.700000*%
%ADD17R,1.800000X1.800000*%
%ADD18O,1.500000X1.500000*%
%ADD19R,1.500000X1.500000*%
%ADD20C,1.600000*%
%ADD21O,1.800000X1.070000*%
%ADD22R,1.800000X1.070000*%
%ADD23C,2.000000*%
%ADD24C,1.400000*%
%ADD25O,1.400000X1.400000*%
%ADD26C,0.800000*%
%ADD27C,0.250000*%
%ADD28C,0.254000*%
G04 APERTURE END LIST*
D10*
X141732000Y-103124000D03*
X146812000Y-105664000D03*
X141732000Y-108204000D03*
D11*
X96266000Y-113538000D03*
X111506000Y-113538000D03*
X96266000Y-77978000D03*
X111506000Y-110998000D03*
X96266000Y-80518000D03*
X111506000Y-108458000D03*
X96266000Y-83058000D03*
X111506000Y-105918000D03*
X96266000Y-85598000D03*
X111506000Y-103378000D03*
X96266000Y-88138000D03*
X111506000Y-100838000D03*
X96266000Y-90678000D03*
X111506000Y-98298000D03*
X96266000Y-93218000D03*
X111506000Y-95758000D03*
X96266000Y-95758000D03*
X111506000Y-93218000D03*
X96266000Y-98298000D03*
X111506000Y-90678000D03*
X96266000Y-100838000D03*
X111506000Y-88138000D03*
X96266000Y-103378000D03*
X111506000Y-85598000D03*
X96266000Y-105918000D03*
X111506000Y-83058000D03*
X96266000Y-108458000D03*
X111506000Y-80518000D03*
X96266000Y-110998000D03*
D12*
X111506000Y-77978000D03*
D13*
X124206000Y-91694000D03*
X124206000Y-94234000D03*
D14*
G36*
X124881947Y-95875196D02*
G01*
X124906060Y-95878773D01*
X124929707Y-95884696D01*
X124952659Y-95892908D01*
X124974695Y-95903331D01*
X124995604Y-95915863D01*
X125015183Y-95930384D01*
X125033245Y-95946755D01*
X125049616Y-95964817D01*
X125064137Y-95984396D01*
X125076669Y-96005305D01*
X125087092Y-96027341D01*
X125095304Y-96050293D01*
X125101227Y-96073940D01*
X125104804Y-96098053D01*
X125106000Y-96122400D01*
X125106000Y-97425600D01*
X125104804Y-97449947D01*
X125101227Y-97474060D01*
X125095304Y-97497707D01*
X125087092Y-97520659D01*
X125076669Y-97542695D01*
X125064137Y-97563604D01*
X125049616Y-97583183D01*
X125033245Y-97601245D01*
X125015183Y-97617616D01*
X124995604Y-97632137D01*
X124974695Y-97644669D01*
X124952659Y-97655092D01*
X124929707Y-97663304D01*
X124906060Y-97669227D01*
X124881947Y-97672804D01*
X124857600Y-97674000D01*
X123554400Y-97674000D01*
X123530053Y-97672804D01*
X123505940Y-97669227D01*
X123482293Y-97663304D01*
X123459341Y-97655092D01*
X123437305Y-97644669D01*
X123416396Y-97632137D01*
X123396817Y-97617616D01*
X123378755Y-97601245D01*
X123362384Y-97583183D01*
X123347863Y-97563604D01*
X123335331Y-97542695D01*
X123324908Y-97520659D01*
X123316696Y-97497707D01*
X123310773Y-97474060D01*
X123307196Y-97449947D01*
X123306000Y-97425600D01*
X123306000Y-96122400D01*
X123307196Y-96098053D01*
X123310773Y-96073940D01*
X123316696Y-96050293D01*
X123324908Y-96027341D01*
X123335331Y-96005305D01*
X123347863Y-95984396D01*
X123362384Y-95964817D01*
X123378755Y-95946755D01*
X123396817Y-95930384D01*
X123416396Y-95915863D01*
X123437305Y-95903331D01*
X123459341Y-95892908D01*
X123482293Y-95884696D01*
X123505940Y-95878773D01*
X123530053Y-95875196D01*
X123554400Y-95874000D01*
X124857600Y-95874000D01*
X124881947Y-95875196D01*
X124881947Y-95875196D01*
G37*
D13*
X124206000Y-96774000D03*
D15*
X132080000Y-89154000D03*
D16*
X129540000Y-89154000D03*
D15*
X132080000Y-86614000D03*
D16*
X129540000Y-86614000D03*
X132080000Y-101854000D03*
D15*
X129540000Y-101854000D03*
D13*
X128140316Y-61699097D03*
X130556000Y-62484000D03*
D14*
G36*
X131690066Y-61906164D02*
G01*
X131133836Y-63618066D01*
X129421934Y-63061836D01*
X129978164Y-61349934D01*
X131690066Y-61906164D01*
X131690066Y-61906164D01*
G37*
D13*
X90678000Y-75438000D03*
X92170975Y-73383097D03*
D14*
G36*
X91971866Y-72125975D02*
G01*
X93428097Y-73183988D01*
X92370084Y-74640219D01*
X90913853Y-73582206D01*
X91971866Y-72125975D01*
X91971866Y-72125975D01*
G37*
D13*
X92202000Y-115062000D03*
X90709025Y-113007097D03*
D14*
G36*
X89451903Y-112807988D02*
G01*
X90908134Y-111749975D01*
X91966147Y-113206206D01*
X90509916Y-114264219D01*
X89451903Y-112807988D01*
X89451903Y-112807988D01*
G37*
D13*
X130431684Y-126215097D03*
X128016000Y-127000000D03*
D14*
G36*
X127438164Y-128134066D02*
G01*
X126881934Y-126422164D01*
X128593836Y-125865934D01*
X129150066Y-127577836D01*
X127438164Y-128134066D01*
X127438164Y-128134066D01*
G37*
D13*
X152654000Y-92964000D03*
D17*
X152654000Y-95504000D03*
D18*
X135636000Y-81534000D03*
D19*
X135636000Y-89154000D03*
D20*
X118872000Y-102822000D03*
X118872000Y-99822000D03*
D16*
X119126000Y-78740000D03*
D15*
X119126000Y-81280000D03*
D21*
X135890000Y-92202000D03*
X135890000Y-93472000D03*
X135890000Y-94742000D03*
D22*
X135890000Y-96012000D03*
D23*
X130374000Y-111760000D03*
X134874000Y-111760000D03*
X130374000Y-118260000D03*
X134874000Y-118260000D03*
D12*
X137668000Y-75184000D03*
D11*
X122428000Y-67564000D03*
X135128000Y-75184000D03*
X124968000Y-67564000D03*
X132588000Y-75184000D03*
X127508000Y-67564000D03*
X130048000Y-75184000D03*
X130048000Y-67564000D03*
X127508000Y-75184000D03*
X132588000Y-67564000D03*
X124968000Y-75184000D03*
X135128000Y-67564000D03*
X122428000Y-75184000D03*
X137668000Y-67564000D03*
D24*
X93472000Y-97282000D03*
D25*
X85852000Y-97282000D03*
D24*
X124460000Y-111760000D03*
D25*
X124460000Y-119380000D03*
D24*
X116840000Y-111760000D03*
D25*
X116840000Y-119380000D03*
X120650000Y-119380000D03*
D24*
X120650000Y-111760000D03*
D25*
X92964000Y-85852000D03*
D24*
X92964000Y-78232000D03*
D10*
X141732000Y-96774000D03*
X146812000Y-94234000D03*
X141732000Y-91694000D03*
X141732000Y-80518000D03*
X146812000Y-83058000D03*
X141732000Y-85598000D03*
X89154000Y-107696000D03*
X86614000Y-105156000D03*
X89154000Y-102616000D03*
D26*
X135636000Y-126492000D03*
X114554000Y-99568000D03*
X119634000Y-71374000D03*
D27*
X112305999Y-106717999D02*
X111506000Y-105918000D01*
X112631001Y-107043001D02*
X112305999Y-106717999D01*
X112631001Y-109068003D02*
X112631001Y-107043001D01*
X120650000Y-117087002D02*
X112631001Y-109068003D01*
X120650000Y-119380000D02*
X120650000Y-117087002D01*
X93980000Y-85852000D02*
X96266000Y-88138000D01*
X92964000Y-85852000D02*
X93980000Y-85852000D01*
X110706001Y-99097999D02*
X111506000Y-98298000D01*
X110380999Y-99423001D02*
X110706001Y-99097999D01*
X110380999Y-114438001D02*
X110380999Y-99423001D01*
X116592998Y-120650000D02*
X110380999Y-114438001D01*
X121484000Y-120650000D02*
X116592998Y-120650000D01*
X130374000Y-111760000D02*
X121484000Y-120650000D01*
X135128000Y-68695370D02*
X135128000Y-75184000D01*
X135128000Y-67564000D02*
X135128000Y-68695370D01*
X127508000Y-67564000D02*
X127508000Y-75184000D01*
X134328001Y-75983999D02*
X135128000Y-75184000D01*
X134002999Y-76309001D02*
X134328001Y-75983999D01*
X128633001Y-76309001D02*
X134002999Y-76309001D01*
X127508000Y-75184000D02*
X128633001Y-76309001D01*
X112305999Y-92418001D02*
X111506000Y-93218000D01*
X112631001Y-92092999D02*
X112305999Y-92418001D01*
X112631001Y-78235997D02*
X112631001Y-92092999D01*
X114557997Y-76309001D02*
X112631001Y-78235997D01*
X126382999Y-76309001D02*
X114557997Y-76309001D01*
X127508000Y-75184000D02*
X126382999Y-76309001D01*
X114121001Y-74312999D02*
X111506000Y-76928000D01*
X111506000Y-76928000D02*
X111506000Y-77978000D01*
X118219001Y-74312999D02*
X124968000Y-67564000D01*
X114121001Y-74312999D02*
X118219001Y-74312999D01*
X116586000Y-111506000D02*
X116840000Y-111760000D01*
X134740000Y-92202000D02*
X135890000Y-92202000D01*
X119997001Y-106944999D02*
X134740000Y-92202000D01*
X119997001Y-108602999D02*
X119997001Y-106944999D01*
X116840000Y-111760000D02*
X119997001Y-108602999D01*
X134740000Y-93472000D02*
X135890000Y-93472000D01*
X120650000Y-107562000D02*
X134740000Y-93472000D01*
X120650000Y-111760000D02*
X120650000Y-107562000D01*
X134740000Y-96012000D02*
X135890000Y-96012000D01*
X133096998Y-96012000D02*
X134740000Y-96012000D01*
X125159999Y-103948999D02*
X133096998Y-96012000D01*
X125159999Y-111060001D02*
X125159999Y-103948999D01*
X124460000Y-111760000D02*
X125159999Y-111060001D01*
X136385999Y-80784001D02*
X135636000Y-81534000D01*
X136385999Y-74280999D02*
X136385999Y-80784001D01*
X137668000Y-72998998D02*
X136385999Y-74280999D01*
X137668000Y-67564000D02*
X137668000Y-72998998D01*
X142451999Y-97493999D02*
X141732000Y-96774000D01*
X142777001Y-97819001D02*
X142451999Y-97493999D01*
X142777001Y-107158999D02*
X142777001Y-97819001D01*
X141732000Y-108204000D02*
X142777001Y-107158999D01*
X142451999Y-86317999D02*
X141732000Y-85598000D01*
X143764000Y-87630000D02*
X142451999Y-86317999D01*
X143764000Y-94742000D02*
X143764000Y-87630000D01*
X141732000Y-96774000D02*
X143764000Y-94742000D01*
X137668000Y-81534000D02*
X135636000Y-81534000D01*
X141732000Y-85598000D02*
X137668000Y-81534000D01*
X125103955Y-95876045D02*
X124206000Y-96774000D01*
X125431001Y-95548999D02*
X125103955Y-95876045D01*
X125431001Y-88685001D02*
X125431001Y-95548999D01*
X119126000Y-82380000D02*
X125431001Y-88685001D01*
X119126000Y-81280000D02*
X119126000Y-82380000D01*
D28*
G36*
X153991000Y-78265879D02*
G01*
X153991000Y-92202036D01*
X153846312Y-91985495D01*
X153632505Y-91771688D01*
X153381095Y-91603701D01*
X153101743Y-91487989D01*
X152805184Y-91429000D01*
X152502816Y-91429000D01*
X152206257Y-91487989D01*
X151926905Y-91603701D01*
X151675495Y-91771688D01*
X151461688Y-91985495D01*
X151293701Y-92236905D01*
X151177989Y-92516257D01*
X151119000Y-92812816D01*
X151119000Y-93115184D01*
X151177989Y-93411743D01*
X151293701Y-93691095D01*
X151461688Y-93942505D01*
X151528127Y-94008944D01*
X151509820Y-94014498D01*
X151399506Y-94073463D01*
X151302815Y-94152815D01*
X151223463Y-94249506D01*
X151164498Y-94359820D01*
X151128188Y-94479518D01*
X151115928Y-94604000D01*
X151115928Y-96404000D01*
X151128188Y-96528482D01*
X151164498Y-96648180D01*
X151223463Y-96758494D01*
X151302815Y-96855185D01*
X151399506Y-96934537D01*
X151509820Y-96993502D01*
X151629518Y-97029812D01*
X151754000Y-97042072D01*
X153554000Y-97042072D01*
X153678482Y-97029812D01*
X153798180Y-96993502D01*
X153908494Y-96934537D01*
X153991001Y-96866826D01*
X153991001Y-109953393D01*
X135088821Y-129353000D01*
X102647221Y-129353000D01*
X99627100Y-126372101D01*
X126245829Y-126372101D01*
X126248285Y-126497161D01*
X126275091Y-126619339D01*
X126831321Y-128331241D01*
X126881449Y-128445841D01*
X126952970Y-128548460D01*
X127043137Y-128635155D01*
X127148485Y-128702592D01*
X127264965Y-128748182D01*
X127388101Y-128770171D01*
X127513161Y-128767715D01*
X127635339Y-128740909D01*
X129347241Y-128184679D01*
X129461841Y-128134551D01*
X129564460Y-128063030D01*
X129651155Y-127972863D01*
X129718592Y-127867515D01*
X129764182Y-127751035D01*
X129786171Y-127627899D01*
X129785801Y-127609035D01*
X129983941Y-127691108D01*
X130280500Y-127750097D01*
X130582868Y-127750097D01*
X130879427Y-127691108D01*
X131158779Y-127575396D01*
X131410189Y-127407409D01*
X131623996Y-127193602D01*
X131791983Y-126942192D01*
X131907695Y-126662840D01*
X131966684Y-126366281D01*
X131966684Y-126063913D01*
X131907695Y-125767354D01*
X131791983Y-125488002D01*
X131623996Y-125236592D01*
X131410189Y-125022785D01*
X131158779Y-124854798D01*
X130879427Y-124739086D01*
X130582868Y-124680097D01*
X130280500Y-124680097D01*
X129983941Y-124739086D01*
X129704589Y-124854798D01*
X129453179Y-125022785D01*
X129239372Y-125236592D01*
X129087565Y-125463787D01*
X129079030Y-125451540D01*
X128988863Y-125364845D01*
X128883515Y-125297408D01*
X128767035Y-125251818D01*
X128643899Y-125229829D01*
X128518839Y-125232285D01*
X128396661Y-125259091D01*
X126684759Y-125815321D01*
X126570159Y-125865449D01*
X126467540Y-125936970D01*
X126380845Y-126027137D01*
X126313408Y-126132485D01*
X126267818Y-126248965D01*
X126245829Y-126372101D01*
X99627100Y-126372101D01*
X85909891Y-112833038D01*
X88814323Y-112833038D01*
X88831461Y-112956943D01*
X88872442Y-113075123D01*
X88935692Y-113183037D01*
X89993705Y-114639268D01*
X90076792Y-114732769D01*
X90176524Y-114808265D01*
X90289068Y-114862853D01*
X90410099Y-114894435D01*
X90534966Y-114901799D01*
X90658871Y-114884661D01*
X90673190Y-114879696D01*
X90667000Y-114910816D01*
X90667000Y-115213184D01*
X90725989Y-115509743D01*
X90841701Y-115789095D01*
X91009688Y-116040505D01*
X91223495Y-116254312D01*
X91474905Y-116422299D01*
X91754257Y-116538011D01*
X92050816Y-116597000D01*
X92353184Y-116597000D01*
X92649743Y-116538011D01*
X92929095Y-116422299D01*
X93180505Y-116254312D01*
X93394312Y-116040505D01*
X93562299Y-115789095D01*
X93678011Y-115509743D01*
X93737000Y-115213184D01*
X93737000Y-114910816D01*
X93678011Y-114614257D01*
X93562299Y-114334905D01*
X93394312Y-114083495D01*
X93180505Y-113869688D01*
X92929095Y-113701701D01*
X92649743Y-113585989D01*
X92497934Y-113555792D01*
X92510193Y-113539598D01*
X92564781Y-113427054D01*
X92596363Y-113306023D01*
X92603727Y-113181156D01*
X92586589Y-113057251D01*
X92545608Y-112939071D01*
X92482358Y-112831157D01*
X91424345Y-111374926D01*
X91341258Y-111281425D01*
X91241526Y-111205929D01*
X91128982Y-111151341D01*
X91007951Y-111119759D01*
X90883084Y-111112395D01*
X90759179Y-111129533D01*
X90640999Y-111170514D01*
X90533085Y-111233764D01*
X89076854Y-112291777D01*
X88983353Y-112374864D01*
X88907857Y-112474596D01*
X88853269Y-112587140D01*
X88821687Y-112708171D01*
X88814323Y-112833038D01*
X85909891Y-112833038D01*
X83499000Y-110453458D01*
X83499000Y-107562544D01*
X87799000Y-107562544D01*
X87799000Y-107829456D01*
X87851072Y-108091239D01*
X87953215Y-108337833D01*
X88101503Y-108559762D01*
X88290238Y-108748497D01*
X88512167Y-108896785D01*
X88758761Y-108998928D01*
X89020544Y-109051000D01*
X89287456Y-109051000D01*
X89549239Y-108998928D01*
X89795833Y-108896785D01*
X90017762Y-108748497D01*
X90206497Y-108559762D01*
X90354785Y-108337833D01*
X90456928Y-108091239D01*
X90509000Y-107829456D01*
X90509000Y-107562544D01*
X90456928Y-107300761D01*
X90354785Y-107054167D01*
X90206497Y-106832238D01*
X90017762Y-106643503D01*
X89795833Y-106495215D01*
X89549239Y-106393072D01*
X89287456Y-106341000D01*
X89020544Y-106341000D01*
X88758761Y-106393072D01*
X88512167Y-106495215D01*
X88290238Y-106643503D01*
X88101503Y-106832238D01*
X87953215Y-107054167D01*
X87851072Y-107300761D01*
X87799000Y-107562544D01*
X83499000Y-107562544D01*
X83499000Y-105022544D01*
X85259000Y-105022544D01*
X85259000Y-105289456D01*
X85311072Y-105551239D01*
X85413215Y-105797833D01*
X85561503Y-106019762D01*
X85750238Y-106208497D01*
X85972167Y-106356785D01*
X86218761Y-106458928D01*
X86480544Y-106511000D01*
X86747456Y-106511000D01*
X87009239Y-106458928D01*
X87255833Y-106356785D01*
X87477762Y-106208497D01*
X87666497Y-106019762D01*
X87814785Y-105797833D01*
X87916928Y-105551239D01*
X87969000Y-105289456D01*
X87969000Y-105022544D01*
X87916928Y-104760761D01*
X87814785Y-104514167D01*
X87666497Y-104292238D01*
X87477762Y-104103503D01*
X87255833Y-103955215D01*
X87009239Y-103853072D01*
X86747456Y-103801000D01*
X86480544Y-103801000D01*
X86218761Y-103853072D01*
X85972167Y-103955215D01*
X85750238Y-104103503D01*
X85561503Y-104292238D01*
X85413215Y-104514167D01*
X85311072Y-104760761D01*
X85259000Y-105022544D01*
X83499000Y-105022544D01*
X83499000Y-102482544D01*
X87799000Y-102482544D01*
X87799000Y-102749456D01*
X87851072Y-103011239D01*
X87953215Y-103257833D01*
X88101503Y-103479762D01*
X88290238Y-103668497D01*
X88512167Y-103816785D01*
X88758761Y-103918928D01*
X89020544Y-103971000D01*
X89287456Y-103971000D01*
X89549239Y-103918928D01*
X89795833Y-103816785D01*
X90017762Y-103668497D01*
X90206497Y-103479762D01*
X90354785Y-103257833D01*
X90456928Y-103011239D01*
X90509000Y-102749456D01*
X90509000Y-102482544D01*
X90456928Y-102220761D01*
X90354785Y-101974167D01*
X90206497Y-101752238D01*
X90017762Y-101563503D01*
X89795833Y-101415215D01*
X89549239Y-101313072D01*
X89287456Y-101261000D01*
X89020544Y-101261000D01*
X88758761Y-101313072D01*
X88512167Y-101415215D01*
X88290238Y-101563503D01*
X88101503Y-101752238D01*
X87953215Y-101974167D01*
X87851072Y-102220761D01*
X87799000Y-102482544D01*
X83499000Y-102482544D01*
X83499000Y-97282000D01*
X84510541Y-97282000D01*
X84536317Y-97543706D01*
X84612653Y-97795354D01*
X84736618Y-98027275D01*
X84903445Y-98230555D01*
X85106725Y-98397382D01*
X85338646Y-98521347D01*
X85590294Y-98597683D01*
X85786421Y-98617000D01*
X85917579Y-98617000D01*
X86113706Y-98597683D01*
X86365354Y-98521347D01*
X86597275Y-98397382D01*
X86800555Y-98230555D01*
X86967382Y-98027275D01*
X87091347Y-97795354D01*
X87167683Y-97543706D01*
X87193459Y-97282000D01*
X87180509Y-97150514D01*
X92137000Y-97150514D01*
X92137000Y-97413486D01*
X92188304Y-97671405D01*
X92288939Y-97914359D01*
X92435038Y-98133013D01*
X92620987Y-98318962D01*
X92839641Y-98465061D01*
X93082595Y-98565696D01*
X93340514Y-98617000D01*
X93603486Y-98617000D01*
X93861405Y-98565696D01*
X94104359Y-98465061D01*
X94323013Y-98318962D01*
X94508962Y-98133013D01*
X94655061Y-97914359D01*
X94755696Y-97671405D01*
X94807000Y-97413486D01*
X94807000Y-97150514D01*
X94755696Y-96892595D01*
X94655061Y-96649641D01*
X94508962Y-96430987D01*
X94323013Y-96245038D01*
X94104359Y-96098939D01*
X93861405Y-95998304D01*
X93603486Y-95947000D01*
X93340514Y-95947000D01*
X93082595Y-95998304D01*
X92839641Y-96098939D01*
X92620987Y-96245038D01*
X92435038Y-96430987D01*
X92288939Y-96649641D01*
X92188304Y-96892595D01*
X92137000Y-97150514D01*
X87180509Y-97150514D01*
X87167683Y-97020294D01*
X87091347Y-96768646D01*
X86967382Y-96536725D01*
X86800555Y-96333445D01*
X86597275Y-96166618D01*
X86365354Y-96042653D01*
X86113706Y-95966317D01*
X85917579Y-95947000D01*
X85786421Y-95947000D01*
X85590294Y-95966317D01*
X85338646Y-96042653D01*
X85106725Y-96166618D01*
X84903445Y-96333445D01*
X84736618Y-96536725D01*
X84612653Y-96768646D01*
X84536317Y-97020294D01*
X84510541Y-97282000D01*
X83499000Y-97282000D01*
X83499000Y-85852000D01*
X91622541Y-85852000D01*
X91648317Y-86113706D01*
X91724653Y-86365354D01*
X91848618Y-86597275D01*
X92015445Y-86800555D01*
X92218725Y-86967382D01*
X92450646Y-87091347D01*
X92702294Y-87167683D01*
X92898421Y-87187000D01*
X93029579Y-87187000D01*
X93225706Y-87167683D01*
X93477354Y-87091347D01*
X93709275Y-86967382D01*
X93880259Y-86827060D01*
X94865292Y-87812094D01*
X94851764Y-87856691D01*
X94824057Y-88138000D01*
X94851764Y-88419309D01*
X94933818Y-88689808D01*
X95067068Y-88939101D01*
X95246392Y-89157608D01*
X95464899Y-89336932D01*
X95597858Y-89408000D01*
X95464899Y-89479068D01*
X95246392Y-89658392D01*
X95067068Y-89876899D01*
X94933818Y-90126192D01*
X94851764Y-90396691D01*
X94824057Y-90678000D01*
X94851764Y-90959309D01*
X94933818Y-91229808D01*
X95067068Y-91479101D01*
X95246392Y-91697608D01*
X95464899Y-91876932D01*
X95597858Y-91948000D01*
X95464899Y-92019068D01*
X95246392Y-92198392D01*
X95067068Y-92416899D01*
X94933818Y-92666192D01*
X94851764Y-92936691D01*
X94824057Y-93218000D01*
X94851764Y-93499309D01*
X94933818Y-93769808D01*
X95067068Y-94019101D01*
X95246392Y-94237608D01*
X95464899Y-94416932D01*
X95597858Y-94488000D01*
X95464899Y-94559068D01*
X95246392Y-94738392D01*
X95067068Y-94956899D01*
X94933818Y-95206192D01*
X94851764Y-95476691D01*
X94824057Y-95758000D01*
X94851764Y-96039309D01*
X94933818Y-96309808D01*
X95067068Y-96559101D01*
X95246392Y-96777608D01*
X95464899Y-96956932D01*
X95597858Y-97028000D01*
X95464899Y-97099068D01*
X95246392Y-97278392D01*
X95067068Y-97496899D01*
X94933818Y-97746192D01*
X94851764Y-98016691D01*
X94824057Y-98298000D01*
X94851764Y-98579309D01*
X94933818Y-98849808D01*
X95067068Y-99099101D01*
X95246392Y-99317608D01*
X95464899Y-99496932D01*
X95597858Y-99568000D01*
X95464899Y-99639068D01*
X95246392Y-99818392D01*
X95067068Y-100036899D01*
X94933818Y-100286192D01*
X94851764Y-100556691D01*
X94824057Y-100838000D01*
X94851764Y-101119309D01*
X94933818Y-101389808D01*
X95067068Y-101639101D01*
X95246392Y-101857608D01*
X95464899Y-102036932D01*
X95597858Y-102108000D01*
X95464899Y-102179068D01*
X95246392Y-102358392D01*
X95067068Y-102576899D01*
X94933818Y-102826192D01*
X94851764Y-103096691D01*
X94824057Y-103378000D01*
X94851764Y-103659309D01*
X94933818Y-103929808D01*
X95067068Y-104179101D01*
X95246392Y-104397608D01*
X95464899Y-104576932D01*
X95597858Y-104648000D01*
X95464899Y-104719068D01*
X95246392Y-104898392D01*
X95067068Y-105116899D01*
X94933818Y-105366192D01*
X94851764Y-105636691D01*
X94824057Y-105918000D01*
X94851764Y-106199309D01*
X94933818Y-106469808D01*
X95067068Y-106719101D01*
X95246392Y-106937608D01*
X95464899Y-107116932D01*
X95597858Y-107188000D01*
X95464899Y-107259068D01*
X95246392Y-107438392D01*
X95067068Y-107656899D01*
X94933818Y-107906192D01*
X94851764Y-108176691D01*
X94824057Y-108458000D01*
X94851764Y-108739309D01*
X94933818Y-109009808D01*
X95067068Y-109259101D01*
X95246392Y-109477608D01*
X95464899Y-109656932D01*
X95597858Y-109728000D01*
X95464899Y-109799068D01*
X95246392Y-109978392D01*
X95067068Y-110196899D01*
X94933818Y-110446192D01*
X94851764Y-110716691D01*
X94824057Y-110998000D01*
X94851764Y-111279309D01*
X94933818Y-111549808D01*
X95067068Y-111799101D01*
X95246392Y-112017608D01*
X95464899Y-112196932D01*
X95597858Y-112268000D01*
X95464899Y-112339068D01*
X95246392Y-112518392D01*
X95067068Y-112736899D01*
X94933818Y-112986192D01*
X94851764Y-113256691D01*
X94824057Y-113538000D01*
X94851764Y-113819309D01*
X94933818Y-114089808D01*
X95067068Y-114339101D01*
X95246392Y-114557608D01*
X95464899Y-114736932D01*
X95714192Y-114870182D01*
X95984691Y-114952236D01*
X96195508Y-114973000D01*
X96336492Y-114973000D01*
X96547309Y-114952236D01*
X96817808Y-114870182D01*
X97067101Y-114736932D01*
X97285608Y-114557608D01*
X97464932Y-114339101D01*
X97598182Y-114089808D01*
X97680236Y-113819309D01*
X97707943Y-113538000D01*
X97680236Y-113256691D01*
X97598182Y-112986192D01*
X97464932Y-112736899D01*
X97285608Y-112518392D01*
X97067101Y-112339068D01*
X96934142Y-112268000D01*
X97067101Y-112196932D01*
X97285608Y-112017608D01*
X97464932Y-111799101D01*
X97598182Y-111549808D01*
X97680236Y-111279309D01*
X97707943Y-110998000D01*
X97680236Y-110716691D01*
X97598182Y-110446192D01*
X97464932Y-110196899D01*
X97285608Y-109978392D01*
X97067101Y-109799068D01*
X96934142Y-109728000D01*
X97067101Y-109656932D01*
X97285608Y-109477608D01*
X97464932Y-109259101D01*
X97598182Y-109009808D01*
X97680236Y-108739309D01*
X97707943Y-108458000D01*
X97680236Y-108176691D01*
X97598182Y-107906192D01*
X97464932Y-107656899D01*
X97285608Y-107438392D01*
X97067101Y-107259068D01*
X96934142Y-107188000D01*
X97067101Y-107116932D01*
X97285608Y-106937608D01*
X97464932Y-106719101D01*
X97598182Y-106469808D01*
X97680236Y-106199309D01*
X97707943Y-105918000D01*
X97680236Y-105636691D01*
X97598182Y-105366192D01*
X97464932Y-105116899D01*
X97285608Y-104898392D01*
X97067101Y-104719068D01*
X96934142Y-104648000D01*
X97067101Y-104576932D01*
X97285608Y-104397608D01*
X97464932Y-104179101D01*
X97598182Y-103929808D01*
X97680236Y-103659309D01*
X97707943Y-103378000D01*
X97680236Y-103096691D01*
X97598182Y-102826192D01*
X97464932Y-102576899D01*
X97285608Y-102358392D01*
X97067101Y-102179068D01*
X96934142Y-102108000D01*
X97067101Y-102036932D01*
X97285608Y-101857608D01*
X97464932Y-101639101D01*
X97598182Y-101389808D01*
X97680236Y-101119309D01*
X97707943Y-100838000D01*
X97680236Y-100556691D01*
X97598182Y-100286192D01*
X97464932Y-100036899D01*
X97285608Y-99818392D01*
X97067101Y-99639068D01*
X96934142Y-99568000D01*
X97067101Y-99496932D01*
X97157186Y-99423001D01*
X109617323Y-99423001D01*
X109621000Y-99460334D01*
X109620999Y-114400679D01*
X109617323Y-114438001D01*
X109620999Y-114475323D01*
X109620999Y-114475333D01*
X109631996Y-114586986D01*
X109675453Y-114730247D01*
X109746025Y-114862277D01*
X109772417Y-114894435D01*
X109840998Y-114978002D01*
X109870002Y-115001805D01*
X116029199Y-121161003D01*
X116052997Y-121190001D01*
X116168722Y-121284974D01*
X116300751Y-121355546D01*
X116444012Y-121399003D01*
X116555665Y-121410000D01*
X116555674Y-121410000D01*
X116592997Y-121413676D01*
X116630320Y-121410000D01*
X121446678Y-121410000D01*
X121484000Y-121413676D01*
X121521322Y-121410000D01*
X121521333Y-121410000D01*
X121632986Y-121399003D01*
X121776247Y-121355546D01*
X121908276Y-121284974D01*
X122024001Y-121190001D01*
X122047804Y-121160997D01*
X123253672Y-119955129D01*
X123344618Y-120125275D01*
X123511445Y-120328555D01*
X123714725Y-120495382D01*
X123946646Y-120619347D01*
X124198294Y-120695683D01*
X124394421Y-120715000D01*
X124525579Y-120715000D01*
X124721706Y-120695683D01*
X124973354Y-120619347D01*
X125205275Y-120495382D01*
X125408555Y-120328555D01*
X125575382Y-120125275D01*
X125699347Y-119893354D01*
X125775683Y-119641706D01*
X125801459Y-119380000D01*
X125775683Y-119118294D01*
X125699347Y-118866646D01*
X125575382Y-118634725D01*
X125408555Y-118431445D01*
X125205275Y-118264618D01*
X125035129Y-118173673D01*
X125109835Y-118098967D01*
X128739000Y-118098967D01*
X128739000Y-118421033D01*
X128801832Y-118736912D01*
X128925082Y-119034463D01*
X129104013Y-119302252D01*
X129331748Y-119529987D01*
X129599537Y-119708918D01*
X129897088Y-119832168D01*
X130212967Y-119895000D01*
X130535033Y-119895000D01*
X130850912Y-119832168D01*
X131148463Y-119708918D01*
X131416252Y-119529987D01*
X131550826Y-119395413D01*
X133918192Y-119395413D01*
X134013956Y-119659814D01*
X134303571Y-119800704D01*
X134615108Y-119882384D01*
X134936595Y-119901718D01*
X135255675Y-119857961D01*
X135560088Y-119752795D01*
X135734044Y-119659814D01*
X135829808Y-119395413D01*
X134874000Y-118439605D01*
X133918192Y-119395413D01*
X131550826Y-119395413D01*
X131643987Y-119302252D01*
X131822918Y-119034463D01*
X131946168Y-118736912D01*
X132009000Y-118421033D01*
X132009000Y-118322595D01*
X133232282Y-118322595D01*
X133276039Y-118641675D01*
X133381205Y-118946088D01*
X133474186Y-119120044D01*
X133738587Y-119215808D01*
X134694395Y-118260000D01*
X135053605Y-118260000D01*
X136009413Y-119215808D01*
X136273814Y-119120044D01*
X136414704Y-118830429D01*
X136496384Y-118518892D01*
X136515718Y-118197405D01*
X136471961Y-117878325D01*
X136366795Y-117573912D01*
X136273814Y-117399956D01*
X136009413Y-117304192D01*
X135053605Y-118260000D01*
X134694395Y-118260000D01*
X133738587Y-117304192D01*
X133474186Y-117399956D01*
X133333296Y-117689571D01*
X133251616Y-118001108D01*
X133232282Y-118322595D01*
X132009000Y-118322595D01*
X132009000Y-118098967D01*
X131946168Y-117783088D01*
X131822918Y-117485537D01*
X131643987Y-117217748D01*
X131550826Y-117124587D01*
X133918192Y-117124587D01*
X134874000Y-118080395D01*
X135829808Y-117124587D01*
X135734044Y-116860186D01*
X135444429Y-116719296D01*
X135132892Y-116637616D01*
X134811405Y-116618282D01*
X134492325Y-116662039D01*
X134187912Y-116767205D01*
X134013956Y-116860186D01*
X133918192Y-117124587D01*
X131550826Y-117124587D01*
X131416252Y-116990013D01*
X131148463Y-116811082D01*
X130850912Y-116687832D01*
X130535033Y-116625000D01*
X130212967Y-116625000D01*
X129897088Y-116687832D01*
X129599537Y-116811082D01*
X129331748Y-116990013D01*
X129104013Y-117217748D01*
X128925082Y-117485537D01*
X128801832Y-117783088D01*
X128739000Y-118098967D01*
X125109835Y-118098967D01*
X129882625Y-113326177D01*
X129897088Y-113332168D01*
X130212967Y-113395000D01*
X130535033Y-113395000D01*
X130850912Y-113332168D01*
X131148463Y-113208918D01*
X131416252Y-113029987D01*
X131550826Y-112895413D01*
X133918192Y-112895413D01*
X134013956Y-113159814D01*
X134303571Y-113300704D01*
X134615108Y-113382384D01*
X134936595Y-113401718D01*
X135255675Y-113357961D01*
X135560088Y-113252795D01*
X135734044Y-113159814D01*
X135829808Y-112895413D01*
X134874000Y-111939605D01*
X133918192Y-112895413D01*
X131550826Y-112895413D01*
X131643987Y-112802252D01*
X131822918Y-112534463D01*
X131946168Y-112236912D01*
X132009000Y-111921033D01*
X132009000Y-111822595D01*
X133232282Y-111822595D01*
X133276039Y-112141675D01*
X133381205Y-112446088D01*
X133474186Y-112620044D01*
X133738587Y-112715808D01*
X134694395Y-111760000D01*
X135053605Y-111760000D01*
X136009413Y-112715808D01*
X136273814Y-112620044D01*
X136414704Y-112330429D01*
X136496384Y-112018892D01*
X136515718Y-111697405D01*
X136471961Y-111378325D01*
X136366795Y-111073912D01*
X136273814Y-110899956D01*
X136009413Y-110804192D01*
X135053605Y-111760000D01*
X134694395Y-111760000D01*
X133738587Y-110804192D01*
X133474186Y-110899956D01*
X133333296Y-111189571D01*
X133251616Y-111501108D01*
X133232282Y-111822595D01*
X132009000Y-111822595D01*
X132009000Y-111598967D01*
X131946168Y-111283088D01*
X131822918Y-110985537D01*
X131643987Y-110717748D01*
X131550826Y-110624587D01*
X133918192Y-110624587D01*
X134874000Y-111580395D01*
X135829808Y-110624587D01*
X135734044Y-110360186D01*
X135444429Y-110219296D01*
X135132892Y-110137616D01*
X134811405Y-110118282D01*
X134492325Y-110162039D01*
X134187912Y-110267205D01*
X134013956Y-110360186D01*
X133918192Y-110624587D01*
X131550826Y-110624587D01*
X131416252Y-110490013D01*
X131148463Y-110311082D01*
X130850912Y-110187832D01*
X130535033Y-110125000D01*
X130212967Y-110125000D01*
X129897088Y-110187832D01*
X129599537Y-110311082D01*
X129331748Y-110490013D01*
X129104013Y-110717748D01*
X128925082Y-110985537D01*
X128801832Y-111283088D01*
X128739000Y-111598967D01*
X128739000Y-111921033D01*
X128801832Y-112236912D01*
X128807823Y-112251375D01*
X121959916Y-119099283D01*
X121889347Y-118866646D01*
X121765382Y-118634725D01*
X121598555Y-118431445D01*
X121410000Y-118276702D01*
X121410000Y-117124324D01*
X121413676Y-117087001D01*
X121410000Y-117049678D01*
X121410000Y-117049669D01*
X121399003Y-116938016D01*
X121355546Y-116794755D01*
X121298394Y-116687832D01*
X121284974Y-116662725D01*
X121213799Y-116575999D01*
X121190001Y-116547001D01*
X121161003Y-116523203D01*
X117537401Y-112899602D01*
X117691013Y-112796962D01*
X117876962Y-112611013D01*
X118023061Y-112392359D01*
X118123696Y-112149405D01*
X118175000Y-111891486D01*
X118175000Y-111628514D01*
X118153645Y-111521156D01*
X119890000Y-109784801D01*
X119890000Y-110662225D01*
X119798987Y-110723038D01*
X119613038Y-110908987D01*
X119466939Y-111127641D01*
X119366304Y-111370595D01*
X119315000Y-111628514D01*
X119315000Y-111891486D01*
X119366304Y-112149405D01*
X119466939Y-112392359D01*
X119613038Y-112611013D01*
X119798987Y-112796962D01*
X120017641Y-112943061D01*
X120260595Y-113043696D01*
X120518514Y-113095000D01*
X120781486Y-113095000D01*
X121039405Y-113043696D01*
X121282359Y-112943061D01*
X121501013Y-112796962D01*
X121686962Y-112611013D01*
X121833061Y-112392359D01*
X121933696Y-112149405D01*
X121985000Y-111891486D01*
X121985000Y-111628514D01*
X121933696Y-111370595D01*
X121833061Y-111127641D01*
X121686962Y-110908987D01*
X121501013Y-110723038D01*
X121410000Y-110662225D01*
X121410000Y-107876801D01*
X124400000Y-104886801D01*
X124399999Y-110425000D01*
X124328514Y-110425000D01*
X124070595Y-110476304D01*
X123827641Y-110576939D01*
X123608987Y-110723038D01*
X123423038Y-110908987D01*
X123276939Y-111127641D01*
X123176304Y-111370595D01*
X123125000Y-111628514D01*
X123125000Y-111891486D01*
X123176304Y-112149405D01*
X123276939Y-112392359D01*
X123423038Y-112611013D01*
X123608987Y-112796962D01*
X123827641Y-112943061D01*
X124070595Y-113043696D01*
X124328514Y-113095000D01*
X124591486Y-113095000D01*
X124849405Y-113043696D01*
X125092359Y-112943061D01*
X125311013Y-112796962D01*
X125496962Y-112611013D01*
X125643061Y-112392359D01*
X125743696Y-112149405D01*
X125795000Y-111891486D01*
X125795000Y-111628514D01*
X125771901Y-111512391D01*
X125794973Y-111484278D01*
X125865545Y-111352248D01*
X125886524Y-111283088D01*
X125909002Y-111208987D01*
X125919999Y-111097334D01*
X125919999Y-111097325D01*
X125923675Y-111060002D01*
X125919999Y-111022679D01*
X125919999Y-104263800D01*
X128051928Y-102131871D01*
X128051928Y-102704000D01*
X128064188Y-102828482D01*
X128100498Y-102948180D01*
X128159463Y-103058494D01*
X128238815Y-103155185D01*
X128335506Y-103234537D01*
X128445820Y-103293502D01*
X128565518Y-103329812D01*
X128690000Y-103342072D01*
X130390000Y-103342072D01*
X130514482Y-103329812D01*
X130634180Y-103293502D01*
X130744494Y-103234537D01*
X130841185Y-103155185D01*
X130920537Y-103058494D01*
X130979502Y-102948180D01*
X131000393Y-102879313D01*
X131024866Y-102909134D01*
X131250986Y-103094706D01*
X131508966Y-103232599D01*
X131788889Y-103317513D01*
X132007050Y-103339000D01*
X132152950Y-103339000D01*
X132371111Y-103317513D01*
X132651034Y-103232599D01*
X132716362Y-103197680D01*
X140372439Y-103197680D01*
X140412937Y-103461501D01*
X140504125Y-103712353D01*
X140560632Y-103818068D01*
X140796440Y-103879955D01*
X141552395Y-103124000D01*
X140796440Y-102368045D01*
X140560632Y-102429932D01*
X140447734Y-102671790D01*
X140384189Y-102931027D01*
X140372439Y-103197680D01*
X132716362Y-103197680D01*
X132909014Y-103094706D01*
X133135134Y-102909134D01*
X133320706Y-102683014D01*
X133458599Y-102425034D01*
X133543513Y-102145111D01*
X133572185Y-101854000D01*
X133543513Y-101562889D01*
X133458599Y-101282966D01*
X133320706Y-101024986D01*
X133135134Y-100798866D01*
X132909014Y-100613294D01*
X132651034Y-100475401D01*
X132371111Y-100390487D01*
X132152950Y-100369000D01*
X132007050Y-100369000D01*
X131788889Y-100390487D01*
X131508966Y-100475401D01*
X131250986Y-100613294D01*
X131024866Y-100798866D01*
X131000393Y-100828687D01*
X130979502Y-100759820D01*
X130920537Y-100649506D01*
X130841185Y-100552815D01*
X130744494Y-100473463D01*
X130634180Y-100414498D01*
X130514482Y-100378188D01*
X130390000Y-100365928D01*
X129817872Y-100365928D01*
X133411800Y-96772000D01*
X134394680Y-96772000D01*
X134400498Y-96791180D01*
X134459463Y-96901494D01*
X134538815Y-96998185D01*
X134635506Y-97077537D01*
X134745820Y-97136502D01*
X134865518Y-97172812D01*
X134990000Y-97185072D01*
X136790000Y-97185072D01*
X136914482Y-97172812D01*
X137034180Y-97136502D01*
X137144494Y-97077537D01*
X137241185Y-96998185D01*
X137320537Y-96901494D01*
X137379502Y-96791180D01*
X137415812Y-96671482D01*
X137428072Y-96547000D01*
X137428072Y-95477000D01*
X137415812Y-95352518D01*
X137379502Y-95232820D01*
X137342615Y-95163810D01*
X137383900Y-95049383D01*
X137258244Y-94869000D01*
X136973200Y-94869000D01*
X136914482Y-94851188D01*
X136790000Y-94838928D01*
X135743000Y-94838928D01*
X135743000Y-94642000D01*
X136312477Y-94642000D01*
X136484360Y-94625071D01*
X136517560Y-94615000D01*
X137258244Y-94615000D01*
X137383900Y-94434617D01*
X137298377Y-94197579D01*
X137240846Y-94109596D01*
X137341169Y-93921906D01*
X137408071Y-93701360D01*
X137430661Y-93472000D01*
X137408071Y-93242640D01*
X137341169Y-93022094D01*
X137242234Y-92837000D01*
X137341169Y-92651906D01*
X137347947Y-92629560D01*
X140976045Y-92629560D01*
X141037932Y-92865368D01*
X141279790Y-92978266D01*
X141539027Y-93041811D01*
X141805680Y-93053561D01*
X142069501Y-93013063D01*
X142320353Y-92921875D01*
X142426068Y-92865368D01*
X142487955Y-92629560D01*
X141732000Y-91873605D01*
X140976045Y-92629560D01*
X137347947Y-92629560D01*
X137408071Y-92431360D01*
X137430661Y-92202000D01*
X137408071Y-91972640D01*
X137345897Y-91767680D01*
X140372439Y-91767680D01*
X140412937Y-92031501D01*
X140504125Y-92282353D01*
X140560632Y-92388068D01*
X140796440Y-92449955D01*
X141552395Y-91694000D01*
X140796440Y-90938045D01*
X140560632Y-90999932D01*
X140447734Y-91241790D01*
X140384189Y-91501027D01*
X140372439Y-91767680D01*
X137345897Y-91767680D01*
X137341169Y-91752094D01*
X137232526Y-91548838D01*
X137086318Y-91370682D01*
X136908162Y-91224474D01*
X136704906Y-91115831D01*
X136484360Y-91048929D01*
X136312477Y-91032000D01*
X135467523Y-91032000D01*
X135295640Y-91048929D01*
X135075094Y-91115831D01*
X134871838Y-91224474D01*
X134693682Y-91370682D01*
X134629216Y-91449234D01*
X134591014Y-91452997D01*
X134475659Y-91487989D01*
X134447753Y-91496454D01*
X134315723Y-91567026D01*
X134271035Y-91603701D01*
X134199999Y-91661999D01*
X134176201Y-91690997D01*
X119485999Y-106381200D01*
X119457001Y-106404998D01*
X119433203Y-106433996D01*
X119433202Y-106433997D01*
X119362027Y-106520723D01*
X119291455Y-106652753D01*
X119266591Y-106734723D01*
X119247999Y-106796013D01*
X119237002Y-106907666D01*
X119233325Y-106944999D01*
X119237002Y-106982331D01*
X119237001Y-108288197D01*
X117078844Y-110446355D01*
X116971486Y-110425000D01*
X116708514Y-110425000D01*
X116450595Y-110476304D01*
X116207641Y-110576939D01*
X115988987Y-110723038D01*
X115803038Y-110908987D01*
X115700398Y-111062599D01*
X113391001Y-108753202D01*
X113391001Y-107080323D01*
X113394677Y-107043000D01*
X113391001Y-107005677D01*
X113391001Y-107005668D01*
X113380004Y-106894015D01*
X113336547Y-106750754D01*
X113265975Y-106618725D01*
X113171002Y-106503000D01*
X113141998Y-106479197D01*
X112906708Y-106243907D01*
X112920236Y-106199309D01*
X112947943Y-105918000D01*
X112920236Y-105636691D01*
X112838182Y-105366192D01*
X112704932Y-105116899D01*
X112525608Y-104898392D01*
X112307101Y-104719068D01*
X112174142Y-104648000D01*
X112307101Y-104576932D01*
X112525608Y-104397608D01*
X112704932Y-104179101D01*
X112838182Y-103929808D01*
X112873098Y-103814702D01*
X118058903Y-103814702D01*
X118130486Y-104058671D01*
X118385996Y-104179571D01*
X118660184Y-104248300D01*
X118942512Y-104262217D01*
X119222130Y-104220787D01*
X119488292Y-104125603D01*
X119613514Y-104058671D01*
X119685097Y-103814702D01*
X118872000Y-103001605D01*
X118058903Y-103814702D01*
X112873098Y-103814702D01*
X112920236Y-103659309D01*
X112947943Y-103378000D01*
X112920236Y-103096691D01*
X112858300Y-102892512D01*
X117431783Y-102892512D01*
X117473213Y-103172130D01*
X117568397Y-103438292D01*
X117635329Y-103563514D01*
X117879298Y-103635097D01*
X118692395Y-102822000D01*
X119051605Y-102822000D01*
X119864702Y-103635097D01*
X120108671Y-103563514D01*
X120229571Y-103308004D01*
X120298300Y-103033816D01*
X120312217Y-102751488D01*
X120270787Y-102471870D01*
X120175603Y-102205708D01*
X120108671Y-102080486D01*
X119864702Y-102008903D01*
X119051605Y-102822000D01*
X118692395Y-102822000D01*
X117879298Y-102008903D01*
X117635329Y-102080486D01*
X117514429Y-102335996D01*
X117445700Y-102610184D01*
X117431783Y-102892512D01*
X112858300Y-102892512D01*
X112838182Y-102826192D01*
X112704932Y-102576899D01*
X112525608Y-102358392D01*
X112307101Y-102179068D01*
X112174142Y-102108000D01*
X112307101Y-102036932D01*
X112525608Y-101857608D01*
X112548841Y-101829298D01*
X118058903Y-101829298D01*
X118872000Y-102642395D01*
X119685097Y-101829298D01*
X119613514Y-101585329D01*
X119358004Y-101464429D01*
X119083816Y-101395700D01*
X118801488Y-101381783D01*
X118521870Y-101423213D01*
X118255708Y-101518397D01*
X118130486Y-101585329D01*
X118058903Y-101829298D01*
X112548841Y-101829298D01*
X112704932Y-101639101D01*
X112838182Y-101389808D01*
X112920236Y-101119309D01*
X112947943Y-100838000D01*
X112920236Y-100556691D01*
X112838182Y-100286192D01*
X112704932Y-100036899D01*
X112525608Y-99818392D01*
X112357788Y-99680665D01*
X117437000Y-99680665D01*
X117437000Y-99963335D01*
X117492147Y-100240574D01*
X117600320Y-100501727D01*
X117757363Y-100736759D01*
X117957241Y-100936637D01*
X118192273Y-101093680D01*
X118453426Y-101201853D01*
X118730665Y-101257000D01*
X119013335Y-101257000D01*
X119290574Y-101201853D01*
X119551727Y-101093680D01*
X119786759Y-100936637D01*
X119986637Y-100736759D01*
X120143680Y-100501727D01*
X120251853Y-100240574D01*
X120307000Y-99963335D01*
X120307000Y-99680665D01*
X120251853Y-99403426D01*
X120143680Y-99142273D01*
X119986637Y-98907241D01*
X119786759Y-98707363D01*
X119551727Y-98550320D01*
X119290574Y-98442147D01*
X119013335Y-98387000D01*
X118730665Y-98387000D01*
X118453426Y-98442147D01*
X118192273Y-98550320D01*
X117957241Y-98707363D01*
X117757363Y-98907241D01*
X117600320Y-99142273D01*
X117492147Y-99403426D01*
X117437000Y-99680665D01*
X112357788Y-99680665D01*
X112307101Y-99639068D01*
X112174142Y-99568000D01*
X112307101Y-99496932D01*
X112525608Y-99317608D01*
X112704932Y-99099101D01*
X112838182Y-98849808D01*
X112920236Y-98579309D01*
X112947943Y-98298000D01*
X112920236Y-98016691D01*
X112838182Y-97746192D01*
X112704932Y-97496899D01*
X112525608Y-97278392D01*
X112307101Y-97099068D01*
X112174142Y-97028000D01*
X112307101Y-96956932D01*
X112525608Y-96777608D01*
X112704932Y-96559101D01*
X112838182Y-96309808D01*
X112920236Y-96039309D01*
X112947943Y-95758000D01*
X112920236Y-95476691D01*
X112838182Y-95206192D01*
X112704932Y-94956899D01*
X112525608Y-94738392D01*
X112307101Y-94559068D01*
X112174142Y-94488000D01*
X112307101Y-94416932D01*
X112448909Y-94300553D01*
X122665009Y-94300553D01*
X122707603Y-94599907D01*
X122807778Y-94885199D01*
X122887739Y-95034792D01*
X123141920Y-95118475D01*
X124026395Y-94234000D01*
X123141920Y-93349525D01*
X122887739Y-93433208D01*
X122756842Y-93705775D01*
X122681635Y-93998642D01*
X122665009Y-94300553D01*
X112448909Y-94300553D01*
X112525608Y-94237608D01*
X112704932Y-94019101D01*
X112838182Y-93769808D01*
X112920236Y-93499309D01*
X112947943Y-93218000D01*
X112920236Y-92936691D01*
X112906708Y-92892093D01*
X113141998Y-92656803D01*
X113171002Y-92633000D01*
X113265975Y-92517275D01*
X113336547Y-92385246D01*
X113380004Y-92241985D01*
X113391001Y-92130332D01*
X113391001Y-92130323D01*
X113394677Y-92093000D01*
X113391001Y-92055677D01*
X113391001Y-78740000D01*
X117633815Y-78740000D01*
X117662487Y-79031111D01*
X117747401Y-79311034D01*
X117885294Y-79569014D01*
X118070866Y-79795134D01*
X118100687Y-79819607D01*
X118031820Y-79840498D01*
X117921506Y-79899463D01*
X117824815Y-79978815D01*
X117745463Y-80075506D01*
X117686498Y-80185820D01*
X117650188Y-80305518D01*
X117637928Y-80430000D01*
X117637928Y-82130000D01*
X117650188Y-82254482D01*
X117686498Y-82374180D01*
X117745463Y-82484494D01*
X117824815Y-82581185D01*
X117921506Y-82660537D01*
X118031820Y-82719502D01*
X118151518Y-82755812D01*
X118276000Y-82768072D01*
X118471674Y-82768072D01*
X118491026Y-82804276D01*
X118562201Y-82891002D01*
X118586000Y-82920001D01*
X118614998Y-82943799D01*
X124671001Y-88999803D01*
X124671001Y-90225138D01*
X124653743Y-90217989D01*
X124357184Y-90159000D01*
X124054816Y-90159000D01*
X123758257Y-90217989D01*
X123478905Y-90333701D01*
X123227495Y-90501688D01*
X123013688Y-90715495D01*
X122845701Y-90966905D01*
X122729989Y-91246257D01*
X122671000Y-91542816D01*
X122671000Y-91845184D01*
X122729989Y-92141743D01*
X122845701Y-92421095D01*
X123013688Y-92672505D01*
X123227495Y-92886312D01*
X123381105Y-92988951D01*
X123321525Y-93169920D01*
X124206000Y-94054395D01*
X124220143Y-94040253D01*
X124399748Y-94219858D01*
X124385605Y-94234000D01*
X124399748Y-94248143D01*
X124220143Y-94427748D01*
X124206000Y-94413605D01*
X123360193Y-95259412D01*
X123215162Y-95303407D01*
X123061903Y-95385325D01*
X122927570Y-95495570D01*
X122817325Y-95629903D01*
X122735407Y-95783162D01*
X122684961Y-95949458D01*
X122667928Y-96122400D01*
X122667928Y-97425600D01*
X122684961Y-97598542D01*
X122735407Y-97764838D01*
X122817325Y-97918097D01*
X122927570Y-98052430D01*
X123061903Y-98162675D01*
X123215162Y-98244593D01*
X123381458Y-98295039D01*
X123554400Y-98312072D01*
X124857600Y-98312072D01*
X125030542Y-98295039D01*
X125196838Y-98244593D01*
X125350097Y-98162675D01*
X125484430Y-98052430D01*
X125594675Y-97918097D01*
X125676593Y-97764838D01*
X125727039Y-97598542D01*
X125744072Y-97425600D01*
X125744072Y-96310729D01*
X125941998Y-96112803D01*
X125971002Y-96089000D01*
X126065975Y-95973275D01*
X126136547Y-95841246D01*
X126180004Y-95697985D01*
X126191001Y-95586332D01*
X126191001Y-95586322D01*
X126194677Y-95548999D01*
X126191001Y-95511676D01*
X126191001Y-90758440D01*
X140976045Y-90758440D01*
X141732000Y-91514395D01*
X142487955Y-90758440D01*
X142426068Y-90522632D01*
X142184210Y-90409734D01*
X141924973Y-90346189D01*
X141658320Y-90334439D01*
X141394499Y-90374937D01*
X141143647Y-90466125D01*
X141037932Y-90522632D01*
X140976045Y-90758440D01*
X126191001Y-90758440D01*
X126191001Y-89154000D01*
X128047815Y-89154000D01*
X128076487Y-89445111D01*
X128161401Y-89725034D01*
X128299294Y-89983014D01*
X128484866Y-90209134D01*
X128710986Y-90394706D01*
X128968966Y-90532599D01*
X129248889Y-90617513D01*
X129467050Y-90639000D01*
X129612950Y-90639000D01*
X129831111Y-90617513D01*
X130111034Y-90532599D01*
X130369014Y-90394706D01*
X130595134Y-90209134D01*
X130619607Y-90179313D01*
X130640498Y-90248180D01*
X130699463Y-90358494D01*
X130778815Y-90455185D01*
X130875506Y-90534537D01*
X130985820Y-90593502D01*
X131105518Y-90629812D01*
X131230000Y-90642072D01*
X132930000Y-90642072D01*
X133054482Y-90629812D01*
X133174180Y-90593502D01*
X133284494Y-90534537D01*
X133381185Y-90455185D01*
X133460537Y-90358494D01*
X133519502Y-90248180D01*
X133555812Y-90128482D01*
X133568072Y-90004000D01*
X133568072Y-88404000D01*
X134247928Y-88404000D01*
X134247928Y-89904000D01*
X134260188Y-90028482D01*
X134296498Y-90148180D01*
X134355463Y-90258494D01*
X134434815Y-90355185D01*
X134531506Y-90434537D01*
X134641820Y-90493502D01*
X134761518Y-90529812D01*
X134886000Y-90542072D01*
X136386000Y-90542072D01*
X136510482Y-90529812D01*
X136630180Y-90493502D01*
X136740494Y-90434537D01*
X136837185Y-90355185D01*
X136916537Y-90258494D01*
X136975502Y-90148180D01*
X137011812Y-90028482D01*
X137024072Y-89904000D01*
X137024072Y-88404000D01*
X137011812Y-88279518D01*
X136975502Y-88159820D01*
X136916537Y-88049506D01*
X136837185Y-87952815D01*
X136740494Y-87873463D01*
X136630180Y-87814498D01*
X136510482Y-87778188D01*
X136386000Y-87765928D01*
X134886000Y-87765928D01*
X134761518Y-87778188D01*
X134641820Y-87814498D01*
X134531506Y-87873463D01*
X134434815Y-87952815D01*
X134355463Y-88049506D01*
X134296498Y-88159820D01*
X134260188Y-88279518D01*
X134247928Y-88404000D01*
X133568072Y-88404000D01*
X133568072Y-88304000D01*
X133555812Y-88179518D01*
X133519502Y-88059820D01*
X133460537Y-87949506D01*
X133406778Y-87884000D01*
X133460537Y-87818494D01*
X133519502Y-87708180D01*
X133555812Y-87588482D01*
X133568072Y-87464000D01*
X133565000Y-86899750D01*
X133406250Y-86741000D01*
X132207000Y-86741000D01*
X132207000Y-86761000D01*
X131953000Y-86761000D01*
X131953000Y-86741000D01*
X129667000Y-86741000D01*
X129667000Y-86761000D01*
X129413000Y-86761000D01*
X129413000Y-86741000D01*
X128219186Y-86741000D01*
X128098519Y-86970891D01*
X128195843Y-87245252D01*
X128344822Y-87495355D01*
X128539731Y-87711588D01*
X128768756Y-87882416D01*
X128710986Y-87913294D01*
X128484866Y-88098866D01*
X128299294Y-88324986D01*
X128161401Y-88582966D01*
X128076487Y-88862889D01*
X128047815Y-89154000D01*
X126191001Y-89154000D01*
X126191001Y-88722324D01*
X126194677Y-88685001D01*
X126191001Y-88647678D01*
X126191001Y-88647668D01*
X126180004Y-88536015D01*
X126136547Y-88392754D01*
X126100324Y-88324986D01*
X126065975Y-88260724D01*
X125994800Y-88173998D01*
X125971002Y-88145000D01*
X125942005Y-88121203D01*
X124077911Y-86257109D01*
X128098519Y-86257109D01*
X128219186Y-86487000D01*
X129413000Y-86487000D01*
X129413000Y-85293845D01*
X129667000Y-85293845D01*
X129667000Y-86487000D01*
X131953000Y-86487000D01*
X131953000Y-85287750D01*
X132207000Y-85287750D01*
X132207000Y-86487000D01*
X133406250Y-86487000D01*
X133565000Y-86328250D01*
X133568072Y-85764000D01*
X133555812Y-85639518D01*
X133519502Y-85519820D01*
X133460537Y-85409506D01*
X133381185Y-85312815D01*
X133284494Y-85233463D01*
X133174180Y-85174498D01*
X133054482Y-85138188D01*
X132930000Y-85125928D01*
X132365750Y-85129000D01*
X132207000Y-85287750D01*
X131953000Y-85287750D01*
X131794250Y-85129000D01*
X131230000Y-85125928D01*
X131105518Y-85138188D01*
X130985820Y-85174498D01*
X130875506Y-85233463D01*
X130778815Y-85312815D01*
X130699463Y-85409506D01*
X130640498Y-85519820D01*
X130616034Y-85600466D01*
X130540269Y-85516412D01*
X130306920Y-85342359D01*
X130044099Y-85217175D01*
X129896890Y-85172524D01*
X129667000Y-85293845D01*
X129413000Y-85293845D01*
X129183110Y-85172524D01*
X129035901Y-85217175D01*
X128773080Y-85342359D01*
X128539731Y-85516412D01*
X128344822Y-85732645D01*
X128195843Y-85982748D01*
X128098519Y-86257109D01*
X124077911Y-86257109D01*
X120413345Y-82592543D01*
X120427185Y-82581185D01*
X120506537Y-82484494D01*
X120565502Y-82374180D01*
X120601812Y-82254482D01*
X120614072Y-82130000D01*
X120614072Y-80430000D01*
X120601812Y-80305518D01*
X120565502Y-80185820D01*
X120506537Y-80075506D01*
X120427185Y-79978815D01*
X120330494Y-79899463D01*
X120220180Y-79840498D01*
X120151313Y-79819607D01*
X120181134Y-79795134D01*
X120366706Y-79569014D01*
X120504599Y-79311034D01*
X120589513Y-79031111D01*
X120618185Y-78740000D01*
X120589513Y-78448889D01*
X120504599Y-78168966D01*
X120366706Y-77910986D01*
X120181134Y-77684866D01*
X119955014Y-77499294D01*
X119697034Y-77361401D01*
X119417111Y-77276487D01*
X119198950Y-77255000D01*
X119053050Y-77255000D01*
X118834889Y-77276487D01*
X118554966Y-77361401D01*
X118296986Y-77499294D01*
X118070866Y-77684866D01*
X117885294Y-77910986D01*
X117747401Y-78168966D01*
X117662487Y-78448889D01*
X117633815Y-78740000D01*
X113391001Y-78740000D01*
X113391001Y-78550798D01*
X114872799Y-77069001D01*
X126345677Y-77069001D01*
X126382999Y-77072677D01*
X126420321Y-77069001D01*
X126420332Y-77069001D01*
X126531985Y-77058004D01*
X126675246Y-77014547D01*
X126807275Y-76943975D01*
X126923000Y-76849002D01*
X126946803Y-76819999D01*
X127182094Y-76584708D01*
X127226691Y-76598236D01*
X127437508Y-76619000D01*
X127578492Y-76619000D01*
X127789309Y-76598236D01*
X127833906Y-76584708D01*
X128069202Y-76820004D01*
X128093000Y-76849002D01*
X128208725Y-76943975D01*
X128340754Y-77014547D01*
X128484015Y-77058004D01*
X128595668Y-77069001D01*
X128595676Y-77069001D01*
X128633001Y-77072677D01*
X128670326Y-77069001D01*
X133965677Y-77069001D01*
X134002999Y-77072677D01*
X134040321Y-77069001D01*
X134040332Y-77069001D01*
X134151985Y-77058004D01*
X134295246Y-77014547D01*
X134427275Y-76943975D01*
X134543000Y-76849002D01*
X134566803Y-76819998D01*
X134802093Y-76584708D01*
X134846691Y-76598236D01*
X135057508Y-76619000D01*
X135198492Y-76619000D01*
X135409309Y-76598236D01*
X135625999Y-76532504D01*
X135626000Y-80149000D01*
X135567963Y-80149000D01*
X135364493Y-80169040D01*
X135103419Y-80248236D01*
X134862812Y-80376843D01*
X134651919Y-80549919D01*
X134478843Y-80760812D01*
X134350236Y-81001419D01*
X134271040Y-81262493D01*
X134244299Y-81534000D01*
X134271040Y-81805507D01*
X134350236Y-82066581D01*
X134478843Y-82307188D01*
X134651919Y-82518081D01*
X134862812Y-82691157D01*
X135103419Y-82819764D01*
X135364493Y-82898960D01*
X135567963Y-82919000D01*
X135704037Y-82919000D01*
X135907507Y-82898960D01*
X136168581Y-82819764D01*
X136409188Y-82691157D01*
X136620081Y-82518081D01*
X136793157Y-82307188D01*
X136800206Y-82294000D01*
X137353199Y-82294000D01*
X140401346Y-85342148D01*
X140377000Y-85464544D01*
X140377000Y-85731456D01*
X140429072Y-85993239D01*
X140531215Y-86239833D01*
X140679503Y-86461762D01*
X140868238Y-86650497D01*
X141090167Y-86798785D01*
X141336761Y-86900928D01*
X141598544Y-86953000D01*
X141865456Y-86953000D01*
X141987853Y-86928654D01*
X143004001Y-87944803D01*
X143004000Y-91227033D01*
X142959875Y-91105647D01*
X142903368Y-90999932D01*
X142667560Y-90938045D01*
X141911605Y-91694000D01*
X142667560Y-92449955D01*
X142903368Y-92388068D01*
X143004000Y-92172486D01*
X143004000Y-94427198D01*
X141987852Y-95443346D01*
X141865456Y-95419000D01*
X141598544Y-95419000D01*
X141336761Y-95471072D01*
X141090167Y-95573215D01*
X140868238Y-95721503D01*
X140679503Y-95910238D01*
X140531215Y-96132167D01*
X140429072Y-96378761D01*
X140377000Y-96640544D01*
X140377000Y-96907456D01*
X140429072Y-97169239D01*
X140531215Y-97415833D01*
X140679503Y-97637762D01*
X140868238Y-97826497D01*
X141090167Y-97974785D01*
X141336761Y-98076928D01*
X141598544Y-98129000D01*
X141865456Y-98129000D01*
X141987853Y-98104654D01*
X142017002Y-98133803D01*
X142017002Y-101798747D01*
X141924973Y-101776189D01*
X141658320Y-101764439D01*
X141394499Y-101804937D01*
X141143647Y-101896125D01*
X141037932Y-101952632D01*
X140976045Y-102188440D01*
X141732000Y-102944395D01*
X141746143Y-102930253D01*
X141925748Y-103109858D01*
X141911605Y-103124000D01*
X141925748Y-103138143D01*
X141746143Y-103317748D01*
X141732000Y-103303605D01*
X140976045Y-104059560D01*
X141037932Y-104295368D01*
X141279790Y-104408266D01*
X141539027Y-104471811D01*
X141805680Y-104483561D01*
X142017001Y-104451122D01*
X142017001Y-106844197D01*
X141987852Y-106873346D01*
X141865456Y-106849000D01*
X141598544Y-106849000D01*
X141336761Y-106901072D01*
X141090167Y-107003215D01*
X140868238Y-107151503D01*
X140679503Y-107340238D01*
X140531215Y-107562167D01*
X140429072Y-107808761D01*
X140377000Y-108070544D01*
X140377000Y-108337456D01*
X140429072Y-108599239D01*
X140531215Y-108845833D01*
X140679503Y-109067762D01*
X140868238Y-109256497D01*
X141090167Y-109404785D01*
X141336761Y-109506928D01*
X141598544Y-109559000D01*
X141865456Y-109559000D01*
X142127239Y-109506928D01*
X142373833Y-109404785D01*
X142595762Y-109256497D01*
X142784497Y-109067762D01*
X142932785Y-108845833D01*
X143034928Y-108599239D01*
X143087000Y-108337456D01*
X143087000Y-108070544D01*
X143062654Y-107948148D01*
X143288005Y-107722797D01*
X143317002Y-107699000D01*
X143411975Y-107583275D01*
X143482547Y-107451246D01*
X143526004Y-107307985D01*
X143537001Y-107196332D01*
X143537001Y-107196331D01*
X143540678Y-107158999D01*
X143537001Y-107121666D01*
X143537001Y-105530544D01*
X145457000Y-105530544D01*
X145457000Y-105797456D01*
X145509072Y-106059239D01*
X145611215Y-106305833D01*
X145759503Y-106527762D01*
X145948238Y-106716497D01*
X146170167Y-106864785D01*
X146416761Y-106966928D01*
X146678544Y-107019000D01*
X146945456Y-107019000D01*
X147207239Y-106966928D01*
X147453833Y-106864785D01*
X147675762Y-106716497D01*
X147864497Y-106527762D01*
X148012785Y-106305833D01*
X148114928Y-106059239D01*
X148167000Y-105797456D01*
X148167000Y-105530544D01*
X148114928Y-105268761D01*
X148012785Y-105022167D01*
X147864497Y-104800238D01*
X147675762Y-104611503D01*
X147453833Y-104463215D01*
X147207239Y-104361072D01*
X146945456Y-104309000D01*
X146678544Y-104309000D01*
X146416761Y-104361072D01*
X146170167Y-104463215D01*
X145948238Y-104611503D01*
X145759503Y-104800238D01*
X145611215Y-105022167D01*
X145509072Y-105268761D01*
X145457000Y-105530544D01*
X143537001Y-105530544D01*
X143537001Y-97856323D01*
X143540677Y-97819000D01*
X143537001Y-97781677D01*
X143537001Y-97781668D01*
X143526004Y-97670015D01*
X143482547Y-97526754D01*
X143411975Y-97394725D01*
X143317002Y-97279000D01*
X143287998Y-97255197D01*
X143062654Y-97029853D01*
X143087000Y-96907456D01*
X143087000Y-96640544D01*
X143062654Y-96518148D01*
X144275004Y-95305798D01*
X144304001Y-95282001D01*
X144366216Y-95206192D01*
X144398974Y-95166277D01*
X144469546Y-95034247D01*
X144484424Y-94985200D01*
X144513003Y-94890986D01*
X144524000Y-94779333D01*
X144524000Y-94779323D01*
X144527676Y-94742000D01*
X144524000Y-94704677D01*
X144524000Y-94100544D01*
X145457000Y-94100544D01*
X145457000Y-94367456D01*
X145509072Y-94629239D01*
X145611215Y-94875833D01*
X145759503Y-95097762D01*
X145948238Y-95286497D01*
X146170167Y-95434785D01*
X146416761Y-95536928D01*
X146678544Y-95589000D01*
X146945456Y-95589000D01*
X147207239Y-95536928D01*
X147453833Y-95434785D01*
X147675762Y-95286497D01*
X147864497Y-95097762D01*
X148012785Y-94875833D01*
X148114928Y-94629239D01*
X148167000Y-94367456D01*
X148167000Y-94100544D01*
X148114928Y-93838761D01*
X148012785Y-93592167D01*
X147864497Y-93370238D01*
X147675762Y-93181503D01*
X147453833Y-93033215D01*
X147207239Y-92931072D01*
X146945456Y-92879000D01*
X146678544Y-92879000D01*
X146416761Y-92931072D01*
X146170167Y-93033215D01*
X145948238Y-93181503D01*
X145759503Y-93370238D01*
X145611215Y-93592167D01*
X145509072Y-93838761D01*
X145457000Y-94100544D01*
X144524000Y-94100544D01*
X144524000Y-87667333D01*
X144527677Y-87630000D01*
X144513003Y-87481014D01*
X144469546Y-87337753D01*
X144398974Y-87205724D01*
X144327799Y-87118997D01*
X144304001Y-87089999D01*
X144275003Y-87066201D01*
X143062654Y-85853853D01*
X143087000Y-85731456D01*
X143087000Y-85464544D01*
X143034928Y-85202761D01*
X142932785Y-84956167D01*
X142784497Y-84734238D01*
X142595762Y-84545503D01*
X142373833Y-84397215D01*
X142127239Y-84295072D01*
X141865456Y-84243000D01*
X141598544Y-84243000D01*
X141476148Y-84267346D01*
X140133346Y-82924544D01*
X145457000Y-82924544D01*
X145457000Y-83191456D01*
X145509072Y-83453239D01*
X145611215Y-83699833D01*
X145759503Y-83921762D01*
X145948238Y-84110497D01*
X146170167Y-84258785D01*
X146416761Y-84360928D01*
X146678544Y-84413000D01*
X146945456Y-84413000D01*
X147207239Y-84360928D01*
X147453833Y-84258785D01*
X147675762Y-84110497D01*
X147864497Y-83921762D01*
X148012785Y-83699833D01*
X148114928Y-83453239D01*
X148167000Y-83191456D01*
X148167000Y-82924544D01*
X148114928Y-82662761D01*
X148012785Y-82416167D01*
X147864497Y-82194238D01*
X147675762Y-82005503D01*
X147453833Y-81857215D01*
X147207239Y-81755072D01*
X146945456Y-81703000D01*
X146678544Y-81703000D01*
X146416761Y-81755072D01*
X146170167Y-81857215D01*
X145948238Y-82005503D01*
X145759503Y-82194238D01*
X145611215Y-82416167D01*
X145509072Y-82662761D01*
X145457000Y-82924544D01*
X140133346Y-82924544D01*
X138662362Y-81453560D01*
X140976045Y-81453560D01*
X141037932Y-81689368D01*
X141279790Y-81802266D01*
X141539027Y-81865811D01*
X141805680Y-81877561D01*
X142069501Y-81837063D01*
X142320353Y-81745875D01*
X142426068Y-81689368D01*
X142487955Y-81453560D01*
X141732000Y-80697605D01*
X140976045Y-81453560D01*
X138662362Y-81453560D01*
X138231804Y-81023003D01*
X138208001Y-80993999D01*
X138092276Y-80899026D01*
X137960247Y-80828454D01*
X137816986Y-80784997D01*
X137705333Y-80774000D01*
X137705322Y-80774000D01*
X137668000Y-80770324D01*
X137630678Y-80774000D01*
X137148690Y-80774000D01*
X137145999Y-80746676D01*
X137145999Y-80591680D01*
X140372439Y-80591680D01*
X140412937Y-80855501D01*
X140504125Y-81106353D01*
X140560632Y-81212068D01*
X140796440Y-81273955D01*
X141552395Y-80518000D01*
X141911605Y-80518000D01*
X142667560Y-81273955D01*
X142903368Y-81212068D01*
X143016266Y-80970210D01*
X143079811Y-80710973D01*
X143091561Y-80444320D01*
X143051063Y-80180499D01*
X142959875Y-79929647D01*
X142903368Y-79823932D01*
X142667560Y-79762045D01*
X141911605Y-80518000D01*
X141552395Y-80518000D01*
X140796440Y-79762045D01*
X140560632Y-79823932D01*
X140447734Y-80065790D01*
X140384189Y-80325027D01*
X140372439Y-80591680D01*
X137145999Y-80591680D01*
X137145999Y-79582440D01*
X140976045Y-79582440D01*
X141732000Y-80338395D01*
X142487955Y-79582440D01*
X142426068Y-79346632D01*
X142184210Y-79233734D01*
X141924973Y-79170189D01*
X141658320Y-79158439D01*
X141394499Y-79198937D01*
X141143647Y-79290125D01*
X141037932Y-79346632D01*
X140976045Y-79582440D01*
X137145999Y-79582440D01*
X137145999Y-76622072D01*
X138468000Y-76622072D01*
X138592482Y-76609812D01*
X138712180Y-76573502D01*
X138822494Y-76514537D01*
X138919185Y-76435185D01*
X138998537Y-76338494D01*
X139057502Y-76228180D01*
X139093812Y-76108482D01*
X139106072Y-75984000D01*
X139106072Y-74384000D01*
X139093812Y-74259518D01*
X139057502Y-74139820D01*
X138998537Y-74029506D01*
X138919185Y-73932815D01*
X138822494Y-73853463D01*
X138712180Y-73794498D01*
X138592482Y-73758188D01*
X138468000Y-73745928D01*
X137995872Y-73745928D01*
X138179003Y-73562797D01*
X138208001Y-73538999D01*
X138302974Y-73423274D01*
X138373546Y-73291245D01*
X138417003Y-73147984D01*
X138428000Y-73036331D01*
X138428000Y-73036322D01*
X138431676Y-72998999D01*
X138428000Y-72961676D01*
X138428000Y-68784901D01*
X138469101Y-68762932D01*
X138687608Y-68583608D01*
X138866932Y-68365101D01*
X139000182Y-68115808D01*
X139082236Y-67845309D01*
X139109943Y-67564000D01*
X139082236Y-67282691D01*
X139000182Y-67012192D01*
X138866932Y-66762899D01*
X138687608Y-66544392D01*
X138469101Y-66365068D01*
X138219808Y-66231818D01*
X137949309Y-66149764D01*
X137738492Y-66129000D01*
X137597508Y-66129000D01*
X137386691Y-66149764D01*
X137116192Y-66231818D01*
X136866899Y-66365068D01*
X136648392Y-66544392D01*
X136469068Y-66762899D01*
X136398000Y-66895858D01*
X136326932Y-66762899D01*
X136147608Y-66544392D01*
X135929101Y-66365068D01*
X135679808Y-66231818D01*
X135409309Y-66149764D01*
X135198492Y-66129000D01*
X135057508Y-66129000D01*
X134846691Y-66149764D01*
X134576192Y-66231818D01*
X134326899Y-66365068D01*
X134108392Y-66544392D01*
X133929068Y-66762899D01*
X133858000Y-66895858D01*
X133786932Y-66762899D01*
X133607608Y-66544392D01*
X133389101Y-66365068D01*
X133139808Y-66231818D01*
X132869309Y-66149764D01*
X132658492Y-66129000D01*
X132517508Y-66129000D01*
X132306691Y-66149764D01*
X132036192Y-66231818D01*
X131786899Y-66365068D01*
X131568392Y-66544392D01*
X131389068Y-66762899D01*
X131318000Y-66895858D01*
X131246932Y-66762899D01*
X131067608Y-66544392D01*
X130849101Y-66365068D01*
X130599808Y-66231818D01*
X130329309Y-66149764D01*
X130118492Y-66129000D01*
X129977508Y-66129000D01*
X129766691Y-66149764D01*
X129496192Y-66231818D01*
X129246899Y-66365068D01*
X129028392Y-66544392D01*
X128849068Y-66762899D01*
X128778000Y-66895858D01*
X128706932Y-66762899D01*
X128527608Y-66544392D01*
X128309101Y-66365068D01*
X128059808Y-66231818D01*
X127789309Y-66149764D01*
X127578492Y-66129000D01*
X127437508Y-66129000D01*
X127226691Y-66149764D01*
X126956192Y-66231818D01*
X126706899Y-66365068D01*
X126488392Y-66544392D01*
X126309068Y-66762899D01*
X126238000Y-66895858D01*
X126166932Y-66762899D01*
X125987608Y-66544392D01*
X125769101Y-66365068D01*
X125519808Y-66231818D01*
X125249309Y-66149764D01*
X125038492Y-66129000D01*
X124897508Y-66129000D01*
X124686691Y-66149764D01*
X124416192Y-66231818D01*
X124166899Y-66365068D01*
X123948392Y-66544392D01*
X123769068Y-66762899D01*
X123698000Y-66895858D01*
X123626932Y-66762899D01*
X123447608Y-66544392D01*
X123229101Y-66365068D01*
X122979808Y-66231818D01*
X122709309Y-66149764D01*
X122498492Y-66129000D01*
X122357508Y-66129000D01*
X122146691Y-66149764D01*
X121876192Y-66231818D01*
X121626899Y-66365068D01*
X121408392Y-66544392D01*
X121229068Y-66762899D01*
X121095818Y-67012192D01*
X121013764Y-67282691D01*
X120986057Y-67564000D01*
X121013764Y-67845309D01*
X121095818Y-68115808D01*
X121229068Y-68365101D01*
X121408392Y-68583608D01*
X121626899Y-68762932D01*
X121876192Y-68896182D01*
X122146691Y-68978236D01*
X122357508Y-68999000D01*
X122458198Y-68999000D01*
X117904200Y-73552999D01*
X114158324Y-73552999D01*
X114121001Y-73549323D01*
X114083678Y-73552999D01*
X114083668Y-73552999D01*
X113972015Y-73563996D01*
X113828754Y-73607453D01*
X113696724Y-73678025D01*
X113664411Y-73704544D01*
X113581000Y-73772998D01*
X113557202Y-73801996D01*
X110995003Y-76364196D01*
X110965999Y-76387999D01*
X110927275Y-76435185D01*
X110871026Y-76503724D01*
X110851674Y-76539928D01*
X110706000Y-76539928D01*
X110581518Y-76552188D01*
X110461820Y-76588498D01*
X110351506Y-76647463D01*
X110254815Y-76726815D01*
X110175463Y-76823506D01*
X110116498Y-76933820D01*
X110080188Y-77053518D01*
X110067928Y-77178000D01*
X110067928Y-78778000D01*
X110080188Y-78902482D01*
X110116498Y-79022180D01*
X110175463Y-79132494D01*
X110254815Y-79229185D01*
X110351506Y-79308537D01*
X110461820Y-79367502D01*
X110581518Y-79403812D01*
X110599482Y-79405581D01*
X110486392Y-79498392D01*
X110307068Y-79716899D01*
X110173818Y-79966192D01*
X110091764Y-80236691D01*
X110064057Y-80518000D01*
X110091764Y-80799309D01*
X110173818Y-81069808D01*
X110307068Y-81319101D01*
X110486392Y-81537608D01*
X110704899Y-81716932D01*
X110837858Y-81788000D01*
X110704899Y-81859068D01*
X110486392Y-82038392D01*
X110307068Y-82256899D01*
X110173818Y-82506192D01*
X110091764Y-82776691D01*
X110064057Y-83058000D01*
X110091764Y-83339309D01*
X110173818Y-83609808D01*
X110307068Y-83859101D01*
X110486392Y-84077608D01*
X110704899Y-84256932D01*
X110842682Y-84330579D01*
X110650869Y-84445615D01*
X110442481Y-84634586D01*
X110274963Y-84860580D01*
X110154754Y-85114913D01*
X110114096Y-85248961D01*
X110236085Y-85471000D01*
X111379000Y-85471000D01*
X111379000Y-85451000D01*
X111633000Y-85451000D01*
X111633000Y-85471000D01*
X111653000Y-85471000D01*
X111653000Y-85725000D01*
X111633000Y-85725000D01*
X111633000Y-85745000D01*
X111379000Y-85745000D01*
X111379000Y-85725000D01*
X110236085Y-85725000D01*
X110114096Y-85947039D01*
X110154754Y-86081087D01*
X110274963Y-86335420D01*
X110442481Y-86561414D01*
X110650869Y-86750385D01*
X110842682Y-86865421D01*
X110704899Y-86939068D01*
X110486392Y-87118392D01*
X110307068Y-87336899D01*
X110173818Y-87586192D01*
X110091764Y-87856691D01*
X110064057Y-88138000D01*
X110091764Y-88419309D01*
X110173818Y-88689808D01*
X110307068Y-88939101D01*
X110486392Y-89157608D01*
X110704899Y-89336932D01*
X110837858Y-89408000D01*
X110704899Y-89479068D01*
X110486392Y-89658392D01*
X110307068Y-89876899D01*
X110173818Y-90126192D01*
X110091764Y-90396691D01*
X110064057Y-90678000D01*
X110091764Y-90959309D01*
X110173818Y-91229808D01*
X110307068Y-91479101D01*
X110486392Y-91697608D01*
X110704899Y-91876932D01*
X110837858Y-91948000D01*
X110704899Y-92019068D01*
X110486392Y-92198392D01*
X110307068Y-92416899D01*
X110173818Y-92666192D01*
X110091764Y-92936691D01*
X110064057Y-93218000D01*
X110091764Y-93499309D01*
X110173818Y-93769808D01*
X110307068Y-94019101D01*
X110486392Y-94237608D01*
X110704899Y-94416932D01*
X110837858Y-94488000D01*
X110704899Y-94559068D01*
X110486392Y-94738392D01*
X110307068Y-94956899D01*
X110173818Y-95206192D01*
X110091764Y-95476691D01*
X110064057Y-95758000D01*
X110091764Y-96039309D01*
X110173818Y-96309808D01*
X110307068Y-96559101D01*
X110486392Y-96777608D01*
X110704899Y-96956932D01*
X110837858Y-97028000D01*
X110704899Y-97099068D01*
X110486392Y-97278392D01*
X110307068Y-97496899D01*
X110173818Y-97746192D01*
X110091764Y-98016691D01*
X110064057Y-98298000D01*
X110091764Y-98579309D01*
X110105292Y-98623907D01*
X109869997Y-98859202D01*
X109840999Y-98883000D01*
X109817201Y-98911998D01*
X109817200Y-98911999D01*
X109746025Y-98998725D01*
X109675453Y-99130755D01*
X109631997Y-99274016D01*
X109617323Y-99423001D01*
X97157186Y-99423001D01*
X97285608Y-99317608D01*
X97464932Y-99099101D01*
X97598182Y-98849808D01*
X97680236Y-98579309D01*
X97707943Y-98298000D01*
X97680236Y-98016691D01*
X97598182Y-97746192D01*
X97464932Y-97496899D01*
X97285608Y-97278392D01*
X97067101Y-97099068D01*
X96934142Y-97028000D01*
X97067101Y-96956932D01*
X97285608Y-96777608D01*
X97464932Y-96559101D01*
X97598182Y-96309808D01*
X97680236Y-96039309D01*
X97707943Y-95758000D01*
X97680236Y-95476691D01*
X97598182Y-95206192D01*
X97464932Y-94956899D01*
X97285608Y-94738392D01*
X97067101Y-94559068D01*
X96934142Y-94488000D01*
X97067101Y-94416932D01*
X97285608Y-94237608D01*
X97464932Y-94019101D01*
X97598182Y-93769808D01*
X97680236Y-93499309D01*
X97707943Y-93218000D01*
X97680236Y-92936691D01*
X97598182Y-92666192D01*
X97464932Y-92416899D01*
X97285608Y-92198392D01*
X97067101Y-92019068D01*
X96934142Y-91948000D01*
X97067101Y-91876932D01*
X97285608Y-91697608D01*
X97464932Y-91479101D01*
X97598182Y-91229808D01*
X97680236Y-90959309D01*
X97707943Y-90678000D01*
X97680236Y-90396691D01*
X97598182Y-90126192D01*
X97464932Y-89876899D01*
X97285608Y-89658392D01*
X97067101Y-89479068D01*
X96934142Y-89408000D01*
X97067101Y-89336932D01*
X97285608Y-89157608D01*
X97464932Y-88939101D01*
X97598182Y-88689808D01*
X97680236Y-88419309D01*
X97707943Y-88138000D01*
X97680236Y-87856691D01*
X97598182Y-87586192D01*
X97464932Y-87336899D01*
X97285608Y-87118392D01*
X97067101Y-86939068D01*
X96934142Y-86868000D01*
X97067101Y-86796932D01*
X97285608Y-86617608D01*
X97464932Y-86399101D01*
X97598182Y-86149808D01*
X97680236Y-85879309D01*
X97707943Y-85598000D01*
X97680236Y-85316691D01*
X97598182Y-85046192D01*
X97464932Y-84796899D01*
X97285608Y-84578392D01*
X97067101Y-84399068D01*
X96934142Y-84328000D01*
X97067101Y-84256932D01*
X97285608Y-84077608D01*
X97464932Y-83859101D01*
X97598182Y-83609808D01*
X97680236Y-83339309D01*
X97707943Y-83058000D01*
X97680236Y-82776691D01*
X97598182Y-82506192D01*
X97464932Y-82256899D01*
X97285608Y-82038392D01*
X97067101Y-81859068D01*
X96929318Y-81785421D01*
X97121131Y-81670385D01*
X97329519Y-81481414D01*
X97497037Y-81255420D01*
X97617246Y-81001087D01*
X97657904Y-80867039D01*
X97535915Y-80645000D01*
X96393000Y-80645000D01*
X96393000Y-80665000D01*
X96139000Y-80665000D01*
X96139000Y-80645000D01*
X94996085Y-80645000D01*
X94874096Y-80867039D01*
X94914754Y-81001087D01*
X95034963Y-81255420D01*
X95202481Y-81481414D01*
X95410869Y-81670385D01*
X95602682Y-81785421D01*
X95464899Y-81859068D01*
X95246392Y-82038392D01*
X95067068Y-82256899D01*
X94933818Y-82506192D01*
X94851764Y-82776691D01*
X94824057Y-83058000D01*
X94851764Y-83339309D01*
X94933818Y-83609808D01*
X95067068Y-83859101D01*
X95246392Y-84077608D01*
X95464899Y-84256932D01*
X95597858Y-84328000D01*
X95464899Y-84399068D01*
X95246392Y-84578392D01*
X95067068Y-84796899D01*
X94933818Y-85046192D01*
X94851764Y-85316691D01*
X94824057Y-85598000D01*
X94826598Y-85623797D01*
X94543804Y-85341003D01*
X94520001Y-85311999D01*
X94404276Y-85217026D01*
X94272247Y-85146454D01*
X94128986Y-85102997D01*
X94071691Y-85097354D01*
X93912555Y-84903445D01*
X93709275Y-84736618D01*
X93477354Y-84612653D01*
X93225706Y-84536317D01*
X93029579Y-84517000D01*
X92898421Y-84517000D01*
X92702294Y-84536317D01*
X92450646Y-84612653D01*
X92218725Y-84736618D01*
X92015445Y-84903445D01*
X91848618Y-85106725D01*
X91724653Y-85338646D01*
X91648317Y-85590294D01*
X91622541Y-85852000D01*
X83499000Y-85852000D01*
X83499000Y-78268474D01*
X83669113Y-78100514D01*
X91629000Y-78100514D01*
X91629000Y-78363486D01*
X91680304Y-78621405D01*
X91780939Y-78864359D01*
X91927038Y-79083013D01*
X92112987Y-79268962D01*
X92331641Y-79415061D01*
X92574595Y-79515696D01*
X92832514Y-79567000D01*
X93095486Y-79567000D01*
X93353405Y-79515696D01*
X93596359Y-79415061D01*
X93815013Y-79268962D01*
X94000962Y-79083013D01*
X94147061Y-78864359D01*
X94247696Y-78621405D01*
X94299000Y-78363486D01*
X94299000Y-78100514D01*
X94274631Y-77978000D01*
X94824057Y-77978000D01*
X94851764Y-78259309D01*
X94933818Y-78529808D01*
X95067068Y-78779101D01*
X95246392Y-78997608D01*
X95464899Y-79176932D01*
X95602682Y-79250579D01*
X95410869Y-79365615D01*
X95202481Y-79554586D01*
X95034963Y-79780580D01*
X94914754Y-80034913D01*
X94874096Y-80168961D01*
X94996085Y-80391000D01*
X96139000Y-80391000D01*
X96139000Y-80371000D01*
X96393000Y-80371000D01*
X96393000Y-80391000D01*
X97535915Y-80391000D01*
X97657904Y-80168961D01*
X97617246Y-80034913D01*
X97497037Y-79780580D01*
X97329519Y-79554586D01*
X97121131Y-79365615D01*
X96929318Y-79250579D01*
X97067101Y-79176932D01*
X97285608Y-78997608D01*
X97464932Y-78779101D01*
X97598182Y-78529808D01*
X97680236Y-78259309D01*
X97707943Y-77978000D01*
X97680236Y-77696691D01*
X97598182Y-77426192D01*
X97464932Y-77176899D01*
X97285608Y-76958392D01*
X97067101Y-76779068D01*
X96817808Y-76645818D01*
X96547309Y-76563764D01*
X96336492Y-76543000D01*
X96195508Y-76543000D01*
X95984691Y-76563764D01*
X95714192Y-76645818D01*
X95464899Y-76779068D01*
X95246392Y-76958392D01*
X95067068Y-77176899D01*
X94933818Y-77426192D01*
X94851764Y-77696691D01*
X94824057Y-77978000D01*
X94274631Y-77978000D01*
X94247696Y-77842595D01*
X94147061Y-77599641D01*
X94000962Y-77380987D01*
X93815013Y-77195038D01*
X93596359Y-77048939D01*
X93353405Y-76948304D01*
X93095486Y-76897000D01*
X92832514Y-76897000D01*
X92574595Y-76948304D01*
X92331641Y-77048939D01*
X92112987Y-77195038D01*
X91927038Y-77380987D01*
X91780939Y-77599641D01*
X91680304Y-77842595D01*
X91629000Y-78100514D01*
X83669113Y-78100514D01*
X86518884Y-75286816D01*
X89143000Y-75286816D01*
X89143000Y-75589184D01*
X89201989Y-75885743D01*
X89317701Y-76165095D01*
X89485688Y-76416505D01*
X89699495Y-76630312D01*
X89950905Y-76798299D01*
X90230257Y-76914011D01*
X90526816Y-76973000D01*
X90829184Y-76973000D01*
X91125743Y-76914011D01*
X91405095Y-76798299D01*
X91656505Y-76630312D01*
X91870312Y-76416505D01*
X92038299Y-76165095D01*
X92154011Y-75885743D01*
X92213000Y-75589184D01*
X92213000Y-75286816D01*
X92206810Y-75255696D01*
X92221129Y-75260661D01*
X92345034Y-75277799D01*
X92469901Y-75270435D01*
X92590932Y-75238853D01*
X92703476Y-75184265D01*
X92803208Y-75108769D01*
X92886295Y-75015268D01*
X93944308Y-73559037D01*
X94007558Y-73451123D01*
X94048539Y-73332943D01*
X94065677Y-73209038D01*
X94058313Y-73084171D01*
X94026731Y-72963140D01*
X93972143Y-72850596D01*
X93896647Y-72750864D01*
X93803146Y-72667777D01*
X92346915Y-71609764D01*
X92239001Y-71546514D01*
X92120821Y-71505533D01*
X91996916Y-71488395D01*
X91872049Y-71495759D01*
X91751018Y-71527341D01*
X91638474Y-71581929D01*
X91538742Y-71657425D01*
X91455655Y-71750926D01*
X90397642Y-73207157D01*
X90334392Y-73315071D01*
X90293411Y-73433251D01*
X90276273Y-73557156D01*
X90283637Y-73682023D01*
X90315219Y-73803054D01*
X90369807Y-73915598D01*
X90382066Y-73931792D01*
X90230257Y-73961989D01*
X89950905Y-74077701D01*
X89699495Y-74245688D01*
X89485688Y-74459495D01*
X89317701Y-74710905D01*
X89201989Y-74990257D01*
X89143000Y-75286816D01*
X86518884Y-75286816D01*
X93931547Y-67967984D01*
X99235000Y-67967984D01*
X99235000Y-68684016D01*
X99374691Y-69386290D01*
X99648705Y-70047818D01*
X100046511Y-70643177D01*
X100552823Y-71149489D01*
X101148182Y-71547295D01*
X101809710Y-71821309D01*
X102511984Y-71961000D01*
X103228016Y-71961000D01*
X103930290Y-71821309D01*
X104591818Y-71547295D01*
X105187177Y-71149489D01*
X105693489Y-70643177D01*
X106091295Y-70047818D01*
X106365309Y-69386290D01*
X106505000Y-68684016D01*
X106505000Y-67967984D01*
X106365309Y-67265710D01*
X106091295Y-66604182D01*
X105693489Y-66008823D01*
X105187177Y-65502511D01*
X104591818Y-65104705D01*
X103930290Y-64830691D01*
X103228016Y-64691000D01*
X102511984Y-64691000D01*
X101809710Y-64830691D01*
X101148182Y-65104705D01*
X100552823Y-65502511D01*
X100046511Y-66008823D01*
X99648705Y-66604182D01*
X99374691Y-67265710D01*
X99235000Y-67967984D01*
X93931547Y-67967984D01*
X100433927Y-61547913D01*
X126605316Y-61547913D01*
X126605316Y-61850281D01*
X126664305Y-62146840D01*
X126780017Y-62426192D01*
X126948004Y-62677602D01*
X127161811Y-62891409D01*
X127413221Y-63059396D01*
X127692573Y-63175108D01*
X127989132Y-63234097D01*
X128291500Y-63234097D01*
X128588059Y-63175108D01*
X128786199Y-63093035D01*
X128785829Y-63111899D01*
X128807818Y-63235035D01*
X128853408Y-63351515D01*
X128920845Y-63456863D01*
X129007540Y-63547030D01*
X129110159Y-63618551D01*
X129224759Y-63668679D01*
X130936661Y-64224909D01*
X131058839Y-64251715D01*
X131183899Y-64254171D01*
X131307035Y-64232182D01*
X131423515Y-64186592D01*
X131528863Y-64119155D01*
X131619030Y-64032460D01*
X131690551Y-63929841D01*
X131740679Y-63815241D01*
X132296909Y-62103339D01*
X132323715Y-61981161D01*
X132326171Y-61856101D01*
X132304182Y-61732965D01*
X132258592Y-61616485D01*
X132191155Y-61511137D01*
X132104460Y-61420970D01*
X132001841Y-61349449D01*
X131887241Y-61299321D01*
X130175339Y-60743091D01*
X130053161Y-60716285D01*
X129928101Y-60713829D01*
X129804965Y-60735818D01*
X129688485Y-60781408D01*
X129583137Y-60848845D01*
X129492970Y-60935540D01*
X129484435Y-60947787D01*
X129332628Y-60720592D01*
X129118821Y-60506785D01*
X128867411Y-60338798D01*
X128588059Y-60223086D01*
X128291500Y-60164097D01*
X127989132Y-60164097D01*
X127692573Y-60223086D01*
X127413221Y-60338798D01*
X127161811Y-60506785D01*
X126948004Y-60720592D01*
X126780017Y-60972002D01*
X126664305Y-61251354D01*
X126605316Y-61547913D01*
X100433927Y-61547913D01*
X103155289Y-58861000D01*
X134586122Y-58861000D01*
X153991000Y-78265879D01*
X153991000Y-78265879D01*
G37*
X153991000Y-78265879D02*
X153991000Y-92202036D01*
X153846312Y-91985495D01*
X153632505Y-91771688D01*
X153381095Y-91603701D01*
X153101743Y-91487989D01*
X152805184Y-91429000D01*
X152502816Y-91429000D01*
X152206257Y-91487989D01*
X151926905Y-91603701D01*
X151675495Y-91771688D01*
X151461688Y-91985495D01*
X151293701Y-92236905D01*
X151177989Y-92516257D01*
X151119000Y-92812816D01*
X151119000Y-93115184D01*
X151177989Y-93411743D01*
X151293701Y-93691095D01*
X151461688Y-93942505D01*
X151528127Y-94008944D01*
X151509820Y-94014498D01*
X151399506Y-94073463D01*
X151302815Y-94152815D01*
X151223463Y-94249506D01*
X151164498Y-94359820D01*
X151128188Y-94479518D01*
X151115928Y-94604000D01*
X151115928Y-96404000D01*
X151128188Y-96528482D01*
X151164498Y-96648180D01*
X151223463Y-96758494D01*
X151302815Y-96855185D01*
X151399506Y-96934537D01*
X151509820Y-96993502D01*
X151629518Y-97029812D01*
X151754000Y-97042072D01*
X153554000Y-97042072D01*
X153678482Y-97029812D01*
X153798180Y-96993502D01*
X153908494Y-96934537D01*
X153991001Y-96866826D01*
X153991001Y-109953393D01*
X135088821Y-129353000D01*
X102647221Y-129353000D01*
X99627100Y-126372101D01*
X126245829Y-126372101D01*
X126248285Y-126497161D01*
X126275091Y-126619339D01*
X126831321Y-128331241D01*
X126881449Y-128445841D01*
X126952970Y-128548460D01*
X127043137Y-128635155D01*
X127148485Y-128702592D01*
X127264965Y-128748182D01*
X127388101Y-128770171D01*
X127513161Y-128767715D01*
X127635339Y-128740909D01*
X129347241Y-128184679D01*
X129461841Y-128134551D01*
X129564460Y-128063030D01*
X129651155Y-127972863D01*
X129718592Y-127867515D01*
X129764182Y-127751035D01*
X129786171Y-127627899D01*
X129785801Y-127609035D01*
X129983941Y-127691108D01*
X130280500Y-127750097D01*
X130582868Y-127750097D01*
X130879427Y-127691108D01*
X131158779Y-127575396D01*
X131410189Y-127407409D01*
X131623996Y-127193602D01*
X131791983Y-126942192D01*
X131907695Y-126662840D01*
X131966684Y-126366281D01*
X131966684Y-126063913D01*
X131907695Y-125767354D01*
X131791983Y-125488002D01*
X131623996Y-125236592D01*
X131410189Y-125022785D01*
X131158779Y-124854798D01*
X130879427Y-124739086D01*
X130582868Y-124680097D01*
X130280500Y-124680097D01*
X129983941Y-124739086D01*
X129704589Y-124854798D01*
X129453179Y-125022785D01*
X129239372Y-125236592D01*
X129087565Y-125463787D01*
X129079030Y-125451540D01*
X128988863Y-125364845D01*
X128883515Y-125297408D01*
X128767035Y-125251818D01*
X128643899Y-125229829D01*
X128518839Y-125232285D01*
X128396661Y-125259091D01*
X126684759Y-125815321D01*
X126570159Y-125865449D01*
X126467540Y-125936970D01*
X126380845Y-126027137D01*
X126313408Y-126132485D01*
X126267818Y-126248965D01*
X126245829Y-126372101D01*
X99627100Y-126372101D01*
X85909891Y-112833038D01*
X88814323Y-112833038D01*
X88831461Y-112956943D01*
X88872442Y-113075123D01*
X88935692Y-113183037D01*
X89993705Y-114639268D01*
X90076792Y-114732769D01*
X90176524Y-114808265D01*
X90289068Y-114862853D01*
X90410099Y-114894435D01*
X90534966Y-114901799D01*
X90658871Y-114884661D01*
X90673190Y-114879696D01*
X90667000Y-114910816D01*
X90667000Y-115213184D01*
X90725989Y-115509743D01*
X90841701Y-115789095D01*
X91009688Y-116040505D01*
X91223495Y-116254312D01*
X91474905Y-116422299D01*
X91754257Y-116538011D01*
X92050816Y-116597000D01*
X92353184Y-116597000D01*
X92649743Y-116538011D01*
X92929095Y-116422299D01*
X93180505Y-116254312D01*
X93394312Y-116040505D01*
X93562299Y-115789095D01*
X93678011Y-115509743D01*
X93737000Y-115213184D01*
X93737000Y-114910816D01*
X93678011Y-114614257D01*
X93562299Y-114334905D01*
X93394312Y-114083495D01*
X93180505Y-113869688D01*
X92929095Y-113701701D01*
X92649743Y-113585989D01*
X92497934Y-113555792D01*
X92510193Y-113539598D01*
X92564781Y-113427054D01*
X92596363Y-113306023D01*
X92603727Y-113181156D01*
X92586589Y-113057251D01*
X92545608Y-112939071D01*
X92482358Y-112831157D01*
X91424345Y-111374926D01*
X91341258Y-111281425D01*
X91241526Y-111205929D01*
X91128982Y-111151341D01*
X91007951Y-111119759D01*
X90883084Y-111112395D01*
X90759179Y-111129533D01*
X90640999Y-111170514D01*
X90533085Y-111233764D01*
X89076854Y-112291777D01*
X88983353Y-112374864D01*
X88907857Y-112474596D01*
X88853269Y-112587140D01*
X88821687Y-112708171D01*
X88814323Y-112833038D01*
X85909891Y-112833038D01*
X83499000Y-110453458D01*
X83499000Y-107562544D01*
X87799000Y-107562544D01*
X87799000Y-107829456D01*
X87851072Y-108091239D01*
X87953215Y-108337833D01*
X88101503Y-108559762D01*
X88290238Y-108748497D01*
X88512167Y-108896785D01*
X88758761Y-108998928D01*
X89020544Y-109051000D01*
X89287456Y-109051000D01*
X89549239Y-108998928D01*
X89795833Y-108896785D01*
X90017762Y-108748497D01*
X90206497Y-108559762D01*
X90354785Y-108337833D01*
X90456928Y-108091239D01*
X90509000Y-107829456D01*
X90509000Y-107562544D01*
X90456928Y-107300761D01*
X90354785Y-107054167D01*
X90206497Y-106832238D01*
X90017762Y-106643503D01*
X89795833Y-106495215D01*
X89549239Y-106393072D01*
X89287456Y-106341000D01*
X89020544Y-106341000D01*
X88758761Y-106393072D01*
X88512167Y-106495215D01*
X88290238Y-106643503D01*
X88101503Y-106832238D01*
X87953215Y-107054167D01*
X87851072Y-107300761D01*
X87799000Y-107562544D01*
X83499000Y-107562544D01*
X83499000Y-105022544D01*
X85259000Y-105022544D01*
X85259000Y-105289456D01*
X85311072Y-105551239D01*
X85413215Y-105797833D01*
X85561503Y-106019762D01*
X85750238Y-106208497D01*
X85972167Y-106356785D01*
X86218761Y-106458928D01*
X86480544Y-106511000D01*
X86747456Y-106511000D01*
X87009239Y-106458928D01*
X87255833Y-106356785D01*
X87477762Y-106208497D01*
X87666497Y-106019762D01*
X87814785Y-105797833D01*
X87916928Y-105551239D01*
X87969000Y-105289456D01*
X87969000Y-105022544D01*
X87916928Y-104760761D01*
X87814785Y-104514167D01*
X87666497Y-104292238D01*
X87477762Y-104103503D01*
X87255833Y-103955215D01*
X87009239Y-103853072D01*
X86747456Y-103801000D01*
X86480544Y-103801000D01*
X86218761Y-103853072D01*
X85972167Y-103955215D01*
X85750238Y-104103503D01*
X85561503Y-104292238D01*
X85413215Y-104514167D01*
X85311072Y-104760761D01*
X85259000Y-105022544D01*
X83499000Y-105022544D01*
X83499000Y-102482544D01*
X87799000Y-102482544D01*
X87799000Y-102749456D01*
X87851072Y-103011239D01*
X87953215Y-103257833D01*
X88101503Y-103479762D01*
X88290238Y-103668497D01*
X88512167Y-103816785D01*
X88758761Y-103918928D01*
X89020544Y-103971000D01*
X89287456Y-103971000D01*
X89549239Y-103918928D01*
X89795833Y-103816785D01*
X90017762Y-103668497D01*
X90206497Y-103479762D01*
X90354785Y-103257833D01*
X90456928Y-103011239D01*
X90509000Y-102749456D01*
X90509000Y-102482544D01*
X90456928Y-102220761D01*
X90354785Y-101974167D01*
X90206497Y-101752238D01*
X90017762Y-101563503D01*
X89795833Y-101415215D01*
X89549239Y-101313072D01*
X89287456Y-101261000D01*
X89020544Y-101261000D01*
X88758761Y-101313072D01*
X88512167Y-101415215D01*
X88290238Y-101563503D01*
X88101503Y-101752238D01*
X87953215Y-101974167D01*
X87851072Y-102220761D01*
X87799000Y-102482544D01*
X83499000Y-102482544D01*
X83499000Y-97282000D01*
X84510541Y-97282000D01*
X84536317Y-97543706D01*
X84612653Y-97795354D01*
X84736618Y-98027275D01*
X84903445Y-98230555D01*
X85106725Y-98397382D01*
X85338646Y-98521347D01*
X85590294Y-98597683D01*
X85786421Y-98617000D01*
X85917579Y-98617000D01*
X86113706Y-98597683D01*
X86365354Y-98521347D01*
X86597275Y-98397382D01*
X86800555Y-98230555D01*
X86967382Y-98027275D01*
X87091347Y-97795354D01*
X87167683Y-97543706D01*
X87193459Y-97282000D01*
X87180509Y-97150514D01*
X92137000Y-97150514D01*
X92137000Y-97413486D01*
X92188304Y-97671405D01*
X92288939Y-97914359D01*
X92435038Y-98133013D01*
X92620987Y-98318962D01*
X92839641Y-98465061D01*
X93082595Y-98565696D01*
X93340514Y-98617000D01*
X93603486Y-98617000D01*
X93861405Y-98565696D01*
X94104359Y-98465061D01*
X94323013Y-98318962D01*
X94508962Y-98133013D01*
X94655061Y-97914359D01*
X94755696Y-97671405D01*
X94807000Y-97413486D01*
X94807000Y-97150514D01*
X94755696Y-96892595D01*
X94655061Y-96649641D01*
X94508962Y-96430987D01*
X94323013Y-96245038D01*
X94104359Y-96098939D01*
X93861405Y-95998304D01*
X93603486Y-95947000D01*
X93340514Y-95947000D01*
X93082595Y-95998304D01*
X92839641Y-96098939D01*
X92620987Y-96245038D01*
X92435038Y-96430987D01*
X92288939Y-96649641D01*
X92188304Y-96892595D01*
X92137000Y-97150514D01*
X87180509Y-97150514D01*
X87167683Y-97020294D01*
X87091347Y-96768646D01*
X86967382Y-96536725D01*
X86800555Y-96333445D01*
X86597275Y-96166618D01*
X86365354Y-96042653D01*
X86113706Y-95966317D01*
X85917579Y-95947000D01*
X85786421Y-95947000D01*
X85590294Y-95966317D01*
X85338646Y-96042653D01*
X85106725Y-96166618D01*
X84903445Y-96333445D01*
X84736618Y-96536725D01*
X84612653Y-96768646D01*
X84536317Y-97020294D01*
X84510541Y-97282000D01*
X83499000Y-97282000D01*
X83499000Y-85852000D01*
X91622541Y-85852000D01*
X91648317Y-86113706D01*
X91724653Y-86365354D01*
X91848618Y-86597275D01*
X92015445Y-86800555D01*
X92218725Y-86967382D01*
X92450646Y-87091347D01*
X92702294Y-87167683D01*
X92898421Y-87187000D01*
X93029579Y-87187000D01*
X93225706Y-87167683D01*
X93477354Y-87091347D01*
X93709275Y-86967382D01*
X93880259Y-86827060D01*
X94865292Y-87812094D01*
X94851764Y-87856691D01*
X94824057Y-88138000D01*
X94851764Y-88419309D01*
X94933818Y-88689808D01*
X95067068Y-88939101D01*
X95246392Y-89157608D01*
X95464899Y-89336932D01*
X95597858Y-89408000D01*
X95464899Y-89479068D01*
X95246392Y-89658392D01*
X95067068Y-89876899D01*
X94933818Y-90126192D01*
X94851764Y-90396691D01*
X94824057Y-90678000D01*
X94851764Y-90959309D01*
X94933818Y-91229808D01*
X95067068Y-91479101D01*
X95246392Y-91697608D01*
X95464899Y-91876932D01*
X95597858Y-91948000D01*
X95464899Y-92019068D01*
X95246392Y-92198392D01*
X95067068Y-92416899D01*
X94933818Y-92666192D01*
X94851764Y-92936691D01*
X94824057Y-93218000D01*
X94851764Y-93499309D01*
X94933818Y-93769808D01*
X95067068Y-94019101D01*
X95246392Y-94237608D01*
X95464899Y-94416932D01*
X95597858Y-94488000D01*
X95464899Y-94559068D01*
X95246392Y-94738392D01*
X95067068Y-94956899D01*
X94933818Y-95206192D01*
X94851764Y-95476691D01*
X94824057Y-95758000D01*
X94851764Y-96039309D01*
X94933818Y-96309808D01*
X95067068Y-96559101D01*
X95246392Y-96777608D01*
X95464899Y-96956932D01*
X95597858Y-97028000D01*
X95464899Y-97099068D01*
X95246392Y-97278392D01*
X95067068Y-97496899D01*
X94933818Y-97746192D01*
X94851764Y-98016691D01*
X94824057Y-98298000D01*
X94851764Y-98579309D01*
X94933818Y-98849808D01*
X95067068Y-99099101D01*
X95246392Y-99317608D01*
X95464899Y-99496932D01*
X95597858Y-99568000D01*
X95464899Y-99639068D01*
X95246392Y-99818392D01*
X95067068Y-100036899D01*
X94933818Y-100286192D01*
X94851764Y-100556691D01*
X94824057Y-100838000D01*
X94851764Y-101119309D01*
X94933818Y-101389808D01*
X95067068Y-101639101D01*
X95246392Y-101857608D01*
X95464899Y-102036932D01*
X95597858Y-102108000D01*
X95464899Y-102179068D01*
X95246392Y-102358392D01*
X95067068Y-102576899D01*
X94933818Y-102826192D01*
X94851764Y-103096691D01*
X94824057Y-103378000D01*
X94851764Y-103659309D01*
X94933818Y-103929808D01*
X95067068Y-104179101D01*
X95246392Y-104397608D01*
X95464899Y-104576932D01*
X95597858Y-104648000D01*
X95464899Y-104719068D01*
X95246392Y-104898392D01*
X95067068Y-105116899D01*
X94933818Y-105366192D01*
X94851764Y-105636691D01*
X94824057Y-105918000D01*
X94851764Y-106199309D01*
X94933818Y-106469808D01*
X95067068Y-106719101D01*
X95246392Y-106937608D01*
X95464899Y-107116932D01*
X95597858Y-107188000D01*
X95464899Y-107259068D01*
X95246392Y-107438392D01*
X95067068Y-107656899D01*
X94933818Y-107906192D01*
X94851764Y-108176691D01*
X94824057Y-108458000D01*
X94851764Y-108739309D01*
X94933818Y-109009808D01*
X95067068Y-109259101D01*
X95246392Y-109477608D01*
X95464899Y-109656932D01*
X95597858Y-109728000D01*
X95464899Y-109799068D01*
X95246392Y-109978392D01*
X95067068Y-110196899D01*
X94933818Y-110446192D01*
X94851764Y-110716691D01*
X94824057Y-110998000D01*
X94851764Y-111279309D01*
X94933818Y-111549808D01*
X95067068Y-111799101D01*
X95246392Y-112017608D01*
X95464899Y-112196932D01*
X95597858Y-112268000D01*
X95464899Y-112339068D01*
X95246392Y-112518392D01*
X95067068Y-112736899D01*
X94933818Y-112986192D01*
X94851764Y-113256691D01*
X94824057Y-113538000D01*
X94851764Y-113819309D01*
X94933818Y-114089808D01*
X95067068Y-114339101D01*
X95246392Y-114557608D01*
X95464899Y-114736932D01*
X95714192Y-114870182D01*
X95984691Y-114952236D01*
X96195508Y-114973000D01*
X96336492Y-114973000D01*
X96547309Y-114952236D01*
X96817808Y-114870182D01*
X97067101Y-114736932D01*
X97285608Y-114557608D01*
X97464932Y-114339101D01*
X97598182Y-114089808D01*
X97680236Y-113819309D01*
X97707943Y-113538000D01*
X97680236Y-113256691D01*
X97598182Y-112986192D01*
X97464932Y-112736899D01*
X97285608Y-112518392D01*
X97067101Y-112339068D01*
X96934142Y-112268000D01*
X97067101Y-112196932D01*
X97285608Y-112017608D01*
X97464932Y-111799101D01*
X97598182Y-111549808D01*
X97680236Y-111279309D01*
X97707943Y-110998000D01*
X97680236Y-110716691D01*
X97598182Y-110446192D01*
X97464932Y-110196899D01*
X97285608Y-109978392D01*
X97067101Y-109799068D01*
X96934142Y-109728000D01*
X97067101Y-109656932D01*
X97285608Y-109477608D01*
X97464932Y-109259101D01*
X97598182Y-109009808D01*
X97680236Y-108739309D01*
X97707943Y-108458000D01*
X97680236Y-108176691D01*
X97598182Y-107906192D01*
X97464932Y-107656899D01*
X97285608Y-107438392D01*
X97067101Y-107259068D01*
X96934142Y-107188000D01*
X97067101Y-107116932D01*
X97285608Y-106937608D01*
X97464932Y-106719101D01*
X97598182Y-106469808D01*
X97680236Y-106199309D01*
X97707943Y-105918000D01*
X97680236Y-105636691D01*
X97598182Y-105366192D01*
X97464932Y-105116899D01*
X97285608Y-104898392D01*
X97067101Y-104719068D01*
X96934142Y-104648000D01*
X97067101Y-104576932D01*
X97285608Y-104397608D01*
X97464932Y-104179101D01*
X97598182Y-103929808D01*
X97680236Y-103659309D01*
X97707943Y-103378000D01*
X97680236Y-103096691D01*
X97598182Y-102826192D01*
X97464932Y-102576899D01*
X97285608Y-102358392D01*
X97067101Y-102179068D01*
X96934142Y-102108000D01*
X97067101Y-102036932D01*
X97285608Y-101857608D01*
X97464932Y-101639101D01*
X97598182Y-101389808D01*
X97680236Y-101119309D01*
X97707943Y-100838000D01*
X97680236Y-100556691D01*
X97598182Y-100286192D01*
X97464932Y-100036899D01*
X97285608Y-99818392D01*
X97067101Y-99639068D01*
X96934142Y-99568000D01*
X97067101Y-99496932D01*
X97157186Y-99423001D01*
X109617323Y-99423001D01*
X109621000Y-99460334D01*
X109620999Y-114400679D01*
X109617323Y-114438001D01*
X109620999Y-114475323D01*
X109620999Y-114475333D01*
X109631996Y-114586986D01*
X109675453Y-114730247D01*
X109746025Y-114862277D01*
X109772417Y-114894435D01*
X109840998Y-114978002D01*
X109870002Y-115001805D01*
X116029199Y-121161003D01*
X116052997Y-121190001D01*
X116168722Y-121284974D01*
X116300751Y-121355546D01*
X116444012Y-121399003D01*
X116555665Y-121410000D01*
X116555674Y-121410000D01*
X116592997Y-121413676D01*
X116630320Y-121410000D01*
X121446678Y-121410000D01*
X121484000Y-121413676D01*
X121521322Y-121410000D01*
X121521333Y-121410000D01*
X121632986Y-121399003D01*
X121776247Y-121355546D01*
X121908276Y-121284974D01*
X122024001Y-121190001D01*
X122047804Y-121160997D01*
X123253672Y-119955129D01*
X123344618Y-120125275D01*
X123511445Y-120328555D01*
X123714725Y-120495382D01*
X123946646Y-120619347D01*
X124198294Y-120695683D01*
X124394421Y-120715000D01*
X124525579Y-120715000D01*
X124721706Y-120695683D01*
X124973354Y-120619347D01*
X125205275Y-120495382D01*
X125408555Y-120328555D01*
X125575382Y-120125275D01*
X125699347Y-119893354D01*
X125775683Y-119641706D01*
X125801459Y-119380000D01*
X125775683Y-119118294D01*
X125699347Y-118866646D01*
X125575382Y-118634725D01*
X125408555Y-118431445D01*
X125205275Y-118264618D01*
X125035129Y-118173673D01*
X125109835Y-118098967D01*
X128739000Y-118098967D01*
X128739000Y-118421033D01*
X128801832Y-118736912D01*
X128925082Y-119034463D01*
X129104013Y-119302252D01*
X129331748Y-119529987D01*
X129599537Y-119708918D01*
X129897088Y-119832168D01*
X130212967Y-119895000D01*
X130535033Y-119895000D01*
X130850912Y-119832168D01*
X131148463Y-119708918D01*
X131416252Y-119529987D01*
X131550826Y-119395413D01*
X133918192Y-119395413D01*
X134013956Y-119659814D01*
X134303571Y-119800704D01*
X134615108Y-119882384D01*
X134936595Y-119901718D01*
X135255675Y-119857961D01*
X135560088Y-119752795D01*
X135734044Y-119659814D01*
X135829808Y-119395413D01*
X134874000Y-118439605D01*
X133918192Y-119395413D01*
X131550826Y-119395413D01*
X131643987Y-119302252D01*
X131822918Y-119034463D01*
X131946168Y-118736912D01*
X132009000Y-118421033D01*
X132009000Y-118322595D01*
X133232282Y-118322595D01*
X133276039Y-118641675D01*
X133381205Y-118946088D01*
X133474186Y-119120044D01*
X133738587Y-119215808D01*
X134694395Y-118260000D01*
X135053605Y-118260000D01*
X136009413Y-119215808D01*
X136273814Y-119120044D01*
X136414704Y-118830429D01*
X136496384Y-118518892D01*
X136515718Y-118197405D01*
X136471961Y-117878325D01*
X136366795Y-117573912D01*
X136273814Y-117399956D01*
X136009413Y-117304192D01*
X135053605Y-118260000D01*
X134694395Y-118260000D01*
X133738587Y-117304192D01*
X133474186Y-117399956D01*
X133333296Y-117689571D01*
X133251616Y-118001108D01*
X133232282Y-118322595D01*
X132009000Y-118322595D01*
X132009000Y-118098967D01*
X131946168Y-117783088D01*
X131822918Y-117485537D01*
X131643987Y-117217748D01*
X131550826Y-117124587D01*
X133918192Y-117124587D01*
X134874000Y-118080395D01*
X135829808Y-117124587D01*
X135734044Y-116860186D01*
X135444429Y-116719296D01*
X135132892Y-116637616D01*
X134811405Y-116618282D01*
X134492325Y-116662039D01*
X134187912Y-116767205D01*
X134013956Y-116860186D01*
X133918192Y-117124587D01*
X131550826Y-117124587D01*
X131416252Y-116990013D01*
X131148463Y-116811082D01*
X130850912Y-116687832D01*
X130535033Y-116625000D01*
X130212967Y-116625000D01*
X129897088Y-116687832D01*
X129599537Y-116811082D01*
X129331748Y-116990013D01*
X129104013Y-117217748D01*
X128925082Y-117485537D01*
X128801832Y-117783088D01*
X128739000Y-118098967D01*
X125109835Y-118098967D01*
X129882625Y-113326177D01*
X129897088Y-113332168D01*
X130212967Y-113395000D01*
X130535033Y-113395000D01*
X130850912Y-113332168D01*
X131148463Y-113208918D01*
X131416252Y-113029987D01*
X131550826Y-112895413D01*
X133918192Y-112895413D01*
X134013956Y-113159814D01*
X134303571Y-113300704D01*
X134615108Y-113382384D01*
X134936595Y-113401718D01*
X135255675Y-113357961D01*
X135560088Y-113252795D01*
X135734044Y-113159814D01*
X135829808Y-112895413D01*
X134874000Y-111939605D01*
X133918192Y-112895413D01*
X131550826Y-112895413D01*
X131643987Y-112802252D01*
X131822918Y-112534463D01*
X131946168Y-112236912D01*
X132009000Y-111921033D01*
X132009000Y-111822595D01*
X133232282Y-111822595D01*
X133276039Y-112141675D01*
X133381205Y-112446088D01*
X133474186Y-112620044D01*
X133738587Y-112715808D01*
X134694395Y-111760000D01*
X135053605Y-111760000D01*
X136009413Y-112715808D01*
X136273814Y-112620044D01*
X136414704Y-112330429D01*
X136496384Y-112018892D01*
X136515718Y-111697405D01*
X136471961Y-111378325D01*
X136366795Y-111073912D01*
X136273814Y-110899956D01*
X136009413Y-110804192D01*
X135053605Y-111760000D01*
X134694395Y-111760000D01*
X133738587Y-110804192D01*
X133474186Y-110899956D01*
X133333296Y-111189571D01*
X133251616Y-111501108D01*
X133232282Y-111822595D01*
X132009000Y-111822595D01*
X132009000Y-111598967D01*
X131946168Y-111283088D01*
X131822918Y-110985537D01*
X131643987Y-110717748D01*
X131550826Y-110624587D01*
X133918192Y-110624587D01*
X134874000Y-111580395D01*
X135829808Y-110624587D01*
X135734044Y-110360186D01*
X135444429Y-110219296D01*
X135132892Y-110137616D01*
X134811405Y-110118282D01*
X134492325Y-110162039D01*
X134187912Y-110267205D01*
X134013956Y-110360186D01*
X133918192Y-110624587D01*
X131550826Y-110624587D01*
X131416252Y-110490013D01*
X131148463Y-110311082D01*
X130850912Y-110187832D01*
X130535033Y-110125000D01*
X130212967Y-110125000D01*
X129897088Y-110187832D01*
X129599537Y-110311082D01*
X129331748Y-110490013D01*
X129104013Y-110717748D01*
X128925082Y-110985537D01*
X128801832Y-111283088D01*
X128739000Y-111598967D01*
X128739000Y-111921033D01*
X128801832Y-112236912D01*
X128807823Y-112251375D01*
X121959916Y-119099283D01*
X121889347Y-118866646D01*
X121765382Y-118634725D01*
X121598555Y-118431445D01*
X121410000Y-118276702D01*
X121410000Y-117124324D01*
X121413676Y-117087001D01*
X121410000Y-117049678D01*
X121410000Y-117049669D01*
X121399003Y-116938016D01*
X121355546Y-116794755D01*
X121298394Y-116687832D01*
X121284974Y-116662725D01*
X121213799Y-116575999D01*
X121190001Y-116547001D01*
X121161003Y-116523203D01*
X117537401Y-112899602D01*
X117691013Y-112796962D01*
X117876962Y-112611013D01*
X118023061Y-112392359D01*
X118123696Y-112149405D01*
X118175000Y-111891486D01*
X118175000Y-111628514D01*
X118153645Y-111521156D01*
X119890000Y-109784801D01*
X119890000Y-110662225D01*
X119798987Y-110723038D01*
X119613038Y-110908987D01*
X119466939Y-111127641D01*
X119366304Y-111370595D01*
X119315000Y-111628514D01*
X119315000Y-111891486D01*
X119366304Y-112149405D01*
X119466939Y-112392359D01*
X119613038Y-112611013D01*
X119798987Y-112796962D01*
X120017641Y-112943061D01*
X120260595Y-113043696D01*
X120518514Y-113095000D01*
X120781486Y-113095000D01*
X121039405Y-113043696D01*
X121282359Y-112943061D01*
X121501013Y-112796962D01*
X121686962Y-112611013D01*
X121833061Y-112392359D01*
X121933696Y-112149405D01*
X121985000Y-111891486D01*
X121985000Y-111628514D01*
X121933696Y-111370595D01*
X121833061Y-111127641D01*
X121686962Y-110908987D01*
X121501013Y-110723038D01*
X121410000Y-110662225D01*
X121410000Y-107876801D01*
X124400000Y-104886801D01*
X124399999Y-110425000D01*
X124328514Y-110425000D01*
X124070595Y-110476304D01*
X123827641Y-110576939D01*
X123608987Y-110723038D01*
X123423038Y-110908987D01*
X123276939Y-111127641D01*
X123176304Y-111370595D01*
X123125000Y-111628514D01*
X123125000Y-111891486D01*
X123176304Y-112149405D01*
X123276939Y-112392359D01*
X123423038Y-112611013D01*
X123608987Y-112796962D01*
X123827641Y-112943061D01*
X124070595Y-113043696D01*
X124328514Y-113095000D01*
X124591486Y-113095000D01*
X124849405Y-113043696D01*
X125092359Y-112943061D01*
X125311013Y-112796962D01*
X125496962Y-112611013D01*
X125643061Y-112392359D01*
X125743696Y-112149405D01*
X125795000Y-111891486D01*
X125795000Y-111628514D01*
X125771901Y-111512391D01*
X125794973Y-111484278D01*
X125865545Y-111352248D01*
X125886524Y-111283088D01*
X125909002Y-111208987D01*
X125919999Y-111097334D01*
X125919999Y-111097325D01*
X125923675Y-111060002D01*
X125919999Y-111022679D01*
X125919999Y-104263800D01*
X128051928Y-102131871D01*
X128051928Y-102704000D01*
X128064188Y-102828482D01*
X128100498Y-102948180D01*
X128159463Y-103058494D01*
X128238815Y-103155185D01*
X128335506Y-103234537D01*
X128445820Y-103293502D01*
X128565518Y-103329812D01*
X128690000Y-103342072D01*
X130390000Y-103342072D01*
X130514482Y-103329812D01*
X130634180Y-103293502D01*
X130744494Y-103234537D01*
X130841185Y-103155185D01*
X130920537Y-103058494D01*
X130979502Y-102948180D01*
X131000393Y-102879313D01*
X131024866Y-102909134D01*
X131250986Y-103094706D01*
X131508966Y-103232599D01*
X131788889Y-103317513D01*
X132007050Y-103339000D01*
X132152950Y-103339000D01*
X132371111Y-103317513D01*
X132651034Y-103232599D01*
X132716362Y-103197680D01*
X140372439Y-103197680D01*
X140412937Y-103461501D01*
X140504125Y-103712353D01*
X140560632Y-103818068D01*
X140796440Y-103879955D01*
X141552395Y-103124000D01*
X140796440Y-102368045D01*
X140560632Y-102429932D01*
X140447734Y-102671790D01*
X140384189Y-102931027D01*
X140372439Y-103197680D01*
X132716362Y-103197680D01*
X132909014Y-103094706D01*
X133135134Y-102909134D01*
X133320706Y-102683014D01*
X133458599Y-102425034D01*
X133543513Y-102145111D01*
X133572185Y-101854000D01*
X133543513Y-101562889D01*
X133458599Y-101282966D01*
X133320706Y-101024986D01*
X133135134Y-100798866D01*
X132909014Y-100613294D01*
X132651034Y-100475401D01*
X132371111Y-100390487D01*
X132152950Y-100369000D01*
X132007050Y-100369000D01*
X131788889Y-100390487D01*
X131508966Y-100475401D01*
X131250986Y-100613294D01*
X131024866Y-100798866D01*
X131000393Y-100828687D01*
X130979502Y-100759820D01*
X130920537Y-100649506D01*
X130841185Y-100552815D01*
X130744494Y-100473463D01*
X130634180Y-100414498D01*
X130514482Y-100378188D01*
X130390000Y-100365928D01*
X129817872Y-100365928D01*
X133411800Y-96772000D01*
X134394680Y-96772000D01*
X134400498Y-96791180D01*
X134459463Y-96901494D01*
X134538815Y-96998185D01*
X134635506Y-97077537D01*
X134745820Y-97136502D01*
X134865518Y-97172812D01*
X134990000Y-97185072D01*
X136790000Y-97185072D01*
X136914482Y-97172812D01*
X137034180Y-97136502D01*
X137144494Y-97077537D01*
X137241185Y-96998185D01*
X137320537Y-96901494D01*
X137379502Y-96791180D01*
X137415812Y-96671482D01*
X137428072Y-96547000D01*
X137428072Y-95477000D01*
X137415812Y-95352518D01*
X137379502Y-95232820D01*
X137342615Y-95163810D01*
X137383900Y-95049383D01*
X137258244Y-94869000D01*
X136973200Y-94869000D01*
X136914482Y-94851188D01*
X136790000Y-94838928D01*
X135743000Y-94838928D01*
X135743000Y-94642000D01*
X136312477Y-94642000D01*
X136484360Y-94625071D01*
X136517560Y-94615000D01*
X137258244Y-94615000D01*
X137383900Y-94434617D01*
X137298377Y-94197579D01*
X137240846Y-94109596D01*
X137341169Y-93921906D01*
X137408071Y-93701360D01*
X137430661Y-93472000D01*
X137408071Y-93242640D01*
X137341169Y-93022094D01*
X137242234Y-92837000D01*
X137341169Y-92651906D01*
X137347947Y-92629560D01*
X140976045Y-92629560D01*
X141037932Y-92865368D01*
X141279790Y-92978266D01*
X141539027Y-93041811D01*
X141805680Y-93053561D01*
X142069501Y-93013063D01*
X142320353Y-92921875D01*
X142426068Y-92865368D01*
X142487955Y-92629560D01*
X141732000Y-91873605D01*
X140976045Y-92629560D01*
X137347947Y-92629560D01*
X137408071Y-92431360D01*
X137430661Y-92202000D01*
X137408071Y-91972640D01*
X137345897Y-91767680D01*
X140372439Y-91767680D01*
X140412937Y-92031501D01*
X140504125Y-92282353D01*
X140560632Y-92388068D01*
X140796440Y-92449955D01*
X141552395Y-91694000D01*
X140796440Y-90938045D01*
X140560632Y-90999932D01*
X140447734Y-91241790D01*
X140384189Y-91501027D01*
X140372439Y-91767680D01*
X137345897Y-91767680D01*
X137341169Y-91752094D01*
X137232526Y-91548838D01*
X137086318Y-91370682D01*
X136908162Y-91224474D01*
X136704906Y-91115831D01*
X136484360Y-91048929D01*
X136312477Y-91032000D01*
X135467523Y-91032000D01*
X135295640Y-91048929D01*
X135075094Y-91115831D01*
X134871838Y-91224474D01*
X134693682Y-91370682D01*
X134629216Y-91449234D01*
X134591014Y-91452997D01*
X134475659Y-91487989D01*
X134447753Y-91496454D01*
X134315723Y-91567026D01*
X134271035Y-91603701D01*
X134199999Y-91661999D01*
X134176201Y-91690997D01*
X119485999Y-106381200D01*
X119457001Y-106404998D01*
X119433203Y-106433996D01*
X119433202Y-106433997D01*
X119362027Y-106520723D01*
X119291455Y-106652753D01*
X119266591Y-106734723D01*
X119247999Y-106796013D01*
X119237002Y-106907666D01*
X119233325Y-106944999D01*
X119237002Y-106982331D01*
X119237001Y-108288197D01*
X117078844Y-110446355D01*
X116971486Y-110425000D01*
X116708514Y-110425000D01*
X116450595Y-110476304D01*
X116207641Y-110576939D01*
X115988987Y-110723038D01*
X115803038Y-110908987D01*
X115700398Y-111062599D01*
X113391001Y-108753202D01*
X113391001Y-107080323D01*
X113394677Y-107043000D01*
X113391001Y-107005677D01*
X113391001Y-107005668D01*
X113380004Y-106894015D01*
X113336547Y-106750754D01*
X113265975Y-106618725D01*
X113171002Y-106503000D01*
X113141998Y-106479197D01*
X112906708Y-106243907D01*
X112920236Y-106199309D01*
X112947943Y-105918000D01*
X112920236Y-105636691D01*
X112838182Y-105366192D01*
X112704932Y-105116899D01*
X112525608Y-104898392D01*
X112307101Y-104719068D01*
X112174142Y-104648000D01*
X112307101Y-104576932D01*
X112525608Y-104397608D01*
X112704932Y-104179101D01*
X112838182Y-103929808D01*
X112873098Y-103814702D01*
X118058903Y-103814702D01*
X118130486Y-104058671D01*
X118385996Y-104179571D01*
X118660184Y-104248300D01*
X118942512Y-104262217D01*
X119222130Y-104220787D01*
X119488292Y-104125603D01*
X119613514Y-104058671D01*
X119685097Y-103814702D01*
X118872000Y-103001605D01*
X118058903Y-103814702D01*
X112873098Y-103814702D01*
X112920236Y-103659309D01*
X112947943Y-103378000D01*
X112920236Y-103096691D01*
X112858300Y-102892512D01*
X117431783Y-102892512D01*
X117473213Y-103172130D01*
X117568397Y-103438292D01*
X117635329Y-103563514D01*
X117879298Y-103635097D01*
X118692395Y-102822000D01*
X119051605Y-102822000D01*
X119864702Y-103635097D01*
X120108671Y-103563514D01*
X120229571Y-103308004D01*
X120298300Y-103033816D01*
X120312217Y-102751488D01*
X120270787Y-102471870D01*
X120175603Y-102205708D01*
X120108671Y-102080486D01*
X119864702Y-102008903D01*
X119051605Y-102822000D01*
X118692395Y-102822000D01*
X117879298Y-102008903D01*
X117635329Y-102080486D01*
X117514429Y-102335996D01*
X117445700Y-102610184D01*
X117431783Y-102892512D01*
X112858300Y-102892512D01*
X112838182Y-102826192D01*
X112704932Y-102576899D01*
X112525608Y-102358392D01*
X112307101Y-102179068D01*
X112174142Y-102108000D01*
X112307101Y-102036932D01*
X112525608Y-101857608D01*
X112548841Y-101829298D01*
X118058903Y-101829298D01*
X118872000Y-102642395D01*
X119685097Y-101829298D01*
X119613514Y-101585329D01*
X119358004Y-101464429D01*
X119083816Y-101395700D01*
X118801488Y-101381783D01*
X118521870Y-101423213D01*
X118255708Y-101518397D01*
X118130486Y-101585329D01*
X118058903Y-101829298D01*
X112548841Y-101829298D01*
X112704932Y-101639101D01*
X112838182Y-101389808D01*
X112920236Y-101119309D01*
X112947943Y-100838000D01*
X112920236Y-100556691D01*
X112838182Y-100286192D01*
X112704932Y-100036899D01*
X112525608Y-99818392D01*
X112357788Y-99680665D01*
X117437000Y-99680665D01*
X117437000Y-99963335D01*
X117492147Y-100240574D01*
X117600320Y-100501727D01*
X117757363Y-100736759D01*
X117957241Y-100936637D01*
X118192273Y-101093680D01*
X118453426Y-101201853D01*
X118730665Y-101257000D01*
X119013335Y-101257000D01*
X119290574Y-101201853D01*
X119551727Y-101093680D01*
X119786759Y-100936637D01*
X119986637Y-100736759D01*
X120143680Y-100501727D01*
X120251853Y-100240574D01*
X120307000Y-99963335D01*
X120307000Y-99680665D01*
X120251853Y-99403426D01*
X120143680Y-99142273D01*
X119986637Y-98907241D01*
X119786759Y-98707363D01*
X119551727Y-98550320D01*
X119290574Y-98442147D01*
X119013335Y-98387000D01*
X118730665Y-98387000D01*
X118453426Y-98442147D01*
X118192273Y-98550320D01*
X117957241Y-98707363D01*
X117757363Y-98907241D01*
X117600320Y-99142273D01*
X117492147Y-99403426D01*
X117437000Y-99680665D01*
X112357788Y-99680665D01*
X112307101Y-99639068D01*
X112174142Y-99568000D01*
X112307101Y-99496932D01*
X112525608Y-99317608D01*
X112704932Y-99099101D01*
X112838182Y-98849808D01*
X112920236Y-98579309D01*
X112947943Y-98298000D01*
X112920236Y-98016691D01*
X112838182Y-97746192D01*
X112704932Y-97496899D01*
X112525608Y-97278392D01*
X112307101Y-97099068D01*
X112174142Y-97028000D01*
X112307101Y-96956932D01*
X112525608Y-96777608D01*
X112704932Y-96559101D01*
X112838182Y-96309808D01*
X112920236Y-96039309D01*
X112947943Y-95758000D01*
X112920236Y-95476691D01*
X112838182Y-95206192D01*
X112704932Y-94956899D01*
X112525608Y-94738392D01*
X112307101Y-94559068D01*
X112174142Y-94488000D01*
X112307101Y-94416932D01*
X112448909Y-94300553D01*
X122665009Y-94300553D01*
X122707603Y-94599907D01*
X122807778Y-94885199D01*
X122887739Y-95034792D01*
X123141920Y-95118475D01*
X124026395Y-94234000D01*
X123141920Y-93349525D01*
X122887739Y-93433208D01*
X122756842Y-93705775D01*
X122681635Y-93998642D01*
X122665009Y-94300553D01*
X112448909Y-94300553D01*
X112525608Y-94237608D01*
X112704932Y-94019101D01*
X112838182Y-93769808D01*
X112920236Y-93499309D01*
X112947943Y-93218000D01*
X112920236Y-92936691D01*
X112906708Y-92892093D01*
X113141998Y-92656803D01*
X113171002Y-92633000D01*
X113265975Y-92517275D01*
X113336547Y-92385246D01*
X113380004Y-92241985D01*
X113391001Y-92130332D01*
X113391001Y-92130323D01*
X113394677Y-92093000D01*
X113391001Y-92055677D01*
X113391001Y-78740000D01*
X117633815Y-78740000D01*
X117662487Y-79031111D01*
X117747401Y-79311034D01*
X117885294Y-79569014D01*
X118070866Y-79795134D01*
X118100687Y-79819607D01*
X118031820Y-79840498D01*
X117921506Y-79899463D01*
X117824815Y-79978815D01*
X117745463Y-80075506D01*
X117686498Y-80185820D01*
X117650188Y-80305518D01*
X117637928Y-80430000D01*
X117637928Y-82130000D01*
X117650188Y-82254482D01*
X117686498Y-82374180D01*
X117745463Y-82484494D01*
X117824815Y-82581185D01*
X117921506Y-82660537D01*
X118031820Y-82719502D01*
X118151518Y-82755812D01*
X118276000Y-82768072D01*
X118471674Y-82768072D01*
X118491026Y-82804276D01*
X118562201Y-82891002D01*
X118586000Y-82920001D01*
X118614998Y-82943799D01*
X124671001Y-88999803D01*
X124671001Y-90225138D01*
X124653743Y-90217989D01*
X124357184Y-90159000D01*
X124054816Y-90159000D01*
X123758257Y-90217989D01*
X123478905Y-90333701D01*
X123227495Y-90501688D01*
X123013688Y-90715495D01*
X122845701Y-90966905D01*
X122729989Y-91246257D01*
X122671000Y-91542816D01*
X122671000Y-91845184D01*
X122729989Y-92141743D01*
X122845701Y-92421095D01*
X123013688Y-92672505D01*
X123227495Y-92886312D01*
X123381105Y-92988951D01*
X123321525Y-93169920D01*
X124206000Y-94054395D01*
X124220143Y-94040253D01*
X124399748Y-94219858D01*
X124385605Y-94234000D01*
X124399748Y-94248143D01*
X124220143Y-94427748D01*
X124206000Y-94413605D01*
X123360193Y-95259412D01*
X123215162Y-95303407D01*
X123061903Y-95385325D01*
X122927570Y-95495570D01*
X122817325Y-95629903D01*
X122735407Y-95783162D01*
X122684961Y-95949458D01*
X122667928Y-96122400D01*
X122667928Y-97425600D01*
X122684961Y-97598542D01*
X122735407Y-97764838D01*
X122817325Y-97918097D01*
X122927570Y-98052430D01*
X123061903Y-98162675D01*
X123215162Y-98244593D01*
X123381458Y-98295039D01*
X123554400Y-98312072D01*
X124857600Y-98312072D01*
X125030542Y-98295039D01*
X125196838Y-98244593D01*
X125350097Y-98162675D01*
X125484430Y-98052430D01*
X125594675Y-97918097D01*
X125676593Y-97764838D01*
X125727039Y-97598542D01*
X125744072Y-97425600D01*
X125744072Y-96310729D01*
X125941998Y-96112803D01*
X125971002Y-96089000D01*
X126065975Y-95973275D01*
X126136547Y-95841246D01*
X126180004Y-95697985D01*
X126191001Y-95586332D01*
X126191001Y-95586322D01*
X126194677Y-95548999D01*
X126191001Y-95511676D01*
X126191001Y-90758440D01*
X140976045Y-90758440D01*
X141732000Y-91514395D01*
X142487955Y-90758440D01*
X142426068Y-90522632D01*
X142184210Y-90409734D01*
X141924973Y-90346189D01*
X141658320Y-90334439D01*
X141394499Y-90374937D01*
X141143647Y-90466125D01*
X141037932Y-90522632D01*
X140976045Y-90758440D01*
X126191001Y-90758440D01*
X126191001Y-89154000D01*
X128047815Y-89154000D01*
X128076487Y-89445111D01*
X128161401Y-89725034D01*
X128299294Y-89983014D01*
X128484866Y-90209134D01*
X128710986Y-90394706D01*
X128968966Y-90532599D01*
X129248889Y-90617513D01*
X129467050Y-90639000D01*
X129612950Y-90639000D01*
X129831111Y-90617513D01*
X130111034Y-90532599D01*
X130369014Y-90394706D01*
X130595134Y-90209134D01*
X130619607Y-90179313D01*
X130640498Y-90248180D01*
X130699463Y-90358494D01*
X130778815Y-90455185D01*
X130875506Y-90534537D01*
X130985820Y-90593502D01*
X131105518Y-90629812D01*
X131230000Y-90642072D01*
X132930000Y-90642072D01*
X133054482Y-90629812D01*
X133174180Y-90593502D01*
X133284494Y-90534537D01*
X133381185Y-90455185D01*
X133460537Y-90358494D01*
X133519502Y-90248180D01*
X133555812Y-90128482D01*
X133568072Y-90004000D01*
X133568072Y-88404000D01*
X134247928Y-88404000D01*
X134247928Y-89904000D01*
X134260188Y-90028482D01*
X134296498Y-90148180D01*
X134355463Y-90258494D01*
X134434815Y-90355185D01*
X134531506Y-90434537D01*
X134641820Y-90493502D01*
X134761518Y-90529812D01*
X134886000Y-90542072D01*
X136386000Y-90542072D01*
X136510482Y-90529812D01*
X136630180Y-90493502D01*
X136740494Y-90434537D01*
X136837185Y-90355185D01*
X136916537Y-90258494D01*
X136975502Y-90148180D01*
X137011812Y-90028482D01*
X137024072Y-89904000D01*
X137024072Y-88404000D01*
X137011812Y-88279518D01*
X136975502Y-88159820D01*
X136916537Y-88049506D01*
X136837185Y-87952815D01*
X136740494Y-87873463D01*
X136630180Y-87814498D01*
X136510482Y-87778188D01*
X136386000Y-87765928D01*
X134886000Y-87765928D01*
X134761518Y-87778188D01*
X134641820Y-87814498D01*
X134531506Y-87873463D01*
X134434815Y-87952815D01*
X134355463Y-88049506D01*
X134296498Y-88159820D01*
X134260188Y-88279518D01*
X134247928Y-88404000D01*
X133568072Y-88404000D01*
X133568072Y-88304000D01*
X133555812Y-88179518D01*
X133519502Y-88059820D01*
X133460537Y-87949506D01*
X133406778Y-87884000D01*
X133460537Y-87818494D01*
X133519502Y-87708180D01*
X133555812Y-87588482D01*
X133568072Y-87464000D01*
X133565000Y-86899750D01*
X133406250Y-86741000D01*
X132207000Y-86741000D01*
X132207000Y-86761000D01*
X131953000Y-86761000D01*
X131953000Y-86741000D01*
X129667000Y-86741000D01*
X129667000Y-86761000D01*
X129413000Y-86761000D01*
X129413000Y-86741000D01*
X128219186Y-86741000D01*
X128098519Y-86970891D01*
X128195843Y-87245252D01*
X128344822Y-87495355D01*
X128539731Y-87711588D01*
X128768756Y-87882416D01*
X128710986Y-87913294D01*
X128484866Y-88098866D01*
X128299294Y-88324986D01*
X128161401Y-88582966D01*
X128076487Y-88862889D01*
X128047815Y-89154000D01*
X126191001Y-89154000D01*
X126191001Y-88722324D01*
X126194677Y-88685001D01*
X126191001Y-88647678D01*
X126191001Y-88647668D01*
X126180004Y-88536015D01*
X126136547Y-88392754D01*
X126100324Y-88324986D01*
X126065975Y-88260724D01*
X125994800Y-88173998D01*
X125971002Y-88145000D01*
X125942005Y-88121203D01*
X124077911Y-86257109D01*
X128098519Y-86257109D01*
X128219186Y-86487000D01*
X129413000Y-86487000D01*
X129413000Y-85293845D01*
X129667000Y-85293845D01*
X129667000Y-86487000D01*
X131953000Y-86487000D01*
X131953000Y-85287750D01*
X132207000Y-85287750D01*
X132207000Y-86487000D01*
X133406250Y-86487000D01*
X133565000Y-86328250D01*
X133568072Y-85764000D01*
X133555812Y-85639518D01*
X133519502Y-85519820D01*
X133460537Y-85409506D01*
X133381185Y-85312815D01*
X133284494Y-85233463D01*
X133174180Y-85174498D01*
X133054482Y-85138188D01*
X132930000Y-85125928D01*
X132365750Y-85129000D01*
X132207000Y-85287750D01*
X131953000Y-85287750D01*
X131794250Y-85129000D01*
X131230000Y-85125928D01*
X131105518Y-85138188D01*
X130985820Y-85174498D01*
X130875506Y-85233463D01*
X130778815Y-85312815D01*
X130699463Y-85409506D01*
X130640498Y-85519820D01*
X130616034Y-85600466D01*
X130540269Y-85516412D01*
X130306920Y-85342359D01*
X130044099Y-85217175D01*
X129896890Y-85172524D01*
X129667000Y-85293845D01*
X129413000Y-85293845D01*
X129183110Y-85172524D01*
X129035901Y-85217175D01*
X128773080Y-85342359D01*
X128539731Y-85516412D01*
X128344822Y-85732645D01*
X128195843Y-85982748D01*
X128098519Y-86257109D01*
X124077911Y-86257109D01*
X120413345Y-82592543D01*
X120427185Y-82581185D01*
X120506537Y-82484494D01*
X120565502Y-82374180D01*
X120601812Y-82254482D01*
X120614072Y-82130000D01*
X120614072Y-80430000D01*
X120601812Y-80305518D01*
X120565502Y-80185820D01*
X120506537Y-80075506D01*
X120427185Y-79978815D01*
X120330494Y-79899463D01*
X120220180Y-79840498D01*
X120151313Y-79819607D01*
X120181134Y-79795134D01*
X120366706Y-79569014D01*
X120504599Y-79311034D01*
X120589513Y-79031111D01*
X120618185Y-78740000D01*
X120589513Y-78448889D01*
X120504599Y-78168966D01*
X120366706Y-77910986D01*
X120181134Y-77684866D01*
X119955014Y-77499294D01*
X119697034Y-77361401D01*
X119417111Y-77276487D01*
X119198950Y-77255000D01*
X119053050Y-77255000D01*
X118834889Y-77276487D01*
X118554966Y-77361401D01*
X118296986Y-77499294D01*
X118070866Y-77684866D01*
X117885294Y-77910986D01*
X117747401Y-78168966D01*
X117662487Y-78448889D01*
X117633815Y-78740000D01*
X113391001Y-78740000D01*
X113391001Y-78550798D01*
X114872799Y-77069001D01*
X126345677Y-77069001D01*
X126382999Y-77072677D01*
X126420321Y-77069001D01*
X126420332Y-77069001D01*
X126531985Y-77058004D01*
X126675246Y-77014547D01*
X126807275Y-76943975D01*
X126923000Y-76849002D01*
X126946803Y-76819999D01*
X127182094Y-76584708D01*
X127226691Y-76598236D01*
X127437508Y-76619000D01*
X127578492Y-76619000D01*
X127789309Y-76598236D01*
X127833906Y-76584708D01*
X128069202Y-76820004D01*
X128093000Y-76849002D01*
X128208725Y-76943975D01*
X128340754Y-77014547D01*
X128484015Y-77058004D01*
X128595668Y-77069001D01*
X128595676Y-77069001D01*
X128633001Y-77072677D01*
X128670326Y-77069001D01*
X133965677Y-77069001D01*
X134002999Y-77072677D01*
X134040321Y-77069001D01*
X134040332Y-77069001D01*
X134151985Y-77058004D01*
X134295246Y-77014547D01*
X134427275Y-76943975D01*
X134543000Y-76849002D01*
X134566803Y-76819998D01*
X134802093Y-76584708D01*
X134846691Y-76598236D01*
X135057508Y-76619000D01*
X135198492Y-76619000D01*
X135409309Y-76598236D01*
X135625999Y-76532504D01*
X135626000Y-80149000D01*
X135567963Y-80149000D01*
X135364493Y-80169040D01*
X135103419Y-80248236D01*
X134862812Y-80376843D01*
X134651919Y-80549919D01*
X134478843Y-80760812D01*
X134350236Y-81001419D01*
X134271040Y-81262493D01*
X134244299Y-81534000D01*
X134271040Y-81805507D01*
X134350236Y-82066581D01*
X134478843Y-82307188D01*
X134651919Y-82518081D01*
X134862812Y-82691157D01*
X135103419Y-82819764D01*
X135364493Y-82898960D01*
X135567963Y-82919000D01*
X135704037Y-82919000D01*
X135907507Y-82898960D01*
X136168581Y-82819764D01*
X136409188Y-82691157D01*
X136620081Y-82518081D01*
X136793157Y-82307188D01*
X136800206Y-82294000D01*
X137353199Y-82294000D01*
X140401346Y-85342148D01*
X140377000Y-85464544D01*
X140377000Y-85731456D01*
X140429072Y-85993239D01*
X140531215Y-86239833D01*
X140679503Y-86461762D01*
X140868238Y-86650497D01*
X141090167Y-86798785D01*
X141336761Y-86900928D01*
X141598544Y-86953000D01*
X141865456Y-86953000D01*
X141987853Y-86928654D01*
X143004001Y-87944803D01*
X143004000Y-91227033D01*
X142959875Y-91105647D01*
X142903368Y-90999932D01*
X142667560Y-90938045D01*
X141911605Y-91694000D01*
X142667560Y-92449955D01*
X142903368Y-92388068D01*
X143004000Y-92172486D01*
X143004000Y-94427198D01*
X141987852Y-95443346D01*
X141865456Y-95419000D01*
X141598544Y-95419000D01*
X141336761Y-95471072D01*
X141090167Y-95573215D01*
X140868238Y-95721503D01*
X140679503Y-95910238D01*
X140531215Y-96132167D01*
X140429072Y-96378761D01*
X140377000Y-96640544D01*
X140377000Y-96907456D01*
X140429072Y-97169239D01*
X140531215Y-97415833D01*
X140679503Y-97637762D01*
X140868238Y-97826497D01*
X141090167Y-97974785D01*
X141336761Y-98076928D01*
X141598544Y-98129000D01*
X141865456Y-98129000D01*
X141987853Y-98104654D01*
X142017002Y-98133803D01*
X142017002Y-101798747D01*
X141924973Y-101776189D01*
X141658320Y-101764439D01*
X141394499Y-101804937D01*
X141143647Y-101896125D01*
X141037932Y-101952632D01*
X140976045Y-102188440D01*
X141732000Y-102944395D01*
X141746143Y-102930253D01*
X141925748Y-103109858D01*
X141911605Y-103124000D01*
X141925748Y-103138143D01*
X141746143Y-103317748D01*
X141732000Y-103303605D01*
X140976045Y-104059560D01*
X141037932Y-104295368D01*
X141279790Y-104408266D01*
X141539027Y-104471811D01*
X141805680Y-104483561D01*
X142017001Y-104451122D01*
X142017001Y-106844197D01*
X141987852Y-106873346D01*
X141865456Y-106849000D01*
X141598544Y-106849000D01*
X141336761Y-106901072D01*
X141090167Y-107003215D01*
X140868238Y-107151503D01*
X140679503Y-107340238D01*
X140531215Y-107562167D01*
X140429072Y-107808761D01*
X140377000Y-108070544D01*
X140377000Y-108337456D01*
X140429072Y-108599239D01*
X140531215Y-108845833D01*
X140679503Y-109067762D01*
X140868238Y-109256497D01*
X141090167Y-109404785D01*
X141336761Y-109506928D01*
X141598544Y-109559000D01*
X141865456Y-109559000D01*
X142127239Y-109506928D01*
X142373833Y-109404785D01*
X142595762Y-109256497D01*
X142784497Y-109067762D01*
X142932785Y-108845833D01*
X143034928Y-108599239D01*
X143087000Y-108337456D01*
X143087000Y-108070544D01*
X143062654Y-107948148D01*
X143288005Y-107722797D01*
X143317002Y-107699000D01*
X143411975Y-107583275D01*
X143482547Y-107451246D01*
X143526004Y-107307985D01*
X143537001Y-107196332D01*
X143537001Y-107196331D01*
X143540678Y-107158999D01*
X143537001Y-107121666D01*
X143537001Y-105530544D01*
X145457000Y-105530544D01*
X145457000Y-105797456D01*
X145509072Y-106059239D01*
X145611215Y-106305833D01*
X145759503Y-106527762D01*
X145948238Y-106716497D01*
X146170167Y-106864785D01*
X146416761Y-106966928D01*
X146678544Y-107019000D01*
X146945456Y-107019000D01*
X147207239Y-106966928D01*
X147453833Y-106864785D01*
X147675762Y-106716497D01*
X147864497Y-106527762D01*
X148012785Y-106305833D01*
X148114928Y-106059239D01*
X148167000Y-105797456D01*
X148167000Y-105530544D01*
X148114928Y-105268761D01*
X148012785Y-105022167D01*
X147864497Y-104800238D01*
X147675762Y-104611503D01*
X147453833Y-104463215D01*
X147207239Y-104361072D01*
X146945456Y-104309000D01*
X146678544Y-104309000D01*
X146416761Y-104361072D01*
X146170167Y-104463215D01*
X145948238Y-104611503D01*
X145759503Y-104800238D01*
X145611215Y-105022167D01*
X145509072Y-105268761D01*
X145457000Y-105530544D01*
X143537001Y-105530544D01*
X143537001Y-97856323D01*
X143540677Y-97819000D01*
X143537001Y-97781677D01*
X143537001Y-97781668D01*
X143526004Y-97670015D01*
X143482547Y-97526754D01*
X143411975Y-97394725D01*
X143317002Y-97279000D01*
X143287998Y-97255197D01*
X143062654Y-97029853D01*
X143087000Y-96907456D01*
X143087000Y-96640544D01*
X143062654Y-96518148D01*
X144275004Y-95305798D01*
X144304001Y-95282001D01*
X144366216Y-95206192D01*
X144398974Y-95166277D01*
X144469546Y-95034247D01*
X144484424Y-94985200D01*
X144513003Y-94890986D01*
X144524000Y-94779333D01*
X144524000Y-94779323D01*
X144527676Y-94742000D01*
X144524000Y-94704677D01*
X144524000Y-94100544D01*
X145457000Y-94100544D01*
X145457000Y-94367456D01*
X145509072Y-94629239D01*
X145611215Y-94875833D01*
X145759503Y-95097762D01*
X145948238Y-95286497D01*
X146170167Y-95434785D01*
X146416761Y-95536928D01*
X146678544Y-95589000D01*
X146945456Y-95589000D01*
X147207239Y-95536928D01*
X147453833Y-95434785D01*
X147675762Y-95286497D01*
X147864497Y-95097762D01*
X148012785Y-94875833D01*
X148114928Y-94629239D01*
X148167000Y-94367456D01*
X148167000Y-94100544D01*
X148114928Y-93838761D01*
X148012785Y-93592167D01*
X147864497Y-93370238D01*
X147675762Y-93181503D01*
X147453833Y-93033215D01*
X147207239Y-92931072D01*
X146945456Y-92879000D01*
X146678544Y-92879000D01*
X146416761Y-92931072D01*
X146170167Y-93033215D01*
X145948238Y-93181503D01*
X145759503Y-93370238D01*
X145611215Y-93592167D01*
X145509072Y-93838761D01*
X145457000Y-94100544D01*
X144524000Y-94100544D01*
X144524000Y-87667333D01*
X144527677Y-87630000D01*
X144513003Y-87481014D01*
X144469546Y-87337753D01*
X144398974Y-87205724D01*
X144327799Y-87118997D01*
X144304001Y-87089999D01*
X144275003Y-87066201D01*
X143062654Y-85853853D01*
X143087000Y-85731456D01*
X143087000Y-85464544D01*
X143034928Y-85202761D01*
X142932785Y-84956167D01*
X142784497Y-84734238D01*
X142595762Y-84545503D01*
X142373833Y-84397215D01*
X142127239Y-84295072D01*
X141865456Y-84243000D01*
X141598544Y-84243000D01*
X141476148Y-84267346D01*
X140133346Y-82924544D01*
X145457000Y-82924544D01*
X145457000Y-83191456D01*
X145509072Y-83453239D01*
X145611215Y-83699833D01*
X145759503Y-83921762D01*
X145948238Y-84110497D01*
X146170167Y-84258785D01*
X146416761Y-84360928D01*
X146678544Y-84413000D01*
X146945456Y-84413000D01*
X147207239Y-84360928D01*
X147453833Y-84258785D01*
X147675762Y-84110497D01*
X147864497Y-83921762D01*
X148012785Y-83699833D01*
X148114928Y-83453239D01*
X148167000Y-83191456D01*
X148167000Y-82924544D01*
X148114928Y-82662761D01*
X148012785Y-82416167D01*
X147864497Y-82194238D01*
X147675762Y-82005503D01*
X147453833Y-81857215D01*
X147207239Y-81755072D01*
X146945456Y-81703000D01*
X146678544Y-81703000D01*
X146416761Y-81755072D01*
X146170167Y-81857215D01*
X145948238Y-82005503D01*
X145759503Y-82194238D01*
X145611215Y-82416167D01*
X145509072Y-82662761D01*
X145457000Y-82924544D01*
X140133346Y-82924544D01*
X138662362Y-81453560D01*
X140976045Y-81453560D01*
X141037932Y-81689368D01*
X141279790Y-81802266D01*
X141539027Y-81865811D01*
X141805680Y-81877561D01*
X142069501Y-81837063D01*
X142320353Y-81745875D01*
X142426068Y-81689368D01*
X142487955Y-81453560D01*
X141732000Y-80697605D01*
X140976045Y-81453560D01*
X138662362Y-81453560D01*
X138231804Y-81023003D01*
X138208001Y-80993999D01*
X138092276Y-80899026D01*
X137960247Y-80828454D01*
X137816986Y-80784997D01*
X137705333Y-80774000D01*
X137705322Y-80774000D01*
X137668000Y-80770324D01*
X137630678Y-80774000D01*
X137148690Y-80774000D01*
X137145999Y-80746676D01*
X137145999Y-80591680D01*
X140372439Y-80591680D01*
X140412937Y-80855501D01*
X140504125Y-81106353D01*
X140560632Y-81212068D01*
X140796440Y-81273955D01*
X141552395Y-80518000D01*
X141911605Y-80518000D01*
X142667560Y-81273955D01*
X142903368Y-81212068D01*
X143016266Y-80970210D01*
X143079811Y-80710973D01*
X143091561Y-80444320D01*
X143051063Y-80180499D01*
X142959875Y-79929647D01*
X142903368Y-79823932D01*
X142667560Y-79762045D01*
X141911605Y-80518000D01*
X141552395Y-80518000D01*
X140796440Y-79762045D01*
X140560632Y-79823932D01*
X140447734Y-80065790D01*
X140384189Y-80325027D01*
X140372439Y-80591680D01*
X137145999Y-80591680D01*
X137145999Y-79582440D01*
X140976045Y-79582440D01*
X141732000Y-80338395D01*
X142487955Y-79582440D01*
X142426068Y-79346632D01*
X142184210Y-79233734D01*
X141924973Y-79170189D01*
X141658320Y-79158439D01*
X141394499Y-79198937D01*
X141143647Y-79290125D01*
X141037932Y-79346632D01*
X140976045Y-79582440D01*
X137145999Y-79582440D01*
X137145999Y-76622072D01*
X138468000Y-76622072D01*
X138592482Y-76609812D01*
X138712180Y-76573502D01*
X138822494Y-76514537D01*
X138919185Y-76435185D01*
X138998537Y-76338494D01*
X139057502Y-76228180D01*
X139093812Y-76108482D01*
X139106072Y-75984000D01*
X139106072Y-74384000D01*
X139093812Y-74259518D01*
X139057502Y-74139820D01*
X138998537Y-74029506D01*
X138919185Y-73932815D01*
X138822494Y-73853463D01*
X138712180Y-73794498D01*
X138592482Y-73758188D01*
X138468000Y-73745928D01*
X137995872Y-73745928D01*
X138179003Y-73562797D01*
X138208001Y-73538999D01*
X138302974Y-73423274D01*
X138373546Y-73291245D01*
X138417003Y-73147984D01*
X138428000Y-73036331D01*
X138428000Y-73036322D01*
X138431676Y-72998999D01*
X138428000Y-72961676D01*
X138428000Y-68784901D01*
X138469101Y-68762932D01*
X138687608Y-68583608D01*
X138866932Y-68365101D01*
X139000182Y-68115808D01*
X139082236Y-67845309D01*
X139109943Y-67564000D01*
X139082236Y-67282691D01*
X139000182Y-67012192D01*
X138866932Y-66762899D01*
X138687608Y-66544392D01*
X138469101Y-66365068D01*
X138219808Y-66231818D01*
X137949309Y-66149764D01*
X137738492Y-66129000D01*
X137597508Y-66129000D01*
X137386691Y-66149764D01*
X137116192Y-66231818D01*
X136866899Y-66365068D01*
X136648392Y-66544392D01*
X136469068Y-66762899D01*
X136398000Y-66895858D01*
X136326932Y-66762899D01*
X136147608Y-66544392D01*
X135929101Y-66365068D01*
X135679808Y-66231818D01*
X135409309Y-66149764D01*
X135198492Y-66129000D01*
X135057508Y-66129000D01*
X134846691Y-66149764D01*
X134576192Y-66231818D01*
X134326899Y-66365068D01*
X134108392Y-66544392D01*
X133929068Y-66762899D01*
X133858000Y-66895858D01*
X133786932Y-66762899D01*
X133607608Y-66544392D01*
X133389101Y-66365068D01*
X133139808Y-66231818D01*
X132869309Y-66149764D01*
X132658492Y-66129000D01*
X132517508Y-66129000D01*
X132306691Y-66149764D01*
X132036192Y-66231818D01*
X131786899Y-66365068D01*
X131568392Y-66544392D01*
X131389068Y-66762899D01*
X131318000Y-66895858D01*
X131246932Y-66762899D01*
X131067608Y-66544392D01*
X130849101Y-66365068D01*
X130599808Y-66231818D01*
X130329309Y-66149764D01*
X130118492Y-66129000D01*
X129977508Y-66129000D01*
X129766691Y-66149764D01*
X129496192Y-66231818D01*
X129246899Y-66365068D01*
X129028392Y-66544392D01*
X128849068Y-66762899D01*
X128778000Y-66895858D01*
X128706932Y-66762899D01*
X128527608Y-66544392D01*
X128309101Y-66365068D01*
X128059808Y-66231818D01*
X127789309Y-66149764D01*
X127578492Y-66129000D01*
X127437508Y-66129000D01*
X127226691Y-66149764D01*
X126956192Y-66231818D01*
X126706899Y-66365068D01*
X126488392Y-66544392D01*
X126309068Y-66762899D01*
X126238000Y-66895858D01*
X126166932Y-66762899D01*
X125987608Y-66544392D01*
X125769101Y-66365068D01*
X125519808Y-66231818D01*
X125249309Y-66149764D01*
X125038492Y-66129000D01*
X124897508Y-66129000D01*
X124686691Y-66149764D01*
X124416192Y-66231818D01*
X124166899Y-66365068D01*
X123948392Y-66544392D01*
X123769068Y-66762899D01*
X123698000Y-66895858D01*
X123626932Y-66762899D01*
X123447608Y-66544392D01*
X123229101Y-66365068D01*
X122979808Y-66231818D01*
X122709309Y-66149764D01*
X122498492Y-66129000D01*
X122357508Y-66129000D01*
X122146691Y-66149764D01*
X121876192Y-66231818D01*
X121626899Y-66365068D01*
X121408392Y-66544392D01*
X121229068Y-66762899D01*
X121095818Y-67012192D01*
X121013764Y-67282691D01*
X120986057Y-67564000D01*
X121013764Y-67845309D01*
X121095818Y-68115808D01*
X121229068Y-68365101D01*
X121408392Y-68583608D01*
X121626899Y-68762932D01*
X121876192Y-68896182D01*
X122146691Y-68978236D01*
X122357508Y-68999000D01*
X122458198Y-68999000D01*
X117904200Y-73552999D01*
X114158324Y-73552999D01*
X114121001Y-73549323D01*
X114083678Y-73552999D01*
X114083668Y-73552999D01*
X113972015Y-73563996D01*
X113828754Y-73607453D01*
X113696724Y-73678025D01*
X113664411Y-73704544D01*
X113581000Y-73772998D01*
X113557202Y-73801996D01*
X110995003Y-76364196D01*
X110965999Y-76387999D01*
X110927275Y-76435185D01*
X110871026Y-76503724D01*
X110851674Y-76539928D01*
X110706000Y-76539928D01*
X110581518Y-76552188D01*
X110461820Y-76588498D01*
X110351506Y-76647463D01*
X110254815Y-76726815D01*
X110175463Y-76823506D01*
X110116498Y-76933820D01*
X110080188Y-77053518D01*
X110067928Y-77178000D01*
X110067928Y-78778000D01*
X110080188Y-78902482D01*
X110116498Y-79022180D01*
X110175463Y-79132494D01*
X110254815Y-79229185D01*
X110351506Y-79308537D01*
X110461820Y-79367502D01*
X110581518Y-79403812D01*
X110599482Y-79405581D01*
X110486392Y-79498392D01*
X110307068Y-79716899D01*
X110173818Y-79966192D01*
X110091764Y-80236691D01*
X110064057Y-80518000D01*
X110091764Y-80799309D01*
X110173818Y-81069808D01*
X110307068Y-81319101D01*
X110486392Y-81537608D01*
X110704899Y-81716932D01*
X110837858Y-81788000D01*
X110704899Y-81859068D01*
X110486392Y-82038392D01*
X110307068Y-82256899D01*
X110173818Y-82506192D01*
X110091764Y-82776691D01*
X110064057Y-83058000D01*
X110091764Y-83339309D01*
X110173818Y-83609808D01*
X110307068Y-83859101D01*
X110486392Y-84077608D01*
X110704899Y-84256932D01*
X110842682Y-84330579D01*
X110650869Y-84445615D01*
X110442481Y-84634586D01*
X110274963Y-84860580D01*
X110154754Y-85114913D01*
X110114096Y-85248961D01*
X110236085Y-85471000D01*
X111379000Y-85471000D01*
X111379000Y-85451000D01*
X111633000Y-85451000D01*
X111633000Y-85471000D01*
X111653000Y-85471000D01*
X111653000Y-85725000D01*
X111633000Y-85725000D01*
X111633000Y-85745000D01*
X111379000Y-85745000D01*
X111379000Y-85725000D01*
X110236085Y-85725000D01*
X110114096Y-85947039D01*
X110154754Y-86081087D01*
X110274963Y-86335420D01*
X110442481Y-86561414D01*
X110650869Y-86750385D01*
X110842682Y-86865421D01*
X110704899Y-86939068D01*
X110486392Y-87118392D01*
X110307068Y-87336899D01*
X110173818Y-87586192D01*
X110091764Y-87856691D01*
X110064057Y-88138000D01*
X110091764Y-88419309D01*
X110173818Y-88689808D01*
X110307068Y-88939101D01*
X110486392Y-89157608D01*
X110704899Y-89336932D01*
X110837858Y-89408000D01*
X110704899Y-89479068D01*
X110486392Y-89658392D01*
X110307068Y-89876899D01*
X110173818Y-90126192D01*
X110091764Y-90396691D01*
X110064057Y-90678000D01*
X110091764Y-90959309D01*
X110173818Y-91229808D01*
X110307068Y-91479101D01*
X110486392Y-91697608D01*
X110704899Y-91876932D01*
X110837858Y-91948000D01*
X110704899Y-92019068D01*
X110486392Y-92198392D01*
X110307068Y-92416899D01*
X110173818Y-92666192D01*
X110091764Y-92936691D01*
X110064057Y-93218000D01*
X110091764Y-93499309D01*
X110173818Y-93769808D01*
X110307068Y-94019101D01*
X110486392Y-94237608D01*
X110704899Y-94416932D01*
X110837858Y-94488000D01*
X110704899Y-94559068D01*
X110486392Y-94738392D01*
X110307068Y-94956899D01*
X110173818Y-95206192D01*
X110091764Y-95476691D01*
X110064057Y-95758000D01*
X110091764Y-96039309D01*
X110173818Y-96309808D01*
X110307068Y-96559101D01*
X110486392Y-96777608D01*
X110704899Y-96956932D01*
X110837858Y-97028000D01*
X110704899Y-97099068D01*
X110486392Y-97278392D01*
X110307068Y-97496899D01*
X110173818Y-97746192D01*
X110091764Y-98016691D01*
X110064057Y-98298000D01*
X110091764Y-98579309D01*
X110105292Y-98623907D01*
X109869997Y-98859202D01*
X109840999Y-98883000D01*
X109817201Y-98911998D01*
X109817200Y-98911999D01*
X109746025Y-98998725D01*
X109675453Y-99130755D01*
X109631997Y-99274016D01*
X109617323Y-99423001D01*
X97157186Y-99423001D01*
X97285608Y-99317608D01*
X97464932Y-99099101D01*
X97598182Y-98849808D01*
X97680236Y-98579309D01*
X97707943Y-98298000D01*
X97680236Y-98016691D01*
X97598182Y-97746192D01*
X97464932Y-97496899D01*
X97285608Y-97278392D01*
X97067101Y-97099068D01*
X96934142Y-97028000D01*
X97067101Y-96956932D01*
X97285608Y-96777608D01*
X97464932Y-96559101D01*
X97598182Y-96309808D01*
X97680236Y-96039309D01*
X97707943Y-95758000D01*
X97680236Y-95476691D01*
X97598182Y-95206192D01*
X97464932Y-94956899D01*
X97285608Y-94738392D01*
X97067101Y-94559068D01*
X96934142Y-94488000D01*
X97067101Y-94416932D01*
X97285608Y-94237608D01*
X97464932Y-94019101D01*
X97598182Y-93769808D01*
X97680236Y-93499309D01*
X97707943Y-93218000D01*
X97680236Y-92936691D01*
X97598182Y-92666192D01*
X97464932Y-92416899D01*
X97285608Y-92198392D01*
X97067101Y-92019068D01*
X96934142Y-91948000D01*
X97067101Y-91876932D01*
X97285608Y-91697608D01*
X97464932Y-91479101D01*
X97598182Y-91229808D01*
X97680236Y-90959309D01*
X97707943Y-90678000D01*
X97680236Y-90396691D01*
X97598182Y-90126192D01*
X97464932Y-89876899D01*
X97285608Y-89658392D01*
X97067101Y-89479068D01*
X96934142Y-89408000D01*
X97067101Y-89336932D01*
X97285608Y-89157608D01*
X97464932Y-88939101D01*
X97598182Y-88689808D01*
X97680236Y-88419309D01*
X97707943Y-88138000D01*
X97680236Y-87856691D01*
X97598182Y-87586192D01*
X97464932Y-87336899D01*
X97285608Y-87118392D01*
X97067101Y-86939068D01*
X96934142Y-86868000D01*
X97067101Y-86796932D01*
X97285608Y-86617608D01*
X97464932Y-86399101D01*
X97598182Y-86149808D01*
X97680236Y-85879309D01*
X97707943Y-85598000D01*
X97680236Y-85316691D01*
X97598182Y-85046192D01*
X97464932Y-84796899D01*
X97285608Y-84578392D01*
X97067101Y-84399068D01*
X96934142Y-84328000D01*
X97067101Y-84256932D01*
X97285608Y-84077608D01*
X97464932Y-83859101D01*
X97598182Y-83609808D01*
X97680236Y-83339309D01*
X97707943Y-83058000D01*
X97680236Y-82776691D01*
X97598182Y-82506192D01*
X97464932Y-82256899D01*
X97285608Y-82038392D01*
X97067101Y-81859068D01*
X96929318Y-81785421D01*
X97121131Y-81670385D01*
X97329519Y-81481414D01*
X97497037Y-81255420D01*
X97617246Y-81001087D01*
X97657904Y-80867039D01*
X97535915Y-80645000D01*
X96393000Y-80645000D01*
X96393000Y-80665000D01*
X96139000Y-80665000D01*
X96139000Y-80645000D01*
X94996085Y-80645000D01*
X94874096Y-80867039D01*
X94914754Y-81001087D01*
X95034963Y-81255420D01*
X95202481Y-81481414D01*
X95410869Y-81670385D01*
X95602682Y-81785421D01*
X95464899Y-81859068D01*
X95246392Y-82038392D01*
X95067068Y-82256899D01*
X94933818Y-82506192D01*
X94851764Y-82776691D01*
X94824057Y-83058000D01*
X94851764Y-83339309D01*
X94933818Y-83609808D01*
X95067068Y-83859101D01*
X95246392Y-84077608D01*
X95464899Y-84256932D01*
X95597858Y-84328000D01*
X95464899Y-84399068D01*
X95246392Y-84578392D01*
X95067068Y-84796899D01*
X94933818Y-85046192D01*
X94851764Y-85316691D01*
X94824057Y-85598000D01*
X94826598Y-85623797D01*
X94543804Y-85341003D01*
X94520001Y-85311999D01*
X94404276Y-85217026D01*
X94272247Y-85146454D01*
X94128986Y-85102997D01*
X94071691Y-85097354D01*
X93912555Y-84903445D01*
X93709275Y-84736618D01*
X93477354Y-84612653D01*
X93225706Y-84536317D01*
X93029579Y-84517000D01*
X92898421Y-84517000D01*
X92702294Y-84536317D01*
X92450646Y-84612653D01*
X92218725Y-84736618D01*
X92015445Y-84903445D01*
X91848618Y-85106725D01*
X91724653Y-85338646D01*
X91648317Y-85590294D01*
X91622541Y-85852000D01*
X83499000Y-85852000D01*
X83499000Y-78268474D01*
X83669113Y-78100514D01*
X91629000Y-78100514D01*
X91629000Y-78363486D01*
X91680304Y-78621405D01*
X91780939Y-78864359D01*
X91927038Y-79083013D01*
X92112987Y-79268962D01*
X92331641Y-79415061D01*
X92574595Y-79515696D01*
X92832514Y-79567000D01*
X93095486Y-79567000D01*
X93353405Y-79515696D01*
X93596359Y-79415061D01*
X93815013Y-79268962D01*
X94000962Y-79083013D01*
X94147061Y-78864359D01*
X94247696Y-78621405D01*
X94299000Y-78363486D01*
X94299000Y-78100514D01*
X94274631Y-77978000D01*
X94824057Y-77978000D01*
X94851764Y-78259309D01*
X94933818Y-78529808D01*
X95067068Y-78779101D01*
X95246392Y-78997608D01*
X95464899Y-79176932D01*
X95602682Y-79250579D01*
X95410869Y-79365615D01*
X95202481Y-79554586D01*
X95034963Y-79780580D01*
X94914754Y-80034913D01*
X94874096Y-80168961D01*
X94996085Y-80391000D01*
X96139000Y-80391000D01*
X96139000Y-80371000D01*
X96393000Y-80371000D01*
X96393000Y-80391000D01*
X97535915Y-80391000D01*
X97657904Y-80168961D01*
X97617246Y-80034913D01*
X97497037Y-79780580D01*
X97329519Y-79554586D01*
X97121131Y-79365615D01*
X96929318Y-79250579D01*
X97067101Y-79176932D01*
X97285608Y-78997608D01*
X97464932Y-78779101D01*
X97598182Y-78529808D01*
X97680236Y-78259309D01*
X97707943Y-77978000D01*
X97680236Y-77696691D01*
X97598182Y-77426192D01*
X97464932Y-77176899D01*
X97285608Y-76958392D01*
X97067101Y-76779068D01*
X96817808Y-76645818D01*
X96547309Y-76563764D01*
X96336492Y-76543000D01*
X96195508Y-76543000D01*
X95984691Y-76563764D01*
X95714192Y-76645818D01*
X95464899Y-76779068D01*
X95246392Y-76958392D01*
X95067068Y-77176899D01*
X94933818Y-77426192D01*
X94851764Y-77696691D01*
X94824057Y-77978000D01*
X94274631Y-77978000D01*
X94247696Y-77842595D01*
X94147061Y-77599641D01*
X94000962Y-77380987D01*
X93815013Y-77195038D01*
X93596359Y-77048939D01*
X93353405Y-76948304D01*
X93095486Y-76897000D01*
X92832514Y-76897000D01*
X92574595Y-76948304D01*
X92331641Y-77048939D01*
X92112987Y-77195038D01*
X91927038Y-77380987D01*
X91780939Y-77599641D01*
X91680304Y-77842595D01*
X91629000Y-78100514D01*
X83669113Y-78100514D01*
X86518884Y-75286816D01*
X89143000Y-75286816D01*
X89143000Y-75589184D01*
X89201989Y-75885743D01*
X89317701Y-76165095D01*
X89485688Y-76416505D01*
X89699495Y-76630312D01*
X89950905Y-76798299D01*
X90230257Y-76914011D01*
X90526816Y-76973000D01*
X90829184Y-76973000D01*
X91125743Y-76914011D01*
X91405095Y-76798299D01*
X91656505Y-76630312D01*
X91870312Y-76416505D01*
X92038299Y-76165095D01*
X92154011Y-75885743D01*
X92213000Y-75589184D01*
X92213000Y-75286816D01*
X92206810Y-75255696D01*
X92221129Y-75260661D01*
X92345034Y-75277799D01*
X92469901Y-75270435D01*
X92590932Y-75238853D01*
X92703476Y-75184265D01*
X92803208Y-75108769D01*
X92886295Y-75015268D01*
X93944308Y-73559037D01*
X94007558Y-73451123D01*
X94048539Y-73332943D01*
X94065677Y-73209038D01*
X94058313Y-73084171D01*
X94026731Y-72963140D01*
X93972143Y-72850596D01*
X93896647Y-72750864D01*
X93803146Y-72667777D01*
X92346915Y-71609764D01*
X92239001Y-71546514D01*
X92120821Y-71505533D01*
X91996916Y-71488395D01*
X91872049Y-71495759D01*
X91751018Y-71527341D01*
X91638474Y-71581929D01*
X91538742Y-71657425D01*
X91455655Y-71750926D01*
X90397642Y-73207157D01*
X90334392Y-73315071D01*
X90293411Y-73433251D01*
X90276273Y-73557156D01*
X90283637Y-73682023D01*
X90315219Y-73803054D01*
X90369807Y-73915598D01*
X90382066Y-73931792D01*
X90230257Y-73961989D01*
X89950905Y-74077701D01*
X89699495Y-74245688D01*
X89485688Y-74459495D01*
X89317701Y-74710905D01*
X89201989Y-74990257D01*
X89143000Y-75286816D01*
X86518884Y-75286816D01*
X93931547Y-67967984D01*
X99235000Y-67967984D01*
X99235000Y-68684016D01*
X99374691Y-69386290D01*
X99648705Y-70047818D01*
X100046511Y-70643177D01*
X100552823Y-71149489D01*
X101148182Y-71547295D01*
X101809710Y-71821309D01*
X102511984Y-71961000D01*
X103228016Y-71961000D01*
X103930290Y-71821309D01*
X104591818Y-71547295D01*
X105187177Y-71149489D01*
X105693489Y-70643177D01*
X106091295Y-70047818D01*
X106365309Y-69386290D01*
X106505000Y-68684016D01*
X106505000Y-67967984D01*
X106365309Y-67265710D01*
X106091295Y-66604182D01*
X105693489Y-66008823D01*
X105187177Y-65502511D01*
X104591818Y-65104705D01*
X103930290Y-64830691D01*
X103228016Y-64691000D01*
X102511984Y-64691000D01*
X101809710Y-64830691D01*
X101148182Y-65104705D01*
X100552823Y-65502511D01*
X100046511Y-66008823D01*
X99648705Y-66604182D01*
X99374691Y-67265710D01*
X99235000Y-67967984D01*
X93931547Y-67967984D01*
X100433927Y-61547913D01*
X126605316Y-61547913D01*
X126605316Y-61850281D01*
X126664305Y-62146840D01*
X126780017Y-62426192D01*
X126948004Y-62677602D01*
X127161811Y-62891409D01*
X127413221Y-63059396D01*
X127692573Y-63175108D01*
X127989132Y-63234097D01*
X128291500Y-63234097D01*
X128588059Y-63175108D01*
X128786199Y-63093035D01*
X128785829Y-63111899D01*
X128807818Y-63235035D01*
X128853408Y-63351515D01*
X128920845Y-63456863D01*
X129007540Y-63547030D01*
X129110159Y-63618551D01*
X129224759Y-63668679D01*
X130936661Y-64224909D01*
X131058839Y-64251715D01*
X131183899Y-64254171D01*
X131307035Y-64232182D01*
X131423515Y-64186592D01*
X131528863Y-64119155D01*
X131619030Y-64032460D01*
X131690551Y-63929841D01*
X131740679Y-63815241D01*
X132296909Y-62103339D01*
X132323715Y-61981161D01*
X132326171Y-61856101D01*
X132304182Y-61732965D01*
X132258592Y-61616485D01*
X132191155Y-61511137D01*
X132104460Y-61420970D01*
X132001841Y-61349449D01*
X131887241Y-61299321D01*
X130175339Y-60743091D01*
X130053161Y-60716285D01*
X129928101Y-60713829D01*
X129804965Y-60735818D01*
X129688485Y-60781408D01*
X129583137Y-60848845D01*
X129492970Y-60935540D01*
X129484435Y-60947787D01*
X129332628Y-60720592D01*
X129118821Y-60506785D01*
X128867411Y-60338798D01*
X128588059Y-60223086D01*
X128291500Y-60164097D01*
X127989132Y-60164097D01*
X127692573Y-60223086D01*
X127413221Y-60338798D01*
X127161811Y-60506785D01*
X126948004Y-60720592D01*
X126780017Y-60972002D01*
X126664305Y-61251354D01*
X126605316Y-61547913D01*
X100433927Y-61547913D01*
X103155289Y-58861000D01*
X134586122Y-58861000D01*
X153991000Y-78265879D01*
G36*
X126309068Y-68365101D02*
G01*
X126488392Y-68583608D01*
X126706899Y-68762932D01*
X126748000Y-68784901D01*
X126748001Y-73963099D01*
X126706899Y-73985068D01*
X126488392Y-74164392D01*
X126309068Y-74382899D01*
X126238000Y-74515858D01*
X126166932Y-74382899D01*
X125987608Y-74164392D01*
X125769101Y-73985068D01*
X125519808Y-73851818D01*
X125249309Y-73769764D01*
X125038492Y-73749000D01*
X124897508Y-73749000D01*
X124686691Y-73769764D01*
X124416192Y-73851818D01*
X124166899Y-73985068D01*
X123948392Y-74164392D01*
X123769068Y-74382899D01*
X123695421Y-74520682D01*
X123580385Y-74328869D01*
X123391414Y-74120481D01*
X123165420Y-73952963D01*
X122911087Y-73832754D01*
X122777039Y-73792096D01*
X122555000Y-73914085D01*
X122555000Y-75057000D01*
X122575000Y-75057000D01*
X122575000Y-75311000D01*
X122555000Y-75311000D01*
X122555000Y-75331000D01*
X122301000Y-75331000D01*
X122301000Y-75311000D01*
X121157376Y-75311000D01*
X121036091Y-75533040D01*
X121041807Y-75549001D01*
X114595320Y-75549001D01*
X114557997Y-75545325D01*
X114520674Y-75549001D01*
X114520664Y-75549001D01*
X114409011Y-75559998D01*
X114265750Y-75603455D01*
X114133720Y-75674027D01*
X114050080Y-75742669D01*
X114017996Y-75769000D01*
X113994198Y-75797998D01*
X112882570Y-76909626D01*
X112836537Y-76823506D01*
X112768364Y-76740437D01*
X114435803Y-75072999D01*
X118181679Y-75072999D01*
X118219001Y-75076675D01*
X118256323Y-75072999D01*
X118256334Y-75072999D01*
X118367987Y-75062002D01*
X118511248Y-75018545D01*
X118643277Y-74947973D01*
X118759002Y-74853000D01*
X118773807Y-74834960D01*
X121036091Y-74834960D01*
X121157376Y-75057000D01*
X122301000Y-75057000D01*
X122301000Y-73914085D01*
X122078961Y-73792096D01*
X121944913Y-73832754D01*
X121690580Y-73952963D01*
X121464586Y-74120481D01*
X121275615Y-74328869D01*
X121130930Y-74570119D01*
X121036091Y-74834960D01*
X118773807Y-74834960D01*
X118782805Y-74823996D01*
X124642094Y-68964708D01*
X124686691Y-68978236D01*
X124897508Y-68999000D01*
X125038492Y-68999000D01*
X125249309Y-68978236D01*
X125519808Y-68896182D01*
X125769101Y-68762932D01*
X125987608Y-68583608D01*
X126166932Y-68365101D01*
X126238000Y-68232142D01*
X126309068Y-68365101D01*
X126309068Y-68365101D01*
G37*
X126309068Y-68365101D02*
X126488392Y-68583608D01*
X126706899Y-68762932D01*
X126748000Y-68784901D01*
X126748001Y-73963099D01*
X126706899Y-73985068D01*
X126488392Y-74164392D01*
X126309068Y-74382899D01*
X126238000Y-74515858D01*
X126166932Y-74382899D01*
X125987608Y-74164392D01*
X125769101Y-73985068D01*
X125519808Y-73851818D01*
X125249309Y-73769764D01*
X125038492Y-73749000D01*
X124897508Y-73749000D01*
X124686691Y-73769764D01*
X124416192Y-73851818D01*
X124166899Y-73985068D01*
X123948392Y-74164392D01*
X123769068Y-74382899D01*
X123695421Y-74520682D01*
X123580385Y-74328869D01*
X123391414Y-74120481D01*
X123165420Y-73952963D01*
X122911087Y-73832754D01*
X122777039Y-73792096D01*
X122555000Y-73914085D01*
X122555000Y-75057000D01*
X122575000Y-75057000D01*
X122575000Y-75311000D01*
X122555000Y-75311000D01*
X122555000Y-75331000D01*
X122301000Y-75331000D01*
X122301000Y-75311000D01*
X121157376Y-75311000D01*
X121036091Y-75533040D01*
X121041807Y-75549001D01*
X114595320Y-75549001D01*
X114557997Y-75545325D01*
X114520674Y-75549001D01*
X114520664Y-75549001D01*
X114409011Y-75559998D01*
X114265750Y-75603455D01*
X114133720Y-75674027D01*
X114050080Y-75742669D01*
X114017996Y-75769000D01*
X113994198Y-75797998D01*
X112882570Y-76909626D01*
X112836537Y-76823506D01*
X112768364Y-76740437D01*
X114435803Y-75072999D01*
X118181679Y-75072999D01*
X118219001Y-75076675D01*
X118256323Y-75072999D01*
X118256334Y-75072999D01*
X118367987Y-75062002D01*
X118511248Y-75018545D01*
X118643277Y-74947973D01*
X118759002Y-74853000D01*
X118773807Y-74834960D01*
X121036091Y-74834960D01*
X121157376Y-75057000D01*
X122301000Y-75057000D01*
X122301000Y-73914085D01*
X122078961Y-73792096D01*
X121944913Y-73832754D01*
X121690580Y-73952963D01*
X121464586Y-74120481D01*
X121275615Y-74328869D01*
X121130930Y-74570119D01*
X121036091Y-74834960D01*
X118773807Y-74834960D01*
X118782805Y-74823996D01*
X124642094Y-68964708D01*
X124686691Y-68978236D01*
X124897508Y-68999000D01*
X125038492Y-68999000D01*
X125249309Y-68978236D01*
X125519808Y-68896182D01*
X125769101Y-68762932D01*
X125987608Y-68583608D01*
X126166932Y-68365101D01*
X126238000Y-68232142D01*
X126309068Y-68365101D01*
M02*
