G04 #@! TF.GenerationSoftware,KiCad,Pcbnew,(5.1.4)-1*
G04 #@! TF.CreationDate,2022-04-19T14:35:24+01:00*
G04 #@! TF.ProjectId,Swarm-B,53776172-6d2d-4422-9e6b-696361645f70,rev?*
G04 #@! TF.SameCoordinates,Original*
G04 #@! TF.FileFunction,Legend,Bot*
G04 #@! TF.FilePolarity,Positive*
%FSLAX46Y46*%
G04 Gerber Fmt 4.6, Leading zero omitted, Abs format (unit mm)*
G04 Created by KiCad (PCBNEW (5.1.4)-1) date 2022-04-19 14:35:24*
%MOMM*%
%LPD*%
G04 APERTURE LIST*
%ADD10C,0.300000*%
G04 APERTURE END LIST*
D10*
X130147142Y-103842571D02*
X130218571Y-104056857D01*
X130218571Y-104414000D01*
X130147142Y-104556857D01*
X130075714Y-104628285D01*
X129932857Y-104699714D01*
X129790000Y-104699714D01*
X129647142Y-104628285D01*
X129575714Y-104556857D01*
X129504285Y-104414000D01*
X129432857Y-104128285D01*
X129361428Y-103985428D01*
X129290000Y-103914000D01*
X129147142Y-103842571D01*
X129004285Y-103842571D01*
X128861428Y-103914000D01*
X128790000Y-103985428D01*
X128718571Y-104128285D01*
X128718571Y-104485428D01*
X128790000Y-104699714D01*
X130218571Y-105342571D02*
X128718571Y-105342571D01*
X128718571Y-105699714D01*
X128790000Y-105914000D01*
X128932857Y-106056857D01*
X129075714Y-106128285D01*
X129361428Y-106199714D01*
X129575714Y-106199714D01*
X129861428Y-106128285D01*
X130004285Y-106056857D01*
X130147142Y-105914000D01*
X130218571Y-105699714D01*
X130218571Y-105342571D01*
X129790000Y-106771142D02*
X129790000Y-107485428D01*
X130218571Y-106628285D02*
X128718571Y-107128285D01*
X130218571Y-107628285D01*
X132941142Y-103878285D02*
X133012571Y-104092571D01*
X133012571Y-104449714D01*
X132941142Y-104592571D01*
X132869714Y-104664000D01*
X132726857Y-104735428D01*
X132584000Y-104735428D01*
X132441142Y-104664000D01*
X132369714Y-104592571D01*
X132298285Y-104449714D01*
X132226857Y-104164000D01*
X132155428Y-104021142D01*
X132084000Y-103949714D01*
X131941142Y-103878285D01*
X131798285Y-103878285D01*
X131655428Y-103949714D01*
X131584000Y-104021142D01*
X131512571Y-104164000D01*
X131512571Y-104521142D01*
X131584000Y-104735428D01*
X132869714Y-106235428D02*
X132941142Y-106164000D01*
X133012571Y-105949714D01*
X133012571Y-105806857D01*
X132941142Y-105592571D01*
X132798285Y-105449714D01*
X132655428Y-105378285D01*
X132369714Y-105306857D01*
X132155428Y-105306857D01*
X131869714Y-105378285D01*
X131726857Y-105449714D01*
X131584000Y-105592571D01*
X131512571Y-105806857D01*
X131512571Y-105949714D01*
X131584000Y-106164000D01*
X131655428Y-106235428D01*
X133012571Y-107592571D02*
X133012571Y-106878285D01*
X131512571Y-106878285D01*
X124440000Y-86506857D02*
X124225714Y-86578285D01*
X124154285Y-86649714D01*
X124082857Y-86792571D01*
X124082857Y-87006857D01*
X124154285Y-87149714D01*
X124225714Y-87221142D01*
X124368571Y-87292571D01*
X124940000Y-87292571D01*
X124940000Y-85792571D01*
X124440000Y-85792571D01*
X124297142Y-85864000D01*
X124225714Y-85935428D01*
X124154285Y-86078285D01*
X124154285Y-86221142D01*
X124225714Y-86364000D01*
X124297142Y-86435428D01*
X124440000Y-86506857D01*
X124940000Y-86506857D01*
X122725714Y-87292571D02*
X123440000Y-87292571D01*
X123440000Y-85792571D01*
X122225714Y-87292571D02*
X122225714Y-85792571D01*
X121368571Y-87292571D02*
X122011428Y-86435428D01*
X121368571Y-85792571D02*
X122225714Y-86649714D01*
X124154285Y-89832571D02*
X124654285Y-89118285D01*
X125011428Y-89832571D02*
X125011428Y-88332571D01*
X124440000Y-88332571D01*
X124297142Y-88404000D01*
X124225714Y-88475428D01*
X124154285Y-88618285D01*
X124154285Y-88832571D01*
X124225714Y-88975428D01*
X124297142Y-89046857D01*
X124440000Y-89118285D01*
X125011428Y-89118285D01*
X123511428Y-89046857D02*
X123011428Y-89046857D01*
X122797142Y-89832571D02*
X123511428Y-89832571D01*
X123511428Y-88332571D01*
X122797142Y-88332571D01*
X122154285Y-89832571D02*
X122154285Y-88332571D01*
X121797142Y-88332571D01*
X121582857Y-88404000D01*
X121440000Y-88546857D01*
X121368571Y-88689714D01*
X121297142Y-88975428D01*
X121297142Y-89189714D01*
X121368571Y-89475428D01*
X121440000Y-89618285D01*
X121582857Y-89761142D01*
X121797142Y-89832571D01*
X122154285Y-89832571D01*
X126174571Y-86721142D02*
X127317428Y-86721142D01*
X126174571Y-89261142D02*
X127317428Y-89261142D01*
X126746000Y-89832571D02*
X126746000Y-88689714D01*
M02*
