G04 #@! TF.GenerationSoftware,KiCad,Pcbnew,(5.1.4)-1*
G04 #@! TF.CreationDate,2022-03-16T14:08:13+00:00*
G04 #@! TF.ProjectId,Swarm-B,53776172-6d2d-4422-9e6b-696361645f70,rev?*
G04 #@! TF.SameCoordinates,Original*
G04 #@! TF.FileFunction,Legend,Bot*
G04 #@! TF.FilePolarity,Positive*
%FSLAX46Y46*%
G04 Gerber Fmt 4.6, Leading zero omitted, Abs format (unit mm)*
G04 Created by KiCad (PCBNEW (5.1.4)-1) date 2022-03-16 14:08:13*
%MOMM*%
%LPD*%
G04 APERTURE LIST*
%ADD10C,0.300000*%
G04 APERTURE END LIST*
D10*
X124440000Y-86506857D02*
X124225714Y-86578285D01*
X124154285Y-86649714D01*
X124082857Y-86792571D01*
X124082857Y-87006857D01*
X124154285Y-87149714D01*
X124225714Y-87221142D01*
X124368571Y-87292571D01*
X124940000Y-87292571D01*
X124940000Y-85792571D01*
X124440000Y-85792571D01*
X124297142Y-85864000D01*
X124225714Y-85935428D01*
X124154285Y-86078285D01*
X124154285Y-86221142D01*
X124225714Y-86364000D01*
X124297142Y-86435428D01*
X124440000Y-86506857D01*
X124940000Y-86506857D01*
X122725714Y-87292571D02*
X123440000Y-87292571D01*
X123440000Y-85792571D01*
X122225714Y-87292571D02*
X122225714Y-85792571D01*
X121368571Y-87292571D02*
X122011428Y-86435428D01*
X121368571Y-85792571D02*
X122225714Y-86649714D01*
X124154285Y-89832571D02*
X124654285Y-89118285D01*
X125011428Y-89832571D02*
X125011428Y-88332571D01*
X124440000Y-88332571D01*
X124297142Y-88404000D01*
X124225714Y-88475428D01*
X124154285Y-88618285D01*
X124154285Y-88832571D01*
X124225714Y-88975428D01*
X124297142Y-89046857D01*
X124440000Y-89118285D01*
X125011428Y-89118285D01*
X123511428Y-89046857D02*
X123011428Y-89046857D01*
X122797142Y-89832571D02*
X123511428Y-89832571D01*
X123511428Y-88332571D01*
X122797142Y-88332571D01*
X122154285Y-89832571D02*
X122154285Y-88332571D01*
X121797142Y-88332571D01*
X121582857Y-88404000D01*
X121440000Y-88546857D01*
X121368571Y-88689714D01*
X121297142Y-88975428D01*
X121297142Y-89189714D01*
X121368571Y-89475428D01*
X121440000Y-89618285D01*
X121582857Y-89761142D01*
X121797142Y-89832571D01*
X122154285Y-89832571D01*
X131000571Y-86721142D02*
X132143428Y-86721142D01*
X131000571Y-89261142D02*
X132143428Y-89261142D01*
X131572000Y-89832571D02*
X131572000Y-88689714D01*
M02*
