M48
INCH,TZ
T1C0.0157
T2C0.0276
T3C0.0295
T4C0.0315
T5C0.0354
T6C0.0394
T7C0.0433
%
G90
G05
T1
X45100Y-39200
X47100Y-28100
X53400Y-49800
T2
X53500Y-36300
X53500Y-36800
X53500Y-37300
X53500Y-37800
X36600Y-30800
X36600Y-33800
X49000Y-44000
X49000Y-47000
X47500Y-44000
X47500Y-47000
X33800Y-38300
X36800Y-38300
X46000Y-44000
X46000Y-47000
T3
X53400Y-32100
X53400Y-35100
T4
X55800Y-40600
X55800Y-42600
X57800Y-41600
X55800Y-31700
X55800Y-33700
X57800Y-32700
X34100Y-41400
X35100Y-40400
X35100Y-42400
X55800Y-36100
X55800Y-38100
X57800Y-37100
X37900Y-30700
X37900Y-31700
X37900Y-32700
X37900Y-33700
X37900Y-34700
X37900Y-35700
X37900Y-36700
X37900Y-37700
X37900Y-38700
X37900Y-39700
X37900Y-40700
X37900Y-41700
X37900Y-42700
X37900Y-43700
X37900Y-44700
X43900Y-30700
X43900Y-31700
X43900Y-32700
X43900Y-33700
X43900Y-34700
X43900Y-35700
X43900Y-36700
X43900Y-37700
X43900Y-38700
X43900Y-39700
X43900Y-40700
X43900Y-41700
X43900Y-42700
X43900Y-43700
X43900Y-44700
X48200Y-26600
X48200Y-29600
X49200Y-26600
X49200Y-29600
X50200Y-26600
X50200Y-29600
X51200Y-26600
X51200Y-29600
X52200Y-26600
X52200Y-29600
X53200Y-26600
X53200Y-29600
X54200Y-26600
X54200Y-29600
X46800Y-39300
X46800Y-40481
T5
X50449Y-24291
X51400Y-24600
X35700Y-29700
X36288Y-28891
X50400Y-50000
X51351Y-49691
X35712Y-44491
X36300Y-45300
X48900Y-36100
X48900Y-37100
X48900Y-38100
X60100Y-36600
X60100Y-37600
T6
X51000Y-35100
X52000Y-35100
X46900Y-31000
X46900Y-32000
X51000Y-40100
X52000Y-40100
X51000Y-34100
X52000Y-34100
T7
X51328Y-44000
X51328Y-46559
X53100Y-44000
X53100Y-46559
T0
M30
