G04 #@! TF.GenerationSoftware,KiCad,Pcbnew,(5.1.4)-1*
G04 #@! TF.CreationDate,2022-04-19T14:35:24+01:00*
G04 #@! TF.ProjectId,Swarm-B,53776172-6d2d-4422-9e6b-696361645f70,rev?*
G04 #@! TF.SameCoordinates,Original*
G04 #@! TF.FileFunction,Legend,Top*
G04 #@! TF.FilePolarity,Positive*
%FSLAX46Y46*%
G04 Gerber Fmt 4.6, Leading zero omitted, Abs format (unit mm)*
G04 Created by KiCad (PCBNEW (5.1.4)-1) date 2022-04-19 14:35:24*
%MOMM*%
%LPD*%
G04 APERTURE LIST*
%ADD10C,0.150000*%
%ADD11C,0.120000*%
G04 APERTURE END LIST*
D10*
X106467238Y-124245714D02*
X106467238Y-125055238D01*
X106419619Y-125150476D01*
X106372000Y-125198095D01*
X106276761Y-125245714D01*
X106133904Y-125245714D01*
X106038666Y-125198095D01*
X106467238Y-124864761D02*
X106372000Y-124912380D01*
X106181523Y-124912380D01*
X106086285Y-124864761D01*
X106038666Y-124817142D01*
X105991047Y-124721904D01*
X105991047Y-124436190D01*
X106038666Y-124340952D01*
X106086285Y-124293333D01*
X106181523Y-124245714D01*
X106372000Y-124245714D01*
X106467238Y-124293333D01*
X106943428Y-124912380D02*
X106943428Y-124245714D01*
X106943428Y-123912380D02*
X106895809Y-123960000D01*
X106943428Y-124007619D01*
X106991047Y-123960000D01*
X106943428Y-123912380D01*
X106943428Y-124007619D01*
X107276761Y-124245714D02*
X107657714Y-124245714D01*
X107419619Y-123912380D02*
X107419619Y-124769523D01*
X107467238Y-124864761D01*
X107562476Y-124912380D01*
X107657714Y-124912380D01*
X107991047Y-124912380D02*
X107991047Y-123912380D01*
X108419619Y-124912380D02*
X108419619Y-124388571D01*
X108372000Y-124293333D01*
X108276761Y-124245714D01*
X108133904Y-124245714D01*
X108038666Y-124293333D01*
X107991047Y-124340952D01*
X109324380Y-124245714D02*
X109324380Y-124912380D01*
X108895809Y-124245714D02*
X108895809Y-124769523D01*
X108943428Y-124864761D01*
X109038666Y-124912380D01*
X109181523Y-124912380D01*
X109276761Y-124864761D01*
X109324380Y-124817142D01*
X109800571Y-124912380D02*
X109800571Y-123912380D01*
X109800571Y-124293333D02*
X109895809Y-124245714D01*
X110086285Y-124245714D01*
X110181523Y-124293333D01*
X110229142Y-124340952D01*
X110276761Y-124436190D01*
X110276761Y-124721904D01*
X110229142Y-124817142D01*
X110181523Y-124864761D01*
X110086285Y-124912380D01*
X109895809Y-124912380D01*
X109800571Y-124864761D01*
X110705333Y-124817142D02*
X110752952Y-124864761D01*
X110705333Y-124912380D01*
X110657714Y-124864761D01*
X110705333Y-124817142D01*
X110705333Y-124912380D01*
X111610095Y-124864761D02*
X111514857Y-124912380D01*
X111324380Y-124912380D01*
X111229142Y-124864761D01*
X111181523Y-124817142D01*
X111133904Y-124721904D01*
X111133904Y-124436190D01*
X111181523Y-124340952D01*
X111229142Y-124293333D01*
X111324380Y-124245714D01*
X111514857Y-124245714D01*
X111610095Y-124293333D01*
X112181523Y-124912380D02*
X112086285Y-124864761D01*
X112038666Y-124817142D01*
X111991047Y-124721904D01*
X111991047Y-124436190D01*
X112038666Y-124340952D01*
X112086285Y-124293333D01*
X112181523Y-124245714D01*
X112324380Y-124245714D01*
X112419619Y-124293333D01*
X112467238Y-124340952D01*
X112514857Y-124436190D01*
X112514857Y-124721904D01*
X112467238Y-124817142D01*
X112419619Y-124864761D01*
X112324380Y-124912380D01*
X112181523Y-124912380D01*
X112943428Y-124912380D02*
X112943428Y-124245714D01*
X112943428Y-124340952D02*
X112991047Y-124293333D01*
X113086285Y-124245714D01*
X113229142Y-124245714D01*
X113324380Y-124293333D01*
X113372000Y-124388571D01*
X113372000Y-124912380D01*
X113372000Y-124388571D02*
X113419619Y-124293333D01*
X113514857Y-124245714D01*
X113657714Y-124245714D01*
X113752952Y-124293333D01*
X113800571Y-124388571D01*
X113800571Y-124912380D01*
X114991047Y-123864761D02*
X114133904Y-125150476D01*
X115324380Y-124245714D02*
X115324380Y-125245714D01*
X115324380Y-124293333D02*
X115419619Y-124245714D01*
X115610095Y-124245714D01*
X115705333Y-124293333D01*
X115752952Y-124340952D01*
X115800571Y-124436190D01*
X115800571Y-124721904D01*
X115752952Y-124817142D01*
X115705333Y-124864761D01*
X115610095Y-124912380D01*
X115419619Y-124912380D01*
X115324380Y-124864761D01*
X116657714Y-124912380D02*
X116657714Y-124388571D01*
X116610095Y-124293333D01*
X116514857Y-124245714D01*
X116324380Y-124245714D01*
X116229142Y-124293333D01*
X116657714Y-124864761D02*
X116562476Y-124912380D01*
X116324380Y-124912380D01*
X116229142Y-124864761D01*
X116181523Y-124769523D01*
X116181523Y-124674285D01*
X116229142Y-124579047D01*
X116324380Y-124531428D01*
X116562476Y-124531428D01*
X116657714Y-124483809D01*
X117562476Y-124245714D02*
X117562476Y-124912380D01*
X117133904Y-124245714D02*
X117133904Y-124769523D01*
X117181523Y-124864761D01*
X117276761Y-124912380D01*
X117419619Y-124912380D01*
X117514857Y-124864761D01*
X117562476Y-124817142D01*
X118181523Y-124912380D02*
X118086285Y-124864761D01*
X118038666Y-124769523D01*
X118038666Y-123912380D01*
X118705333Y-124912380D02*
X118610095Y-124864761D01*
X118562476Y-124817142D01*
X118514857Y-124721904D01*
X118514857Y-124436190D01*
X118562476Y-124340952D01*
X118610095Y-124293333D01*
X118705333Y-124245714D01*
X118848190Y-124245714D01*
X118943428Y-124293333D01*
X118991047Y-124340952D01*
X119038666Y-124436190D01*
X119038666Y-124721904D01*
X118991047Y-124817142D01*
X118943428Y-124864761D01*
X118848190Y-124912380D01*
X118705333Y-124912380D01*
X119895809Y-124912380D02*
X119895809Y-123912380D01*
X119895809Y-124864761D02*
X119800571Y-124912380D01*
X119610095Y-124912380D01*
X119514857Y-124864761D01*
X119467238Y-124817142D01*
X119419619Y-124721904D01*
X119419619Y-124436190D01*
X119467238Y-124340952D01*
X119514857Y-124293333D01*
X119610095Y-124245714D01*
X119800571Y-124245714D01*
X119895809Y-124293333D01*
X120514857Y-124912380D02*
X120419619Y-124864761D01*
X120372000Y-124817142D01*
X120324380Y-124721904D01*
X120324380Y-124436190D01*
X120372000Y-124340952D01*
X120419619Y-124293333D01*
X120514857Y-124245714D01*
X120657714Y-124245714D01*
X120752952Y-124293333D01*
X120800571Y-124340952D01*
X120848190Y-124436190D01*
X120848190Y-124721904D01*
X120800571Y-124817142D01*
X120752952Y-124864761D01*
X120657714Y-124912380D01*
X120514857Y-124912380D01*
X121181523Y-124245714D02*
X121372000Y-124912380D01*
X121562476Y-124436190D01*
X121752952Y-124912380D01*
X121943428Y-124245714D01*
X122752952Y-124912380D02*
X122752952Y-123912380D01*
X122752952Y-124864761D02*
X122657714Y-124912380D01*
X122467238Y-124912380D01*
X122372000Y-124864761D01*
X122324380Y-124817142D01*
X122276761Y-124721904D01*
X122276761Y-124436190D01*
X122324380Y-124340952D01*
X122372000Y-124293333D01*
X122467238Y-124245714D01*
X122657714Y-124245714D01*
X122752952Y-124293333D01*
X123943428Y-123864761D02*
X123086285Y-125150476D01*
X124229142Y-124864761D02*
X124372000Y-124912380D01*
X124610095Y-124912380D01*
X124705333Y-124864761D01*
X124752952Y-124817142D01*
X124800571Y-124721904D01*
X124800571Y-124626666D01*
X124752952Y-124531428D01*
X124705333Y-124483809D01*
X124610095Y-124436190D01*
X124419619Y-124388571D01*
X124324380Y-124340952D01*
X124276761Y-124293333D01*
X124229142Y-124198095D01*
X124229142Y-124102857D01*
X124276761Y-124007619D01*
X124324380Y-123960000D01*
X124419619Y-123912380D01*
X124657714Y-123912380D01*
X124800571Y-123960000D01*
X125133904Y-124245714D02*
X125324380Y-124912380D01*
X125514857Y-124436190D01*
X125705333Y-124912380D01*
X125895809Y-124245714D01*
X126705333Y-124912380D02*
X126705333Y-124388571D01*
X126657714Y-124293333D01*
X126562476Y-124245714D01*
X126372000Y-124245714D01*
X126276761Y-124293333D01*
X126705333Y-124864761D02*
X126610095Y-124912380D01*
X126372000Y-124912380D01*
X126276761Y-124864761D01*
X126229142Y-124769523D01*
X126229142Y-124674285D01*
X126276761Y-124579047D01*
X126372000Y-124531428D01*
X126610095Y-124531428D01*
X126705333Y-124483809D01*
X127181523Y-124912380D02*
X127181523Y-124245714D01*
X127181523Y-124436190D02*
X127229142Y-124340952D01*
X127276761Y-124293333D01*
X127372000Y-124245714D01*
X127467238Y-124245714D01*
X127800571Y-124912380D02*
X127800571Y-124245714D01*
X127800571Y-124340952D02*
X127848190Y-124293333D01*
X127943428Y-124245714D01*
X128086285Y-124245714D01*
X128181523Y-124293333D01*
X128229142Y-124388571D01*
X128229142Y-124912380D01*
X128229142Y-124388571D02*
X128276761Y-124293333D01*
X128372000Y-124245714D01*
X128514857Y-124245714D01*
X128610095Y-124293333D01*
X128657714Y-124388571D01*
X128657714Y-124912380D01*
X129133904Y-124531428D02*
X129895809Y-124531428D01*
X130705333Y-124388571D02*
X130848190Y-124436190D01*
X130895809Y-124483809D01*
X130943428Y-124579047D01*
X130943428Y-124721904D01*
X130895809Y-124817142D01*
X130848190Y-124864761D01*
X130752952Y-124912380D01*
X130372000Y-124912380D01*
X130372000Y-123912380D01*
X130705333Y-123912380D01*
X130800571Y-123960000D01*
X130848190Y-124007619D01*
X130895809Y-124102857D01*
X130895809Y-124198095D01*
X130848190Y-124293333D01*
X130800571Y-124340952D01*
X130705333Y-124388571D01*
X130372000Y-124388571D01*
X131324380Y-124864761D02*
X131419619Y-124912380D01*
X131610095Y-124912380D01*
X131705333Y-124864761D01*
X131752952Y-124769523D01*
X131752952Y-124721904D01*
X131705333Y-124626666D01*
X131610095Y-124579047D01*
X131467238Y-124579047D01*
X131372000Y-124531428D01*
X131324380Y-124436190D01*
X131324380Y-124388571D01*
X131372000Y-124293333D01*
X131467238Y-124245714D01*
X131610095Y-124245714D01*
X131705333Y-124293333D01*
X90414619Y-84146000D02*
X91414619Y-84146000D01*
X91414619Y-84526952D01*
X91367000Y-84622190D01*
X91319380Y-84669809D01*
X91224142Y-84717428D01*
X91081285Y-84717428D01*
X90986047Y-84669809D01*
X90938428Y-84622190D01*
X90890809Y-84526952D01*
X90890809Y-84146000D01*
X90414619Y-85574571D02*
X90938428Y-85574571D01*
X91033666Y-85526952D01*
X91081285Y-85431714D01*
X91081285Y-85241238D01*
X91033666Y-85146000D01*
X90462238Y-85574571D02*
X90414619Y-85479333D01*
X90414619Y-85241238D01*
X90462238Y-85146000D01*
X90557476Y-85098380D01*
X90652714Y-85098380D01*
X90747952Y-85146000D01*
X90795571Y-85241238D01*
X90795571Y-85479333D01*
X90843190Y-85574571D01*
X91081285Y-86479333D02*
X90414619Y-86479333D01*
X91081285Y-86050761D02*
X90557476Y-86050761D01*
X90462238Y-86098380D01*
X90414619Y-86193619D01*
X90414619Y-86336476D01*
X90462238Y-86431714D01*
X90509857Y-86479333D01*
X90414619Y-87098380D02*
X90462238Y-87003142D01*
X90557476Y-86955523D01*
X91414619Y-86955523D01*
X91414619Y-88431714D02*
X91414619Y-88622190D01*
X91367000Y-88717428D01*
X91271761Y-88812666D01*
X91081285Y-88860285D01*
X90747952Y-88860285D01*
X90557476Y-88812666D01*
X90462238Y-88717428D01*
X90414619Y-88622190D01*
X90414619Y-88431714D01*
X90462238Y-88336476D01*
X90557476Y-88241238D01*
X90747952Y-88193619D01*
X91081285Y-88193619D01*
X91271761Y-88241238D01*
X91367000Y-88336476D01*
X91414619Y-88431714D01*
X91414619Y-89336476D02*
X91224142Y-89241238D01*
X90414619Y-89765047D02*
X91414619Y-89765047D01*
X91414619Y-90003142D01*
X91367000Y-90146000D01*
X91271761Y-90241238D01*
X91176523Y-90288857D01*
X90986047Y-90336476D01*
X90843190Y-90336476D01*
X90652714Y-90288857D01*
X90557476Y-90241238D01*
X90462238Y-90146000D01*
X90414619Y-90003142D01*
X90414619Y-89765047D01*
X90414619Y-90907904D02*
X90462238Y-90812666D01*
X90509857Y-90765047D01*
X90605095Y-90717428D01*
X90890809Y-90717428D01*
X90986047Y-90765047D01*
X91033666Y-90812666D01*
X91081285Y-90907904D01*
X91081285Y-91050761D01*
X91033666Y-91146000D01*
X90986047Y-91193619D01*
X90890809Y-91241238D01*
X90605095Y-91241238D01*
X90509857Y-91193619D01*
X90462238Y-91146000D01*
X90414619Y-91050761D01*
X90414619Y-90907904D01*
X91081285Y-91574571D02*
X90414619Y-91765047D01*
X90890809Y-91955523D01*
X90414619Y-92146000D01*
X91081285Y-92336476D01*
X90414619Y-93146000D02*
X91414619Y-93146000D01*
X90462238Y-93146000D02*
X90414619Y-93050761D01*
X90414619Y-92860285D01*
X90462238Y-92765047D01*
X90509857Y-92717428D01*
X90605095Y-92669809D01*
X90890809Y-92669809D01*
X90986047Y-92717428D01*
X91033666Y-92765047D01*
X91081285Y-92860285D01*
X91081285Y-93050761D01*
X91033666Y-93146000D01*
X88859857Y-84574571D02*
X88812238Y-84526952D01*
X88764619Y-84384095D01*
X88764619Y-84288857D01*
X88812238Y-84146000D01*
X88907476Y-84050761D01*
X89002714Y-84003142D01*
X89193190Y-83955523D01*
X89336047Y-83955523D01*
X89526523Y-84003142D01*
X89621761Y-84050761D01*
X89717000Y-84146000D01*
X89764619Y-84288857D01*
X89764619Y-84384095D01*
X89717000Y-84526952D01*
X89669380Y-84574571D01*
X88764619Y-85003142D02*
X89764619Y-85003142D01*
X88764619Y-85431714D02*
X89288428Y-85431714D01*
X89383666Y-85384095D01*
X89431285Y-85288857D01*
X89431285Y-85146000D01*
X89383666Y-85050761D01*
X89336047Y-85003142D01*
X88764619Y-86336476D02*
X89288428Y-86336476D01*
X89383666Y-86288857D01*
X89431285Y-86193619D01*
X89431285Y-86003142D01*
X89383666Y-85907904D01*
X88812238Y-86336476D02*
X88764619Y-86241238D01*
X88764619Y-86003142D01*
X88812238Y-85907904D01*
X88907476Y-85860285D01*
X89002714Y-85860285D01*
X89097952Y-85907904D01*
X89145571Y-86003142D01*
X89145571Y-86241238D01*
X89193190Y-86336476D01*
X89431285Y-86812666D02*
X88764619Y-86812666D01*
X89336047Y-86812666D02*
X89383666Y-86860285D01*
X89431285Y-86955523D01*
X89431285Y-87098380D01*
X89383666Y-87193619D01*
X89288428Y-87241238D01*
X88764619Y-87241238D01*
X88812238Y-88098380D02*
X88764619Y-88003142D01*
X88764619Y-87812666D01*
X88812238Y-87717428D01*
X88907476Y-87669809D01*
X89288428Y-87669809D01*
X89383666Y-87717428D01*
X89431285Y-87812666D01*
X89431285Y-88003142D01*
X89383666Y-88098380D01*
X89288428Y-88146000D01*
X89193190Y-88146000D01*
X89097952Y-87669809D01*
X88764619Y-88717428D02*
X88812238Y-88622190D01*
X88907476Y-88574571D01*
X89764619Y-88574571D01*
X88764619Y-89241238D02*
X88812238Y-89145999D01*
X88907476Y-89098380D01*
X89764619Y-89098380D01*
X88812238Y-90003142D02*
X88764619Y-89907904D01*
X88764619Y-89717428D01*
X88812238Y-89622190D01*
X88907476Y-89574571D01*
X89288428Y-89574571D01*
X89383666Y-89622190D01*
X89431285Y-89717428D01*
X89431285Y-89907904D01*
X89383666Y-90003142D01*
X89288428Y-90050761D01*
X89193190Y-90050761D01*
X89097952Y-89574571D01*
X88764619Y-91717428D02*
X88764619Y-91241238D01*
X89764619Y-91241238D01*
X88812238Y-92431714D02*
X88764619Y-92336476D01*
X88764619Y-92145999D01*
X88812238Y-92050761D01*
X88907476Y-92003142D01*
X89288428Y-92003142D01*
X89383666Y-92050761D01*
X89431285Y-92145999D01*
X89431285Y-92336476D01*
X89383666Y-92431714D01*
X89288428Y-92479333D01*
X89193190Y-92479333D01*
X89097952Y-92003142D01*
X88812238Y-93288857D02*
X88764619Y-93193619D01*
X88764619Y-93003142D01*
X88812238Y-92907904D01*
X88907476Y-92860285D01*
X89288428Y-92860285D01*
X89383666Y-92907904D01*
X89431285Y-93003142D01*
X89431285Y-93193619D01*
X89383666Y-93288857D01*
X89288428Y-93336476D01*
X89193190Y-93336476D01*
X89097952Y-92860285D01*
X87638428Y-82836476D02*
X87638428Y-83169809D01*
X87114619Y-83312666D02*
X87114619Y-82836476D01*
X88114619Y-82836476D01*
X88114619Y-83312666D01*
X87781285Y-83741238D02*
X87114619Y-83741238D01*
X87686047Y-83741238D02*
X87733666Y-83788857D01*
X87781285Y-83884095D01*
X87781285Y-84026952D01*
X87733666Y-84122190D01*
X87638428Y-84169809D01*
X87114619Y-84169809D01*
X87781285Y-85074571D02*
X86971761Y-85074571D01*
X86876523Y-85026952D01*
X86828904Y-84979333D01*
X86781285Y-84884095D01*
X86781285Y-84741238D01*
X86828904Y-84646000D01*
X87162238Y-85074571D02*
X87114619Y-84979333D01*
X87114619Y-84788857D01*
X87162238Y-84693619D01*
X87209857Y-84646000D01*
X87305095Y-84598380D01*
X87590809Y-84598380D01*
X87686047Y-84646000D01*
X87733666Y-84693619D01*
X87781285Y-84788857D01*
X87781285Y-84979333D01*
X87733666Y-85074571D01*
X87209857Y-85550761D02*
X87162238Y-85598380D01*
X87114619Y-85550761D01*
X87162238Y-85503142D01*
X87209857Y-85550761D01*
X87114619Y-85550761D01*
X87114619Y-86026952D02*
X88114619Y-86026952D01*
X87400333Y-86360285D01*
X88114619Y-86693619D01*
X87114619Y-86693619D01*
X87114619Y-87598380D02*
X87638428Y-87598380D01*
X87733666Y-87550761D01*
X87781285Y-87455523D01*
X87781285Y-87265047D01*
X87733666Y-87169809D01*
X87162238Y-87598380D02*
X87114619Y-87503142D01*
X87114619Y-87265047D01*
X87162238Y-87169809D01*
X87257476Y-87122190D01*
X87352714Y-87122190D01*
X87447952Y-87169809D01*
X87495571Y-87265047D01*
X87495571Y-87503142D01*
X87543190Y-87598380D01*
X87781285Y-87931714D02*
X87781285Y-88312666D01*
X88114619Y-88074571D02*
X87257476Y-88074571D01*
X87162238Y-88122190D01*
X87114619Y-88217428D01*
X87114619Y-88312666D01*
X87114619Y-88646000D02*
X88114619Y-88646000D01*
X87114619Y-89074571D02*
X87638428Y-89074571D01*
X87733666Y-89026952D01*
X87781285Y-88931714D01*
X87781285Y-88788857D01*
X87733666Y-88693619D01*
X87686047Y-88646000D01*
X87162238Y-89503142D02*
X87114619Y-89598380D01*
X87114619Y-89788857D01*
X87162238Y-89884095D01*
X87257476Y-89931714D01*
X87305095Y-89931714D01*
X87400333Y-89884095D01*
X87447952Y-89788857D01*
X87447952Y-89646000D01*
X87495571Y-89550761D01*
X87590809Y-89503142D01*
X87638428Y-89503142D01*
X87733666Y-89550761D01*
X87781285Y-89646000D01*
X87781285Y-89788857D01*
X87733666Y-89884095D01*
X88019380Y-91074571D02*
X88067000Y-91122190D01*
X88114619Y-91217428D01*
X88114619Y-91455523D01*
X88067000Y-91550761D01*
X88019380Y-91598380D01*
X87924142Y-91646000D01*
X87828904Y-91646000D01*
X87686047Y-91598380D01*
X87114619Y-91026952D01*
X87114619Y-91646000D01*
X88114619Y-92265047D02*
X88114619Y-92360285D01*
X88067000Y-92455523D01*
X88019380Y-92503142D01*
X87924142Y-92550761D01*
X87733666Y-92598380D01*
X87495571Y-92598380D01*
X87305095Y-92550761D01*
X87209857Y-92503142D01*
X87162238Y-92455523D01*
X87114619Y-92360285D01*
X87114619Y-92265047D01*
X87162238Y-92169809D01*
X87209857Y-92122190D01*
X87305095Y-92074571D01*
X87495571Y-92026952D01*
X87733666Y-92026952D01*
X87924142Y-92074571D01*
X88019380Y-92122190D01*
X88067000Y-92169809D01*
X88114619Y-92265047D01*
X88019380Y-92979333D02*
X88067000Y-93026952D01*
X88114619Y-93122190D01*
X88114619Y-93360285D01*
X88067000Y-93455523D01*
X88019380Y-93503142D01*
X87924142Y-93550761D01*
X87828904Y-93550761D01*
X87686047Y-93503142D01*
X87114619Y-92931714D01*
X87114619Y-93550761D01*
X88019380Y-93931714D02*
X88067000Y-93979333D01*
X88114619Y-94074571D01*
X88114619Y-94312666D01*
X88067000Y-94407904D01*
X88019380Y-94455523D01*
X87924142Y-94503142D01*
X87828904Y-94503142D01*
X87686047Y-94455523D01*
X87114619Y-93884095D01*
X87114619Y-94503142D01*
X86464619Y-83479333D02*
X85655095Y-83479333D01*
X85559857Y-83526952D01*
X85512238Y-83574571D01*
X85464619Y-83669809D01*
X85464619Y-83860285D01*
X85512238Y-83955523D01*
X85559857Y-84003142D01*
X85655095Y-84050761D01*
X86464619Y-84050761D01*
X86131285Y-84526952D02*
X85464619Y-84526952D01*
X86036047Y-84526952D02*
X86083666Y-84574571D01*
X86131285Y-84669809D01*
X86131285Y-84812666D01*
X86083666Y-84907904D01*
X85988428Y-84955523D01*
X85464619Y-84955523D01*
X85464619Y-85431714D02*
X86131285Y-85431714D01*
X86464619Y-85431714D02*
X86417000Y-85384095D01*
X86369380Y-85431714D01*
X86417000Y-85479333D01*
X86464619Y-85431714D01*
X86369380Y-85431714D01*
X85559857Y-85907904D02*
X85512238Y-85955523D01*
X85464619Y-85907904D01*
X85512238Y-85860285D01*
X85559857Y-85907904D01*
X85464619Y-85907904D01*
X85464619Y-87288857D02*
X85512238Y-87193619D01*
X85559857Y-87146000D01*
X85655095Y-87098380D01*
X85940809Y-87098380D01*
X86036047Y-87146000D01*
X86083666Y-87193619D01*
X86131285Y-87288857D01*
X86131285Y-87431714D01*
X86083666Y-87526952D01*
X86036047Y-87574571D01*
X85940809Y-87622190D01*
X85655095Y-87622190D01*
X85559857Y-87574571D01*
X85512238Y-87526952D01*
X85464619Y-87431714D01*
X85464619Y-87288857D01*
X86131285Y-87907904D02*
X86131285Y-88288857D01*
X85464619Y-88050761D02*
X86321761Y-88050761D01*
X86417000Y-88098380D01*
X86464619Y-88193619D01*
X86464619Y-88288857D01*
X85988428Y-89717428D02*
X85940809Y-89860285D01*
X85893190Y-89907904D01*
X85797952Y-89955523D01*
X85655095Y-89955523D01*
X85559857Y-89907904D01*
X85512238Y-89860285D01*
X85464619Y-89765047D01*
X85464619Y-89384095D01*
X86464619Y-89384095D01*
X86464619Y-89717428D01*
X86417000Y-89812666D01*
X86369380Y-89860285D01*
X86274142Y-89907904D01*
X86178904Y-89907904D01*
X86083666Y-89860285D01*
X86036047Y-89812666D01*
X85988428Y-89717428D01*
X85988428Y-89384095D01*
X85464619Y-90384095D02*
X86131285Y-90384095D01*
X85940809Y-90384095D02*
X86036047Y-90431714D01*
X86083666Y-90479333D01*
X86131285Y-90574571D01*
X86131285Y-90669809D01*
X85464619Y-91003142D02*
X86131285Y-91003142D01*
X86464619Y-91003142D02*
X86417000Y-90955523D01*
X86369380Y-91003142D01*
X86417000Y-91050761D01*
X86464619Y-91003142D01*
X86369380Y-91003142D01*
X85512238Y-91431714D02*
X85464619Y-91526952D01*
X85464619Y-91717428D01*
X85512238Y-91812666D01*
X85607476Y-91860285D01*
X85655095Y-91860285D01*
X85750333Y-91812666D01*
X85797952Y-91717428D01*
X85797952Y-91574571D01*
X85845571Y-91479333D01*
X85940809Y-91431714D01*
X85988428Y-91431714D01*
X86083666Y-91479333D01*
X86131285Y-91574571D01*
X86131285Y-91717428D01*
X86083666Y-91812666D01*
X86131285Y-92146000D02*
X86131285Y-92526952D01*
X86464619Y-92288857D02*
X85607476Y-92288857D01*
X85512238Y-92336476D01*
X85464619Y-92431714D01*
X85464619Y-92526952D01*
X85464619Y-93003142D02*
X85512238Y-92907904D01*
X85559857Y-92860285D01*
X85655095Y-92812666D01*
X85940809Y-92812666D01*
X86036047Y-92860285D01*
X86083666Y-92907904D01*
X86131285Y-93003142D01*
X86131285Y-93146000D01*
X86083666Y-93241238D01*
X86036047Y-93288857D01*
X85940809Y-93336476D01*
X85655095Y-93336476D01*
X85559857Y-93288857D01*
X85512238Y-93241238D01*
X85464619Y-93146000D01*
X85464619Y-93003142D01*
X85464619Y-93907904D02*
X85512238Y-93812666D01*
X85607476Y-93765047D01*
X86464619Y-93765047D01*
D11*
X152689769Y-94234000D02*
G75*
G03X152689769Y-94234000I-33925775J0D01*
G01*
X84018000Y-100447000D02*
X84018000Y-102876000D01*
X94289000Y-100271000D02*
X94289000Y-110041000D01*
X84019000Y-100271000D02*
X84019000Y-110041000D01*
X84019000Y-110041000D02*
X94289000Y-110041000D01*
X84019000Y-100271000D02*
X94289000Y-100271000D01*
X122846000Y-91154000D02*
X122846000Y-94234000D01*
X126506000Y-91074000D02*
X125306000Y-91074000D01*
X128210000Y-87824000D02*
X128210000Y-90484000D01*
X130810000Y-87824000D02*
X128210000Y-87824000D01*
X130810000Y-90484000D02*
X128210000Y-90484000D01*
X130810000Y-87824000D02*
X130810000Y-90484000D01*
X132080000Y-87824000D02*
X133410000Y-87824000D01*
X133410000Y-87824000D02*
X133410000Y-89154000D01*
X128210000Y-85284000D02*
X128210000Y-87944000D01*
X130810000Y-85284000D02*
X128210000Y-85284000D01*
X130810000Y-87944000D02*
X128210000Y-87944000D01*
X130810000Y-85284000D02*
X130810000Y-87944000D01*
X132080000Y-85284000D02*
X133410000Y-85284000D01*
X133410000Y-85284000D02*
X133410000Y-86614000D01*
X128210000Y-103184000D02*
X128210000Y-101854000D01*
X129540000Y-103184000D02*
X128210000Y-103184000D01*
X130810000Y-103184000D02*
X130810000Y-100524000D01*
X130810000Y-100524000D02*
X133410000Y-100524000D01*
X130810000Y-103184000D02*
X133410000Y-103184000D01*
X133410000Y-103184000D02*
X133410000Y-100524000D01*
X128474055Y-60671956D02*
X128474055Y-60671956D01*
X128514227Y-60548318D02*
X128474055Y-60671956D01*
X128514227Y-60548318D02*
X128514227Y-60548318D01*
X128474055Y-60671956D02*
X128514227Y-60548318D01*
X130889738Y-61456859D02*
X130889738Y-61456859D01*
X130929911Y-61333222D02*
X130889738Y-61456859D01*
X130929911Y-61333222D02*
X130929911Y-61333222D01*
X130889738Y-61456859D02*
X130929911Y-61333222D01*
X128238421Y-60458704D02*
X127857998Y-60335097D01*
X131205717Y-61422837D02*
X128238421Y-60458704D01*
X89804262Y-74803192D02*
X89804262Y-74803192D01*
X89699090Y-74726780D02*
X89804262Y-74803192D01*
X89699090Y-74726780D02*
X89699090Y-74726780D01*
X89804262Y-74803192D02*
X89699090Y-74726780D01*
X91297237Y-72748289D02*
X91297237Y-72748289D01*
X91192064Y-72671877D02*
X91297237Y-72748289D01*
X91192064Y-72671877D02*
X91192064Y-72671877D01*
X91297237Y-72748289D02*
X91192064Y-72671877D01*
X89528632Y-74961395D02*
X89293518Y-75285002D01*
X91362522Y-72437262D02*
X89528632Y-74961395D01*
X91328261Y-115696808D02*
X91328261Y-115696808D01*
X91223089Y-115773220D02*
X91328261Y-115696808D01*
X91223089Y-115773220D02*
X91223089Y-115773220D01*
X91328261Y-115696808D02*
X91223089Y-115773220D01*
X89835287Y-113641905D02*
X89835287Y-113641905D01*
X89730114Y-113718317D02*
X89835287Y-113641905D01*
X89730114Y-113718317D02*
X89730114Y-113718317D01*
X89835287Y-113641905D02*
X89730114Y-113718317D01*
X91393547Y-116007835D02*
X91628661Y-116331442D01*
X89559657Y-113483702D02*
X91393547Y-116007835D01*
X130765422Y-127242238D02*
X130765422Y-127242238D01*
X130805594Y-127365875D02*
X130765422Y-127242238D01*
X130805594Y-127365875D02*
X130805594Y-127365875D01*
X130765422Y-127242238D02*
X130805594Y-127365875D01*
X128349738Y-128027141D02*
X128349738Y-128027141D01*
X128389911Y-128150778D02*
X128349738Y-128027141D01*
X128389911Y-128150778D02*
X128389911Y-128150778D01*
X128349738Y-128027141D02*
X128389911Y-128150778D01*
X131081401Y-127276260D02*
X131461823Y-127152653D01*
X128114104Y-128240393D02*
X131081401Y-127276260D01*
X153734000Y-92964000D02*
X153734000Y-92964000D01*
X153864000Y-92964000D02*
X153734000Y-92964000D01*
X153864000Y-92964000D02*
X153864000Y-92964000D01*
X153734000Y-92964000D02*
X153864000Y-92964000D01*
X153734000Y-95504000D02*
X153734000Y-95504000D01*
X153864000Y-95504000D02*
X153734000Y-95504000D01*
X153864000Y-95504000D02*
X153864000Y-95504000D01*
X153734000Y-95504000D02*
X153864000Y-95504000D01*
X153864000Y-92674000D02*
X153864000Y-92274000D01*
X153864000Y-95794000D02*
X153864000Y-92674000D01*
X135636000Y-82524000D02*
X135636000Y-83704000D01*
X135636000Y-88164000D02*
X135636000Y-86984000D01*
X134716000Y-83704000D02*
X134716000Y-86984000D01*
X136556000Y-83704000D02*
X134716000Y-83704000D01*
X136556000Y-86984000D02*
X136556000Y-83704000D01*
X134716000Y-86984000D02*
X136556000Y-86984000D01*
X120981242Y-99935963D02*
G75*
G03X116772000Y-99922000I-2109242J-1386037D01*
G01*
X116762758Y-102708037D02*
G75*
G03X120972000Y-102722000I2109242J1386037D01*
G01*
X120972000Y-99922000D02*
X120972000Y-102722000D01*
X116772000Y-99922000D02*
X116772000Y-102722000D01*
X126432000Y-93158000D02*
X127762000Y-93158000D01*
X126432000Y-94488000D02*
X126432000Y-93158000D01*
X126432000Y-95758000D02*
X129092000Y-95758000D01*
X129092000Y-95758000D02*
X129092000Y-98358000D01*
X126432000Y-95758000D02*
X126432000Y-98358000D01*
X126432000Y-98358000D02*
X129092000Y-98358000D01*
X121051000Y-85534000D02*
X121051000Y-85069000D01*
X121051000Y-88159000D02*
X121051000Y-87694000D01*
X116236521Y-85533571D02*
G75*
G02X120745684Y-85534000I2254479J-1080429D01*
G01*
X116236521Y-87694429D02*
G75*
G03X120745684Y-87694000I2254479J1080429D01*
G01*
X115703185Y-85533173D02*
G75*
G02X121051000Y-85069170I2787815J-1080827D01*
G01*
X115703185Y-87694827D02*
G75*
G03X121051000Y-88158830I2787815J1080827D01*
G01*
X137871000Y-79309000D02*
X138630000Y-79309000D01*
X139390000Y-78095000D02*
X139390000Y-80524000D01*
X137871000Y-78095000D02*
X137871000Y-80524000D01*
X137871000Y-80524000D02*
X139390000Y-80524000D01*
X137871000Y-78095000D02*
X139390000Y-78095000D01*
X149661000Y-77919000D02*
X149661000Y-87689000D01*
X139391000Y-77919000D02*
X139391000Y-87689000D01*
X139391000Y-87689000D02*
X149661000Y-87689000D01*
X139391000Y-77919000D02*
X149661000Y-77919000D01*
X137871000Y-101915000D02*
X138630000Y-101915000D01*
X139390000Y-100701000D02*
X139390000Y-103130000D01*
X137871000Y-100701000D02*
X137871000Y-103130000D01*
X137871000Y-103130000D02*
X139390000Y-103130000D01*
X137871000Y-100701000D02*
X139390000Y-100701000D01*
X149661000Y-100525000D02*
X149661000Y-110295000D01*
X139391000Y-100525000D02*
X139391000Y-110295000D01*
X139391000Y-110295000D02*
X149661000Y-110295000D01*
X139391000Y-100525000D02*
X149661000Y-100525000D01*
X137871000Y-90485000D02*
X138630000Y-90485000D01*
X139390000Y-89271000D02*
X139390000Y-91700000D01*
X137871000Y-89271000D02*
X137871000Y-91700000D01*
X137871000Y-91700000D02*
X139390000Y-91700000D01*
X137871000Y-89271000D02*
X139390000Y-89271000D01*
X149661000Y-89095000D02*
X149661000Y-98865000D01*
X139391000Y-89095000D02*
X139391000Y-98865000D01*
X139391000Y-98865000D02*
X149661000Y-98865000D01*
X139391000Y-89095000D02*
X149661000Y-89095000D01*
X113160000Y-76832000D02*
X95120000Y-76832000D01*
X113160000Y-120272000D02*
X113160000Y-76832000D01*
X95120000Y-120272000D02*
X113160000Y-120272000D01*
X97790000Y-117602000D02*
X95120000Y-117602000D01*
X97790000Y-82042000D02*
X97790000Y-117602000D01*
X97790000Y-82042000D02*
X95120000Y-82042000D01*
X110490000Y-117602000D02*
X113160000Y-117602000D01*
X110490000Y-79502000D02*
X110490000Y-117602000D01*
X110490000Y-79502000D02*
X113160000Y-79502000D01*
X95120000Y-76832000D02*
X95120000Y-79502000D01*
X95120000Y-82042000D02*
X95120000Y-120272000D01*
X97790000Y-79502000D02*
X95120000Y-79502000D01*
X97790000Y-82042000D02*
X97790000Y-79502000D01*
X129374000Y-112760000D02*
X129374000Y-117260000D01*
X133374000Y-111510000D02*
X131874000Y-111510000D01*
X135874000Y-117260000D02*
X135874000Y-112760000D01*
X131874000Y-118510000D02*
X133374000Y-118510000D01*
X135950000Y-72628000D02*
G75*
G02X135950000Y-70628000I0J1000000D01*
G01*
X135950000Y-70628000D02*
X135950000Y-68978000D01*
X135950000Y-68978000D02*
X118050000Y-68978000D01*
X118050000Y-68978000D02*
X118050000Y-74278000D01*
X118050000Y-74278000D02*
X135950000Y-74278000D01*
X135950000Y-74278000D02*
X135950000Y-72628000D01*
X136010000Y-66488000D02*
X117990000Y-66488000D01*
X117990000Y-66488000D02*
X117990000Y-76768000D01*
X117990000Y-76768000D02*
X136010000Y-76768000D01*
X136010000Y-76768000D02*
X136010000Y-66488000D01*
X91582000Y-98202000D02*
X91582000Y-96362000D01*
X91582000Y-96362000D02*
X87742000Y-96362000D01*
X87742000Y-96362000D02*
X87742000Y-98202000D01*
X87742000Y-98202000D02*
X91582000Y-98202000D01*
X92532000Y-97282000D02*
X91582000Y-97282000D01*
X86792000Y-97282000D02*
X87742000Y-97282000D01*
X125380000Y-113650000D02*
X123540000Y-113650000D01*
X123540000Y-113650000D02*
X123540000Y-117490000D01*
X123540000Y-117490000D02*
X125380000Y-117490000D01*
X125380000Y-117490000D02*
X125380000Y-113650000D01*
X124460000Y-112700000D02*
X124460000Y-113650000D01*
X124460000Y-118440000D02*
X124460000Y-117490000D01*
X117760000Y-113650000D02*
X115920000Y-113650000D01*
X115920000Y-113650000D02*
X115920000Y-117490000D01*
X115920000Y-117490000D02*
X117760000Y-117490000D01*
X117760000Y-117490000D02*
X117760000Y-113650000D01*
X116840000Y-112700000D02*
X116840000Y-113650000D01*
X116840000Y-118440000D02*
X116840000Y-117490000D01*
X120650000Y-118440000D02*
X120650000Y-117490000D01*
X120650000Y-112700000D02*
X120650000Y-113650000D01*
X121570000Y-117490000D02*
X121570000Y-113650000D01*
X119730000Y-117490000D02*
X121570000Y-117490000D01*
X119730000Y-113650000D02*
X119730000Y-117490000D01*
X121570000Y-113650000D02*
X119730000Y-113650000D01*
X120320000Y-81534000D02*
X121270000Y-81534000D01*
X126060000Y-81534000D02*
X125110000Y-81534000D01*
X121270000Y-82454000D02*
X125110000Y-82454000D01*
X121270000Y-80614000D02*
X121270000Y-82454000D01*
X125110000Y-80614000D02*
X121270000Y-80614000D01*
X125110000Y-82454000D02*
X125110000Y-80614000D01*
D10*
X91908476Y-99020380D02*
X92241809Y-100020380D01*
X92575142Y-99020380D01*
X93479904Y-100020380D02*
X93146571Y-99544190D01*
X92908476Y-100020380D02*
X92908476Y-99020380D01*
X93289428Y-99020380D01*
X93384666Y-99068000D01*
X93432285Y-99115619D01*
X93479904Y-99210857D01*
X93479904Y-99353714D01*
X93432285Y-99448952D01*
X93384666Y-99496571D01*
X93289428Y-99544190D01*
X92908476Y-99544190D01*
X94337047Y-99353714D02*
X94337047Y-100020380D01*
X94098952Y-98972761D02*
X93860857Y-99687047D01*
X94479904Y-99687047D01*
X121408380Y-95035904D02*
X122217904Y-95035904D01*
X122313142Y-94988285D01*
X122360761Y-94940666D01*
X122408380Y-94845428D01*
X122408380Y-94654952D01*
X122360761Y-94559714D01*
X122313142Y-94512095D01*
X122217904Y-94464476D01*
X121408380Y-94464476D01*
X121503619Y-94035904D02*
X121456000Y-93988285D01*
X121408380Y-93893047D01*
X121408380Y-93654952D01*
X121456000Y-93559714D01*
X121503619Y-93512095D01*
X121598857Y-93464476D01*
X121694095Y-93464476D01*
X121836952Y-93512095D01*
X122408380Y-94083523D01*
X122408380Y-93464476D01*
X126706380Y-89487333D02*
X127420666Y-89487333D01*
X127563523Y-89534952D01*
X127658761Y-89630190D01*
X127706380Y-89773047D01*
X127706380Y-89868285D01*
X126801619Y-89058761D02*
X126754000Y-89011142D01*
X126706380Y-88915904D01*
X126706380Y-88677809D01*
X126754000Y-88582571D01*
X126801619Y-88534952D01*
X126896857Y-88487333D01*
X126992095Y-88487333D01*
X127134952Y-88534952D01*
X127706380Y-89106380D01*
X127706380Y-88487333D01*
X126706380Y-86947333D02*
X127420666Y-86947333D01*
X127563523Y-86994952D01*
X127658761Y-87090190D01*
X127706380Y-87233047D01*
X127706380Y-87328285D01*
X126706380Y-86566380D02*
X126706380Y-85947333D01*
X127087333Y-86280666D01*
X127087333Y-86137809D01*
X127134952Y-86042571D01*
X127182571Y-85994952D01*
X127277809Y-85947333D01*
X127515904Y-85947333D01*
X127611142Y-85994952D01*
X127658761Y-86042571D01*
X127706380Y-86137809D01*
X127706380Y-86423523D01*
X127658761Y-86518761D01*
X127611142Y-86566380D01*
X126662380Y-102187333D02*
X127376666Y-102187333D01*
X127519523Y-102234952D01*
X127614761Y-102330190D01*
X127662380Y-102473047D01*
X127662380Y-102568285D01*
X126995714Y-101282571D02*
X127662380Y-101282571D01*
X126614761Y-101520666D02*
X127329047Y-101758761D01*
X127329047Y-101139714D01*
X101766857Y-73096380D02*
X101766857Y-72096380D01*
X102195428Y-73096380D02*
X102195428Y-72572571D01*
X102147809Y-72477333D01*
X102052571Y-72429714D01*
X101909714Y-72429714D01*
X101814476Y-72477333D01*
X101766857Y-72524952D01*
X102814476Y-73096380D02*
X102719238Y-73048761D01*
X102671619Y-73001142D01*
X102624000Y-72905904D01*
X102624000Y-72620190D01*
X102671619Y-72524952D01*
X102719238Y-72477333D01*
X102814476Y-72429714D01*
X102957333Y-72429714D01*
X103052571Y-72477333D01*
X103100190Y-72524952D01*
X103147809Y-72620190D01*
X103147809Y-72905904D01*
X103100190Y-73001142D01*
X103052571Y-73048761D01*
X102957333Y-73096380D01*
X102814476Y-73096380D01*
X103719238Y-73096380D02*
X103624000Y-73048761D01*
X103576380Y-72953523D01*
X103576380Y-72096380D01*
X104481142Y-73048761D02*
X104385904Y-73096380D01*
X104195428Y-73096380D01*
X104100190Y-73048761D01*
X104052571Y-72953523D01*
X104052571Y-72572571D01*
X104100190Y-72477333D01*
X104195428Y-72429714D01*
X104385904Y-72429714D01*
X104481142Y-72477333D01*
X104528761Y-72572571D01*
X104528761Y-72667809D01*
X104052571Y-72763047D01*
X127900721Y-64157774D02*
X128209738Y-63206718D01*
X128436180Y-63280293D01*
X128557330Y-63369727D01*
X128618477Y-63489734D01*
X128634335Y-63595026D01*
X128620763Y-63790895D01*
X128576618Y-63926760D01*
X128472469Y-64093198D01*
X128397750Y-64169060D01*
X128277743Y-64230207D01*
X128127163Y-64231350D01*
X127900721Y-64157774D01*
X129465384Y-63965190D02*
X129259373Y-64599227D01*
X129356663Y-63529307D02*
X128909495Y-64135057D01*
X129498244Y-64326354D01*
X92942303Y-76425642D02*
X92133286Y-75837857D01*
X92273235Y-75645234D01*
X92395729Y-75557650D01*
X92528757Y-75536580D01*
X92633796Y-75554035D01*
X92815885Y-75627469D01*
X92931459Y-75711439D01*
X93057567Y-75861922D01*
X93106627Y-75956426D01*
X93127696Y-76089455D01*
X93082252Y-76233019D01*
X92942303Y-76425642D01*
X92665092Y-75105889D02*
X93028959Y-74605069D01*
X93141227Y-75098659D01*
X93225197Y-74983086D01*
X93319701Y-74934026D01*
X93386215Y-74923491D01*
X93491254Y-74940946D01*
X93683877Y-75080895D01*
X93732937Y-75175399D01*
X93743471Y-75241914D01*
X93726017Y-75346953D01*
X93558078Y-75578100D01*
X93463574Y-75627160D01*
X93397059Y-75637695D01*
X92241360Y-112551260D02*
X93050377Y-111963475D01*
X93190326Y-112156098D01*
X93235771Y-112299661D01*
X93214701Y-112432690D01*
X93165642Y-112527194D01*
X93039533Y-112677678D01*
X92923959Y-112761647D01*
X92741871Y-112835082D01*
X92636832Y-112852537D01*
X92503803Y-112831467D01*
X92381309Y-112743883D01*
X92241360Y-112551260D01*
X93533123Y-112789946D02*
X93599638Y-112800481D01*
X93694142Y-112849541D01*
X93834091Y-113042164D01*
X93851546Y-113147203D01*
X93841011Y-113213717D01*
X93791951Y-113308221D01*
X93714902Y-113364201D01*
X93571339Y-113409646D01*
X92773166Y-113283228D01*
X93137033Y-113784048D01*
X126183823Y-128674323D02*
X125874806Y-127723267D01*
X126101248Y-127649691D01*
X126251828Y-127650834D01*
X126371835Y-127711981D01*
X126446554Y-127787843D01*
X126550702Y-127954281D01*
X126594848Y-128090147D01*
X126608420Y-128286015D01*
X126592561Y-128391307D01*
X126531415Y-128511314D01*
X126410265Y-128600748D01*
X126183823Y-128674323D01*
X127633052Y-128203440D02*
X127089591Y-128380021D01*
X127361321Y-128291731D02*
X127052304Y-127340674D01*
X127005873Y-127505970D01*
X126944726Y-127625977D01*
X126868864Y-127700695D01*
X151146380Y-94972095D02*
X150146380Y-94972095D01*
X150146380Y-94734000D01*
X150194000Y-94591142D01*
X150289238Y-94495904D01*
X150384476Y-94448285D01*
X150574952Y-94400666D01*
X150717809Y-94400666D01*
X150908285Y-94448285D01*
X151003523Y-94495904D01*
X151098761Y-94591142D01*
X151146380Y-94734000D01*
X151146380Y-94972095D01*
X150146380Y-93495904D02*
X150146380Y-93972095D01*
X150622571Y-94019714D01*
X150574952Y-93972095D01*
X150527333Y-93876857D01*
X150527333Y-93638761D01*
X150574952Y-93543523D01*
X150622571Y-93495904D01*
X150717809Y-93448285D01*
X150955904Y-93448285D01*
X151051142Y-93495904D01*
X151098761Y-93543523D01*
X151146380Y-93638761D01*
X151146380Y-93876857D01*
X151098761Y-93972095D01*
X151051142Y-94019714D01*
X139390380Y-86336095D02*
X138390380Y-86336095D01*
X138390380Y-86098000D01*
X138438000Y-85955142D01*
X138533238Y-85859904D01*
X138628476Y-85812285D01*
X138818952Y-85764666D01*
X138961809Y-85764666D01*
X139152285Y-85812285D01*
X139247523Y-85859904D01*
X139342761Y-85955142D01*
X139390380Y-86098000D01*
X139390380Y-86336095D01*
X138390380Y-85431333D02*
X138390380Y-84764666D01*
X139390380Y-85193238D01*
X122224380Y-101488666D02*
X121748190Y-101822000D01*
X122224380Y-102060095D02*
X121224380Y-102060095D01*
X121224380Y-101679142D01*
X121272000Y-101583904D01*
X121319619Y-101536285D01*
X121414857Y-101488666D01*
X121557714Y-101488666D01*
X121652952Y-101536285D01*
X121700571Y-101583904D01*
X121748190Y-101679142D01*
X121748190Y-102060095D01*
X121224380Y-100583904D02*
X121224380Y-101060095D01*
X121700571Y-101107714D01*
X121652952Y-101060095D01*
X121605333Y-100964857D01*
X121605333Y-100726761D01*
X121652952Y-100631523D01*
X121700571Y-100583904D01*
X121795809Y-100536285D01*
X122033904Y-100536285D01*
X122129142Y-100583904D01*
X122176761Y-100631523D01*
X122224380Y-100726761D01*
X122224380Y-100964857D01*
X122176761Y-101060095D01*
X122129142Y-101107714D01*
X127428666Y-91610380D02*
X127428666Y-92324666D01*
X127381047Y-92467523D01*
X127285809Y-92562761D01*
X127142952Y-92610380D01*
X127047714Y-92610380D01*
X128428666Y-92610380D02*
X127857238Y-92610380D01*
X128142952Y-92610380D02*
X128142952Y-91610380D01*
X128047714Y-91753238D01*
X127952476Y-91848476D01*
X127857238Y-91896095D01*
X117752904Y-91026380D02*
X117752904Y-90026380D01*
X117991000Y-90026380D01*
X118133857Y-90074000D01*
X118229095Y-90169238D01*
X118276714Y-90264476D01*
X118324333Y-90454952D01*
X118324333Y-90597809D01*
X118276714Y-90788285D01*
X118229095Y-90883523D01*
X118133857Y-90978761D01*
X117991000Y-91026380D01*
X117752904Y-91026380D01*
X119181476Y-90026380D02*
X118991000Y-90026380D01*
X118895761Y-90074000D01*
X118848142Y-90121619D01*
X118752904Y-90264476D01*
X118705285Y-90454952D01*
X118705285Y-90835904D01*
X118752904Y-90931142D01*
X118800523Y-90978761D01*
X118895761Y-91026380D01*
X119086238Y-91026380D01*
X119181476Y-90978761D01*
X119229095Y-90931142D01*
X119276714Y-90835904D01*
X119276714Y-90597809D01*
X119229095Y-90502571D01*
X119181476Y-90454952D01*
X119086238Y-90407333D01*
X118895761Y-90407333D01*
X118800523Y-90454952D01*
X118752904Y-90502571D01*
X118705285Y-90597809D01*
X142456476Y-76241380D02*
X142789809Y-77241380D01*
X143123142Y-76241380D01*
X144027904Y-77241380D02*
X143694571Y-76765190D01*
X143456476Y-77241380D02*
X143456476Y-76241380D01*
X143837428Y-76241380D01*
X143932666Y-76289000D01*
X143980285Y-76336619D01*
X144027904Y-76431857D01*
X144027904Y-76574714D01*
X143980285Y-76669952D01*
X143932666Y-76717571D01*
X143837428Y-76765190D01*
X143456476Y-76765190D01*
X144361238Y-76241380D02*
X144980285Y-76241380D01*
X144646952Y-76622333D01*
X144789809Y-76622333D01*
X144885047Y-76669952D01*
X144932666Y-76717571D01*
X144980285Y-76812809D01*
X144980285Y-77050904D01*
X144932666Y-77146142D01*
X144885047Y-77193761D01*
X144789809Y-77241380D01*
X144504095Y-77241380D01*
X144408857Y-77193761D01*
X144361238Y-77146142D01*
X142456476Y-98847380D02*
X142789809Y-99847380D01*
X143123142Y-98847380D01*
X144027904Y-99847380D02*
X143694571Y-99371190D01*
X143456476Y-99847380D02*
X143456476Y-98847380D01*
X143837428Y-98847380D01*
X143932666Y-98895000D01*
X143980285Y-98942619D01*
X144027904Y-99037857D01*
X144027904Y-99180714D01*
X143980285Y-99275952D01*
X143932666Y-99323571D01*
X143837428Y-99371190D01*
X143456476Y-99371190D01*
X144408857Y-98942619D02*
X144456476Y-98895000D01*
X144551714Y-98847380D01*
X144789809Y-98847380D01*
X144885047Y-98895000D01*
X144932666Y-98942619D01*
X144980285Y-99037857D01*
X144980285Y-99133095D01*
X144932666Y-99275952D01*
X144361238Y-99847380D01*
X144980285Y-99847380D01*
X142456476Y-87417380D02*
X142789809Y-88417380D01*
X143123142Y-87417380D01*
X144027904Y-88417380D02*
X143694571Y-87941190D01*
X143456476Y-88417380D02*
X143456476Y-87417380D01*
X143837428Y-87417380D01*
X143932666Y-87465000D01*
X143980285Y-87512619D01*
X144027904Y-87607857D01*
X144027904Y-87750714D01*
X143980285Y-87845952D01*
X143932666Y-87893571D01*
X143837428Y-87941190D01*
X143456476Y-87941190D01*
X144980285Y-88417380D02*
X144408857Y-88417380D01*
X144694571Y-88417380D02*
X144694571Y-87417380D01*
X144599333Y-87560238D01*
X144504095Y-87655476D01*
X144408857Y-87703095D01*
X103425714Y-75858666D02*
X103901904Y-75858666D01*
X103330476Y-76144380D02*
X103663809Y-75144380D01*
X103997142Y-76144380D01*
X104854285Y-76144380D02*
X104282857Y-76144380D01*
X104568571Y-76144380D02*
X104568571Y-75144380D01*
X104473333Y-75287238D01*
X104378095Y-75382476D01*
X104282857Y-75430095D01*
X137278761Y-116343333D02*
X137326380Y-116200476D01*
X137326380Y-115962380D01*
X137278761Y-115867142D01*
X137231142Y-115819523D01*
X137135904Y-115771904D01*
X137040666Y-115771904D01*
X136945428Y-115819523D01*
X136897809Y-115867142D01*
X136850190Y-115962380D01*
X136802571Y-116152857D01*
X136754952Y-116248095D01*
X136707333Y-116295714D01*
X136612095Y-116343333D01*
X136516857Y-116343333D01*
X136421619Y-116295714D01*
X136374000Y-116248095D01*
X136326380Y-116152857D01*
X136326380Y-115914761D01*
X136374000Y-115771904D01*
X136326380Y-115438571D02*
X137326380Y-115200476D01*
X136612095Y-115010000D01*
X137326380Y-114819523D01*
X136326380Y-114581428D01*
X137326380Y-113676666D02*
X137326380Y-114248095D01*
X137326380Y-113962380D02*
X136326380Y-113962380D01*
X136469238Y-114057619D01*
X136564476Y-114152857D01*
X136612095Y-114248095D01*
X136402380Y-72389904D02*
X137211904Y-72389904D01*
X137307142Y-72342285D01*
X137354761Y-72294666D01*
X137402380Y-72199428D01*
X137402380Y-72008952D01*
X137354761Y-71913714D01*
X137307142Y-71866095D01*
X137211904Y-71818476D01*
X136402380Y-71818476D01*
X137402380Y-70818476D02*
X137402380Y-71389904D01*
X137402380Y-71104190D02*
X136402380Y-71104190D01*
X136545238Y-71199428D01*
X136640476Y-71294666D01*
X136688095Y-71389904D01*
X88479333Y-99512380D02*
X88146000Y-99036190D01*
X87907904Y-99512380D02*
X87907904Y-98512380D01*
X88288857Y-98512380D01*
X88384095Y-98560000D01*
X88431714Y-98607619D01*
X88479333Y-98702857D01*
X88479333Y-98845714D01*
X88431714Y-98940952D01*
X88384095Y-98988571D01*
X88288857Y-99036190D01*
X87907904Y-99036190D01*
X89431714Y-99512380D02*
X88860285Y-99512380D01*
X89146000Y-99512380D02*
X89146000Y-98512380D01*
X89050761Y-98655238D01*
X88955523Y-98750476D01*
X88860285Y-98798095D01*
X126832380Y-115736666D02*
X126356190Y-116070000D01*
X126832380Y-116308095D02*
X125832380Y-116308095D01*
X125832380Y-115927142D01*
X125880000Y-115831904D01*
X125927619Y-115784285D01*
X126022857Y-115736666D01*
X126165714Y-115736666D01*
X126260952Y-115784285D01*
X126308571Y-115831904D01*
X126356190Y-115927142D01*
X126356190Y-116308095D01*
X125927619Y-115355714D02*
X125880000Y-115308095D01*
X125832380Y-115212857D01*
X125832380Y-114974761D01*
X125880000Y-114879523D01*
X125927619Y-114831904D01*
X126022857Y-114784285D01*
X126118095Y-114784285D01*
X126260952Y-114831904D01*
X126832380Y-115403333D01*
X126832380Y-114784285D01*
X119212380Y-115736666D02*
X118736190Y-116070000D01*
X119212380Y-116308095D02*
X118212380Y-116308095D01*
X118212380Y-115927142D01*
X118260000Y-115831904D01*
X118307619Y-115784285D01*
X118402857Y-115736666D01*
X118545714Y-115736666D01*
X118640952Y-115784285D01*
X118688571Y-115831904D01*
X118736190Y-115927142D01*
X118736190Y-116308095D01*
X118212380Y-115403333D02*
X118212380Y-114784285D01*
X118593333Y-115117619D01*
X118593333Y-114974761D01*
X118640952Y-114879523D01*
X118688571Y-114831904D01*
X118783809Y-114784285D01*
X119021904Y-114784285D01*
X119117142Y-114831904D01*
X119164761Y-114879523D01*
X119212380Y-114974761D01*
X119212380Y-115260476D01*
X119164761Y-115355714D01*
X119117142Y-115403333D01*
X123022380Y-115736666D02*
X122546190Y-116070000D01*
X123022380Y-116308095D02*
X122022380Y-116308095D01*
X122022380Y-115927142D01*
X122070000Y-115831904D01*
X122117619Y-115784285D01*
X122212857Y-115736666D01*
X122355714Y-115736666D01*
X122450952Y-115784285D01*
X122498571Y-115831904D01*
X122546190Y-115927142D01*
X122546190Y-116308095D01*
X122355714Y-114879523D02*
X123022380Y-114879523D01*
X121974761Y-115117619D02*
X122689047Y-115355714D01*
X122689047Y-114736666D01*
X123023333Y-83906380D02*
X122690000Y-83430190D01*
X122451904Y-83906380D02*
X122451904Y-82906380D01*
X122832857Y-82906380D01*
X122928095Y-82954000D01*
X122975714Y-83001619D01*
X123023333Y-83096857D01*
X123023333Y-83239714D01*
X122975714Y-83334952D01*
X122928095Y-83382571D01*
X122832857Y-83430190D01*
X122451904Y-83430190D01*
X123880476Y-82906380D02*
X123690000Y-82906380D01*
X123594761Y-82954000D01*
X123547142Y-83001619D01*
X123451904Y-83144476D01*
X123404285Y-83334952D01*
X123404285Y-83715904D01*
X123451904Y-83811142D01*
X123499523Y-83858761D01*
X123594761Y-83906380D01*
X123785238Y-83906380D01*
X123880476Y-83858761D01*
X123928095Y-83811142D01*
X123975714Y-83715904D01*
X123975714Y-83477809D01*
X123928095Y-83382571D01*
X123880476Y-83334952D01*
X123785238Y-83287333D01*
X123594761Y-83287333D01*
X123499523Y-83334952D01*
X123451904Y-83382571D01*
X123404285Y-83477809D01*
M02*
