G04 #@! TF.GenerationSoftware,KiCad,Pcbnew,(5.1.4)-1*
G04 #@! TF.CreationDate,2022-06-01T15:16:57+01:00*
G04 #@! TF.ProjectId,Swarm-B,53776172-6d2d-4422-9e6b-696361645f70,rev?*
G04 #@! TF.SameCoordinates,Original*
G04 #@! TF.FileFunction,Soldermask,Top*
G04 #@! TF.FilePolarity,Negative*
%FSLAX46Y46*%
G04 Gerber Fmt 4.6, Leading zero omitted, Abs format (unit mm)*
G04 Created by KiCad (PCBNEW (5.1.4)-1) date 2022-06-01 15:16:57*
%MOMM*%
%LPD*%
G04 APERTURE LIST*
%ADD10C,0.100000*%
G04 APERTURE END LIST*
D10*
G36*
X129214330Y-127610580D02*
G01*
X127405420Y-128198330D01*
X126817670Y-126389420D01*
X128626580Y-125801670D01*
X129214330Y-127610580D01*
X129214330Y-127610580D01*
G37*
G36*
X130709079Y-125300643D02*
G01*
X130882150Y-125372331D01*
X130882151Y-125372332D01*
X131037911Y-125476407D01*
X131170374Y-125608870D01*
X131170375Y-125608872D01*
X131274450Y-125764631D01*
X131346138Y-125937702D01*
X131382684Y-126121430D01*
X131382684Y-126308764D01*
X131346138Y-126492492D01*
X131274450Y-126665563D01*
X131274449Y-126665564D01*
X131170374Y-126821324D01*
X131037911Y-126953787D01*
X130959502Y-127006178D01*
X130882150Y-127057863D01*
X130709079Y-127129551D01*
X130525351Y-127166097D01*
X130338017Y-127166097D01*
X130154289Y-127129551D01*
X129981218Y-127057863D01*
X129903866Y-127006178D01*
X129825457Y-126953787D01*
X129692994Y-126821324D01*
X129588919Y-126665564D01*
X129588918Y-126665563D01*
X129517230Y-126492492D01*
X129480684Y-126308764D01*
X129480684Y-126121430D01*
X129517230Y-125937702D01*
X129588918Y-125764631D01*
X129692993Y-125608872D01*
X129692994Y-125608870D01*
X129825457Y-125476407D01*
X129981217Y-125372332D01*
X129981218Y-125372331D01*
X130154289Y-125300643D01*
X130338017Y-125264097D01*
X130525351Y-125264097D01*
X130709079Y-125300643D01*
X130709079Y-125300643D01*
G37*
G36*
X124533665Y-118632622D02*
G01*
X124607222Y-118639867D01*
X124748786Y-118682810D01*
X124879252Y-118752546D01*
X124909040Y-118776992D01*
X124993607Y-118846393D01*
X125062198Y-118929973D01*
X125087454Y-118960748D01*
X125157190Y-119091214D01*
X125200133Y-119232778D01*
X125214633Y-119380000D01*
X125200133Y-119527222D01*
X125157190Y-119668786D01*
X125087454Y-119799252D01*
X125063008Y-119829040D01*
X124993607Y-119913607D01*
X124909040Y-119983008D01*
X124879252Y-120007454D01*
X124748786Y-120077190D01*
X124607222Y-120120133D01*
X124533665Y-120127378D01*
X124496888Y-120131000D01*
X124423112Y-120131000D01*
X124386335Y-120127378D01*
X124312778Y-120120133D01*
X124171214Y-120077190D01*
X124040748Y-120007454D01*
X124010960Y-119983008D01*
X123926393Y-119913607D01*
X123856992Y-119829040D01*
X123832546Y-119799252D01*
X123762810Y-119668786D01*
X123719867Y-119527222D01*
X123705367Y-119380000D01*
X123719867Y-119232778D01*
X123762810Y-119091214D01*
X123832546Y-118960748D01*
X123857802Y-118929973D01*
X123926393Y-118846393D01*
X124010960Y-118776992D01*
X124040748Y-118752546D01*
X124171214Y-118682810D01*
X124312778Y-118639867D01*
X124386335Y-118632622D01*
X124423112Y-118629000D01*
X124496888Y-118629000D01*
X124533665Y-118632622D01*
X124533665Y-118632622D01*
G37*
G36*
X116913665Y-118632622D02*
G01*
X116987222Y-118639867D01*
X117128786Y-118682810D01*
X117259252Y-118752546D01*
X117289040Y-118776992D01*
X117373607Y-118846393D01*
X117442198Y-118929973D01*
X117467454Y-118960748D01*
X117537190Y-119091214D01*
X117580133Y-119232778D01*
X117594633Y-119380000D01*
X117580133Y-119527222D01*
X117537190Y-119668786D01*
X117467454Y-119799252D01*
X117443008Y-119829040D01*
X117373607Y-119913607D01*
X117289040Y-119983008D01*
X117259252Y-120007454D01*
X117128786Y-120077190D01*
X116987222Y-120120133D01*
X116913665Y-120127378D01*
X116876888Y-120131000D01*
X116803112Y-120131000D01*
X116766335Y-120127378D01*
X116692778Y-120120133D01*
X116551214Y-120077190D01*
X116420748Y-120007454D01*
X116390960Y-119983008D01*
X116306393Y-119913607D01*
X116236992Y-119829040D01*
X116212546Y-119799252D01*
X116142810Y-119668786D01*
X116099867Y-119527222D01*
X116085367Y-119380000D01*
X116099867Y-119232778D01*
X116142810Y-119091214D01*
X116212546Y-118960748D01*
X116237802Y-118929973D01*
X116306393Y-118846393D01*
X116390960Y-118776992D01*
X116420748Y-118752546D01*
X116551214Y-118682810D01*
X116692778Y-118639867D01*
X116766335Y-118632622D01*
X116803112Y-118629000D01*
X116876888Y-118629000D01*
X116913665Y-118632622D01*
X116913665Y-118632622D01*
G37*
G36*
X120723665Y-118632622D02*
G01*
X120797222Y-118639867D01*
X120938786Y-118682810D01*
X121069252Y-118752546D01*
X121099040Y-118776992D01*
X121183607Y-118846393D01*
X121252198Y-118929973D01*
X121277454Y-118960748D01*
X121347190Y-119091214D01*
X121390133Y-119232778D01*
X121404633Y-119380000D01*
X121390133Y-119527222D01*
X121347190Y-119668786D01*
X121277454Y-119799252D01*
X121253008Y-119829040D01*
X121183607Y-119913607D01*
X121099040Y-119983008D01*
X121069252Y-120007454D01*
X120938786Y-120077190D01*
X120797222Y-120120133D01*
X120723665Y-120127378D01*
X120686888Y-120131000D01*
X120613112Y-120131000D01*
X120576335Y-120127378D01*
X120502778Y-120120133D01*
X120361214Y-120077190D01*
X120230748Y-120007454D01*
X120200960Y-119983008D01*
X120116393Y-119913607D01*
X120046992Y-119829040D01*
X120022546Y-119799252D01*
X119952810Y-119668786D01*
X119909867Y-119527222D01*
X119895367Y-119380000D01*
X119909867Y-119232778D01*
X119952810Y-119091214D01*
X120022546Y-118960748D01*
X120047802Y-118929973D01*
X120116393Y-118846393D01*
X120200960Y-118776992D01*
X120230748Y-118752546D01*
X120361214Y-118682810D01*
X120502778Y-118639867D01*
X120576335Y-118632622D01*
X120613112Y-118629000D01*
X120686888Y-118629000D01*
X120723665Y-118632622D01*
X120723665Y-118632622D01*
G37*
G36*
X135180564Y-117249389D02*
G01*
X135371833Y-117328615D01*
X135371835Y-117328616D01*
X135543973Y-117443635D01*
X135690365Y-117590027D01*
X135805385Y-117762167D01*
X135884611Y-117953436D01*
X135925000Y-118156484D01*
X135925000Y-118363516D01*
X135884611Y-118566564D01*
X135858749Y-118629000D01*
X135805384Y-118757835D01*
X135690365Y-118929973D01*
X135543973Y-119076365D01*
X135371835Y-119191384D01*
X135371834Y-119191385D01*
X135371833Y-119191385D01*
X135180564Y-119270611D01*
X134977516Y-119311000D01*
X134770484Y-119311000D01*
X134567436Y-119270611D01*
X134376167Y-119191385D01*
X134376166Y-119191385D01*
X134376165Y-119191384D01*
X134204027Y-119076365D01*
X134057635Y-118929973D01*
X133942616Y-118757835D01*
X133889251Y-118629000D01*
X133863389Y-118566564D01*
X133823000Y-118363516D01*
X133823000Y-118156484D01*
X133863389Y-117953436D01*
X133942615Y-117762167D01*
X134057635Y-117590027D01*
X134204027Y-117443635D01*
X134376165Y-117328616D01*
X134376167Y-117328615D01*
X134567436Y-117249389D01*
X134770484Y-117209000D01*
X134977516Y-117209000D01*
X135180564Y-117249389D01*
X135180564Y-117249389D01*
G37*
G36*
X130680564Y-117249389D02*
G01*
X130871833Y-117328615D01*
X130871835Y-117328616D01*
X131043973Y-117443635D01*
X131190365Y-117590027D01*
X131305385Y-117762167D01*
X131384611Y-117953436D01*
X131425000Y-118156484D01*
X131425000Y-118363516D01*
X131384611Y-118566564D01*
X131358749Y-118629000D01*
X131305384Y-118757835D01*
X131190365Y-118929973D01*
X131043973Y-119076365D01*
X130871835Y-119191384D01*
X130871834Y-119191385D01*
X130871833Y-119191385D01*
X130680564Y-119270611D01*
X130477516Y-119311000D01*
X130270484Y-119311000D01*
X130067436Y-119270611D01*
X129876167Y-119191385D01*
X129876166Y-119191385D01*
X129876165Y-119191384D01*
X129704027Y-119076365D01*
X129557635Y-118929973D01*
X129442616Y-118757835D01*
X129389251Y-118629000D01*
X129363389Y-118566564D01*
X129323000Y-118363516D01*
X129323000Y-118156484D01*
X129363389Y-117953436D01*
X129442615Y-117762167D01*
X129557635Y-117590027D01*
X129704027Y-117443635D01*
X129876165Y-117328616D01*
X129876167Y-117328615D01*
X130067436Y-117249389D01*
X130270484Y-117209000D01*
X130477516Y-117209000D01*
X130680564Y-117249389D01*
X130680564Y-117249389D01*
G37*
G36*
X92479395Y-114147546D02*
G01*
X92652466Y-114219234D01*
X92652467Y-114219235D01*
X92808227Y-114323310D01*
X92940690Y-114455773D01*
X92940691Y-114455775D01*
X93044766Y-114611534D01*
X93116454Y-114784605D01*
X93153000Y-114968333D01*
X93153000Y-115155667D01*
X93116454Y-115339395D01*
X93044766Y-115512466D01*
X93044765Y-115512467D01*
X92940690Y-115668227D01*
X92808227Y-115800690D01*
X92729818Y-115853081D01*
X92652466Y-115904766D01*
X92479395Y-115976454D01*
X92295667Y-116013000D01*
X92108333Y-116013000D01*
X91924605Y-115976454D01*
X91751534Y-115904766D01*
X91674182Y-115853081D01*
X91595773Y-115800690D01*
X91463310Y-115668227D01*
X91359235Y-115512467D01*
X91359234Y-115512466D01*
X91287546Y-115339395D01*
X91251000Y-115155667D01*
X91251000Y-114968333D01*
X91287546Y-114784605D01*
X91359234Y-114611534D01*
X91463309Y-114455775D01*
X91463310Y-114455773D01*
X91595773Y-114323310D01*
X91751533Y-114219235D01*
X91751534Y-114219234D01*
X91924605Y-114147546D01*
X92108333Y-114111000D01*
X92295667Y-114111000D01*
X92479395Y-114147546D01*
X92479395Y-114147546D01*
G37*
G36*
X96432823Y-112699313D02*
G01*
X96593242Y-112747976D01*
X96684409Y-112796706D01*
X96741078Y-112826996D01*
X96870659Y-112933341D01*
X96977004Y-113062922D01*
X96977005Y-113062924D01*
X97056024Y-113210758D01*
X97104687Y-113371177D01*
X97121117Y-113538000D01*
X97104687Y-113704823D01*
X97056024Y-113865242D01*
X96985114Y-113997906D01*
X96977004Y-114013078D01*
X96870659Y-114142659D01*
X96741078Y-114249004D01*
X96741076Y-114249005D01*
X96593242Y-114328024D01*
X96432823Y-114376687D01*
X96307804Y-114389000D01*
X96224196Y-114389000D01*
X96099177Y-114376687D01*
X95938758Y-114328024D01*
X95790924Y-114249005D01*
X95790922Y-114249004D01*
X95661341Y-114142659D01*
X95554996Y-114013078D01*
X95546886Y-113997906D01*
X95475976Y-113865242D01*
X95427313Y-113704823D01*
X95410883Y-113538000D01*
X95427313Y-113371177D01*
X95475976Y-113210758D01*
X95554995Y-113062924D01*
X95554996Y-113062922D01*
X95661341Y-112933341D01*
X95790922Y-112826996D01*
X95847591Y-112796706D01*
X95938758Y-112747976D01*
X96099177Y-112699313D01*
X96224196Y-112687000D01*
X96307804Y-112687000D01*
X96432823Y-112699313D01*
X96432823Y-112699313D01*
G37*
G36*
X111672823Y-112699313D02*
G01*
X111833242Y-112747976D01*
X111924409Y-112796706D01*
X111981078Y-112826996D01*
X112110659Y-112933341D01*
X112217004Y-113062922D01*
X112217005Y-113062924D01*
X112296024Y-113210758D01*
X112344687Y-113371177D01*
X112361117Y-113538000D01*
X112344687Y-113704823D01*
X112296024Y-113865242D01*
X112225114Y-113997906D01*
X112217004Y-114013078D01*
X112110659Y-114142659D01*
X111981078Y-114249004D01*
X111981076Y-114249005D01*
X111833242Y-114328024D01*
X111672823Y-114376687D01*
X111547804Y-114389000D01*
X111464196Y-114389000D01*
X111339177Y-114376687D01*
X111178758Y-114328024D01*
X111030924Y-114249005D01*
X111030922Y-114249004D01*
X110901341Y-114142659D01*
X110794996Y-114013078D01*
X110786886Y-113997906D01*
X110715976Y-113865242D01*
X110667313Y-113704823D01*
X110650883Y-113538000D01*
X110667313Y-113371177D01*
X110715976Y-113210758D01*
X110794995Y-113062924D01*
X110794996Y-113062922D01*
X110901341Y-112933341D01*
X111030922Y-112826996D01*
X111087591Y-112796706D01*
X111178758Y-112747976D01*
X111339177Y-112699313D01*
X111464196Y-112687000D01*
X111547804Y-112687000D01*
X111672823Y-112699313D01*
X111672823Y-112699313D01*
G37*
G36*
X92037384Y-113217488D02*
G01*
X90498634Y-114335456D01*
X89380666Y-112796706D01*
X90919416Y-111678738D01*
X92037384Y-113217488D01*
X92037384Y-113217488D01*
G37*
G36*
X130680564Y-110749389D02*
G01*
X130871833Y-110828615D01*
X130871835Y-110828616D01*
X131043973Y-110943635D01*
X131190365Y-111090027D01*
X131305385Y-111262167D01*
X131384611Y-111453436D01*
X131425000Y-111656484D01*
X131425000Y-111863516D01*
X131384611Y-112066564D01*
X131305385Y-112257833D01*
X131305384Y-112257835D01*
X131190365Y-112429973D01*
X131043973Y-112576365D01*
X130871835Y-112691384D01*
X130871834Y-112691385D01*
X130871833Y-112691385D01*
X130680564Y-112770611D01*
X130477516Y-112811000D01*
X130270484Y-112811000D01*
X130067436Y-112770611D01*
X129876167Y-112691385D01*
X129876166Y-112691385D01*
X129876165Y-112691384D01*
X129704027Y-112576365D01*
X129557635Y-112429973D01*
X129442616Y-112257835D01*
X129442615Y-112257833D01*
X129363389Y-112066564D01*
X129323000Y-111863516D01*
X129323000Y-111656484D01*
X129363389Y-111453436D01*
X129442615Y-111262167D01*
X129557635Y-111090027D01*
X129704027Y-110943635D01*
X129876165Y-110828616D01*
X129876167Y-110828615D01*
X130067436Y-110749389D01*
X130270484Y-110709000D01*
X130477516Y-110709000D01*
X130680564Y-110749389D01*
X130680564Y-110749389D01*
G37*
G36*
X135180564Y-110749389D02*
G01*
X135371833Y-110828615D01*
X135371835Y-110828616D01*
X135543973Y-110943635D01*
X135690365Y-111090027D01*
X135805385Y-111262167D01*
X135884611Y-111453436D01*
X135925000Y-111656484D01*
X135925000Y-111863516D01*
X135884611Y-112066564D01*
X135805385Y-112257833D01*
X135805384Y-112257835D01*
X135690365Y-112429973D01*
X135543973Y-112576365D01*
X135371835Y-112691384D01*
X135371834Y-112691385D01*
X135371833Y-112691385D01*
X135180564Y-112770611D01*
X134977516Y-112811000D01*
X134770484Y-112811000D01*
X134567436Y-112770611D01*
X134376167Y-112691385D01*
X134376166Y-112691385D01*
X134376165Y-112691384D01*
X134204027Y-112576365D01*
X134057635Y-112429973D01*
X133942616Y-112257835D01*
X133942615Y-112257833D01*
X133863389Y-112066564D01*
X133823000Y-111863516D01*
X133823000Y-111656484D01*
X133863389Y-111453436D01*
X133942615Y-111262167D01*
X134057635Y-111090027D01*
X134204027Y-110943635D01*
X134376165Y-110828616D01*
X134376167Y-110828615D01*
X134567436Y-110749389D01*
X134770484Y-110709000D01*
X134977516Y-110709000D01*
X135180564Y-110749389D01*
X135180564Y-110749389D01*
G37*
G36*
X117059059Y-111037860D02*
G01*
X117195732Y-111094472D01*
X117318735Y-111176660D01*
X117423340Y-111281265D01*
X117505528Y-111404268D01*
X117505529Y-111404270D01*
X117562140Y-111540941D01*
X117591000Y-111686032D01*
X117591000Y-111833968D01*
X117562140Y-111979059D01*
X117505528Y-112115732D01*
X117423340Y-112238735D01*
X117318735Y-112343340D01*
X117195732Y-112425528D01*
X117195731Y-112425529D01*
X117195730Y-112425529D01*
X117059059Y-112482140D01*
X116913968Y-112511000D01*
X116766032Y-112511000D01*
X116620941Y-112482140D01*
X116484270Y-112425529D01*
X116484269Y-112425529D01*
X116484268Y-112425528D01*
X116361265Y-112343340D01*
X116256660Y-112238735D01*
X116174472Y-112115732D01*
X116117860Y-111979059D01*
X116089000Y-111833968D01*
X116089000Y-111686032D01*
X116117860Y-111540941D01*
X116174471Y-111404270D01*
X116174472Y-111404268D01*
X116256660Y-111281265D01*
X116361265Y-111176660D01*
X116484268Y-111094472D01*
X116620941Y-111037860D01*
X116766032Y-111009000D01*
X116913968Y-111009000D01*
X117059059Y-111037860D01*
X117059059Y-111037860D01*
G37*
G36*
X124679059Y-111037860D02*
G01*
X124815732Y-111094472D01*
X124938735Y-111176660D01*
X125043340Y-111281265D01*
X125125528Y-111404268D01*
X125125529Y-111404270D01*
X125182140Y-111540941D01*
X125211000Y-111686032D01*
X125211000Y-111833968D01*
X125182140Y-111979059D01*
X125125528Y-112115732D01*
X125043340Y-112238735D01*
X124938735Y-112343340D01*
X124815732Y-112425528D01*
X124815731Y-112425529D01*
X124815730Y-112425529D01*
X124679059Y-112482140D01*
X124533968Y-112511000D01*
X124386032Y-112511000D01*
X124240941Y-112482140D01*
X124104270Y-112425529D01*
X124104269Y-112425529D01*
X124104268Y-112425528D01*
X123981265Y-112343340D01*
X123876660Y-112238735D01*
X123794472Y-112115732D01*
X123737860Y-111979059D01*
X123709000Y-111833968D01*
X123709000Y-111686032D01*
X123737860Y-111540941D01*
X123794471Y-111404270D01*
X123794472Y-111404268D01*
X123876660Y-111281265D01*
X123981265Y-111176660D01*
X124104268Y-111094472D01*
X124240941Y-111037860D01*
X124386032Y-111009000D01*
X124533968Y-111009000D01*
X124679059Y-111037860D01*
X124679059Y-111037860D01*
G37*
G36*
X120869059Y-111037860D02*
G01*
X121005732Y-111094472D01*
X121128735Y-111176660D01*
X121233340Y-111281265D01*
X121315528Y-111404268D01*
X121315529Y-111404270D01*
X121372140Y-111540941D01*
X121401000Y-111686032D01*
X121401000Y-111833968D01*
X121372140Y-111979059D01*
X121315528Y-112115732D01*
X121233340Y-112238735D01*
X121128735Y-112343340D01*
X121005732Y-112425528D01*
X121005731Y-112425529D01*
X121005730Y-112425529D01*
X120869059Y-112482140D01*
X120723968Y-112511000D01*
X120576032Y-112511000D01*
X120430941Y-112482140D01*
X120294270Y-112425529D01*
X120294269Y-112425529D01*
X120294268Y-112425528D01*
X120171265Y-112343340D01*
X120066660Y-112238735D01*
X119984472Y-112115732D01*
X119927860Y-111979059D01*
X119899000Y-111833968D01*
X119899000Y-111686032D01*
X119927860Y-111540941D01*
X119984471Y-111404270D01*
X119984472Y-111404268D01*
X120066660Y-111281265D01*
X120171265Y-111176660D01*
X120294268Y-111094472D01*
X120430941Y-111037860D01*
X120576032Y-111009000D01*
X120723968Y-111009000D01*
X120869059Y-111037860D01*
X120869059Y-111037860D01*
G37*
G36*
X111672823Y-110159313D02*
G01*
X111833242Y-110207976D01*
X111965906Y-110278886D01*
X111981078Y-110286996D01*
X112110659Y-110393341D01*
X112217004Y-110522922D01*
X112217005Y-110522924D01*
X112296024Y-110670758D01*
X112344687Y-110831177D01*
X112361117Y-110998000D01*
X112344687Y-111164823D01*
X112296024Y-111325242D01*
X112227503Y-111453435D01*
X112217004Y-111473078D01*
X112110659Y-111602659D01*
X111981078Y-111709004D01*
X111981076Y-111709005D01*
X111833242Y-111788024D01*
X111672823Y-111836687D01*
X111547804Y-111849000D01*
X111464196Y-111849000D01*
X111339177Y-111836687D01*
X111178758Y-111788024D01*
X111030924Y-111709005D01*
X111030922Y-111709004D01*
X110901341Y-111602659D01*
X110794996Y-111473078D01*
X110784497Y-111453435D01*
X110715976Y-111325242D01*
X110667313Y-111164823D01*
X110650883Y-110998000D01*
X110667313Y-110831177D01*
X110715976Y-110670758D01*
X110794995Y-110522924D01*
X110794996Y-110522922D01*
X110901341Y-110393341D01*
X111030922Y-110286996D01*
X111046094Y-110278886D01*
X111178758Y-110207976D01*
X111339177Y-110159313D01*
X111464196Y-110147000D01*
X111547804Y-110147000D01*
X111672823Y-110159313D01*
X111672823Y-110159313D01*
G37*
G36*
X96432823Y-110159313D02*
G01*
X96593242Y-110207976D01*
X96725906Y-110278886D01*
X96741078Y-110286996D01*
X96870659Y-110393341D01*
X96977004Y-110522922D01*
X96977005Y-110522924D01*
X97056024Y-110670758D01*
X97104687Y-110831177D01*
X97121117Y-110998000D01*
X97104687Y-111164823D01*
X97056024Y-111325242D01*
X96987503Y-111453435D01*
X96977004Y-111473078D01*
X96870659Y-111602659D01*
X96741078Y-111709004D01*
X96741076Y-111709005D01*
X96593242Y-111788024D01*
X96432823Y-111836687D01*
X96307804Y-111849000D01*
X96224196Y-111849000D01*
X96099177Y-111836687D01*
X95938758Y-111788024D01*
X95790924Y-111709005D01*
X95790922Y-111709004D01*
X95661341Y-111602659D01*
X95554996Y-111473078D01*
X95544497Y-111453435D01*
X95475976Y-111325242D01*
X95427313Y-111164823D01*
X95410883Y-110998000D01*
X95427313Y-110831177D01*
X95475976Y-110670758D01*
X95554995Y-110522924D01*
X95554996Y-110522922D01*
X95661341Y-110393341D01*
X95790922Y-110286996D01*
X95806094Y-110278886D01*
X95938758Y-110207976D01*
X96099177Y-110159313D01*
X96224196Y-110147000D01*
X96307804Y-110147000D01*
X96432823Y-110159313D01*
X96432823Y-110159313D01*
G37*
G36*
X111672823Y-107619313D02*
G01*
X111833242Y-107667976D01*
X111916570Y-107712516D01*
X111981078Y-107746996D01*
X112110659Y-107853341D01*
X112217004Y-107982922D01*
X112217005Y-107982924D01*
X112296024Y-108130758D01*
X112344687Y-108291177D01*
X112361117Y-108458000D01*
X112344687Y-108624823D01*
X112296024Y-108785242D01*
X112241498Y-108887252D01*
X112217004Y-108933078D01*
X112110659Y-109062659D01*
X111981078Y-109169004D01*
X111981076Y-109169005D01*
X111833242Y-109248024D01*
X111672823Y-109296687D01*
X111547804Y-109309000D01*
X111464196Y-109309000D01*
X111339177Y-109296687D01*
X111178758Y-109248024D01*
X111030924Y-109169005D01*
X111030922Y-109169004D01*
X110901341Y-109062659D01*
X110794996Y-108933078D01*
X110770502Y-108887252D01*
X110715976Y-108785242D01*
X110667313Y-108624823D01*
X110650883Y-108458000D01*
X110667313Y-108291177D01*
X110715976Y-108130758D01*
X110794995Y-107982924D01*
X110794996Y-107982922D01*
X110901341Y-107853341D01*
X111030922Y-107746996D01*
X111095430Y-107712516D01*
X111178758Y-107667976D01*
X111339177Y-107619313D01*
X111464196Y-107607000D01*
X111547804Y-107607000D01*
X111672823Y-107619313D01*
X111672823Y-107619313D01*
G37*
G36*
X96432823Y-107619313D02*
G01*
X96593242Y-107667976D01*
X96676570Y-107712516D01*
X96741078Y-107746996D01*
X96870659Y-107853341D01*
X96977004Y-107982922D01*
X96977005Y-107982924D01*
X97056024Y-108130758D01*
X97104687Y-108291177D01*
X97121117Y-108458000D01*
X97104687Y-108624823D01*
X97056024Y-108785242D01*
X97001498Y-108887252D01*
X96977004Y-108933078D01*
X96870659Y-109062659D01*
X96741078Y-109169004D01*
X96741076Y-109169005D01*
X96593242Y-109248024D01*
X96432823Y-109296687D01*
X96307804Y-109309000D01*
X96224196Y-109309000D01*
X96099177Y-109296687D01*
X95938758Y-109248024D01*
X95790924Y-109169005D01*
X95790922Y-109169004D01*
X95661341Y-109062659D01*
X95554996Y-108933078D01*
X95530502Y-108887252D01*
X95475976Y-108785242D01*
X95427313Y-108624823D01*
X95410883Y-108458000D01*
X95427313Y-108291177D01*
X95475976Y-108130758D01*
X95554995Y-107982924D01*
X95554996Y-107982922D01*
X95661341Y-107853341D01*
X95790922Y-107746996D01*
X95855430Y-107712516D01*
X95938758Y-107667976D01*
X96099177Y-107619313D01*
X96224196Y-107607000D01*
X96307804Y-107607000D01*
X96432823Y-107619313D01*
X96432823Y-107619313D01*
G37*
G36*
X141857589Y-107442876D02*
G01*
X141956893Y-107462629D01*
X142097206Y-107520748D01*
X142223484Y-107605125D01*
X142330875Y-107712516D01*
X142415252Y-107838794D01*
X142473371Y-107979107D01*
X142503000Y-108128063D01*
X142503000Y-108279937D01*
X142473371Y-108428893D01*
X142415252Y-108569206D01*
X142330875Y-108695484D01*
X142223484Y-108802875D01*
X142097206Y-108887252D01*
X141956893Y-108945371D01*
X141857589Y-108965124D01*
X141807938Y-108975000D01*
X141656062Y-108975000D01*
X141606411Y-108965124D01*
X141507107Y-108945371D01*
X141366794Y-108887252D01*
X141240516Y-108802875D01*
X141133125Y-108695484D01*
X141048748Y-108569206D01*
X140990629Y-108428893D01*
X140961000Y-108279937D01*
X140961000Y-108128063D01*
X140990629Y-107979107D01*
X141048748Y-107838794D01*
X141133125Y-107712516D01*
X141240516Y-107605125D01*
X141366794Y-107520748D01*
X141507107Y-107462629D01*
X141606411Y-107442876D01*
X141656062Y-107433000D01*
X141807938Y-107433000D01*
X141857589Y-107442876D01*
X141857589Y-107442876D01*
G37*
G36*
X89279589Y-106934876D02*
G01*
X89378893Y-106954629D01*
X89519206Y-107012748D01*
X89645484Y-107097125D01*
X89752875Y-107204516D01*
X89837252Y-107330794D01*
X89895371Y-107471107D01*
X89925000Y-107620063D01*
X89925000Y-107771937D01*
X89895371Y-107920893D01*
X89837252Y-108061206D01*
X89752875Y-108187484D01*
X89645484Y-108294875D01*
X89519206Y-108379252D01*
X89378893Y-108437371D01*
X89279589Y-108457124D01*
X89229938Y-108467000D01*
X89078062Y-108467000D01*
X89028411Y-108457124D01*
X88929107Y-108437371D01*
X88788794Y-108379252D01*
X88662516Y-108294875D01*
X88555125Y-108187484D01*
X88470748Y-108061206D01*
X88412629Y-107920893D01*
X88383000Y-107771937D01*
X88383000Y-107620063D01*
X88412629Y-107471107D01*
X88470748Y-107330794D01*
X88555125Y-107204516D01*
X88662516Y-107097125D01*
X88788794Y-107012748D01*
X88929107Y-106954629D01*
X89028411Y-106934876D01*
X89078062Y-106925000D01*
X89229938Y-106925000D01*
X89279589Y-106934876D01*
X89279589Y-106934876D01*
G37*
G36*
X96432823Y-105079313D02*
G01*
X96593242Y-105127976D01*
X96676570Y-105172516D01*
X96741078Y-105206996D01*
X96870659Y-105313341D01*
X96977004Y-105442922D01*
X96977005Y-105442924D01*
X97056024Y-105590758D01*
X97104687Y-105751177D01*
X97121117Y-105918000D01*
X97104687Y-106084823D01*
X97056024Y-106245242D01*
X97001498Y-106347252D01*
X96977004Y-106393078D01*
X96870659Y-106522659D01*
X96741078Y-106629004D01*
X96741076Y-106629005D01*
X96593242Y-106708024D01*
X96432823Y-106756687D01*
X96307804Y-106769000D01*
X96224196Y-106769000D01*
X96099177Y-106756687D01*
X95938758Y-106708024D01*
X95790924Y-106629005D01*
X95790922Y-106629004D01*
X95661341Y-106522659D01*
X95554996Y-106393078D01*
X95530502Y-106347252D01*
X95475976Y-106245242D01*
X95427313Y-106084823D01*
X95410883Y-105918000D01*
X95427313Y-105751177D01*
X95475976Y-105590758D01*
X95554995Y-105442924D01*
X95554996Y-105442922D01*
X95661341Y-105313341D01*
X95790922Y-105206996D01*
X95855430Y-105172516D01*
X95938758Y-105127976D01*
X96099177Y-105079313D01*
X96224196Y-105067000D01*
X96307804Y-105067000D01*
X96432823Y-105079313D01*
X96432823Y-105079313D01*
G37*
G36*
X111672823Y-105079313D02*
G01*
X111833242Y-105127976D01*
X111916570Y-105172516D01*
X111981078Y-105206996D01*
X112110659Y-105313341D01*
X112217004Y-105442922D01*
X112217005Y-105442924D01*
X112296024Y-105590758D01*
X112344687Y-105751177D01*
X112361117Y-105918000D01*
X112344687Y-106084823D01*
X112296024Y-106245242D01*
X112241498Y-106347252D01*
X112217004Y-106393078D01*
X112110659Y-106522659D01*
X111981078Y-106629004D01*
X111981076Y-106629005D01*
X111833242Y-106708024D01*
X111672823Y-106756687D01*
X111547804Y-106769000D01*
X111464196Y-106769000D01*
X111339177Y-106756687D01*
X111178758Y-106708024D01*
X111030924Y-106629005D01*
X111030922Y-106629004D01*
X110901341Y-106522659D01*
X110794996Y-106393078D01*
X110770502Y-106347252D01*
X110715976Y-106245242D01*
X110667313Y-106084823D01*
X110650883Y-105918000D01*
X110667313Y-105751177D01*
X110715976Y-105590758D01*
X110794995Y-105442924D01*
X110794996Y-105442922D01*
X110901341Y-105313341D01*
X111030922Y-105206996D01*
X111095430Y-105172516D01*
X111178758Y-105127976D01*
X111339177Y-105079313D01*
X111464196Y-105067000D01*
X111547804Y-105067000D01*
X111672823Y-105079313D01*
X111672823Y-105079313D01*
G37*
G36*
X146937589Y-104902876D02*
G01*
X147036893Y-104922629D01*
X147177206Y-104980748D01*
X147303484Y-105065125D01*
X147410875Y-105172516D01*
X147495252Y-105298794D01*
X147553371Y-105439107D01*
X147583000Y-105588063D01*
X147583000Y-105739937D01*
X147553371Y-105888893D01*
X147495252Y-106029206D01*
X147410875Y-106155484D01*
X147303484Y-106262875D01*
X147177206Y-106347252D01*
X147036893Y-106405371D01*
X146937589Y-106425124D01*
X146887938Y-106435000D01*
X146736062Y-106435000D01*
X146686411Y-106425124D01*
X146587107Y-106405371D01*
X146446794Y-106347252D01*
X146320516Y-106262875D01*
X146213125Y-106155484D01*
X146128748Y-106029206D01*
X146070629Y-105888893D01*
X146041000Y-105739937D01*
X146041000Y-105588063D01*
X146070629Y-105439107D01*
X146128748Y-105298794D01*
X146213125Y-105172516D01*
X146320516Y-105065125D01*
X146446794Y-104980748D01*
X146587107Y-104922629D01*
X146686411Y-104902876D01*
X146736062Y-104893000D01*
X146887938Y-104893000D01*
X146937589Y-104902876D01*
X146937589Y-104902876D01*
G37*
G36*
X86739589Y-104394876D02*
G01*
X86838893Y-104414629D01*
X86979206Y-104472748D01*
X87105484Y-104557125D01*
X87212875Y-104664516D01*
X87297252Y-104790794D01*
X87355371Y-104931107D01*
X87385000Y-105080063D01*
X87385000Y-105231937D01*
X87355371Y-105380893D01*
X87297252Y-105521206D01*
X87212875Y-105647484D01*
X87105484Y-105754875D01*
X86979206Y-105839252D01*
X86838893Y-105897371D01*
X86739589Y-105917124D01*
X86689938Y-105927000D01*
X86538062Y-105927000D01*
X86488411Y-105917124D01*
X86389107Y-105897371D01*
X86248794Y-105839252D01*
X86122516Y-105754875D01*
X86015125Y-105647484D01*
X85930748Y-105521206D01*
X85872629Y-105380893D01*
X85843000Y-105231937D01*
X85843000Y-105080063D01*
X85872629Y-104931107D01*
X85930748Y-104790794D01*
X86015125Y-104664516D01*
X86122516Y-104557125D01*
X86248794Y-104472748D01*
X86389107Y-104414629D01*
X86488411Y-104394876D01*
X86538062Y-104385000D01*
X86689938Y-104385000D01*
X86739589Y-104394876D01*
X86739589Y-104394876D01*
G37*
G36*
X111672823Y-102539313D02*
G01*
X111833242Y-102587976D01*
X111916570Y-102632516D01*
X111981078Y-102666996D01*
X112110659Y-102773341D01*
X112217004Y-102902922D01*
X112217005Y-102902924D01*
X112296024Y-103050758D01*
X112344687Y-103211177D01*
X112361117Y-103378000D01*
X112344687Y-103544823D01*
X112296024Y-103705242D01*
X112241498Y-103807252D01*
X112217004Y-103853078D01*
X112110659Y-103982659D01*
X111981078Y-104089004D01*
X111981076Y-104089005D01*
X111833242Y-104168024D01*
X111672823Y-104216687D01*
X111547804Y-104229000D01*
X111464196Y-104229000D01*
X111339177Y-104216687D01*
X111178758Y-104168024D01*
X111030924Y-104089005D01*
X111030922Y-104089004D01*
X110901341Y-103982659D01*
X110794996Y-103853078D01*
X110770502Y-103807252D01*
X110715976Y-103705242D01*
X110667313Y-103544823D01*
X110650883Y-103378000D01*
X110667313Y-103211177D01*
X110715976Y-103050758D01*
X110794995Y-102902924D01*
X110794996Y-102902922D01*
X110901341Y-102773341D01*
X111030922Y-102666996D01*
X111095430Y-102632516D01*
X111178758Y-102587976D01*
X111339177Y-102539313D01*
X111464196Y-102527000D01*
X111547804Y-102527000D01*
X111672823Y-102539313D01*
X111672823Y-102539313D01*
G37*
G36*
X96432823Y-102539313D02*
G01*
X96593242Y-102587976D01*
X96676570Y-102632516D01*
X96741078Y-102666996D01*
X96870659Y-102773341D01*
X96977004Y-102902922D01*
X96977005Y-102902924D01*
X97056024Y-103050758D01*
X97104687Y-103211177D01*
X97121117Y-103378000D01*
X97104687Y-103544823D01*
X97056024Y-103705242D01*
X97001498Y-103807252D01*
X96977004Y-103853078D01*
X96870659Y-103982659D01*
X96741078Y-104089004D01*
X96741076Y-104089005D01*
X96593242Y-104168024D01*
X96432823Y-104216687D01*
X96307804Y-104229000D01*
X96224196Y-104229000D01*
X96099177Y-104216687D01*
X95938758Y-104168024D01*
X95790924Y-104089005D01*
X95790922Y-104089004D01*
X95661341Y-103982659D01*
X95554996Y-103853078D01*
X95530502Y-103807252D01*
X95475976Y-103705242D01*
X95427313Y-103544823D01*
X95410883Y-103378000D01*
X95427313Y-103211177D01*
X95475976Y-103050758D01*
X95554995Y-102902924D01*
X95554996Y-102902922D01*
X95661341Y-102773341D01*
X95790922Y-102666996D01*
X95855430Y-102632516D01*
X95938758Y-102587976D01*
X96099177Y-102539313D01*
X96224196Y-102527000D01*
X96307804Y-102527000D01*
X96432823Y-102539313D01*
X96432823Y-102539313D01*
G37*
G36*
X141857589Y-102362876D02*
G01*
X141956893Y-102382629D01*
X142097206Y-102440748D01*
X142223484Y-102525125D01*
X142330875Y-102632516D01*
X142415252Y-102758794D01*
X142473371Y-102899107D01*
X142503000Y-103048063D01*
X142503000Y-103199937D01*
X142473371Y-103348893D01*
X142415252Y-103489206D01*
X142330875Y-103615484D01*
X142223484Y-103722875D01*
X142097206Y-103807252D01*
X141956893Y-103865371D01*
X141857589Y-103885124D01*
X141807938Y-103895000D01*
X141656062Y-103895000D01*
X141606411Y-103885124D01*
X141507107Y-103865371D01*
X141366794Y-103807252D01*
X141240516Y-103722875D01*
X141133125Y-103615484D01*
X141048748Y-103489206D01*
X140990629Y-103348893D01*
X140961000Y-103199937D01*
X140961000Y-103048063D01*
X140990629Y-102899107D01*
X141048748Y-102758794D01*
X141133125Y-102632516D01*
X141240516Y-102525125D01*
X141366794Y-102440748D01*
X141507107Y-102382629D01*
X141606411Y-102362876D01*
X141656062Y-102353000D01*
X141807938Y-102353000D01*
X141857589Y-102362876D01*
X141857589Y-102362876D01*
G37*
G36*
X119120228Y-102003703D02*
G01*
X119275100Y-102067853D01*
X119414481Y-102160985D01*
X119533015Y-102279519D01*
X119626147Y-102418900D01*
X119690297Y-102573772D01*
X119723000Y-102738184D01*
X119723000Y-102905816D01*
X119690297Y-103070228D01*
X119626147Y-103225100D01*
X119533015Y-103364481D01*
X119414481Y-103483015D01*
X119275100Y-103576147D01*
X119120228Y-103640297D01*
X118955816Y-103673000D01*
X118788184Y-103673000D01*
X118623772Y-103640297D01*
X118468900Y-103576147D01*
X118329519Y-103483015D01*
X118210985Y-103364481D01*
X118117853Y-103225100D01*
X118053703Y-103070228D01*
X118021000Y-102905816D01*
X118021000Y-102738184D01*
X118053703Y-102573772D01*
X118117853Y-102418900D01*
X118210985Y-102279519D01*
X118329519Y-102160985D01*
X118468900Y-102067853D01*
X118623772Y-102003703D01*
X118788184Y-101971000D01*
X118955816Y-101971000D01*
X119120228Y-102003703D01*
X119120228Y-102003703D01*
G37*
G36*
X89275183Y-101854000D02*
G01*
X89378893Y-101874629D01*
X89519206Y-101932748D01*
X89645484Y-102017125D01*
X89752875Y-102124516D01*
X89837252Y-102250794D01*
X89895371Y-102391107D01*
X89925000Y-102540063D01*
X89925000Y-102691937D01*
X89895371Y-102840893D01*
X89837252Y-102981206D01*
X89752875Y-103107484D01*
X89645484Y-103214875D01*
X89519206Y-103299252D01*
X89378893Y-103357371D01*
X89279589Y-103377124D01*
X89229938Y-103387000D01*
X89078062Y-103387000D01*
X89028411Y-103377124D01*
X88929107Y-103357371D01*
X88788794Y-103299252D01*
X88662516Y-103214875D01*
X88555125Y-103107484D01*
X88470748Y-102981206D01*
X88412629Y-102840893D01*
X88383000Y-102691937D01*
X88383000Y-102540063D01*
X88412629Y-102391107D01*
X88470748Y-102250794D01*
X88555125Y-102124516D01*
X88662516Y-102017125D01*
X88788794Y-101932748D01*
X88929107Y-101874629D01*
X89032817Y-101854000D01*
X89078062Y-101845000D01*
X89229938Y-101845000D01*
X89275183Y-101854000D01*
X89275183Y-101854000D01*
G37*
G36*
X132190443Y-100959519D02*
G01*
X132256627Y-100966037D01*
X132426466Y-101017557D01*
X132582991Y-101101222D01*
X132618729Y-101130552D01*
X132720186Y-101213814D01*
X132801647Y-101313076D01*
X132832778Y-101351009D01*
X132916443Y-101507534D01*
X132967963Y-101677373D01*
X132985359Y-101854000D01*
X132967963Y-102030627D01*
X132916443Y-102200466D01*
X132832778Y-102356991D01*
X132804778Y-102391109D01*
X132720186Y-102494186D01*
X132623210Y-102573771D01*
X132582991Y-102606778D01*
X132426466Y-102690443D01*
X132256627Y-102741963D01*
X132190442Y-102748482D01*
X132124260Y-102755000D01*
X132035740Y-102755000D01*
X131969557Y-102748481D01*
X131903373Y-102741963D01*
X131733534Y-102690443D01*
X131577009Y-102606778D01*
X131536790Y-102573771D01*
X131439814Y-102494186D01*
X131355222Y-102391109D01*
X131327222Y-102356991D01*
X131243557Y-102200466D01*
X131192037Y-102030627D01*
X131174641Y-101854000D01*
X131192037Y-101677373D01*
X131243557Y-101507534D01*
X131327222Y-101351009D01*
X131358353Y-101313076D01*
X131439814Y-101213814D01*
X131541271Y-101130552D01*
X131577009Y-101101222D01*
X131733534Y-101017557D01*
X131903373Y-100966037D01*
X131969558Y-100959518D01*
X132035740Y-100953000D01*
X132124260Y-100953000D01*
X132190443Y-100959519D01*
X132190443Y-100959519D01*
G37*
G36*
X130441000Y-102755000D02*
G01*
X128639000Y-102755000D01*
X128639000Y-100953000D01*
X130441000Y-100953000D01*
X130441000Y-102755000D01*
X130441000Y-102755000D01*
G37*
G36*
X96432823Y-99999313D02*
G01*
X96593242Y-100047976D01*
X96634874Y-100070229D01*
X96741078Y-100126996D01*
X96870659Y-100233341D01*
X96977004Y-100362922D01*
X96977005Y-100362924D01*
X97056024Y-100510758D01*
X97104687Y-100671177D01*
X97121117Y-100838000D01*
X97104687Y-101004823D01*
X97056024Y-101165242D01*
X97030061Y-101213815D01*
X96977004Y-101313078D01*
X96870659Y-101442659D01*
X96741078Y-101549004D01*
X96741076Y-101549005D01*
X96593242Y-101628024D01*
X96432823Y-101676687D01*
X96307804Y-101689000D01*
X96224196Y-101689000D01*
X96099177Y-101676687D01*
X95938758Y-101628024D01*
X95790924Y-101549005D01*
X95790922Y-101549004D01*
X95661341Y-101442659D01*
X95554996Y-101313078D01*
X95501939Y-101213815D01*
X95475976Y-101165242D01*
X95427313Y-101004823D01*
X95410883Y-100838000D01*
X95427313Y-100671177D01*
X95475976Y-100510758D01*
X95554995Y-100362924D01*
X95554996Y-100362922D01*
X95661341Y-100233341D01*
X95790922Y-100126996D01*
X95897126Y-100070229D01*
X95938758Y-100047976D01*
X96099177Y-99999313D01*
X96224196Y-99987000D01*
X96307804Y-99987000D01*
X96432823Y-99999313D01*
X96432823Y-99999313D01*
G37*
G36*
X111672823Y-99999313D02*
G01*
X111833242Y-100047976D01*
X111874874Y-100070229D01*
X111981078Y-100126996D01*
X112110659Y-100233341D01*
X112217004Y-100362922D01*
X112217005Y-100362924D01*
X112296024Y-100510758D01*
X112344687Y-100671177D01*
X112361117Y-100838000D01*
X112344687Y-101004823D01*
X112296024Y-101165242D01*
X112270061Y-101213815D01*
X112217004Y-101313078D01*
X112110659Y-101442659D01*
X111981078Y-101549004D01*
X111981076Y-101549005D01*
X111833242Y-101628024D01*
X111672823Y-101676687D01*
X111547804Y-101689000D01*
X111464196Y-101689000D01*
X111339177Y-101676687D01*
X111178758Y-101628024D01*
X111030924Y-101549005D01*
X111030922Y-101549004D01*
X110901341Y-101442659D01*
X110794996Y-101313078D01*
X110741939Y-101213815D01*
X110715976Y-101165242D01*
X110667313Y-101004823D01*
X110650883Y-100838000D01*
X110667313Y-100671177D01*
X110715976Y-100510758D01*
X110794995Y-100362924D01*
X110794996Y-100362922D01*
X110901341Y-100233341D01*
X111030922Y-100126996D01*
X111137126Y-100070229D01*
X111178758Y-100047976D01*
X111339177Y-99999313D01*
X111464196Y-99987000D01*
X111547804Y-99987000D01*
X111672823Y-99999313D01*
X111672823Y-99999313D01*
G37*
G36*
X119120228Y-99003703D02*
G01*
X119275100Y-99067853D01*
X119414481Y-99160985D01*
X119533015Y-99279519D01*
X119626147Y-99418900D01*
X119690297Y-99573772D01*
X119723000Y-99738184D01*
X119723000Y-99905816D01*
X119690297Y-100070228D01*
X119626147Y-100225100D01*
X119533015Y-100364481D01*
X119414481Y-100483015D01*
X119275100Y-100576147D01*
X119120228Y-100640297D01*
X118955816Y-100673000D01*
X118788184Y-100673000D01*
X118623772Y-100640297D01*
X118468900Y-100576147D01*
X118329519Y-100483015D01*
X118210985Y-100364481D01*
X118117853Y-100225100D01*
X118053703Y-100070228D01*
X118021000Y-99905816D01*
X118021000Y-99738184D01*
X118053703Y-99573772D01*
X118117853Y-99418900D01*
X118210985Y-99279519D01*
X118329519Y-99160985D01*
X118468900Y-99067853D01*
X118623772Y-99003703D01*
X118788184Y-98971000D01*
X118955816Y-98971000D01*
X119120228Y-99003703D01*
X119120228Y-99003703D01*
G37*
G36*
X111672823Y-97459313D02*
G01*
X111833242Y-97507976D01*
X111950751Y-97570786D01*
X111981078Y-97586996D01*
X112110659Y-97693341D01*
X112217004Y-97822922D01*
X112217005Y-97822924D01*
X112296024Y-97970758D01*
X112344687Y-98131177D01*
X112361117Y-98298000D01*
X112344687Y-98464823D01*
X112296024Y-98625242D01*
X112225114Y-98757906D01*
X112217004Y-98773078D01*
X112110659Y-98902659D01*
X111981078Y-99009004D01*
X111981076Y-99009005D01*
X111833242Y-99088024D01*
X111672823Y-99136687D01*
X111547804Y-99149000D01*
X111464196Y-99149000D01*
X111339177Y-99136687D01*
X111178758Y-99088024D01*
X111030924Y-99009005D01*
X111030922Y-99009004D01*
X110901341Y-98902659D01*
X110794996Y-98773078D01*
X110786886Y-98757906D01*
X110715976Y-98625242D01*
X110667313Y-98464823D01*
X110650883Y-98298000D01*
X110667313Y-98131177D01*
X110715976Y-97970758D01*
X110794995Y-97822924D01*
X110794996Y-97822922D01*
X110901341Y-97693341D01*
X111030922Y-97586996D01*
X111061249Y-97570786D01*
X111178758Y-97507976D01*
X111339177Y-97459313D01*
X111464196Y-97447000D01*
X111547804Y-97447000D01*
X111672823Y-97459313D01*
X111672823Y-97459313D01*
G37*
G36*
X96432823Y-97459313D02*
G01*
X96593242Y-97507976D01*
X96710751Y-97570786D01*
X96741078Y-97586996D01*
X96870659Y-97693341D01*
X96977004Y-97822922D01*
X96977005Y-97822924D01*
X97056024Y-97970758D01*
X97104687Y-98131177D01*
X97121117Y-98298000D01*
X97104687Y-98464823D01*
X97056024Y-98625242D01*
X96985114Y-98757906D01*
X96977004Y-98773078D01*
X96870659Y-98902659D01*
X96741078Y-99009004D01*
X96741076Y-99009005D01*
X96593242Y-99088024D01*
X96432823Y-99136687D01*
X96307804Y-99149000D01*
X96224196Y-99149000D01*
X96099177Y-99136687D01*
X95938758Y-99088024D01*
X95790924Y-99009005D01*
X95790922Y-99009004D01*
X95661341Y-98902659D01*
X95554996Y-98773078D01*
X95546886Y-98757906D01*
X95475976Y-98625242D01*
X95427313Y-98464823D01*
X95410883Y-98298000D01*
X95427313Y-98131177D01*
X95475976Y-97970758D01*
X95554995Y-97822924D01*
X95554996Y-97822922D01*
X95661341Y-97693341D01*
X95790922Y-97586996D01*
X95821249Y-97570786D01*
X95938758Y-97507976D01*
X96099177Y-97459313D01*
X96224196Y-97447000D01*
X96307804Y-97447000D01*
X96432823Y-97459313D01*
X96432823Y-97459313D01*
G37*
G36*
X93691059Y-96559860D02*
G01*
X93751294Y-96584810D01*
X93827732Y-96616472D01*
X93950735Y-96698660D01*
X94055340Y-96803265D01*
X94137528Y-96926268D01*
X94194140Y-97062941D01*
X94223000Y-97208033D01*
X94223000Y-97355967D01*
X94194140Y-97501059D01*
X94137528Y-97637732D01*
X94055340Y-97760735D01*
X93950735Y-97865340D01*
X93827732Y-97947528D01*
X93827731Y-97947529D01*
X93827730Y-97947529D01*
X93691059Y-98004140D01*
X93545968Y-98033000D01*
X93398032Y-98033000D01*
X93252941Y-98004140D01*
X93116270Y-97947529D01*
X93116269Y-97947529D01*
X93116268Y-97947528D01*
X92993265Y-97865340D01*
X92888660Y-97760735D01*
X92806472Y-97637732D01*
X92749860Y-97501059D01*
X92721000Y-97355967D01*
X92721000Y-97208033D01*
X92749860Y-97062941D01*
X92806472Y-96926268D01*
X92888660Y-96803265D01*
X92993265Y-96698660D01*
X93116268Y-96616472D01*
X93192707Y-96584810D01*
X93252941Y-96559860D01*
X93398032Y-96531000D01*
X93545968Y-96531000D01*
X93691059Y-96559860D01*
X93691059Y-96559860D01*
G37*
G36*
X85925665Y-96534622D02*
G01*
X85999222Y-96541867D01*
X86140786Y-96584810D01*
X86271252Y-96654546D01*
X86301040Y-96678992D01*
X86385607Y-96748393D01*
X86455008Y-96832960D01*
X86479454Y-96862748D01*
X86549190Y-96993214D01*
X86592133Y-97134778D01*
X86606633Y-97282000D01*
X86592133Y-97429222D01*
X86549190Y-97570786D01*
X86479454Y-97701252D01*
X86459964Y-97725000D01*
X86385607Y-97815607D01*
X86325004Y-97865341D01*
X86271252Y-97909454D01*
X86271250Y-97909455D01*
X86156556Y-97970761D01*
X86140786Y-97979190D01*
X85999222Y-98022133D01*
X85925665Y-98029378D01*
X85888888Y-98033000D01*
X85815112Y-98033000D01*
X85778335Y-98029378D01*
X85704778Y-98022133D01*
X85563214Y-97979190D01*
X85547445Y-97970761D01*
X85432750Y-97909455D01*
X85432748Y-97909454D01*
X85378996Y-97865341D01*
X85318393Y-97815607D01*
X85244036Y-97725000D01*
X85224546Y-97701252D01*
X85154810Y-97570786D01*
X85111867Y-97429222D01*
X85097367Y-97282000D01*
X85111867Y-97134778D01*
X85154810Y-96993214D01*
X85224546Y-96862748D01*
X85248992Y-96832960D01*
X85318393Y-96748393D01*
X85402960Y-96678992D01*
X85432748Y-96654546D01*
X85563214Y-96584810D01*
X85704778Y-96541867D01*
X85778335Y-96534622D01*
X85815112Y-96531000D01*
X85888888Y-96531000D01*
X85925665Y-96534622D01*
X85925665Y-96534622D01*
G37*
G36*
X125018457Y-95826897D02*
G01*
X125050602Y-95836649D01*
X125080230Y-95852485D01*
X125106201Y-95873799D01*
X125127515Y-95899770D01*
X125143351Y-95929398D01*
X125153103Y-95961543D01*
X125157000Y-96001114D01*
X125157000Y-97546886D01*
X125153103Y-97586457D01*
X125143351Y-97618602D01*
X125127515Y-97648230D01*
X125106201Y-97674201D01*
X125080230Y-97695515D01*
X125050602Y-97711351D01*
X125018457Y-97721103D01*
X124978886Y-97725000D01*
X123433114Y-97725000D01*
X123393543Y-97721103D01*
X123361398Y-97711351D01*
X123331770Y-97695515D01*
X123305799Y-97674201D01*
X123284485Y-97648230D01*
X123268649Y-97618602D01*
X123258897Y-97586457D01*
X123255000Y-97546886D01*
X123255000Y-96001114D01*
X123258897Y-95961543D01*
X123268649Y-95929398D01*
X123284485Y-95899770D01*
X123305799Y-95873799D01*
X123331770Y-95852485D01*
X123361398Y-95836649D01*
X123393543Y-95826897D01*
X123433114Y-95823000D01*
X124978886Y-95823000D01*
X125018457Y-95826897D01*
X125018457Y-95826897D01*
G37*
G36*
X141857589Y-96012876D02*
G01*
X141956893Y-96032629D01*
X142097206Y-96090748D01*
X142223484Y-96175125D01*
X142330875Y-96282516D01*
X142415252Y-96408794D01*
X142473371Y-96549107D01*
X142503000Y-96698063D01*
X142503000Y-96849937D01*
X142473371Y-96998893D01*
X142415252Y-97139206D01*
X142330875Y-97265484D01*
X142223484Y-97372875D01*
X142097206Y-97457252D01*
X141956893Y-97515371D01*
X141857589Y-97535124D01*
X141807938Y-97545000D01*
X141656062Y-97545000D01*
X141606411Y-97535124D01*
X141507107Y-97515371D01*
X141366794Y-97457252D01*
X141240516Y-97372875D01*
X141133125Y-97265484D01*
X141048748Y-97139206D01*
X140990629Y-96998893D01*
X140961000Y-96849937D01*
X140961000Y-96698063D01*
X140990629Y-96549107D01*
X141048748Y-96408794D01*
X141133125Y-96282516D01*
X141240516Y-96175125D01*
X141366794Y-96090748D01*
X141507107Y-96032629D01*
X141606411Y-96012876D01*
X141656062Y-96003000D01*
X141807938Y-96003000D01*
X141857589Y-96012876D01*
X141857589Y-96012876D01*
G37*
G36*
X111672823Y-94919313D02*
G01*
X111833242Y-94967976D01*
X111965906Y-95038886D01*
X111981078Y-95046996D01*
X112110659Y-95153341D01*
X112217004Y-95282922D01*
X112217005Y-95282924D01*
X112296024Y-95430758D01*
X112344687Y-95591177D01*
X112361117Y-95758000D01*
X112344687Y-95924823D01*
X112296024Y-96085242D01*
X112247980Y-96175125D01*
X112217004Y-96233078D01*
X112110659Y-96362659D01*
X111981078Y-96469004D01*
X111981076Y-96469005D01*
X111833242Y-96548024D01*
X111833239Y-96548025D01*
X111803380Y-96557083D01*
X111672823Y-96596687D01*
X111547804Y-96609000D01*
X111464196Y-96609000D01*
X111339177Y-96596687D01*
X111208620Y-96557083D01*
X111178761Y-96548025D01*
X111178758Y-96548024D01*
X111030924Y-96469005D01*
X111030922Y-96469004D01*
X110901341Y-96362659D01*
X110794996Y-96233078D01*
X110764020Y-96175125D01*
X110715976Y-96085242D01*
X110667313Y-95924823D01*
X110650883Y-95758000D01*
X110667313Y-95591177D01*
X110715976Y-95430758D01*
X110794995Y-95282924D01*
X110794996Y-95282922D01*
X110901341Y-95153341D01*
X111030922Y-95046996D01*
X111046094Y-95038886D01*
X111178758Y-94967976D01*
X111339177Y-94919313D01*
X111464196Y-94907000D01*
X111547804Y-94907000D01*
X111672823Y-94919313D01*
X111672823Y-94919313D01*
G37*
G36*
X96432823Y-94919313D02*
G01*
X96593242Y-94967976D01*
X96725906Y-95038886D01*
X96741078Y-95046996D01*
X96870659Y-95153341D01*
X96977004Y-95282922D01*
X96977005Y-95282924D01*
X97056024Y-95430758D01*
X97104687Y-95591177D01*
X97121117Y-95758000D01*
X97104687Y-95924823D01*
X97056024Y-96085242D01*
X97007980Y-96175125D01*
X96977004Y-96233078D01*
X96870659Y-96362659D01*
X96741078Y-96469004D01*
X96741076Y-96469005D01*
X96593242Y-96548024D01*
X96593239Y-96548025D01*
X96563380Y-96557083D01*
X96432823Y-96596687D01*
X96307804Y-96609000D01*
X96224196Y-96609000D01*
X96099177Y-96596687D01*
X95968620Y-96557083D01*
X95938761Y-96548025D01*
X95938758Y-96548024D01*
X95790924Y-96469005D01*
X95790922Y-96469004D01*
X95661341Y-96362659D01*
X95554996Y-96233078D01*
X95524020Y-96175125D01*
X95475976Y-96085242D01*
X95427313Y-95924823D01*
X95410883Y-95758000D01*
X95427313Y-95591177D01*
X95475976Y-95430758D01*
X95554995Y-95282924D01*
X95554996Y-95282922D01*
X95661341Y-95153341D01*
X95790922Y-95046996D01*
X95806094Y-95038886D01*
X95938758Y-94967976D01*
X96099177Y-94919313D01*
X96224196Y-94907000D01*
X96307804Y-94907000D01*
X96432823Y-94919313D01*
X96432823Y-94919313D01*
G37*
G36*
X136304732Y-91618063D02*
G01*
X136369876Y-91624479D01*
X136443517Y-91646818D01*
X136480338Y-91657987D01*
X136582140Y-91712402D01*
X136671370Y-91785630D01*
X136744598Y-91874860D01*
X136799013Y-91976662D01*
X136799013Y-91976663D01*
X136832521Y-92087124D01*
X136843835Y-92202000D01*
X136832521Y-92316876D01*
X136820115Y-92357773D01*
X136799013Y-92427338D01*
X136744598Y-92529140D01*
X136671370Y-92618370D01*
X136582140Y-92691598D01*
X136516355Y-92726761D01*
X136495981Y-92740375D01*
X136478654Y-92757702D01*
X136465040Y-92778076D01*
X136455663Y-92800715D01*
X136450883Y-92824749D01*
X136450883Y-92849253D01*
X136455664Y-92873286D01*
X136465041Y-92895925D01*
X136478655Y-92916299D01*
X136495982Y-92933626D01*
X136516355Y-92947239D01*
X136582140Y-92982402D01*
X136671370Y-93055630D01*
X136744598Y-93144860D01*
X136799013Y-93246662D01*
X136799013Y-93246663D01*
X136832521Y-93357124D01*
X136843835Y-93472000D01*
X136832521Y-93586876D01*
X136820115Y-93627773D01*
X136799013Y-93697338D01*
X136744598Y-93799140D01*
X136671370Y-93888370D01*
X136582140Y-93961598D01*
X136516355Y-93996761D01*
X136495981Y-94010375D01*
X136478654Y-94027702D01*
X136465040Y-94048076D01*
X136455663Y-94070715D01*
X136450883Y-94094749D01*
X136450883Y-94119253D01*
X136455664Y-94143286D01*
X136465041Y-94165925D01*
X136478655Y-94186299D01*
X136495982Y-94203626D01*
X136516355Y-94217239D01*
X136582140Y-94252402D01*
X136671370Y-94325630D01*
X136744598Y-94414860D01*
X136799013Y-94516662D01*
X136799013Y-94516663D01*
X136832521Y-94627124D01*
X136843835Y-94742000D01*
X136832521Y-94856876D01*
X136817316Y-94907000D01*
X136799013Y-94967338D01*
X136744598Y-95069140D01*
X136671370Y-95158370D01*
X136615311Y-95204375D01*
X136597984Y-95221702D01*
X136584370Y-95242076D01*
X136574993Y-95264715D01*
X136570212Y-95288748D01*
X136570212Y-95313252D01*
X136574992Y-95337285D01*
X136584369Y-95359924D01*
X136597983Y-95380299D01*
X136615310Y-95397626D01*
X136635684Y-95411240D01*
X136658323Y-95420617D01*
X136682356Y-95425398D01*
X136694609Y-95426000D01*
X136841000Y-95426000D01*
X136841000Y-96598000D01*
X134939000Y-96598000D01*
X134939000Y-95426000D01*
X135085391Y-95426000D01*
X135109777Y-95423598D01*
X135133226Y-95416485D01*
X135154837Y-95404934D01*
X135173779Y-95389389D01*
X135189324Y-95370447D01*
X135200875Y-95348836D01*
X135207988Y-95325387D01*
X135210390Y-95301001D01*
X135207988Y-95276615D01*
X135200875Y-95253166D01*
X135189324Y-95231555D01*
X135173779Y-95212613D01*
X135164689Y-95204375D01*
X135108630Y-95158370D01*
X135035402Y-95069140D01*
X134980987Y-94967338D01*
X134962684Y-94907000D01*
X134947479Y-94856876D01*
X134936165Y-94742000D01*
X134947479Y-94627124D01*
X134980987Y-94516663D01*
X134980987Y-94516662D01*
X135035402Y-94414860D01*
X135108630Y-94325630D01*
X135197860Y-94252402D01*
X135263645Y-94217239D01*
X135284019Y-94203625D01*
X135301346Y-94186298D01*
X135314960Y-94165924D01*
X135324337Y-94143285D01*
X135329117Y-94119251D01*
X135329117Y-94094747D01*
X135324336Y-94070714D01*
X135314959Y-94048075D01*
X135301345Y-94027701D01*
X135284018Y-94010374D01*
X135263645Y-93996761D01*
X135197860Y-93961598D01*
X135108630Y-93888370D01*
X135035402Y-93799140D01*
X134980987Y-93697338D01*
X134959885Y-93627773D01*
X134947479Y-93586876D01*
X134936165Y-93472000D01*
X134947479Y-93357124D01*
X134980987Y-93246663D01*
X134980987Y-93246662D01*
X135035402Y-93144860D01*
X135108630Y-93055630D01*
X135197860Y-92982402D01*
X135263645Y-92947239D01*
X135284019Y-92933625D01*
X135301346Y-92916298D01*
X135314960Y-92895924D01*
X135324337Y-92873285D01*
X135329117Y-92849251D01*
X135329117Y-92824747D01*
X135324336Y-92800714D01*
X135314959Y-92778075D01*
X135301345Y-92757701D01*
X135284018Y-92740374D01*
X135263645Y-92726761D01*
X135197860Y-92691598D01*
X135108630Y-92618370D01*
X135035402Y-92529140D01*
X134980987Y-92427338D01*
X134959885Y-92357773D01*
X134947479Y-92316876D01*
X134936165Y-92202000D01*
X134947479Y-92087124D01*
X134980987Y-91976663D01*
X134980987Y-91976662D01*
X135035402Y-91874860D01*
X135108630Y-91785630D01*
X135197860Y-91712402D01*
X135299662Y-91657987D01*
X135336483Y-91646818D01*
X135410124Y-91624479D01*
X135475268Y-91618063D01*
X135496214Y-91616000D01*
X136283786Y-91616000D01*
X136304732Y-91618063D01*
X136304732Y-91618063D01*
G37*
G36*
X153605000Y-96455000D02*
G01*
X151703000Y-96455000D01*
X151703000Y-94553000D01*
X153605000Y-94553000D01*
X153605000Y-96455000D01*
X153605000Y-96455000D01*
G37*
G36*
X124483395Y-93319546D02*
G01*
X124656466Y-93391234D01*
X124733818Y-93442919D01*
X124812227Y-93495310D01*
X124944690Y-93627773D01*
X124944691Y-93627775D01*
X125048766Y-93783534D01*
X125120454Y-93956605D01*
X125157000Y-94140333D01*
X125157000Y-94327667D01*
X125120454Y-94511395D01*
X125048766Y-94684466D01*
X125010323Y-94742000D01*
X124944690Y-94840227D01*
X124812227Y-94972690D01*
X124763871Y-95005000D01*
X124656466Y-95076766D01*
X124483395Y-95148454D01*
X124299667Y-95185000D01*
X124112333Y-95185000D01*
X123928605Y-95148454D01*
X123755534Y-95076766D01*
X123648129Y-95005000D01*
X123599773Y-94972690D01*
X123467310Y-94840227D01*
X123401677Y-94742000D01*
X123363234Y-94684466D01*
X123291546Y-94511395D01*
X123255000Y-94327667D01*
X123255000Y-94140333D01*
X123291546Y-93956605D01*
X123363234Y-93783534D01*
X123467309Y-93627775D01*
X123467310Y-93627773D01*
X123599773Y-93495310D01*
X123678182Y-93442919D01*
X123755534Y-93391234D01*
X123928605Y-93319546D01*
X124112333Y-93283000D01*
X124299667Y-93283000D01*
X124483395Y-93319546D01*
X124483395Y-93319546D01*
G37*
G36*
X146933183Y-93472000D02*
G01*
X147036893Y-93492629D01*
X147177206Y-93550748D01*
X147303484Y-93635125D01*
X147410875Y-93742516D01*
X147495252Y-93868794D01*
X147553371Y-94009107D01*
X147570406Y-94094747D01*
X147583000Y-94158062D01*
X147583000Y-94309938D01*
X147579878Y-94325631D01*
X147553371Y-94458893D01*
X147495252Y-94599206D01*
X147410875Y-94725484D01*
X147303484Y-94832875D01*
X147177206Y-94917252D01*
X147036893Y-94975371D01*
X146937589Y-94995124D01*
X146887938Y-95005000D01*
X146736062Y-95005000D01*
X146686411Y-94995124D01*
X146587107Y-94975371D01*
X146446794Y-94917252D01*
X146320516Y-94832875D01*
X146213125Y-94725484D01*
X146128748Y-94599206D01*
X146070629Y-94458893D01*
X146044122Y-94325631D01*
X146041000Y-94309938D01*
X146041000Y-94158062D01*
X146053594Y-94094747D01*
X146070629Y-94009107D01*
X146128748Y-93868794D01*
X146213125Y-93742516D01*
X146320516Y-93635125D01*
X146446794Y-93550748D01*
X146587107Y-93492629D01*
X146690817Y-93472000D01*
X146736062Y-93463000D01*
X146887938Y-93463000D01*
X146933183Y-93472000D01*
X146933183Y-93472000D01*
G37*
G36*
X111672823Y-92379313D02*
G01*
X111833242Y-92427976D01*
X111965906Y-92498886D01*
X111981078Y-92506996D01*
X112110659Y-92613341D01*
X112217004Y-92742922D01*
X112217005Y-92742924D01*
X112296024Y-92890758D01*
X112344687Y-93051177D01*
X112361117Y-93218000D01*
X112344687Y-93384823D01*
X112296024Y-93545242D01*
X112282670Y-93570225D01*
X112217004Y-93693078D01*
X112110659Y-93822659D01*
X111981078Y-93929004D01*
X111981076Y-93929005D01*
X111833242Y-94008024D01*
X111833239Y-94008025D01*
X111825495Y-94010374D01*
X111672823Y-94056687D01*
X111547804Y-94069000D01*
X111464196Y-94069000D01*
X111339177Y-94056687D01*
X111186505Y-94010374D01*
X111178761Y-94008025D01*
X111178758Y-94008024D01*
X111030924Y-93929005D01*
X111030922Y-93929004D01*
X110901341Y-93822659D01*
X110794996Y-93693078D01*
X110729330Y-93570225D01*
X110715976Y-93545242D01*
X110667313Y-93384823D01*
X110650883Y-93218000D01*
X110667313Y-93051177D01*
X110715976Y-92890758D01*
X110794995Y-92742924D01*
X110794996Y-92742922D01*
X110901341Y-92613341D01*
X111030922Y-92506996D01*
X111046094Y-92498886D01*
X111178758Y-92427976D01*
X111339177Y-92379313D01*
X111464196Y-92367000D01*
X111547804Y-92367000D01*
X111672823Y-92379313D01*
X111672823Y-92379313D01*
G37*
G36*
X96432823Y-92379313D02*
G01*
X96593242Y-92427976D01*
X96725906Y-92498886D01*
X96741078Y-92506996D01*
X96870659Y-92613341D01*
X96977004Y-92742922D01*
X96977005Y-92742924D01*
X97056024Y-92890758D01*
X97104687Y-93051177D01*
X97121117Y-93218000D01*
X97104687Y-93384823D01*
X97056024Y-93545242D01*
X97042670Y-93570225D01*
X96977004Y-93693078D01*
X96870659Y-93822659D01*
X96741078Y-93929004D01*
X96741076Y-93929005D01*
X96593242Y-94008024D01*
X96593239Y-94008025D01*
X96585495Y-94010374D01*
X96432823Y-94056687D01*
X96307804Y-94069000D01*
X96224196Y-94069000D01*
X96099177Y-94056687D01*
X95946505Y-94010374D01*
X95938761Y-94008025D01*
X95938758Y-94008024D01*
X95790924Y-93929005D01*
X95790922Y-93929004D01*
X95661341Y-93822659D01*
X95554996Y-93693078D01*
X95489330Y-93570225D01*
X95475976Y-93545242D01*
X95427313Y-93384823D01*
X95410883Y-93218000D01*
X95427313Y-93051177D01*
X95475976Y-92890758D01*
X95554995Y-92742924D01*
X95554996Y-92742922D01*
X95661341Y-92613341D01*
X95790922Y-92506996D01*
X95806094Y-92498886D01*
X95938758Y-92427976D01*
X96099177Y-92379313D01*
X96224196Y-92367000D01*
X96307804Y-92367000D01*
X96432823Y-92379313D01*
X96432823Y-92379313D01*
G37*
G36*
X152931395Y-92049546D02*
G01*
X153104466Y-92121234D01*
X153181818Y-92172919D01*
X153260227Y-92225310D01*
X153392690Y-92357773D01*
X153392691Y-92357775D01*
X153496766Y-92513534D01*
X153568454Y-92686605D01*
X153605000Y-92870333D01*
X153605000Y-93057667D01*
X153568454Y-93241395D01*
X153496766Y-93414466D01*
X153458323Y-93472000D01*
X153392690Y-93570227D01*
X153260227Y-93702690D01*
X153200623Y-93742516D01*
X153104466Y-93806766D01*
X152931395Y-93878454D01*
X152747667Y-93915000D01*
X152560333Y-93915000D01*
X152376605Y-93878454D01*
X152203534Y-93806766D01*
X152107377Y-93742516D01*
X152047773Y-93702690D01*
X151915310Y-93570227D01*
X151849677Y-93472000D01*
X151811234Y-93414466D01*
X151739546Y-93241395D01*
X151703000Y-93057667D01*
X151703000Y-92870333D01*
X151739546Y-92686605D01*
X151811234Y-92513534D01*
X151915309Y-92357775D01*
X151915310Y-92357773D01*
X152047773Y-92225310D01*
X152126182Y-92172919D01*
X152203534Y-92121234D01*
X152376605Y-92049546D01*
X152560333Y-92013000D01*
X152747667Y-92013000D01*
X152931395Y-92049546D01*
X152931395Y-92049546D01*
G37*
G36*
X124483395Y-90779546D02*
G01*
X124656466Y-90851234D01*
X124656467Y-90851235D01*
X124812227Y-90955310D01*
X124944690Y-91087773D01*
X124944691Y-91087775D01*
X125048766Y-91243534D01*
X125120454Y-91416605D01*
X125157000Y-91600333D01*
X125157000Y-91787667D01*
X125120454Y-91971395D01*
X125048766Y-92144466D01*
X125010323Y-92202000D01*
X124944690Y-92300227D01*
X124812227Y-92432690D01*
X124763871Y-92465000D01*
X124656466Y-92536766D01*
X124483395Y-92608454D01*
X124299667Y-92645000D01*
X124112333Y-92645000D01*
X123928605Y-92608454D01*
X123755534Y-92536766D01*
X123648129Y-92465000D01*
X123599773Y-92432690D01*
X123467310Y-92300227D01*
X123401677Y-92202000D01*
X123363234Y-92144466D01*
X123291546Y-91971395D01*
X123255000Y-91787667D01*
X123255000Y-91600333D01*
X123291546Y-91416605D01*
X123363234Y-91243534D01*
X123467309Y-91087775D01*
X123467310Y-91087773D01*
X123599773Y-90955310D01*
X123755533Y-90851235D01*
X123755534Y-90851234D01*
X123928605Y-90779546D01*
X124112333Y-90743000D01*
X124299667Y-90743000D01*
X124483395Y-90779546D01*
X124483395Y-90779546D01*
G37*
G36*
X141857589Y-90932876D02*
G01*
X141956893Y-90952629D01*
X142097206Y-91010748D01*
X142223484Y-91095125D01*
X142330875Y-91202516D01*
X142415252Y-91328794D01*
X142473371Y-91469107D01*
X142473371Y-91469109D01*
X142503000Y-91618062D01*
X142503000Y-91769938D01*
X142499878Y-91785631D01*
X142473371Y-91918893D01*
X142415252Y-92059206D01*
X142330875Y-92185484D01*
X142223484Y-92292875D01*
X142097206Y-92377252D01*
X141956893Y-92435371D01*
X141857589Y-92455124D01*
X141807938Y-92465000D01*
X141656062Y-92465000D01*
X141606411Y-92455124D01*
X141507107Y-92435371D01*
X141366794Y-92377252D01*
X141240516Y-92292875D01*
X141133125Y-92185484D01*
X141048748Y-92059206D01*
X140990629Y-91918893D01*
X140964122Y-91785631D01*
X140961000Y-91769938D01*
X140961000Y-91618062D01*
X140990629Y-91469109D01*
X140990629Y-91469107D01*
X141048748Y-91328794D01*
X141133125Y-91202516D01*
X141240516Y-91095125D01*
X141366794Y-91010748D01*
X141507107Y-90952629D01*
X141606411Y-90932876D01*
X141656062Y-90923000D01*
X141807938Y-90923000D01*
X141857589Y-90932876D01*
X141857589Y-90932876D01*
G37*
G36*
X111672823Y-89839313D02*
G01*
X111833242Y-89887976D01*
X111958635Y-89955000D01*
X111981078Y-89966996D01*
X112110659Y-90073341D01*
X112217004Y-90202922D01*
X112217005Y-90202924D01*
X112296024Y-90350758D01*
X112344687Y-90511177D01*
X112361117Y-90678000D01*
X112344687Y-90844823D01*
X112296024Y-91005242D01*
X112251910Y-91087773D01*
X112217004Y-91153078D01*
X112110659Y-91282659D01*
X111981078Y-91389004D01*
X111981076Y-91389005D01*
X111833242Y-91468024D01*
X111833239Y-91468025D01*
X111803380Y-91477083D01*
X111672823Y-91516687D01*
X111547804Y-91529000D01*
X111464196Y-91529000D01*
X111339177Y-91516687D01*
X111208620Y-91477083D01*
X111178761Y-91468025D01*
X111178758Y-91468024D01*
X111030924Y-91389005D01*
X111030922Y-91389004D01*
X110901341Y-91282659D01*
X110794996Y-91153078D01*
X110760090Y-91087773D01*
X110715976Y-91005242D01*
X110667313Y-90844823D01*
X110650883Y-90678000D01*
X110667313Y-90511177D01*
X110715976Y-90350758D01*
X110794995Y-90202924D01*
X110794996Y-90202922D01*
X110901341Y-90073341D01*
X111030922Y-89966996D01*
X111053365Y-89955000D01*
X111178758Y-89887976D01*
X111339177Y-89839313D01*
X111464196Y-89827000D01*
X111547804Y-89827000D01*
X111672823Y-89839313D01*
X111672823Y-89839313D01*
G37*
G36*
X96432823Y-89839313D02*
G01*
X96593242Y-89887976D01*
X96718635Y-89955000D01*
X96741078Y-89966996D01*
X96870659Y-90073341D01*
X96977004Y-90202922D01*
X96977005Y-90202924D01*
X97056024Y-90350758D01*
X97104687Y-90511177D01*
X97121117Y-90678000D01*
X97104687Y-90844823D01*
X97056024Y-91005242D01*
X97011910Y-91087773D01*
X96977004Y-91153078D01*
X96870659Y-91282659D01*
X96741078Y-91389004D01*
X96741076Y-91389005D01*
X96593242Y-91468024D01*
X96593239Y-91468025D01*
X96563380Y-91477083D01*
X96432823Y-91516687D01*
X96307804Y-91529000D01*
X96224196Y-91529000D01*
X96099177Y-91516687D01*
X95968620Y-91477083D01*
X95938761Y-91468025D01*
X95938758Y-91468024D01*
X95790924Y-91389005D01*
X95790922Y-91389004D01*
X95661341Y-91282659D01*
X95554996Y-91153078D01*
X95520090Y-91087773D01*
X95475976Y-91005242D01*
X95427313Y-90844823D01*
X95410883Y-90678000D01*
X95427313Y-90511177D01*
X95475976Y-90350758D01*
X95554995Y-90202924D01*
X95554996Y-90202922D01*
X95661341Y-90073341D01*
X95790922Y-89966996D01*
X95813365Y-89955000D01*
X95938758Y-89887976D01*
X96099177Y-89839313D01*
X96224196Y-89827000D01*
X96307804Y-89827000D01*
X96432823Y-89839313D01*
X96432823Y-89839313D01*
G37*
G36*
X129650443Y-88259519D02*
G01*
X129716627Y-88266037D01*
X129886466Y-88317557D01*
X130042991Y-88401222D01*
X130078729Y-88430552D01*
X130180186Y-88513814D01*
X130261647Y-88613076D01*
X130292778Y-88651009D01*
X130376443Y-88807534D01*
X130427963Y-88977373D01*
X130445359Y-89154000D01*
X130427963Y-89330627D01*
X130376443Y-89500466D01*
X130292778Y-89656991D01*
X130263448Y-89692729D01*
X130180186Y-89794186D01*
X130078729Y-89877448D01*
X130042991Y-89906778D01*
X129886466Y-89990443D01*
X129716627Y-90041963D01*
X129650443Y-90048481D01*
X129584260Y-90055000D01*
X129495740Y-90055000D01*
X129429557Y-90048481D01*
X129363373Y-90041963D01*
X129193534Y-89990443D01*
X129037009Y-89906778D01*
X129001271Y-89877448D01*
X128899814Y-89794186D01*
X128816552Y-89692729D01*
X128787222Y-89656991D01*
X128703557Y-89500466D01*
X128652037Y-89330627D01*
X128634641Y-89154000D01*
X128652037Y-88977373D01*
X128703557Y-88807534D01*
X128787222Y-88651009D01*
X128818353Y-88613076D01*
X128899814Y-88513814D01*
X129001271Y-88430552D01*
X129037009Y-88401222D01*
X129193534Y-88317557D01*
X129363373Y-88266037D01*
X129429557Y-88259519D01*
X129495740Y-88253000D01*
X129584260Y-88253000D01*
X129650443Y-88259519D01*
X129650443Y-88259519D01*
G37*
G36*
X132981000Y-90055000D02*
G01*
X131179000Y-90055000D01*
X131179000Y-88253000D01*
X132981000Y-88253000D01*
X132981000Y-90055000D01*
X132981000Y-90055000D01*
G37*
G36*
X136437000Y-89955000D02*
G01*
X134835000Y-89955000D01*
X134835000Y-88353000D01*
X136437000Y-88353000D01*
X136437000Y-89955000D01*
X136437000Y-89955000D01*
G37*
G36*
X111672823Y-87299313D02*
G01*
X111833242Y-87347976D01*
X111965906Y-87418886D01*
X111981078Y-87426996D01*
X112110659Y-87533341D01*
X112217004Y-87662922D01*
X112217005Y-87662924D01*
X112296024Y-87810758D01*
X112344687Y-87971177D01*
X112361117Y-88138000D01*
X112344687Y-88304823D01*
X112296024Y-88465242D01*
X112270061Y-88513815D01*
X112217004Y-88613078D01*
X112110659Y-88742659D01*
X111981078Y-88849004D01*
X111981076Y-88849005D01*
X111833242Y-88928024D01*
X111672823Y-88976687D01*
X111547804Y-88989000D01*
X111464196Y-88989000D01*
X111339177Y-88976687D01*
X111178758Y-88928024D01*
X111030924Y-88849005D01*
X111030922Y-88849004D01*
X110901341Y-88742659D01*
X110794996Y-88613078D01*
X110741939Y-88513815D01*
X110715976Y-88465242D01*
X110667313Y-88304823D01*
X110650883Y-88138000D01*
X110667313Y-87971177D01*
X110715976Y-87810758D01*
X110794995Y-87662924D01*
X110794996Y-87662922D01*
X110901341Y-87533341D01*
X111030922Y-87426996D01*
X111046094Y-87418886D01*
X111178758Y-87347976D01*
X111339177Y-87299313D01*
X111464196Y-87287000D01*
X111547804Y-87287000D01*
X111672823Y-87299313D01*
X111672823Y-87299313D01*
G37*
G36*
X96432823Y-87299313D02*
G01*
X96593242Y-87347976D01*
X96725906Y-87418886D01*
X96741078Y-87426996D01*
X96870659Y-87533341D01*
X96977004Y-87662922D01*
X96977005Y-87662924D01*
X97056024Y-87810758D01*
X97104687Y-87971177D01*
X97121117Y-88138000D01*
X97104687Y-88304823D01*
X97056024Y-88465242D01*
X97030061Y-88513815D01*
X96977004Y-88613078D01*
X96870659Y-88742659D01*
X96741078Y-88849004D01*
X96741076Y-88849005D01*
X96593242Y-88928024D01*
X96432823Y-88976687D01*
X96307804Y-88989000D01*
X96224196Y-88989000D01*
X96099177Y-88976687D01*
X95938758Y-88928024D01*
X95790924Y-88849005D01*
X95790922Y-88849004D01*
X95661341Y-88742659D01*
X95554996Y-88613078D01*
X95501939Y-88513815D01*
X95475976Y-88465242D01*
X95427313Y-88304823D01*
X95410883Y-88138000D01*
X95427313Y-87971177D01*
X95475976Y-87810758D01*
X95554995Y-87662924D01*
X95554996Y-87662922D01*
X95661341Y-87533341D01*
X95790922Y-87426996D01*
X95806094Y-87418886D01*
X95938758Y-87347976D01*
X96099177Y-87299313D01*
X96224196Y-87287000D01*
X96307804Y-87287000D01*
X96432823Y-87299313D01*
X96432823Y-87299313D01*
G37*
G36*
X129650443Y-85719519D02*
G01*
X129716627Y-85726037D01*
X129886466Y-85777557D01*
X130042991Y-85861222D01*
X130078729Y-85890552D01*
X130180186Y-85973814D01*
X130261647Y-86073076D01*
X130292778Y-86111009D01*
X130376443Y-86267534D01*
X130427963Y-86437373D01*
X130445359Y-86614000D01*
X130427963Y-86790627D01*
X130376443Y-86960466D01*
X130292778Y-87116991D01*
X130263448Y-87152729D01*
X130180186Y-87254186D01*
X130078729Y-87337448D01*
X130042991Y-87366778D01*
X129886466Y-87450443D01*
X129716627Y-87501963D01*
X129650443Y-87508481D01*
X129584260Y-87515000D01*
X129495740Y-87515000D01*
X129429557Y-87508481D01*
X129363373Y-87501963D01*
X129193534Y-87450443D01*
X129037009Y-87366778D01*
X129001271Y-87337448D01*
X128899814Y-87254186D01*
X128816552Y-87152729D01*
X128787222Y-87116991D01*
X128703557Y-86960466D01*
X128652037Y-86790627D01*
X128634641Y-86614000D01*
X128652037Y-86437373D01*
X128703557Y-86267534D01*
X128787222Y-86111009D01*
X128818353Y-86073076D01*
X128899814Y-85973814D01*
X129001271Y-85890552D01*
X129037009Y-85861222D01*
X129193534Y-85777557D01*
X129363373Y-85726037D01*
X129429557Y-85719519D01*
X129495740Y-85713000D01*
X129584260Y-85713000D01*
X129650443Y-85719519D01*
X129650443Y-85719519D01*
G37*
G36*
X132981000Y-87515000D02*
G01*
X131179000Y-87515000D01*
X131179000Y-85713000D01*
X132981000Y-85713000D01*
X132981000Y-87515000D01*
X132981000Y-87515000D01*
G37*
G36*
X93037665Y-85104622D02*
G01*
X93111222Y-85111867D01*
X93252786Y-85154810D01*
X93383252Y-85224546D01*
X93413040Y-85248992D01*
X93497607Y-85318393D01*
X93567008Y-85402960D01*
X93591454Y-85432748D01*
X93661190Y-85563214D01*
X93704133Y-85704778D01*
X93718633Y-85852000D01*
X93704133Y-85999222D01*
X93661190Y-86140786D01*
X93591454Y-86271252D01*
X93583247Y-86281252D01*
X93497607Y-86385607D01*
X93420360Y-86449000D01*
X93383252Y-86479454D01*
X93252786Y-86549190D01*
X93111222Y-86592133D01*
X93037665Y-86599378D01*
X93000888Y-86603000D01*
X92927112Y-86603000D01*
X92890335Y-86599378D01*
X92816778Y-86592133D01*
X92675214Y-86549190D01*
X92544748Y-86479454D01*
X92507640Y-86449000D01*
X92430393Y-86385607D01*
X92344753Y-86281252D01*
X92336546Y-86271252D01*
X92266810Y-86140786D01*
X92223867Y-85999222D01*
X92209367Y-85852000D01*
X92223867Y-85704778D01*
X92266810Y-85563214D01*
X92336546Y-85432748D01*
X92360992Y-85402960D01*
X92430393Y-85318393D01*
X92514960Y-85248992D01*
X92544748Y-85224546D01*
X92675214Y-85154810D01*
X92816778Y-85111867D01*
X92890335Y-85104622D01*
X92927112Y-85101000D01*
X93000888Y-85101000D01*
X93037665Y-85104622D01*
X93037665Y-85104622D01*
G37*
G36*
X111672823Y-84759313D02*
G01*
X111833242Y-84807976D01*
X111868833Y-84827000D01*
X111981078Y-84886996D01*
X112110659Y-84993341D01*
X112217004Y-85122922D01*
X112217005Y-85122924D01*
X112296024Y-85270758D01*
X112344687Y-85431177D01*
X112361117Y-85598000D01*
X112344687Y-85764823D01*
X112296024Y-85925242D01*
X112270061Y-85973815D01*
X112217004Y-86073078D01*
X112110659Y-86202659D01*
X111981078Y-86309004D01*
X111981076Y-86309005D01*
X111833242Y-86388024D01*
X111672823Y-86436687D01*
X111547804Y-86449000D01*
X111464196Y-86449000D01*
X111339177Y-86436687D01*
X111178758Y-86388024D01*
X111030924Y-86309005D01*
X111030922Y-86309004D01*
X110901341Y-86202659D01*
X110794996Y-86073078D01*
X110741939Y-85973815D01*
X110715976Y-85925242D01*
X110667313Y-85764823D01*
X110650883Y-85598000D01*
X110667313Y-85431177D01*
X110715976Y-85270758D01*
X110794995Y-85122924D01*
X110794996Y-85122922D01*
X110901341Y-84993341D01*
X111030922Y-84886996D01*
X111143167Y-84827000D01*
X111178758Y-84807976D01*
X111339177Y-84759313D01*
X111464196Y-84747000D01*
X111547804Y-84747000D01*
X111672823Y-84759313D01*
X111672823Y-84759313D01*
G37*
G36*
X96432823Y-84759313D02*
G01*
X96593242Y-84807976D01*
X96628833Y-84827000D01*
X96741078Y-84886996D01*
X96870659Y-84993341D01*
X96977004Y-85122922D01*
X96977005Y-85122924D01*
X97056024Y-85270758D01*
X97104687Y-85431177D01*
X97121117Y-85598000D01*
X97104687Y-85764823D01*
X97056024Y-85925242D01*
X97030061Y-85973815D01*
X96977004Y-86073078D01*
X96870659Y-86202659D01*
X96741078Y-86309004D01*
X96741076Y-86309005D01*
X96593242Y-86388024D01*
X96432823Y-86436687D01*
X96307804Y-86449000D01*
X96224196Y-86449000D01*
X96099177Y-86436687D01*
X95938758Y-86388024D01*
X95790924Y-86309005D01*
X95790922Y-86309004D01*
X95661341Y-86202659D01*
X95554996Y-86073078D01*
X95501939Y-85973815D01*
X95475976Y-85925242D01*
X95427313Y-85764823D01*
X95410883Y-85598000D01*
X95427313Y-85431177D01*
X95475976Y-85270758D01*
X95554995Y-85122924D01*
X95554996Y-85122922D01*
X95661341Y-84993341D01*
X95790922Y-84886996D01*
X95903167Y-84827000D01*
X95938758Y-84807976D01*
X96099177Y-84759313D01*
X96224196Y-84747000D01*
X96307804Y-84747000D01*
X96432823Y-84759313D01*
X96432823Y-84759313D01*
G37*
G36*
X141857589Y-84836876D02*
G01*
X141956893Y-84856629D01*
X142097206Y-84914748D01*
X142223484Y-84999125D01*
X142330875Y-85106516D01*
X142415252Y-85232794D01*
X142473371Y-85373107D01*
X142503000Y-85522063D01*
X142503000Y-85673937D01*
X142473371Y-85822893D01*
X142415252Y-85963206D01*
X142330875Y-86089484D01*
X142223484Y-86196875D01*
X142097206Y-86281252D01*
X141956893Y-86339371D01*
X141857589Y-86359124D01*
X141807938Y-86369000D01*
X141656062Y-86369000D01*
X141606411Y-86359124D01*
X141507107Y-86339371D01*
X141366794Y-86281252D01*
X141240516Y-86196875D01*
X141133125Y-86089484D01*
X141048748Y-85963206D01*
X140990629Y-85822893D01*
X140961000Y-85673937D01*
X140961000Y-85522063D01*
X140990629Y-85373107D01*
X141048748Y-85232794D01*
X141133125Y-85106516D01*
X141240516Y-84999125D01*
X141366794Y-84914748D01*
X141507107Y-84856629D01*
X141606411Y-84836876D01*
X141656062Y-84827000D01*
X141807938Y-84827000D01*
X141857589Y-84836876D01*
X141857589Y-84836876D01*
G37*
G36*
X111672823Y-82219313D02*
G01*
X111833242Y-82267976D01*
X111958635Y-82335000D01*
X111981078Y-82346996D01*
X112110659Y-82453341D01*
X112217004Y-82582922D01*
X112217005Y-82582924D01*
X112296024Y-82730758D01*
X112344687Y-82891177D01*
X112361117Y-83058000D01*
X112344687Y-83224823D01*
X112296024Y-83385242D01*
X112225114Y-83517906D01*
X112217004Y-83533078D01*
X112110659Y-83662659D01*
X111981078Y-83769004D01*
X111981076Y-83769005D01*
X111833242Y-83848024D01*
X111672823Y-83896687D01*
X111547804Y-83909000D01*
X111464196Y-83909000D01*
X111339177Y-83896687D01*
X111178758Y-83848024D01*
X111030924Y-83769005D01*
X111030922Y-83769004D01*
X110901341Y-83662659D01*
X110794996Y-83533078D01*
X110786886Y-83517906D01*
X110715976Y-83385242D01*
X110667313Y-83224823D01*
X110650883Y-83058000D01*
X110667313Y-82891177D01*
X110715976Y-82730758D01*
X110794995Y-82582924D01*
X110794996Y-82582922D01*
X110901341Y-82453341D01*
X111030922Y-82346996D01*
X111053365Y-82335000D01*
X111178758Y-82267976D01*
X111339177Y-82219313D01*
X111464196Y-82207000D01*
X111547804Y-82207000D01*
X111672823Y-82219313D01*
X111672823Y-82219313D01*
G37*
G36*
X96432823Y-82219313D02*
G01*
X96593242Y-82267976D01*
X96718635Y-82335000D01*
X96741078Y-82346996D01*
X96870659Y-82453341D01*
X96977004Y-82582922D01*
X96977005Y-82582924D01*
X97056024Y-82730758D01*
X97104687Y-82891177D01*
X97121117Y-83058000D01*
X97104687Y-83224823D01*
X97056024Y-83385242D01*
X96985114Y-83517906D01*
X96977004Y-83533078D01*
X96870659Y-83662659D01*
X96741078Y-83769004D01*
X96741076Y-83769005D01*
X96593242Y-83848024D01*
X96432823Y-83896687D01*
X96307804Y-83909000D01*
X96224196Y-83909000D01*
X96099177Y-83896687D01*
X95938758Y-83848024D01*
X95790924Y-83769005D01*
X95790922Y-83769004D01*
X95661341Y-83662659D01*
X95554996Y-83533078D01*
X95546886Y-83517906D01*
X95475976Y-83385242D01*
X95427313Y-83224823D01*
X95410883Y-83058000D01*
X95427313Y-82891177D01*
X95475976Y-82730758D01*
X95554995Y-82582924D01*
X95554996Y-82582922D01*
X95661341Y-82453341D01*
X95790922Y-82346996D01*
X95813365Y-82335000D01*
X95938758Y-82267976D01*
X96099177Y-82219313D01*
X96224196Y-82207000D01*
X96307804Y-82207000D01*
X96432823Y-82219313D01*
X96432823Y-82219313D01*
G37*
G36*
X146937589Y-82296876D02*
G01*
X147036893Y-82316629D01*
X147177206Y-82374748D01*
X147303484Y-82459125D01*
X147410875Y-82566516D01*
X147495252Y-82692794D01*
X147553371Y-82833107D01*
X147583000Y-82982063D01*
X147583000Y-83133937D01*
X147553371Y-83282893D01*
X147495252Y-83423206D01*
X147410875Y-83549484D01*
X147303484Y-83656875D01*
X147177206Y-83741252D01*
X147036893Y-83799371D01*
X146937589Y-83819124D01*
X146887938Y-83829000D01*
X146736062Y-83829000D01*
X146686411Y-83819124D01*
X146587107Y-83799371D01*
X146446794Y-83741252D01*
X146320516Y-83656875D01*
X146213125Y-83549484D01*
X146128748Y-83423206D01*
X146070629Y-83282893D01*
X146041000Y-83133937D01*
X146041000Y-82982063D01*
X146070629Y-82833107D01*
X146128748Y-82692794D01*
X146213125Y-82566516D01*
X146320516Y-82459125D01*
X146446794Y-82374748D01*
X146587107Y-82316629D01*
X146686411Y-82296876D01*
X146736062Y-82287000D01*
X146887938Y-82287000D01*
X146937589Y-82296876D01*
X146937589Y-82296876D01*
G37*
G36*
X135714571Y-80736863D02*
G01*
X135793023Y-80744590D01*
X135893682Y-80775125D01*
X135944013Y-80790392D01*
X136083165Y-80864771D01*
X136205133Y-80964867D01*
X136305229Y-81086835D01*
X136379608Y-81225987D01*
X136379608Y-81225988D01*
X136425410Y-81376977D01*
X136440875Y-81534000D01*
X136425410Y-81691023D01*
X136394875Y-81791682D01*
X136379608Y-81842013D01*
X136305229Y-81981165D01*
X136205133Y-82103133D01*
X136083165Y-82203229D01*
X135944013Y-82277608D01*
X135913051Y-82287000D01*
X135793023Y-82323410D01*
X135714571Y-82331137D01*
X135675346Y-82335000D01*
X135596654Y-82335000D01*
X135557429Y-82331137D01*
X135478977Y-82323410D01*
X135358949Y-82287000D01*
X135327987Y-82277608D01*
X135188835Y-82203229D01*
X135066867Y-82103133D01*
X134966771Y-81981165D01*
X134892392Y-81842013D01*
X134877125Y-81791682D01*
X134846590Y-81691023D01*
X134831125Y-81534000D01*
X134846590Y-81376977D01*
X134892392Y-81225988D01*
X134892392Y-81225987D01*
X134966771Y-81086835D01*
X135066867Y-80964867D01*
X135188835Y-80864771D01*
X135327987Y-80790392D01*
X135378318Y-80775125D01*
X135478977Y-80744590D01*
X135557429Y-80736863D01*
X135596654Y-80733000D01*
X135675346Y-80733000D01*
X135714571Y-80736863D01*
X135714571Y-80736863D01*
G37*
G36*
X120027000Y-82181000D02*
G01*
X118225000Y-82181000D01*
X118225000Y-80379000D01*
X120027000Y-80379000D01*
X120027000Y-82181000D01*
X120027000Y-82181000D01*
G37*
G36*
X111672823Y-79679313D02*
G01*
X111833242Y-79727976D01*
X111868833Y-79747000D01*
X111981078Y-79806996D01*
X112110659Y-79913341D01*
X112217004Y-80042922D01*
X112217005Y-80042924D01*
X112296024Y-80190758D01*
X112344687Y-80351177D01*
X112361117Y-80518000D01*
X112344687Y-80684823D01*
X112296024Y-80845242D01*
X112232083Y-80964867D01*
X112217004Y-80993078D01*
X112110659Y-81122659D01*
X111981078Y-81229004D01*
X111981076Y-81229005D01*
X111833242Y-81308024D01*
X111672823Y-81356687D01*
X111547804Y-81369000D01*
X111464196Y-81369000D01*
X111339177Y-81356687D01*
X111178758Y-81308024D01*
X111030924Y-81229005D01*
X111030922Y-81229004D01*
X110901341Y-81122659D01*
X110794996Y-80993078D01*
X110779917Y-80964867D01*
X110715976Y-80845242D01*
X110667313Y-80684823D01*
X110650883Y-80518000D01*
X110667313Y-80351177D01*
X110715976Y-80190758D01*
X110794995Y-80042924D01*
X110794996Y-80042922D01*
X110901341Y-79913341D01*
X111030922Y-79806996D01*
X111143167Y-79747000D01*
X111178758Y-79727976D01*
X111339177Y-79679313D01*
X111464196Y-79667000D01*
X111547804Y-79667000D01*
X111672823Y-79679313D01*
X111672823Y-79679313D01*
G37*
G36*
X96432823Y-79679313D02*
G01*
X96593242Y-79727976D01*
X96628833Y-79747000D01*
X96741078Y-79806996D01*
X96870659Y-79913341D01*
X96977004Y-80042922D01*
X96977005Y-80042924D01*
X97056024Y-80190758D01*
X97104687Y-80351177D01*
X97121117Y-80518000D01*
X97104687Y-80684823D01*
X97056024Y-80845242D01*
X96992083Y-80964867D01*
X96977004Y-80993078D01*
X96870659Y-81122659D01*
X96741078Y-81229004D01*
X96741076Y-81229005D01*
X96593242Y-81308024D01*
X96432823Y-81356687D01*
X96307804Y-81369000D01*
X96224196Y-81369000D01*
X96099177Y-81356687D01*
X95938758Y-81308024D01*
X95790924Y-81229005D01*
X95790922Y-81229004D01*
X95661341Y-81122659D01*
X95554996Y-80993078D01*
X95539917Y-80964867D01*
X95475976Y-80845242D01*
X95427313Y-80684823D01*
X95410883Y-80518000D01*
X95427313Y-80351177D01*
X95475976Y-80190758D01*
X95554995Y-80042924D01*
X95554996Y-80042922D01*
X95661341Y-79913341D01*
X95790922Y-79806996D01*
X95903167Y-79747000D01*
X95938758Y-79727976D01*
X96099177Y-79679313D01*
X96224196Y-79667000D01*
X96307804Y-79667000D01*
X96432823Y-79679313D01*
X96432823Y-79679313D01*
G37*
G36*
X141857589Y-79756876D02*
G01*
X141956893Y-79776629D01*
X142097206Y-79834748D01*
X142223484Y-79919125D01*
X142330875Y-80026516D01*
X142415252Y-80152794D01*
X142473371Y-80293107D01*
X142503000Y-80442063D01*
X142503000Y-80593937D01*
X142473371Y-80742893D01*
X142415252Y-80883206D01*
X142330875Y-81009484D01*
X142223484Y-81116875D01*
X142097206Y-81201252D01*
X141956893Y-81259371D01*
X141857589Y-81279124D01*
X141807938Y-81289000D01*
X141656062Y-81289000D01*
X141606411Y-81279124D01*
X141507107Y-81259371D01*
X141366794Y-81201252D01*
X141240516Y-81116875D01*
X141133125Y-81009484D01*
X141048748Y-80883206D01*
X140990629Y-80742893D01*
X140961000Y-80593937D01*
X140961000Y-80442063D01*
X140990629Y-80293107D01*
X141048748Y-80152794D01*
X141133125Y-80026516D01*
X141240516Y-79919125D01*
X141366794Y-79834748D01*
X141507107Y-79776629D01*
X141606411Y-79756876D01*
X141656062Y-79747000D01*
X141807938Y-79747000D01*
X141857589Y-79756876D01*
X141857589Y-79756876D01*
G37*
G36*
X119236443Y-77845519D02*
G01*
X119302627Y-77852037D01*
X119472466Y-77903557D01*
X119628991Y-77987222D01*
X119660329Y-78012941D01*
X119766186Y-78099814D01*
X119813964Y-78158033D01*
X119878778Y-78237009D01*
X119962443Y-78393534D01*
X120013963Y-78563373D01*
X120031359Y-78740000D01*
X120013963Y-78916627D01*
X119962443Y-79086466D01*
X119878778Y-79242991D01*
X119849448Y-79278729D01*
X119766186Y-79380186D01*
X119664729Y-79463448D01*
X119628991Y-79492778D01*
X119472466Y-79576443D01*
X119302627Y-79627963D01*
X119236442Y-79634482D01*
X119170260Y-79641000D01*
X119081740Y-79641000D01*
X119015558Y-79634482D01*
X118949373Y-79627963D01*
X118779534Y-79576443D01*
X118623009Y-79492778D01*
X118587271Y-79463448D01*
X118485814Y-79380186D01*
X118402552Y-79278729D01*
X118373222Y-79242991D01*
X118289557Y-79086466D01*
X118238037Y-78916627D01*
X118220641Y-78740000D01*
X118238037Y-78563373D01*
X118289557Y-78393534D01*
X118373222Y-78237009D01*
X118438036Y-78158033D01*
X118485814Y-78099814D01*
X118591671Y-78012941D01*
X118623009Y-77987222D01*
X118779534Y-77903557D01*
X118949373Y-77852037D01*
X119015557Y-77845519D01*
X119081740Y-77839000D01*
X119170260Y-77839000D01*
X119236443Y-77845519D01*
X119236443Y-77845519D01*
G37*
G36*
X93148179Y-77502922D02*
G01*
X93183059Y-77509860D01*
X93319732Y-77566472D01*
X93442735Y-77648660D01*
X93547340Y-77753265D01*
X93604626Y-77839000D01*
X93629529Y-77876270D01*
X93686140Y-78012941D01*
X93712373Y-78144823D01*
X93715000Y-78158033D01*
X93715000Y-78305967D01*
X93686140Y-78451059D01*
X93629528Y-78587732D01*
X93547340Y-78710735D01*
X93442735Y-78815340D01*
X93319732Y-78897528D01*
X93319731Y-78897529D01*
X93319730Y-78897529D01*
X93183059Y-78954140D01*
X93037968Y-78983000D01*
X92890032Y-78983000D01*
X92744941Y-78954140D01*
X92608270Y-78897529D01*
X92608269Y-78897529D01*
X92608268Y-78897528D01*
X92485265Y-78815340D01*
X92380660Y-78710735D01*
X92298472Y-78587732D01*
X92241860Y-78451059D01*
X92213000Y-78305967D01*
X92213000Y-78158033D01*
X92215628Y-78144823D01*
X92241860Y-78012941D01*
X92298471Y-77876270D01*
X92323374Y-77839000D01*
X92380660Y-77753265D01*
X92485265Y-77648660D01*
X92608268Y-77566472D01*
X92744941Y-77509860D01*
X92779821Y-77502922D01*
X92890032Y-77481000D01*
X93037968Y-77481000D01*
X93148179Y-77502922D01*
X93148179Y-77502922D01*
G37*
G36*
X112357000Y-78829000D02*
G01*
X110655000Y-78829000D01*
X110655000Y-77127000D01*
X112357000Y-77127000D01*
X112357000Y-78829000D01*
X112357000Y-78829000D01*
G37*
G36*
X96432823Y-77139313D02*
G01*
X96593242Y-77187976D01*
X96725906Y-77258886D01*
X96741078Y-77266996D01*
X96870659Y-77373341D01*
X96977004Y-77502922D01*
X96977005Y-77502924D01*
X97056024Y-77650758D01*
X97104687Y-77811177D01*
X97121117Y-77978000D01*
X97104687Y-78144823D01*
X97056024Y-78305242D01*
X97008832Y-78393532D01*
X96977004Y-78453078D01*
X96870659Y-78582659D01*
X96741078Y-78689004D01*
X96741076Y-78689005D01*
X96593242Y-78768024D01*
X96432823Y-78816687D01*
X96307804Y-78829000D01*
X96224196Y-78829000D01*
X96099177Y-78816687D01*
X95938758Y-78768024D01*
X95790924Y-78689005D01*
X95790922Y-78689004D01*
X95661341Y-78582659D01*
X95554996Y-78453078D01*
X95523168Y-78393532D01*
X95475976Y-78305242D01*
X95427313Y-78144823D01*
X95410883Y-77978000D01*
X95427313Y-77811177D01*
X95475976Y-77650758D01*
X95554995Y-77502924D01*
X95554996Y-77502922D01*
X95661341Y-77373341D01*
X95790922Y-77266996D01*
X95806094Y-77258886D01*
X95938758Y-77187976D01*
X96099177Y-77139313D01*
X96224196Y-77127000D01*
X96307804Y-77127000D01*
X96432823Y-77139313D01*
X96432823Y-77139313D01*
G37*
G36*
X90955395Y-74523546D02*
G01*
X91128466Y-74595234D01*
X91128467Y-74595235D01*
X91284227Y-74699310D01*
X91416690Y-74831773D01*
X91416691Y-74831775D01*
X91520766Y-74987534D01*
X91592454Y-75160605D01*
X91629000Y-75344333D01*
X91629000Y-75531667D01*
X91592454Y-75715395D01*
X91520766Y-75888466D01*
X91469081Y-75965818D01*
X91416690Y-76044227D01*
X91284227Y-76176690D01*
X91205818Y-76229081D01*
X91128466Y-76280766D01*
X90955395Y-76352454D01*
X90771667Y-76389000D01*
X90584333Y-76389000D01*
X90400605Y-76352454D01*
X90227534Y-76280766D01*
X90150182Y-76229081D01*
X90071773Y-76176690D01*
X89939310Y-76044227D01*
X89886919Y-75965818D01*
X89835234Y-75888466D01*
X89763546Y-75715395D01*
X89727000Y-75531667D01*
X89727000Y-75344333D01*
X89763546Y-75160605D01*
X89835234Y-74987534D01*
X89939309Y-74831775D01*
X89939310Y-74831773D01*
X90071773Y-74699310D01*
X90227533Y-74595235D01*
X90227534Y-74595234D01*
X90400605Y-74523546D01*
X90584333Y-74487000D01*
X90771667Y-74487000D01*
X90955395Y-74523546D01*
X90955395Y-74523546D01*
G37*
G36*
X138519000Y-76035000D02*
G01*
X136817000Y-76035000D01*
X136817000Y-74333000D01*
X138519000Y-74333000D01*
X138519000Y-76035000D01*
X138519000Y-76035000D01*
G37*
G36*
X135294823Y-74345313D02*
G01*
X135455242Y-74393976D01*
X135587906Y-74464886D01*
X135603078Y-74472996D01*
X135732659Y-74579341D01*
X135839004Y-74708922D01*
X135839005Y-74708924D01*
X135918024Y-74856758D01*
X135966687Y-75017177D01*
X135983117Y-75184000D01*
X135966687Y-75350823D01*
X135918024Y-75511242D01*
X135847114Y-75643906D01*
X135839004Y-75659078D01*
X135732659Y-75788659D01*
X135603078Y-75895004D01*
X135603076Y-75895005D01*
X135455242Y-75974024D01*
X135294823Y-76022687D01*
X135169804Y-76035000D01*
X135086196Y-76035000D01*
X134961177Y-76022687D01*
X134800758Y-75974024D01*
X134652924Y-75895005D01*
X134652922Y-75895004D01*
X134523341Y-75788659D01*
X134416996Y-75659078D01*
X134408886Y-75643906D01*
X134337976Y-75511242D01*
X134289313Y-75350823D01*
X134272883Y-75184000D01*
X134289313Y-75017177D01*
X134337976Y-74856758D01*
X134416995Y-74708924D01*
X134416996Y-74708922D01*
X134523341Y-74579341D01*
X134652922Y-74472996D01*
X134668094Y-74464886D01*
X134800758Y-74393976D01*
X134961177Y-74345313D01*
X135086196Y-74333000D01*
X135169804Y-74333000D01*
X135294823Y-74345313D01*
X135294823Y-74345313D01*
G37*
G36*
X130214823Y-74345313D02*
G01*
X130375242Y-74393976D01*
X130507906Y-74464886D01*
X130523078Y-74472996D01*
X130652659Y-74579341D01*
X130759004Y-74708922D01*
X130759005Y-74708924D01*
X130838024Y-74856758D01*
X130886687Y-75017177D01*
X130903117Y-75184000D01*
X130886687Y-75350823D01*
X130838024Y-75511242D01*
X130767114Y-75643906D01*
X130759004Y-75659078D01*
X130652659Y-75788659D01*
X130523078Y-75895004D01*
X130523076Y-75895005D01*
X130375242Y-75974024D01*
X130214823Y-76022687D01*
X130089804Y-76035000D01*
X130006196Y-76035000D01*
X129881177Y-76022687D01*
X129720758Y-75974024D01*
X129572924Y-75895005D01*
X129572922Y-75895004D01*
X129443341Y-75788659D01*
X129336996Y-75659078D01*
X129328886Y-75643906D01*
X129257976Y-75511242D01*
X129209313Y-75350823D01*
X129192883Y-75184000D01*
X129209313Y-75017177D01*
X129257976Y-74856758D01*
X129336995Y-74708924D01*
X129336996Y-74708922D01*
X129443341Y-74579341D01*
X129572922Y-74472996D01*
X129588094Y-74464886D01*
X129720758Y-74393976D01*
X129881177Y-74345313D01*
X130006196Y-74333000D01*
X130089804Y-74333000D01*
X130214823Y-74345313D01*
X130214823Y-74345313D01*
G37*
G36*
X125134823Y-74345313D02*
G01*
X125295242Y-74393976D01*
X125427906Y-74464886D01*
X125443078Y-74472996D01*
X125572659Y-74579341D01*
X125679004Y-74708922D01*
X125679005Y-74708924D01*
X125758024Y-74856758D01*
X125806687Y-75017177D01*
X125823117Y-75184000D01*
X125806687Y-75350823D01*
X125758024Y-75511242D01*
X125687114Y-75643906D01*
X125679004Y-75659078D01*
X125572659Y-75788659D01*
X125443078Y-75895004D01*
X125443076Y-75895005D01*
X125295242Y-75974024D01*
X125134823Y-76022687D01*
X125009804Y-76035000D01*
X124926196Y-76035000D01*
X124801177Y-76022687D01*
X124640758Y-75974024D01*
X124492924Y-75895005D01*
X124492922Y-75895004D01*
X124363341Y-75788659D01*
X124256996Y-75659078D01*
X124248886Y-75643906D01*
X124177976Y-75511242D01*
X124129313Y-75350823D01*
X124112883Y-75184000D01*
X124129313Y-75017177D01*
X124177976Y-74856758D01*
X124256995Y-74708924D01*
X124256996Y-74708922D01*
X124363341Y-74579341D01*
X124492922Y-74472996D01*
X124508094Y-74464886D01*
X124640758Y-74393976D01*
X124801177Y-74345313D01*
X124926196Y-74333000D01*
X125009804Y-74333000D01*
X125134823Y-74345313D01*
X125134823Y-74345313D01*
G37*
G36*
X127674823Y-74345313D02*
G01*
X127835242Y-74393976D01*
X127967906Y-74464886D01*
X127983078Y-74472996D01*
X128112659Y-74579341D01*
X128219004Y-74708922D01*
X128219005Y-74708924D01*
X128298024Y-74856758D01*
X128346687Y-75017177D01*
X128363117Y-75184000D01*
X128346687Y-75350823D01*
X128298024Y-75511242D01*
X128227114Y-75643906D01*
X128219004Y-75659078D01*
X128112659Y-75788659D01*
X127983078Y-75895004D01*
X127983076Y-75895005D01*
X127835242Y-75974024D01*
X127674823Y-76022687D01*
X127549804Y-76035000D01*
X127466196Y-76035000D01*
X127341177Y-76022687D01*
X127180758Y-75974024D01*
X127032924Y-75895005D01*
X127032922Y-75895004D01*
X126903341Y-75788659D01*
X126796996Y-75659078D01*
X126788886Y-75643906D01*
X126717976Y-75511242D01*
X126669313Y-75350823D01*
X126652883Y-75184000D01*
X126669313Y-75017177D01*
X126717976Y-74856758D01*
X126796995Y-74708924D01*
X126796996Y-74708922D01*
X126903341Y-74579341D01*
X127032922Y-74472996D01*
X127048094Y-74464886D01*
X127180758Y-74393976D01*
X127341177Y-74345313D01*
X127466196Y-74333000D01*
X127549804Y-74333000D01*
X127674823Y-74345313D01*
X127674823Y-74345313D01*
G37*
G36*
X122594823Y-74345313D02*
G01*
X122755242Y-74393976D01*
X122887906Y-74464886D01*
X122903078Y-74472996D01*
X123032659Y-74579341D01*
X123139004Y-74708922D01*
X123139005Y-74708924D01*
X123218024Y-74856758D01*
X123266687Y-75017177D01*
X123283117Y-75184000D01*
X123266687Y-75350823D01*
X123218024Y-75511242D01*
X123147114Y-75643906D01*
X123139004Y-75659078D01*
X123032659Y-75788659D01*
X122903078Y-75895004D01*
X122903076Y-75895005D01*
X122755242Y-75974024D01*
X122594823Y-76022687D01*
X122469804Y-76035000D01*
X122386196Y-76035000D01*
X122261177Y-76022687D01*
X122100758Y-75974024D01*
X121952924Y-75895005D01*
X121952922Y-75895004D01*
X121823341Y-75788659D01*
X121716996Y-75659078D01*
X121708886Y-75643906D01*
X121637976Y-75511242D01*
X121589313Y-75350823D01*
X121572883Y-75184000D01*
X121589313Y-75017177D01*
X121637976Y-74856758D01*
X121716995Y-74708924D01*
X121716996Y-74708922D01*
X121823341Y-74579341D01*
X121952922Y-74472996D01*
X121968094Y-74464886D01*
X122100758Y-74393976D01*
X122261177Y-74345313D01*
X122386196Y-74333000D01*
X122469804Y-74333000D01*
X122594823Y-74345313D01*
X122594823Y-74345313D01*
G37*
G36*
X132754823Y-74345313D02*
G01*
X132915242Y-74393976D01*
X133047906Y-74464886D01*
X133063078Y-74472996D01*
X133192659Y-74579341D01*
X133299004Y-74708922D01*
X133299005Y-74708924D01*
X133378024Y-74856758D01*
X133426687Y-75017177D01*
X133443117Y-75184000D01*
X133426687Y-75350823D01*
X133378024Y-75511242D01*
X133307114Y-75643906D01*
X133299004Y-75659078D01*
X133192659Y-75788659D01*
X133063078Y-75895004D01*
X133063076Y-75895005D01*
X132915242Y-75974024D01*
X132754823Y-76022687D01*
X132629804Y-76035000D01*
X132546196Y-76035000D01*
X132421177Y-76022687D01*
X132260758Y-75974024D01*
X132112924Y-75895005D01*
X132112922Y-75895004D01*
X131983341Y-75788659D01*
X131876996Y-75659078D01*
X131868886Y-75643906D01*
X131797976Y-75511242D01*
X131749313Y-75350823D01*
X131732883Y-75184000D01*
X131749313Y-75017177D01*
X131797976Y-74856758D01*
X131876995Y-74708924D01*
X131876996Y-74708922D01*
X131983341Y-74579341D01*
X132112922Y-74472996D01*
X132128094Y-74464886D01*
X132260758Y-74393976D01*
X132421177Y-74345313D01*
X132546196Y-74333000D01*
X132629804Y-74333000D01*
X132754823Y-74345313D01*
X132754823Y-74345313D01*
G37*
G36*
X93499334Y-73172706D02*
G01*
X92381366Y-74711456D01*
X90842616Y-73593488D01*
X91960584Y-72054738D01*
X93499334Y-73172706D01*
X93499334Y-73172706D01*
G37*
G36*
X103759943Y-65392248D02*
G01*
X104315189Y-65622238D01*
X104315190Y-65622239D01*
X104814899Y-65956134D01*
X105239866Y-66381101D01*
X105239867Y-66381103D01*
X105573762Y-66880811D01*
X105803752Y-67436057D01*
X105921000Y-68025501D01*
X105921000Y-68626499D01*
X105803752Y-69215943D01*
X105573762Y-69771189D01*
X105573761Y-69771190D01*
X105239866Y-70270899D01*
X104814899Y-70695866D01*
X104563347Y-70863948D01*
X104315189Y-71029762D01*
X103759943Y-71259752D01*
X103170499Y-71377000D01*
X102569501Y-71377000D01*
X101980057Y-71259752D01*
X101424811Y-71029762D01*
X101176653Y-70863948D01*
X100925101Y-70695866D01*
X100500134Y-70270899D01*
X100166239Y-69771190D01*
X100166238Y-69771189D01*
X99936248Y-69215943D01*
X99819000Y-68626499D01*
X99819000Y-68025501D01*
X99936248Y-67436057D01*
X100166238Y-66880811D01*
X100500133Y-66381103D01*
X100500134Y-66381101D01*
X100925101Y-65956134D01*
X101424810Y-65622239D01*
X101424811Y-65622238D01*
X101980057Y-65392248D01*
X102569501Y-65275000D01*
X103170499Y-65275000D01*
X103759943Y-65392248D01*
X103759943Y-65392248D01*
G37*
G36*
X122594823Y-66725313D02*
G01*
X122755242Y-66773976D01*
X122887906Y-66844886D01*
X122903078Y-66852996D01*
X123032659Y-66959341D01*
X123139004Y-67088922D01*
X123139005Y-67088924D01*
X123218024Y-67236758D01*
X123266687Y-67397177D01*
X123283117Y-67564000D01*
X123266687Y-67730823D01*
X123218024Y-67891242D01*
X123147114Y-68023906D01*
X123139004Y-68039078D01*
X123032659Y-68168659D01*
X122903078Y-68275004D01*
X122903076Y-68275005D01*
X122755242Y-68354024D01*
X122594823Y-68402687D01*
X122469804Y-68415000D01*
X122386196Y-68415000D01*
X122261177Y-68402687D01*
X122100758Y-68354024D01*
X121952924Y-68275005D01*
X121952922Y-68275004D01*
X121823341Y-68168659D01*
X121716996Y-68039078D01*
X121708886Y-68023906D01*
X121637976Y-67891242D01*
X121589313Y-67730823D01*
X121572883Y-67564000D01*
X121589313Y-67397177D01*
X121637976Y-67236758D01*
X121716995Y-67088924D01*
X121716996Y-67088922D01*
X121823341Y-66959341D01*
X121952922Y-66852996D01*
X121968094Y-66844886D01*
X122100758Y-66773976D01*
X122261177Y-66725313D01*
X122386196Y-66713000D01*
X122469804Y-66713000D01*
X122594823Y-66725313D01*
X122594823Y-66725313D01*
G37*
G36*
X137834823Y-66725313D02*
G01*
X137995242Y-66773976D01*
X138127906Y-66844886D01*
X138143078Y-66852996D01*
X138272659Y-66959341D01*
X138379004Y-67088922D01*
X138379005Y-67088924D01*
X138458024Y-67236758D01*
X138506687Y-67397177D01*
X138523117Y-67564000D01*
X138506687Y-67730823D01*
X138458024Y-67891242D01*
X138387114Y-68023906D01*
X138379004Y-68039078D01*
X138272659Y-68168659D01*
X138143078Y-68275004D01*
X138143076Y-68275005D01*
X137995242Y-68354024D01*
X137834823Y-68402687D01*
X137709804Y-68415000D01*
X137626196Y-68415000D01*
X137501177Y-68402687D01*
X137340758Y-68354024D01*
X137192924Y-68275005D01*
X137192922Y-68275004D01*
X137063341Y-68168659D01*
X136956996Y-68039078D01*
X136948886Y-68023906D01*
X136877976Y-67891242D01*
X136829313Y-67730823D01*
X136812883Y-67564000D01*
X136829313Y-67397177D01*
X136877976Y-67236758D01*
X136956995Y-67088924D01*
X136956996Y-67088922D01*
X137063341Y-66959341D01*
X137192922Y-66852996D01*
X137208094Y-66844886D01*
X137340758Y-66773976D01*
X137501177Y-66725313D01*
X137626196Y-66713000D01*
X137709804Y-66713000D01*
X137834823Y-66725313D01*
X137834823Y-66725313D01*
G37*
G36*
X125134823Y-66725313D02*
G01*
X125295242Y-66773976D01*
X125427906Y-66844886D01*
X125443078Y-66852996D01*
X125572659Y-66959341D01*
X125679004Y-67088922D01*
X125679005Y-67088924D01*
X125758024Y-67236758D01*
X125806687Y-67397177D01*
X125823117Y-67564000D01*
X125806687Y-67730823D01*
X125758024Y-67891242D01*
X125687114Y-68023906D01*
X125679004Y-68039078D01*
X125572659Y-68168659D01*
X125443078Y-68275004D01*
X125443076Y-68275005D01*
X125295242Y-68354024D01*
X125134823Y-68402687D01*
X125009804Y-68415000D01*
X124926196Y-68415000D01*
X124801177Y-68402687D01*
X124640758Y-68354024D01*
X124492924Y-68275005D01*
X124492922Y-68275004D01*
X124363341Y-68168659D01*
X124256996Y-68039078D01*
X124248886Y-68023906D01*
X124177976Y-67891242D01*
X124129313Y-67730823D01*
X124112883Y-67564000D01*
X124129313Y-67397177D01*
X124177976Y-67236758D01*
X124256995Y-67088924D01*
X124256996Y-67088922D01*
X124363341Y-66959341D01*
X124492922Y-66852996D01*
X124508094Y-66844886D01*
X124640758Y-66773976D01*
X124801177Y-66725313D01*
X124926196Y-66713000D01*
X125009804Y-66713000D01*
X125134823Y-66725313D01*
X125134823Y-66725313D01*
G37*
G36*
X127674823Y-66725313D02*
G01*
X127835242Y-66773976D01*
X127967906Y-66844886D01*
X127983078Y-66852996D01*
X128112659Y-66959341D01*
X128219004Y-67088922D01*
X128219005Y-67088924D01*
X128298024Y-67236758D01*
X128346687Y-67397177D01*
X128363117Y-67564000D01*
X128346687Y-67730823D01*
X128298024Y-67891242D01*
X128227114Y-68023906D01*
X128219004Y-68039078D01*
X128112659Y-68168659D01*
X127983078Y-68275004D01*
X127983076Y-68275005D01*
X127835242Y-68354024D01*
X127674823Y-68402687D01*
X127549804Y-68415000D01*
X127466196Y-68415000D01*
X127341177Y-68402687D01*
X127180758Y-68354024D01*
X127032924Y-68275005D01*
X127032922Y-68275004D01*
X126903341Y-68168659D01*
X126796996Y-68039078D01*
X126788886Y-68023906D01*
X126717976Y-67891242D01*
X126669313Y-67730823D01*
X126652883Y-67564000D01*
X126669313Y-67397177D01*
X126717976Y-67236758D01*
X126796995Y-67088924D01*
X126796996Y-67088922D01*
X126903341Y-66959341D01*
X127032922Y-66852996D01*
X127048094Y-66844886D01*
X127180758Y-66773976D01*
X127341177Y-66725313D01*
X127466196Y-66713000D01*
X127549804Y-66713000D01*
X127674823Y-66725313D01*
X127674823Y-66725313D01*
G37*
G36*
X130214823Y-66725313D02*
G01*
X130375242Y-66773976D01*
X130507906Y-66844886D01*
X130523078Y-66852996D01*
X130652659Y-66959341D01*
X130759004Y-67088922D01*
X130759005Y-67088924D01*
X130838024Y-67236758D01*
X130886687Y-67397177D01*
X130903117Y-67564000D01*
X130886687Y-67730823D01*
X130838024Y-67891242D01*
X130767114Y-68023906D01*
X130759004Y-68039078D01*
X130652659Y-68168659D01*
X130523078Y-68275004D01*
X130523076Y-68275005D01*
X130375242Y-68354024D01*
X130214823Y-68402687D01*
X130089804Y-68415000D01*
X130006196Y-68415000D01*
X129881177Y-68402687D01*
X129720758Y-68354024D01*
X129572924Y-68275005D01*
X129572922Y-68275004D01*
X129443341Y-68168659D01*
X129336996Y-68039078D01*
X129328886Y-68023906D01*
X129257976Y-67891242D01*
X129209313Y-67730823D01*
X129192883Y-67564000D01*
X129209313Y-67397177D01*
X129257976Y-67236758D01*
X129336995Y-67088924D01*
X129336996Y-67088922D01*
X129443341Y-66959341D01*
X129572922Y-66852996D01*
X129588094Y-66844886D01*
X129720758Y-66773976D01*
X129881177Y-66725313D01*
X130006196Y-66713000D01*
X130089804Y-66713000D01*
X130214823Y-66725313D01*
X130214823Y-66725313D01*
G37*
G36*
X132754823Y-66725313D02*
G01*
X132915242Y-66773976D01*
X133047906Y-66844886D01*
X133063078Y-66852996D01*
X133192659Y-66959341D01*
X133299004Y-67088922D01*
X133299005Y-67088924D01*
X133378024Y-67236758D01*
X133426687Y-67397177D01*
X133443117Y-67564000D01*
X133426687Y-67730823D01*
X133378024Y-67891242D01*
X133307114Y-68023906D01*
X133299004Y-68039078D01*
X133192659Y-68168659D01*
X133063078Y-68275004D01*
X133063076Y-68275005D01*
X132915242Y-68354024D01*
X132754823Y-68402687D01*
X132629804Y-68415000D01*
X132546196Y-68415000D01*
X132421177Y-68402687D01*
X132260758Y-68354024D01*
X132112924Y-68275005D01*
X132112922Y-68275004D01*
X131983341Y-68168659D01*
X131876996Y-68039078D01*
X131868886Y-68023906D01*
X131797976Y-67891242D01*
X131749313Y-67730823D01*
X131732883Y-67564000D01*
X131749313Y-67397177D01*
X131797976Y-67236758D01*
X131876995Y-67088924D01*
X131876996Y-67088922D01*
X131983341Y-66959341D01*
X132112922Y-66852996D01*
X132128094Y-66844886D01*
X132260758Y-66773976D01*
X132421177Y-66725313D01*
X132546196Y-66713000D01*
X132629804Y-66713000D01*
X132754823Y-66725313D01*
X132754823Y-66725313D01*
G37*
G36*
X135294823Y-66725313D02*
G01*
X135455242Y-66773976D01*
X135587906Y-66844886D01*
X135603078Y-66852996D01*
X135732659Y-66959341D01*
X135839004Y-67088922D01*
X135839005Y-67088924D01*
X135918024Y-67236758D01*
X135966687Y-67397177D01*
X135983117Y-67564000D01*
X135966687Y-67730823D01*
X135918024Y-67891242D01*
X135847114Y-68023906D01*
X135839004Y-68039078D01*
X135732659Y-68168659D01*
X135603078Y-68275004D01*
X135603076Y-68275005D01*
X135455242Y-68354024D01*
X135294823Y-68402687D01*
X135169804Y-68415000D01*
X135086196Y-68415000D01*
X134961177Y-68402687D01*
X134800758Y-68354024D01*
X134652924Y-68275005D01*
X134652922Y-68275004D01*
X134523341Y-68168659D01*
X134416996Y-68039078D01*
X134408886Y-68023906D01*
X134337976Y-67891242D01*
X134289313Y-67730823D01*
X134272883Y-67564000D01*
X134289313Y-67397177D01*
X134337976Y-67236758D01*
X134416995Y-67088924D01*
X134416996Y-67088922D01*
X134523341Y-66959341D01*
X134652922Y-66852996D01*
X134668094Y-66844886D01*
X134800758Y-66773976D01*
X134961177Y-66725313D01*
X135086196Y-66713000D01*
X135169804Y-66713000D01*
X135294823Y-66725313D01*
X135294823Y-66725313D01*
G37*
G36*
X131754330Y-61873420D02*
G01*
X131166580Y-63682330D01*
X129357670Y-63094580D01*
X129945420Y-61285670D01*
X131754330Y-61873420D01*
X131754330Y-61873420D01*
G37*
G36*
X128417711Y-60784643D02*
G01*
X128590782Y-60856331D01*
X128590783Y-60856332D01*
X128746543Y-60960407D01*
X128879006Y-61092870D01*
X128879007Y-61092872D01*
X128983082Y-61248631D01*
X129054770Y-61421702D01*
X129091316Y-61605430D01*
X129091316Y-61792764D01*
X129054770Y-61976492D01*
X128983082Y-62149563D01*
X128983081Y-62149564D01*
X128879006Y-62305324D01*
X128746543Y-62437787D01*
X128668134Y-62490178D01*
X128590782Y-62541863D01*
X128417711Y-62613551D01*
X128233983Y-62650097D01*
X128046649Y-62650097D01*
X127862921Y-62613551D01*
X127689850Y-62541863D01*
X127612498Y-62490178D01*
X127534089Y-62437787D01*
X127401626Y-62305324D01*
X127297551Y-62149564D01*
X127297550Y-62149563D01*
X127225862Y-61976492D01*
X127189316Y-61792764D01*
X127189316Y-61605430D01*
X127225862Y-61421702D01*
X127297550Y-61248631D01*
X127401625Y-61092872D01*
X127401626Y-61092870D01*
X127534089Y-60960407D01*
X127689849Y-60856332D01*
X127689850Y-60856331D01*
X127862921Y-60784643D01*
X128046649Y-60748097D01*
X128233983Y-60748097D01*
X128417711Y-60784643D01*
X128417711Y-60784643D01*
G37*
M02*
