G04 #@! TF.GenerationSoftware,KiCad,Pcbnew,(5.1.4)-1*
G04 #@! TF.CreationDate,2022-03-16T14:08:13+00:00*
G04 #@! TF.ProjectId,Swarm-B,53776172-6d2d-4422-9e6b-696361645f70,rev?*
G04 #@! TF.SameCoordinates,Original*
G04 #@! TF.FileFunction,Copper,L1,Top*
G04 #@! TF.FilePolarity,Positive*
%FSLAX46Y46*%
G04 Gerber Fmt 4.6, Leading zero omitted, Abs format (unit mm)*
G04 Created by KiCad (PCBNEW (5.1.4)-1) date 2022-03-16 14:08:13*
%MOMM*%
%LPD*%
G04 APERTURE LIST*
%ADD10C,1.440000*%
%ADD11C,1.800000*%
%ADD12C,0.100000*%
%ADD13R,1.800000X1.800000*%
%ADD14R,1.700000X1.700000*%
%ADD15O,1.700000X1.700000*%
%ADD16O,1.500000X1.500000*%
%ADD17R,1.500000X1.500000*%
%ADD18C,1.600000*%
%ADD19O,1.070000X1.800000*%
%ADD20R,1.070000X1.800000*%
%ADD21O,1.600000X1.600000*%
%ADD22R,1.600000X1.600000*%
%ADD23O,1.400000X1.400000*%
%ADD24C,1.400000*%
%ADD25C,2.000000*%
%ADD26C,0.800000*%
%ADD27C,0.250000*%
%ADD28C,0.254000*%
G04 APERTURE END LIST*
D10*
X89154000Y-107696000D03*
X86614000Y-105156000D03*
X89154000Y-102616000D03*
D11*
X128140316Y-61699097D03*
X130556000Y-62484000D03*
D12*
G36*
X131690066Y-61906164D02*
G01*
X131133836Y-63618066D01*
X129421934Y-63061836D01*
X129978164Y-61349934D01*
X131690066Y-61906164D01*
X131690066Y-61906164D01*
G37*
D11*
X90678000Y-75438000D03*
X92170975Y-73383097D03*
D12*
G36*
X91971866Y-72125975D02*
G01*
X93428097Y-73183988D01*
X92370084Y-74640219D01*
X90913853Y-73582206D01*
X91971866Y-72125975D01*
X91971866Y-72125975D01*
G37*
D11*
X92202000Y-115062000D03*
X90709025Y-113007097D03*
D12*
G36*
X89451903Y-112807988D02*
G01*
X90908134Y-111749975D01*
X91966147Y-113206206D01*
X90509916Y-114264219D01*
X89451903Y-112807988D01*
X89451903Y-112807988D01*
G37*
D11*
X130431684Y-126215097D03*
X128016000Y-127000000D03*
D12*
G36*
X127438164Y-128134066D02*
G01*
X126881934Y-126422164D01*
X128593836Y-125865934D01*
X129150066Y-127577836D01*
X127438164Y-128134066D01*
X127438164Y-128134066D01*
G37*
D11*
X152654000Y-92964000D03*
D13*
X152654000Y-95504000D03*
D14*
X127000000Y-101854000D03*
D15*
X129540000Y-101854000D03*
D16*
X133604000Y-81534000D03*
D17*
X133604000Y-89154000D03*
D18*
X118872000Y-102822000D03*
X118872000Y-99822000D03*
D15*
X127000000Y-86614000D03*
D14*
X129540000Y-86614000D03*
D15*
X127000000Y-89154000D03*
D14*
X129540000Y-89154000D03*
D15*
X134874000Y-92456000D03*
D14*
X132334000Y-92456000D03*
D19*
X116586000Y-86614000D03*
X117856000Y-86614000D03*
X119126000Y-86614000D03*
D20*
X120396000Y-86614000D03*
D10*
X144526000Y-85344000D03*
X141986000Y-82804000D03*
X144526000Y-80264000D03*
X144526000Y-107950000D03*
X141986000Y-105410000D03*
X144526000Y-102870000D03*
X144526000Y-96520000D03*
X141986000Y-93980000D03*
X144526000Y-91440000D03*
D11*
X124206000Y-91694000D03*
X124206000Y-94234000D03*
D12*
G36*
X124881947Y-95875196D02*
G01*
X124906060Y-95878773D01*
X124929707Y-95884696D01*
X124952659Y-95892908D01*
X124974695Y-95903331D01*
X124995604Y-95915863D01*
X125015183Y-95930384D01*
X125033245Y-95946755D01*
X125049616Y-95964817D01*
X125064137Y-95984396D01*
X125076669Y-96005305D01*
X125087092Y-96027341D01*
X125095304Y-96050293D01*
X125101227Y-96073940D01*
X125104804Y-96098053D01*
X125106000Y-96122400D01*
X125106000Y-97425600D01*
X125104804Y-97449947D01*
X125101227Y-97474060D01*
X125095304Y-97497707D01*
X125087092Y-97520659D01*
X125076669Y-97542695D01*
X125064137Y-97563604D01*
X125049616Y-97583183D01*
X125033245Y-97601245D01*
X125015183Y-97617616D01*
X124995604Y-97632137D01*
X124974695Y-97644669D01*
X124952659Y-97655092D01*
X124929707Y-97663304D01*
X124906060Y-97669227D01*
X124881947Y-97672804D01*
X124857600Y-97674000D01*
X123554400Y-97674000D01*
X123530053Y-97672804D01*
X123505940Y-97669227D01*
X123482293Y-97663304D01*
X123459341Y-97655092D01*
X123437305Y-97644669D01*
X123416396Y-97632137D01*
X123396817Y-97617616D01*
X123378755Y-97601245D01*
X123362384Y-97583183D01*
X123347863Y-97563604D01*
X123335331Y-97542695D01*
X123324908Y-97520659D01*
X123316696Y-97497707D01*
X123310773Y-97474060D01*
X123307196Y-97449947D01*
X123306000Y-97425600D01*
X123306000Y-96122400D01*
X123307196Y-96098053D01*
X123310773Y-96073940D01*
X123316696Y-96050293D01*
X123324908Y-96027341D01*
X123335331Y-96005305D01*
X123347863Y-95984396D01*
X123362384Y-95964817D01*
X123378755Y-95946755D01*
X123396817Y-95930384D01*
X123416396Y-95915863D01*
X123437305Y-95903331D01*
X123459341Y-95892908D01*
X123482293Y-95884696D01*
X123505940Y-95878773D01*
X123530053Y-95875196D01*
X123554400Y-95874000D01*
X124857600Y-95874000D01*
X124881947Y-95875196D01*
X124881947Y-95875196D01*
G37*
D11*
X124206000Y-96774000D03*
D21*
X134620000Y-75438000D03*
X116840000Y-67818000D03*
X132080000Y-75438000D03*
X119380000Y-67818000D03*
X129540000Y-75438000D03*
X121920000Y-67818000D03*
X127000000Y-75438000D03*
X124460000Y-67818000D03*
X124460000Y-75438000D03*
X127000000Y-67818000D03*
X121920000Y-75438000D03*
X129540000Y-67818000D03*
X119380000Y-75438000D03*
X132080000Y-67818000D03*
X116840000Y-75438000D03*
D22*
X134620000Y-67818000D03*
D21*
X111760000Y-116332000D03*
X96520000Y-116332000D03*
X111760000Y-80772000D03*
X96520000Y-113792000D03*
X111760000Y-83312000D03*
X96520000Y-111252000D03*
X111760000Y-85852000D03*
X96520000Y-108712000D03*
X111760000Y-88392000D03*
X96520000Y-106172000D03*
X111760000Y-90932000D03*
X96520000Y-103632000D03*
X111760000Y-93472000D03*
X96520000Y-101092000D03*
X111760000Y-96012000D03*
X96520000Y-98552000D03*
X111760000Y-98552000D03*
X96520000Y-96012000D03*
X111760000Y-101092000D03*
X96520000Y-93472000D03*
X111760000Y-103632000D03*
X96520000Y-90932000D03*
X111760000Y-106172000D03*
X96520000Y-88392000D03*
X111760000Y-108712000D03*
X96520000Y-85852000D03*
X111760000Y-111252000D03*
X96520000Y-83312000D03*
X111760000Y-113792000D03*
D22*
X96520000Y-80772000D03*
D23*
X86614000Y-98044000D03*
D24*
X91694000Y-98044000D03*
X124460000Y-114554000D03*
D23*
X124460000Y-119634000D03*
X116840000Y-119634000D03*
D24*
X116840000Y-114554000D03*
X120650000Y-114554000D03*
D23*
X120650000Y-119634000D03*
D24*
X127000000Y-81534000D03*
D23*
X121920000Y-81534000D03*
D25*
X130374000Y-111760000D03*
X134874000Y-111760000D03*
X130374000Y-118260000D03*
X134874000Y-118260000D03*
D26*
X135636000Y-126492000D03*
X129286000Y-94234000D03*
X114554000Y-99568000D03*
X119634000Y-71374000D03*
D27*
X133488630Y-75438000D02*
X132080000Y-75438000D01*
X134620000Y-75438000D02*
X133488630Y-75438000D01*
X123760001Y-120333999D02*
X124460000Y-119634000D01*
X123434999Y-120659001D02*
X123760001Y-120333999D01*
X103387001Y-120659001D02*
X123434999Y-120659001D01*
X96520000Y-113792000D02*
X103387001Y-120659001D01*
X97319999Y-112051999D02*
X96520000Y-111252000D01*
X102725001Y-117457001D02*
X97319999Y-112051999D01*
X114663001Y-117457001D02*
X102725001Y-117457001D01*
X116840000Y-119634000D02*
X114663001Y-117457001D01*
X97319999Y-109511999D02*
X96520000Y-108712000D01*
X100185001Y-112377001D02*
X97319999Y-109511999D01*
X112403052Y-112377001D02*
X100185001Y-112377001D01*
X119660051Y-119634000D02*
X112403052Y-112377001D01*
X120650000Y-119634000D02*
X119660051Y-119634000D01*
X118872000Y-98044000D02*
X118872000Y-99822000D01*
X111760000Y-90932000D02*
X118872000Y-98044000D01*
X97319999Y-101891999D02*
X96520000Y-101092000D01*
X130374000Y-118260000D02*
X130374000Y-111760000D01*
X105265001Y-109837001D02*
X102362000Y-106934000D01*
X128451001Y-109837001D02*
X105265001Y-109837001D01*
X130374000Y-111760000D02*
X128451001Y-109837001D01*
X102725001Y-107297001D02*
X102362000Y-106934000D01*
X102362000Y-106934000D02*
X97319999Y-101891999D01*
X128690001Y-101004001D02*
X129540000Y-101854000D01*
X125889999Y-100678999D02*
X128364999Y-100678999D01*
X124264988Y-102304010D02*
X125889999Y-100678999D01*
X128364999Y-100678999D02*
X128690001Y-101004001D01*
X120277519Y-102304010D02*
X124264988Y-102304010D01*
X119370520Y-101397011D02*
X120277519Y-102304010D01*
X114175587Y-97426999D02*
X118145599Y-101397011D01*
X112043629Y-97426999D02*
X114175587Y-97426999D01*
X111760000Y-97143370D02*
X112043629Y-97426999D01*
X118145599Y-101397011D02*
X119370520Y-101397011D01*
X111760000Y-96012000D02*
X111760000Y-97143370D01*
X125900000Y-101854000D02*
X127000000Y-101854000D01*
X123806999Y-103947001D02*
X125900000Y-101854000D01*
X117155001Y-103947001D02*
X123806999Y-103947001D01*
X111760000Y-98552000D02*
X117155001Y-103947001D01*
X141986000Y-83822233D02*
X141986000Y-82804000D01*
X114597021Y-106469021D02*
X127209981Y-106469021D01*
X111760000Y-103632000D02*
X114597021Y-106469021D01*
X141986000Y-91693002D02*
X127209981Y-106469021D01*
X141986000Y-82804000D02*
X141986000Y-91693002D01*
X112559999Y-106971999D02*
X111760000Y-106172000D01*
X113049991Y-107461991D02*
X112559999Y-106971999D01*
X128504009Y-107461991D02*
X113049991Y-107461991D01*
X141986000Y-93980000D02*
X128504009Y-107461991D01*
X141266001Y-106129999D02*
X141986000Y-105410000D01*
X139483999Y-107912001D02*
X141266001Y-106129999D01*
X112559999Y-107912001D02*
X139483999Y-107912001D01*
X111760000Y-108712000D02*
X112559999Y-107912001D01*
X105265001Y-92057001D02*
X97319999Y-84111999D01*
X112010003Y-92057001D02*
X105265001Y-92057001D01*
X112885001Y-92931999D02*
X112010003Y-92057001D01*
X97319999Y-84111999D02*
X96520000Y-83312000D01*
X112885001Y-95500003D02*
X112885001Y-92931999D01*
X118331999Y-100947001D02*
X112885001Y-95500003D01*
X119556920Y-100947001D02*
X118331999Y-100947001D01*
X120463919Y-101854000D02*
X119556920Y-100947001D01*
X121666000Y-101854000D02*
X120463919Y-101854000D01*
X126295991Y-97224009D02*
X121666000Y-101854000D01*
X130105991Y-97224009D02*
X126295991Y-97224009D01*
X134874000Y-92456000D02*
X130105991Y-97224009D01*
X123660001Y-74638001D02*
X124460000Y-75438000D01*
X123334999Y-74312999D02*
X123660001Y-74638001D01*
X117965001Y-74312999D02*
X123334999Y-74312999D01*
X116840000Y-75438000D02*
X117965001Y-74312999D01*
X127000000Y-72898000D02*
X127000000Y-67818000D01*
X124460000Y-75438000D02*
X127000000Y-72898000D01*
X153553999Y-92064001D02*
X153553999Y-78877999D01*
X152654000Y-92964000D02*
X153553999Y-92064001D01*
X153553999Y-78877999D02*
X133858000Y-59182000D01*
X133858000Y-59182000D02*
X130657413Y-59182000D01*
X130657413Y-59182000D02*
X128140316Y-61699097D01*
X130657413Y-59182000D02*
X103378000Y-59182000D01*
X89778001Y-74538001D02*
X90678000Y-75438000D01*
X89778001Y-72781999D02*
X89778001Y-74538001D01*
X103378000Y-59182000D02*
X89778001Y-72781999D01*
X89778001Y-73035999D02*
X84074000Y-78740000D01*
X89778001Y-72781999D02*
X89778001Y-73035999D01*
X84074000Y-78740000D02*
X84074000Y-110998000D01*
X84074000Y-110998000D02*
X88138000Y-115062000D01*
X130431684Y-127487889D02*
X128633573Y-129286000D01*
X130431684Y-126215097D02*
X130431684Y-127487889D01*
X102870000Y-129286000D02*
X88646000Y-115062000D01*
X128633573Y-129286000D02*
X102870000Y-129286000D01*
X88138000Y-115062000D02*
X88646000Y-115062000D01*
X88646000Y-115062000D02*
X92202000Y-115062000D01*
X87376000Y-107696000D02*
X84074000Y-110998000D01*
X89154000Y-107696000D02*
X87376000Y-107696000D01*
X129540000Y-63500000D02*
X130556000Y-62484000D01*
X123444000Y-66294000D02*
X129540000Y-66294000D01*
X121920000Y-67818000D02*
X123444000Y-66294000D01*
X129540000Y-67818000D02*
X129540000Y-66294000D01*
X129540000Y-66294000D02*
X129540000Y-63500000D01*
X118364000Y-66294000D02*
X123444000Y-66294000D01*
X116840000Y-67818000D02*
X118364000Y-66294000D01*
X116040001Y-68617999D02*
X116840000Y-67818000D01*
X115714999Y-68943001D02*
X116040001Y-68617999D01*
X115714999Y-75978001D02*
X115714999Y-68943001D01*
X116299999Y-76563001D02*
X115714999Y-75978001D01*
X120794999Y-76563001D02*
X116299999Y-76563001D01*
X121920000Y-75438000D02*
X120794999Y-76563001D01*
X130556000Y-62484000D02*
X135382000Y-62484000D01*
X151504000Y-95504000D02*
X152654000Y-95504000D01*
X151428999Y-95428999D02*
X151504000Y-95504000D01*
X151428999Y-78530999D02*
X151428999Y-95428999D01*
X135382000Y-62484000D02*
X151428999Y-78530999D01*
X128016000Y-127000000D02*
X104140000Y-127000000D01*
X91921485Y-113007097D02*
X90709025Y-113007097D01*
X93427001Y-114512613D02*
X91921485Y-113007097D01*
X93427001Y-116287001D02*
X93427001Y-114512613D01*
X104140000Y-127000000D02*
X93427001Y-116287001D01*
X152654000Y-96654000D02*
X152654000Y-95504000D01*
X152654000Y-109481002D02*
X152654000Y-96654000D01*
X140994001Y-121141001D02*
X152654000Y-109481002D01*
X129206683Y-125627096D02*
X133692778Y-121141001D01*
X129206683Y-125809317D02*
X129206683Y-125627096D01*
X133692778Y-121141001D02*
X140994001Y-121141001D01*
X128016000Y-127000000D02*
X129206683Y-125809317D01*
X92170975Y-72167025D02*
X92170975Y-73383097D01*
X104394000Y-59944000D02*
X92170975Y-72167025D01*
X123190000Y-59944000D02*
X104394000Y-59944000D01*
X129540000Y-63500000D02*
X126746000Y-63500000D01*
X126746000Y-63500000D02*
X123190000Y-59944000D01*
X129540000Y-86614000D02*
X127000000Y-86614000D01*
X145571001Y-86389001D02*
X144526000Y-85344000D01*
X144526000Y-107950000D02*
X145571001Y-106904999D01*
X145571001Y-95474999D02*
X144526000Y-96520000D01*
X145571001Y-86389001D02*
X145571001Y-95474999D01*
X145571001Y-106904999D02*
X145571001Y-95474999D01*
X140716000Y-111760000D02*
X134874000Y-111760000D01*
X144526000Y-107950000D02*
X140716000Y-111760000D01*
X134874000Y-116845787D02*
X134874000Y-111760000D01*
X134874000Y-118260000D02*
X134874000Y-116845787D01*
X125105999Y-93334001D02*
X124206000Y-94234000D01*
X125431001Y-93008999D02*
X125105999Y-93334001D01*
X125431001Y-88182999D02*
X125431001Y-93008999D01*
X127000000Y-86614000D02*
X125431001Y-88182999D01*
X115062000Y-91694000D02*
X111760000Y-88392000D01*
X124206000Y-91694000D02*
X115062000Y-91694000D01*
X133604000Y-79502000D02*
X129540000Y-75438000D01*
X144526000Y-80264000D02*
X133604000Y-80264000D01*
X133604000Y-81534000D02*
X133604000Y-80264000D01*
X133604000Y-80264000D02*
X133604000Y-79502000D01*
X124206000Y-90421208D02*
X124206000Y-91694000D01*
X124206000Y-87668998D02*
X124206000Y-90421208D01*
X130340998Y-81534000D02*
X124206000Y-87668998D01*
X133604000Y-81534000D02*
X130340998Y-81534000D01*
X127989949Y-81534000D02*
X130340998Y-81534000D01*
X127000000Y-81534000D02*
X127989949Y-81534000D01*
X144526000Y-81810602D02*
X143480999Y-82855603D01*
X144526000Y-80264000D02*
X144526000Y-81810602D01*
X143480999Y-92485001D02*
X144526000Y-91440000D01*
X144526000Y-102870000D02*
X143480999Y-101824999D01*
X143480999Y-101824999D02*
X143480999Y-92485001D01*
X143480999Y-90394999D02*
X144526000Y-91440000D01*
X143480999Y-82855603D02*
X143480999Y-90394999D01*
X123444000Y-97536000D02*
X124206000Y-96774000D01*
X125206000Y-96774000D02*
X124206000Y-96774000D01*
X129116000Y-96774000D02*
X125206000Y-96774000D01*
X132334000Y-93556000D02*
X129116000Y-96774000D01*
X132334000Y-92456000D02*
X132334000Y-93556000D01*
X86614000Y-105156000D02*
X86614000Y-98044000D01*
X129540000Y-89154000D02*
X127000000Y-89154000D01*
X130640000Y-89154000D02*
X133604000Y-89154000D01*
X129540000Y-89154000D02*
X130640000Y-89154000D01*
D28*
G36*
X153991001Y-109953393D02*
G01*
X135088821Y-129353000D01*
X129641374Y-129353000D01*
X130942687Y-128051688D01*
X130971685Y-128027890D01*
X130998016Y-127995806D01*
X131066658Y-127912166D01*
X131137230Y-127780136D01*
X131143338Y-127760000D01*
X131180687Y-127636875D01*
X131188712Y-127555395D01*
X131410189Y-127407409D01*
X131623996Y-127193602D01*
X131791983Y-126942192D01*
X131907695Y-126662840D01*
X131966684Y-126366281D01*
X131966684Y-126063913D01*
X131907695Y-125767354D01*
X131791983Y-125488002D01*
X131623996Y-125236592D01*
X131410189Y-125022785D01*
X131158779Y-124854798D01*
X131084535Y-124824045D01*
X134007581Y-121901001D01*
X140956679Y-121901001D01*
X140994001Y-121904677D01*
X141031323Y-121901001D01*
X141031334Y-121901001D01*
X141142987Y-121890004D01*
X141286248Y-121846547D01*
X141418277Y-121775975D01*
X141534002Y-121681002D01*
X141557805Y-121651998D01*
X153165004Y-110044800D01*
X153194001Y-110021003D01*
X153288974Y-109905278D01*
X153359546Y-109773249D01*
X153403003Y-109629988D01*
X153414000Y-109518335D01*
X153414000Y-109518327D01*
X153417676Y-109481002D01*
X153414000Y-109443677D01*
X153414000Y-97042072D01*
X153554000Y-97042072D01*
X153678482Y-97029812D01*
X153798180Y-96993502D01*
X153908494Y-96934537D01*
X153991001Y-96866826D01*
X153991001Y-109953393D01*
X153991001Y-109953393D01*
G37*
X153991001Y-109953393D02*
X135088821Y-129353000D01*
X129641374Y-129353000D01*
X130942687Y-128051688D01*
X130971685Y-128027890D01*
X130998016Y-127995806D01*
X131066658Y-127912166D01*
X131137230Y-127780136D01*
X131143338Y-127760000D01*
X131180687Y-127636875D01*
X131188712Y-127555395D01*
X131410189Y-127407409D01*
X131623996Y-127193602D01*
X131791983Y-126942192D01*
X131907695Y-126662840D01*
X131966684Y-126366281D01*
X131966684Y-126063913D01*
X131907695Y-125767354D01*
X131791983Y-125488002D01*
X131623996Y-125236592D01*
X131410189Y-125022785D01*
X131158779Y-124854798D01*
X131084535Y-124824045D01*
X134007581Y-121901001D01*
X140956679Y-121901001D01*
X140994001Y-121904677D01*
X141031323Y-121901001D01*
X141031334Y-121901001D01*
X141142987Y-121890004D01*
X141286248Y-121846547D01*
X141418277Y-121775975D01*
X141534002Y-121681002D01*
X141557805Y-121651998D01*
X153165004Y-110044800D01*
X153194001Y-110021003D01*
X153288974Y-109905278D01*
X153359546Y-109773249D01*
X153403003Y-109629988D01*
X153414000Y-109518335D01*
X153414000Y-109518327D01*
X153417676Y-109481002D01*
X153414000Y-109443677D01*
X153414000Y-97042072D01*
X153554000Y-97042072D01*
X153678482Y-97029812D01*
X153798180Y-96993502D01*
X153908494Y-96934537D01*
X153991001Y-96866826D01*
X153991001Y-109953393D01*
G36*
X150668999Y-78845801D02*
G01*
X150669000Y-95391666D01*
X150665323Y-95428999D01*
X150679997Y-95577984D01*
X150723453Y-95721245D01*
X150794025Y-95853275D01*
X150858344Y-95931647D01*
X150888999Y-95969000D01*
X150917995Y-95992796D01*
X150940199Y-96015001D01*
X150963999Y-96044001D01*
X151079724Y-96138974D01*
X151115928Y-96158326D01*
X151115928Y-96404000D01*
X151128188Y-96528482D01*
X151164498Y-96648180D01*
X151223463Y-96758494D01*
X151302815Y-96855185D01*
X151399506Y-96934537D01*
X151509820Y-96993502D01*
X151629518Y-97029812D01*
X151754000Y-97042072D01*
X151894001Y-97042072D01*
X151894000Y-109166200D01*
X140679200Y-120381001D01*
X133730100Y-120381001D01*
X133692777Y-120377325D01*
X133655454Y-120381001D01*
X133655445Y-120381001D01*
X133543792Y-120391998D01*
X133400531Y-120435455D01*
X133268502Y-120506027D01*
X133252463Y-120519190D01*
X133181774Y-120577202D01*
X133181770Y-120577206D01*
X133152777Y-120601000D01*
X133128983Y-120629993D01*
X128695684Y-125063294D01*
X128666682Y-125087095D01*
X128571709Y-125202820D01*
X128556353Y-125231548D01*
X128518839Y-125232285D01*
X128396661Y-125259091D01*
X126684759Y-125815321D01*
X126570159Y-125865449D01*
X126467540Y-125936970D01*
X126380845Y-126027137D01*
X126313408Y-126132485D01*
X126271327Y-126240000D01*
X104454803Y-126240000D01*
X95776547Y-117561745D01*
X95968192Y-117664182D01*
X96238691Y-117746236D01*
X96449508Y-117767000D01*
X96590492Y-117767000D01*
X96801309Y-117746236D01*
X97071808Y-117664182D01*
X97321101Y-117530932D01*
X97539608Y-117351608D01*
X97718932Y-117133101D01*
X97852182Y-116883808D01*
X97934236Y-116613309D01*
X97961943Y-116332000D01*
X97959402Y-116306204D01*
X102823202Y-121170004D01*
X102847000Y-121199002D01*
X102875998Y-121222800D01*
X102962724Y-121293975D01*
X103094754Y-121364547D01*
X103238015Y-121408004D01*
X103349668Y-121419001D01*
X103349678Y-121419001D01*
X103387001Y-121422677D01*
X103424324Y-121419001D01*
X123397677Y-121419001D01*
X123434999Y-121422677D01*
X123472321Y-121419001D01*
X123472332Y-121419001D01*
X123583985Y-121408004D01*
X123727246Y-121364547D01*
X123859275Y-121293975D01*
X123975000Y-121199002D01*
X123998803Y-121169998D01*
X124217251Y-120951550D01*
X124394421Y-120969000D01*
X124525579Y-120969000D01*
X124721706Y-120949683D01*
X124973354Y-120873347D01*
X125205275Y-120749382D01*
X125408555Y-120582555D01*
X125575382Y-120379275D01*
X125699347Y-120147354D01*
X125775683Y-119895706D01*
X125801459Y-119634000D01*
X125775683Y-119372294D01*
X125699347Y-119120646D01*
X125575382Y-118888725D01*
X125408555Y-118685445D01*
X125205275Y-118518618D01*
X124973354Y-118394653D01*
X124721706Y-118318317D01*
X124525579Y-118299000D01*
X124394421Y-118299000D01*
X124198294Y-118318317D01*
X123946646Y-118394653D01*
X123714725Y-118518618D01*
X123511445Y-118685445D01*
X123344618Y-118888725D01*
X123220653Y-119120646D01*
X123144317Y-119372294D01*
X123118541Y-119634000D01*
X123142450Y-119876749D01*
X123120198Y-119899001D01*
X121964683Y-119899001D01*
X121965683Y-119895706D01*
X121991459Y-119634000D01*
X121965683Y-119372294D01*
X121889347Y-119120646D01*
X121765382Y-118888725D01*
X121598555Y-118685445D01*
X121395275Y-118518618D01*
X121163354Y-118394653D01*
X120911706Y-118318317D01*
X120715579Y-118299000D01*
X120584421Y-118299000D01*
X120388294Y-118318317D01*
X120136646Y-118394653D01*
X119904725Y-118518618D01*
X119748051Y-118647197D01*
X116986806Y-115885953D01*
X117229405Y-115837696D01*
X117472359Y-115737061D01*
X117691013Y-115590962D01*
X117876962Y-115405013D01*
X118023061Y-115186359D01*
X118123696Y-114943405D01*
X118175000Y-114685486D01*
X118175000Y-114422514D01*
X119315000Y-114422514D01*
X119315000Y-114685486D01*
X119366304Y-114943405D01*
X119466939Y-115186359D01*
X119613038Y-115405013D01*
X119798987Y-115590962D01*
X120017641Y-115737061D01*
X120260595Y-115837696D01*
X120518514Y-115889000D01*
X120781486Y-115889000D01*
X121039405Y-115837696D01*
X121282359Y-115737061D01*
X121501013Y-115590962D01*
X121686962Y-115405013D01*
X121833061Y-115186359D01*
X121933696Y-114943405D01*
X121985000Y-114685486D01*
X121985000Y-114422514D01*
X123125000Y-114422514D01*
X123125000Y-114685486D01*
X123176304Y-114943405D01*
X123276939Y-115186359D01*
X123423038Y-115405013D01*
X123608987Y-115590962D01*
X123827641Y-115737061D01*
X124070595Y-115837696D01*
X124328514Y-115889000D01*
X124591486Y-115889000D01*
X124849405Y-115837696D01*
X125092359Y-115737061D01*
X125311013Y-115590962D01*
X125496962Y-115405013D01*
X125643061Y-115186359D01*
X125743696Y-114943405D01*
X125795000Y-114685486D01*
X125795000Y-114422514D01*
X125743696Y-114164595D01*
X125643061Y-113921641D01*
X125496962Y-113702987D01*
X125311013Y-113517038D01*
X125092359Y-113370939D01*
X124849405Y-113270304D01*
X124591486Y-113219000D01*
X124328514Y-113219000D01*
X124070595Y-113270304D01*
X123827641Y-113370939D01*
X123608987Y-113517038D01*
X123423038Y-113702987D01*
X123276939Y-113921641D01*
X123176304Y-114164595D01*
X123125000Y-114422514D01*
X121985000Y-114422514D01*
X121933696Y-114164595D01*
X121833061Y-113921641D01*
X121686962Y-113702987D01*
X121501013Y-113517038D01*
X121282359Y-113370939D01*
X121039405Y-113270304D01*
X120781486Y-113219000D01*
X120518514Y-113219000D01*
X120260595Y-113270304D01*
X120017641Y-113370939D01*
X119798987Y-113517038D01*
X119613038Y-113702987D01*
X119466939Y-113921641D01*
X119366304Y-114164595D01*
X119315000Y-114422514D01*
X118175000Y-114422514D01*
X118123696Y-114164595D01*
X118023061Y-113921641D01*
X117876962Y-113702987D01*
X117691013Y-113517038D01*
X117472359Y-113370939D01*
X117229405Y-113270304D01*
X116971486Y-113219000D01*
X116708514Y-113219000D01*
X116450595Y-113270304D01*
X116207641Y-113370939D01*
X115988987Y-113517038D01*
X115803038Y-113702987D01*
X115656939Y-113921641D01*
X115556304Y-114164595D01*
X115508047Y-114407195D01*
X113026863Y-111926011D01*
X113092182Y-111803808D01*
X113174236Y-111533309D01*
X113201943Y-111252000D01*
X113174236Y-110970691D01*
X113092182Y-110700192D01*
X113037025Y-110597001D01*
X128136200Y-110597001D01*
X128807823Y-111268624D01*
X128801832Y-111283088D01*
X128739000Y-111598967D01*
X128739000Y-111921033D01*
X128801832Y-112236912D01*
X128925082Y-112534463D01*
X129104013Y-112802252D01*
X129331748Y-113029987D01*
X129599537Y-113208918D01*
X129614001Y-113214909D01*
X129614000Y-116805091D01*
X129599537Y-116811082D01*
X129331748Y-116990013D01*
X129104013Y-117217748D01*
X128925082Y-117485537D01*
X128801832Y-117783088D01*
X128739000Y-118098967D01*
X128739000Y-118421033D01*
X128801832Y-118736912D01*
X128925082Y-119034463D01*
X129104013Y-119302252D01*
X129331748Y-119529987D01*
X129599537Y-119708918D01*
X129897088Y-119832168D01*
X130212967Y-119895000D01*
X130535033Y-119895000D01*
X130850912Y-119832168D01*
X131148463Y-119708918D01*
X131416252Y-119529987D01*
X131550826Y-119395413D01*
X133918192Y-119395413D01*
X134013956Y-119659814D01*
X134303571Y-119800704D01*
X134615108Y-119882384D01*
X134936595Y-119901718D01*
X135255675Y-119857961D01*
X135560088Y-119752795D01*
X135734044Y-119659814D01*
X135829808Y-119395413D01*
X134874000Y-118439605D01*
X133918192Y-119395413D01*
X131550826Y-119395413D01*
X131643987Y-119302252D01*
X131822918Y-119034463D01*
X131946168Y-118736912D01*
X132009000Y-118421033D01*
X132009000Y-118322595D01*
X133232282Y-118322595D01*
X133276039Y-118641675D01*
X133381205Y-118946088D01*
X133474186Y-119120044D01*
X133738587Y-119215808D01*
X134694395Y-118260000D01*
X135053605Y-118260000D01*
X136009413Y-119215808D01*
X136273814Y-119120044D01*
X136414704Y-118830429D01*
X136496384Y-118518892D01*
X136515718Y-118197405D01*
X136471961Y-117878325D01*
X136366795Y-117573912D01*
X136273814Y-117399956D01*
X136009413Y-117304192D01*
X135053605Y-118260000D01*
X134694395Y-118260000D01*
X133738587Y-117304192D01*
X133474186Y-117399956D01*
X133333296Y-117689571D01*
X133251616Y-118001108D01*
X133232282Y-118322595D01*
X132009000Y-118322595D01*
X132009000Y-118098967D01*
X131946168Y-117783088D01*
X131822918Y-117485537D01*
X131643987Y-117217748D01*
X131550826Y-117124587D01*
X133918192Y-117124587D01*
X134874000Y-118080395D01*
X135829808Y-117124587D01*
X135734044Y-116860186D01*
X135444429Y-116719296D01*
X135132892Y-116637616D01*
X134811405Y-116618282D01*
X134492325Y-116662039D01*
X134187912Y-116767205D01*
X134013956Y-116860186D01*
X133918192Y-117124587D01*
X131550826Y-117124587D01*
X131416252Y-116990013D01*
X131148463Y-116811082D01*
X131134000Y-116805091D01*
X131134000Y-113214909D01*
X131148463Y-113208918D01*
X131416252Y-113029987D01*
X131550826Y-112895413D01*
X133918192Y-112895413D01*
X134013956Y-113159814D01*
X134303571Y-113300704D01*
X134615108Y-113382384D01*
X134936595Y-113401718D01*
X135255675Y-113357961D01*
X135560088Y-113252795D01*
X135734044Y-113159814D01*
X135829808Y-112895413D01*
X134874000Y-111939605D01*
X133918192Y-112895413D01*
X131550826Y-112895413D01*
X131643987Y-112802252D01*
X131822918Y-112534463D01*
X131946168Y-112236912D01*
X132009000Y-111921033D01*
X132009000Y-111822595D01*
X133232282Y-111822595D01*
X133276039Y-112141675D01*
X133381205Y-112446088D01*
X133474186Y-112620044D01*
X133738587Y-112715808D01*
X134694395Y-111760000D01*
X135053605Y-111760000D01*
X136009413Y-112715808D01*
X136273814Y-112620044D01*
X136414704Y-112330429D01*
X136496384Y-112018892D01*
X136515718Y-111697405D01*
X136471961Y-111378325D01*
X136366795Y-111073912D01*
X136273814Y-110899956D01*
X136009413Y-110804192D01*
X135053605Y-111760000D01*
X134694395Y-111760000D01*
X133738587Y-110804192D01*
X133474186Y-110899956D01*
X133333296Y-111189571D01*
X133251616Y-111501108D01*
X133232282Y-111822595D01*
X132009000Y-111822595D01*
X132009000Y-111598967D01*
X131946168Y-111283088D01*
X131822918Y-110985537D01*
X131643987Y-110717748D01*
X131550826Y-110624587D01*
X133918192Y-110624587D01*
X134874000Y-111580395D01*
X135829808Y-110624587D01*
X135734044Y-110360186D01*
X135444429Y-110219296D01*
X135132892Y-110137616D01*
X134811405Y-110118282D01*
X134492325Y-110162039D01*
X134187912Y-110267205D01*
X134013956Y-110360186D01*
X133918192Y-110624587D01*
X131550826Y-110624587D01*
X131416252Y-110490013D01*
X131148463Y-110311082D01*
X130850912Y-110187832D01*
X130535033Y-110125000D01*
X130212967Y-110125000D01*
X129897088Y-110187832D01*
X129882624Y-110193823D01*
X129014805Y-109326004D01*
X128991002Y-109297000D01*
X128875277Y-109202027D01*
X128743248Y-109131455D01*
X128599987Y-109087998D01*
X128488334Y-109077001D01*
X128488323Y-109077001D01*
X128451001Y-109073325D01*
X128413679Y-109077001D01*
X113148849Y-109077001D01*
X113174236Y-108993309D01*
X113184848Y-108885560D01*
X143770045Y-108885560D01*
X143831932Y-109121368D01*
X144073790Y-109234266D01*
X144333027Y-109297811D01*
X144599680Y-109309561D01*
X144863501Y-109269063D01*
X145114353Y-109177875D01*
X145220068Y-109121368D01*
X145281955Y-108885560D01*
X144526000Y-108129605D01*
X143770045Y-108885560D01*
X113184848Y-108885560D01*
X113201943Y-108712000D01*
X113198003Y-108672001D01*
X139446677Y-108672001D01*
X139483999Y-108675677D01*
X139521321Y-108672001D01*
X139521332Y-108672001D01*
X139632985Y-108661004D01*
X139776246Y-108617547D01*
X139908275Y-108546975D01*
X140024000Y-108452002D01*
X140047802Y-108422999D01*
X140447121Y-108023680D01*
X143166439Y-108023680D01*
X143206937Y-108287501D01*
X143298125Y-108538353D01*
X143354632Y-108644068D01*
X143590440Y-108705955D01*
X144346395Y-107950000D01*
X144705605Y-107950000D01*
X145461560Y-108705955D01*
X145697368Y-108644068D01*
X145810266Y-108402210D01*
X145873811Y-108142973D01*
X145885561Y-107876320D01*
X145845063Y-107612499D01*
X145753875Y-107361647D01*
X145697368Y-107255932D01*
X145461560Y-107194045D01*
X144705605Y-107950000D01*
X144346395Y-107950000D01*
X143590440Y-107194045D01*
X143354632Y-107255932D01*
X143241734Y-107497790D01*
X143178189Y-107757027D01*
X143166439Y-108023680D01*
X140447121Y-108023680D01*
X141456362Y-107014440D01*
X143770045Y-107014440D01*
X144526000Y-107770395D01*
X145281955Y-107014440D01*
X145220068Y-106778632D01*
X144978210Y-106665734D01*
X144718973Y-106602189D01*
X144452320Y-106590439D01*
X144188499Y-106630937D01*
X143937647Y-106722125D01*
X143831932Y-106778632D01*
X143770045Y-107014440D01*
X141456362Y-107014440D01*
X141730149Y-106740654D01*
X141852544Y-106765000D01*
X142119456Y-106765000D01*
X142381239Y-106712928D01*
X142627833Y-106610785D01*
X142849762Y-106462497D01*
X143038497Y-106273762D01*
X143186785Y-106051833D01*
X143288928Y-105805239D01*
X143341000Y-105543456D01*
X143341000Y-105276544D01*
X143288928Y-105014761D01*
X143186785Y-104768167D01*
X143038497Y-104546238D01*
X142849762Y-104357503D01*
X142627833Y-104209215D01*
X142381239Y-104107072D01*
X142119456Y-104055000D01*
X141852544Y-104055000D01*
X141590761Y-104107072D01*
X141344167Y-104209215D01*
X141122238Y-104357503D01*
X140933503Y-104546238D01*
X140785215Y-104768167D01*
X140683072Y-105014761D01*
X140631000Y-105276544D01*
X140631000Y-105543456D01*
X140655346Y-105665851D01*
X139169198Y-107152001D01*
X129888800Y-107152001D01*
X141730148Y-95310654D01*
X141852544Y-95335000D01*
X142119456Y-95335000D01*
X142381239Y-95282928D01*
X142627833Y-95180785D01*
X142721000Y-95118533D01*
X142720999Y-101787677D01*
X142717323Y-101824999D01*
X142720999Y-101862321D01*
X142720999Y-101862331D01*
X142731996Y-101973984D01*
X142770998Y-102102557D01*
X142775453Y-102117245D01*
X142846025Y-102249275D01*
X142885870Y-102297825D01*
X142940998Y-102365000D01*
X142970001Y-102388803D01*
X143195346Y-102614147D01*
X143171000Y-102736544D01*
X143171000Y-103003456D01*
X143223072Y-103265239D01*
X143325215Y-103511833D01*
X143473503Y-103733762D01*
X143662238Y-103922497D01*
X143884167Y-104070785D01*
X144130761Y-104172928D01*
X144392544Y-104225000D01*
X144659456Y-104225000D01*
X144921239Y-104172928D01*
X145167833Y-104070785D01*
X145389762Y-103922497D01*
X145578497Y-103733762D01*
X145726785Y-103511833D01*
X145828928Y-103265239D01*
X145881000Y-103003456D01*
X145881000Y-102736544D01*
X145828928Y-102474761D01*
X145726785Y-102228167D01*
X145578497Y-102006238D01*
X145389762Y-101817503D01*
X145167833Y-101669215D01*
X144921239Y-101567072D01*
X144659456Y-101515000D01*
X144392544Y-101515000D01*
X144270147Y-101539346D01*
X144240999Y-101510198D01*
X144240999Y-97845253D01*
X144333027Y-97867811D01*
X144599680Y-97879561D01*
X144863501Y-97839063D01*
X145114353Y-97747875D01*
X145220068Y-97691368D01*
X145281955Y-97455560D01*
X144526000Y-96699605D01*
X144511858Y-96713748D01*
X144332253Y-96534143D01*
X144346395Y-96520000D01*
X144705605Y-96520000D01*
X145461560Y-97275955D01*
X145697368Y-97214068D01*
X145810266Y-96972210D01*
X145873811Y-96712973D01*
X145885561Y-96446320D01*
X145845063Y-96182499D01*
X145753875Y-95931647D01*
X145697368Y-95825932D01*
X145461560Y-95764045D01*
X144705605Y-96520000D01*
X144346395Y-96520000D01*
X144332253Y-96505858D01*
X144511858Y-96326253D01*
X144526000Y-96340395D01*
X145281955Y-95584440D01*
X145220068Y-95348632D01*
X144978210Y-95235734D01*
X144718973Y-95172189D01*
X144452320Y-95160439D01*
X144240999Y-95192878D01*
X144240999Y-92799802D01*
X144270147Y-92770654D01*
X144392544Y-92795000D01*
X144659456Y-92795000D01*
X144921239Y-92742928D01*
X145167833Y-92640785D01*
X145389762Y-92492497D01*
X145578497Y-92303762D01*
X145726785Y-92081833D01*
X145828928Y-91835239D01*
X145881000Y-91573456D01*
X145881000Y-91306544D01*
X145828928Y-91044761D01*
X145726785Y-90798167D01*
X145578497Y-90576238D01*
X145389762Y-90387503D01*
X145167833Y-90239215D01*
X144921239Y-90137072D01*
X144659456Y-90085000D01*
X144392544Y-90085000D01*
X144270147Y-90109346D01*
X144240999Y-90080198D01*
X144240999Y-86669253D01*
X144333027Y-86691811D01*
X144599680Y-86703561D01*
X144863501Y-86663063D01*
X145114353Y-86571875D01*
X145220068Y-86515368D01*
X145281955Y-86279560D01*
X144526000Y-85523605D01*
X144511858Y-85537748D01*
X144332253Y-85358143D01*
X144346395Y-85344000D01*
X144705605Y-85344000D01*
X145461560Y-86099955D01*
X145697368Y-86038068D01*
X145810266Y-85796210D01*
X145873811Y-85536973D01*
X145885561Y-85270320D01*
X145845063Y-85006499D01*
X145753875Y-84755647D01*
X145697368Y-84649932D01*
X145461560Y-84588045D01*
X144705605Y-85344000D01*
X144346395Y-85344000D01*
X144332253Y-85329858D01*
X144511858Y-85150253D01*
X144526000Y-85164395D01*
X145281955Y-84408440D01*
X145220068Y-84172632D01*
X144978210Y-84059734D01*
X144718973Y-83996189D01*
X144452320Y-83984439D01*
X144240999Y-84016878D01*
X144240999Y-83170404D01*
X145037003Y-82374401D01*
X145066001Y-82350603D01*
X145160974Y-82234878D01*
X145231546Y-82102849D01*
X145275003Y-81959588D01*
X145286000Y-81847935D01*
X145289677Y-81810602D01*
X145286000Y-81773269D01*
X145286000Y-81385828D01*
X145389762Y-81316497D01*
X145578497Y-81127762D01*
X145726785Y-80905833D01*
X145828928Y-80659239D01*
X145881000Y-80397456D01*
X145881000Y-80130544D01*
X145828928Y-79868761D01*
X145726785Y-79622167D01*
X145578497Y-79400238D01*
X145389762Y-79211503D01*
X145167833Y-79063215D01*
X144921239Y-78961072D01*
X144659456Y-78909000D01*
X144392544Y-78909000D01*
X144130761Y-78961072D01*
X143884167Y-79063215D01*
X143662238Y-79211503D01*
X143473503Y-79400238D01*
X143404172Y-79504000D01*
X134367479Y-79504000D01*
X134367676Y-79502000D01*
X134364000Y-79464677D01*
X134364000Y-79464667D01*
X134353003Y-79353014D01*
X134309546Y-79209753D01*
X134285238Y-79164276D01*
X134238974Y-79077723D01*
X134167799Y-78990997D01*
X134144001Y-78961999D01*
X134115003Y-78938201D01*
X132049801Y-76873000D01*
X132150492Y-76873000D01*
X132361309Y-76852236D01*
X132631808Y-76770182D01*
X132881101Y-76636932D01*
X133099608Y-76457608D01*
X133278932Y-76239101D01*
X133300901Y-76198000D01*
X133399099Y-76198000D01*
X133421068Y-76239101D01*
X133600392Y-76457608D01*
X133818899Y-76636932D01*
X134068192Y-76770182D01*
X134338691Y-76852236D01*
X134549508Y-76873000D01*
X134690492Y-76873000D01*
X134901309Y-76852236D01*
X135171808Y-76770182D01*
X135421101Y-76636932D01*
X135639608Y-76457608D01*
X135818932Y-76239101D01*
X135952182Y-75989808D01*
X136034236Y-75719309D01*
X136061943Y-75438000D01*
X136034236Y-75156691D01*
X135952182Y-74886192D01*
X135818932Y-74636899D01*
X135639608Y-74418392D01*
X135421101Y-74239068D01*
X135171808Y-74105818D01*
X134901309Y-74023764D01*
X134690492Y-74003000D01*
X134549508Y-74003000D01*
X134338691Y-74023764D01*
X134068192Y-74105818D01*
X133818899Y-74239068D01*
X133600392Y-74418392D01*
X133421068Y-74636899D01*
X133399099Y-74678000D01*
X133300901Y-74678000D01*
X133278932Y-74636899D01*
X133099608Y-74418392D01*
X132881101Y-74239068D01*
X132631808Y-74105818D01*
X132361309Y-74023764D01*
X132150492Y-74003000D01*
X132009508Y-74003000D01*
X131798691Y-74023764D01*
X131528192Y-74105818D01*
X131278899Y-74239068D01*
X131060392Y-74418392D01*
X130881068Y-74636899D01*
X130810000Y-74769858D01*
X130738932Y-74636899D01*
X130559608Y-74418392D01*
X130341101Y-74239068D01*
X130091808Y-74105818D01*
X129821309Y-74023764D01*
X129610492Y-74003000D01*
X129469508Y-74003000D01*
X129258691Y-74023764D01*
X128988192Y-74105818D01*
X128738899Y-74239068D01*
X128520392Y-74418392D01*
X128341068Y-74636899D01*
X128270000Y-74769858D01*
X128198932Y-74636899D01*
X128019608Y-74418392D01*
X127801101Y-74239068D01*
X127551808Y-74105818D01*
X127281309Y-74023764D01*
X127070492Y-74003000D01*
X126969803Y-74003000D01*
X127511009Y-73461794D01*
X127540001Y-73438001D01*
X127563795Y-73409008D01*
X127563799Y-73409004D01*
X127626220Y-73332943D01*
X127634974Y-73322276D01*
X127705546Y-73190247D01*
X127749003Y-73046986D01*
X127760000Y-72935333D01*
X127760000Y-72935324D01*
X127763676Y-72898001D01*
X127760000Y-72860678D01*
X127760000Y-69038901D01*
X127801101Y-69016932D01*
X128019608Y-68837608D01*
X128198932Y-68619101D01*
X128270000Y-68486142D01*
X128341068Y-68619101D01*
X128520392Y-68837608D01*
X128738899Y-69016932D01*
X128988192Y-69150182D01*
X129258691Y-69232236D01*
X129469508Y-69253000D01*
X129610492Y-69253000D01*
X129821309Y-69232236D01*
X130091808Y-69150182D01*
X130341101Y-69016932D01*
X130559608Y-68837608D01*
X130738932Y-68619101D01*
X130810000Y-68486142D01*
X130881068Y-68619101D01*
X131060392Y-68837608D01*
X131278899Y-69016932D01*
X131528192Y-69150182D01*
X131798691Y-69232236D01*
X132009508Y-69253000D01*
X132150492Y-69253000D01*
X132361309Y-69232236D01*
X132631808Y-69150182D01*
X132881101Y-69016932D01*
X133099608Y-68837608D01*
X133192419Y-68724518D01*
X133194188Y-68742482D01*
X133230498Y-68862180D01*
X133289463Y-68972494D01*
X133368815Y-69069185D01*
X133465506Y-69148537D01*
X133575820Y-69207502D01*
X133695518Y-69243812D01*
X133820000Y-69256072D01*
X135420000Y-69256072D01*
X135544482Y-69243812D01*
X135664180Y-69207502D01*
X135774494Y-69148537D01*
X135871185Y-69069185D01*
X135950537Y-68972494D01*
X136009502Y-68862180D01*
X136045812Y-68742482D01*
X136058072Y-68618000D01*
X136058072Y-67018000D01*
X136045812Y-66893518D01*
X136009502Y-66773820D01*
X135950537Y-66663506D01*
X135871185Y-66566815D01*
X135774494Y-66487463D01*
X135664180Y-66428498D01*
X135544482Y-66392188D01*
X135420000Y-66379928D01*
X133820000Y-66379928D01*
X133695518Y-66392188D01*
X133575820Y-66428498D01*
X133465506Y-66487463D01*
X133368815Y-66566815D01*
X133289463Y-66663506D01*
X133230498Y-66773820D01*
X133194188Y-66893518D01*
X133192419Y-66911482D01*
X133099608Y-66798392D01*
X132881101Y-66619068D01*
X132631808Y-66485818D01*
X132361309Y-66403764D01*
X132150492Y-66383000D01*
X132009508Y-66383000D01*
X131798691Y-66403764D01*
X131528192Y-66485818D01*
X131278899Y-66619068D01*
X131060392Y-66798392D01*
X130881068Y-67016899D01*
X130810000Y-67149858D01*
X130738932Y-67016899D01*
X130559608Y-66798392D01*
X130341101Y-66619068D01*
X130300000Y-66597099D01*
X130300000Y-66331332D01*
X130303677Y-66294000D01*
X130300000Y-66256667D01*
X130300000Y-64018046D01*
X130936661Y-64224909D01*
X131058839Y-64251715D01*
X131183899Y-64254171D01*
X131307035Y-64232182D01*
X131423515Y-64186592D01*
X131528863Y-64119155D01*
X131619030Y-64032460D01*
X131690551Y-63929841D01*
X131740679Y-63815241D01*
X131926286Y-63244000D01*
X135067199Y-63244000D01*
X150668999Y-78845801D01*
X150668999Y-78845801D01*
G37*
X150668999Y-78845801D02*
X150669000Y-95391666D01*
X150665323Y-95428999D01*
X150679997Y-95577984D01*
X150723453Y-95721245D01*
X150794025Y-95853275D01*
X150858344Y-95931647D01*
X150888999Y-95969000D01*
X150917995Y-95992796D01*
X150940199Y-96015001D01*
X150963999Y-96044001D01*
X151079724Y-96138974D01*
X151115928Y-96158326D01*
X151115928Y-96404000D01*
X151128188Y-96528482D01*
X151164498Y-96648180D01*
X151223463Y-96758494D01*
X151302815Y-96855185D01*
X151399506Y-96934537D01*
X151509820Y-96993502D01*
X151629518Y-97029812D01*
X151754000Y-97042072D01*
X151894001Y-97042072D01*
X151894000Y-109166200D01*
X140679200Y-120381001D01*
X133730100Y-120381001D01*
X133692777Y-120377325D01*
X133655454Y-120381001D01*
X133655445Y-120381001D01*
X133543792Y-120391998D01*
X133400531Y-120435455D01*
X133268502Y-120506027D01*
X133252463Y-120519190D01*
X133181774Y-120577202D01*
X133181770Y-120577206D01*
X133152777Y-120601000D01*
X133128983Y-120629993D01*
X128695684Y-125063294D01*
X128666682Y-125087095D01*
X128571709Y-125202820D01*
X128556353Y-125231548D01*
X128518839Y-125232285D01*
X128396661Y-125259091D01*
X126684759Y-125815321D01*
X126570159Y-125865449D01*
X126467540Y-125936970D01*
X126380845Y-126027137D01*
X126313408Y-126132485D01*
X126271327Y-126240000D01*
X104454803Y-126240000D01*
X95776547Y-117561745D01*
X95968192Y-117664182D01*
X96238691Y-117746236D01*
X96449508Y-117767000D01*
X96590492Y-117767000D01*
X96801309Y-117746236D01*
X97071808Y-117664182D01*
X97321101Y-117530932D01*
X97539608Y-117351608D01*
X97718932Y-117133101D01*
X97852182Y-116883808D01*
X97934236Y-116613309D01*
X97961943Y-116332000D01*
X97959402Y-116306204D01*
X102823202Y-121170004D01*
X102847000Y-121199002D01*
X102875998Y-121222800D01*
X102962724Y-121293975D01*
X103094754Y-121364547D01*
X103238015Y-121408004D01*
X103349668Y-121419001D01*
X103349678Y-121419001D01*
X103387001Y-121422677D01*
X103424324Y-121419001D01*
X123397677Y-121419001D01*
X123434999Y-121422677D01*
X123472321Y-121419001D01*
X123472332Y-121419001D01*
X123583985Y-121408004D01*
X123727246Y-121364547D01*
X123859275Y-121293975D01*
X123975000Y-121199002D01*
X123998803Y-121169998D01*
X124217251Y-120951550D01*
X124394421Y-120969000D01*
X124525579Y-120969000D01*
X124721706Y-120949683D01*
X124973354Y-120873347D01*
X125205275Y-120749382D01*
X125408555Y-120582555D01*
X125575382Y-120379275D01*
X125699347Y-120147354D01*
X125775683Y-119895706D01*
X125801459Y-119634000D01*
X125775683Y-119372294D01*
X125699347Y-119120646D01*
X125575382Y-118888725D01*
X125408555Y-118685445D01*
X125205275Y-118518618D01*
X124973354Y-118394653D01*
X124721706Y-118318317D01*
X124525579Y-118299000D01*
X124394421Y-118299000D01*
X124198294Y-118318317D01*
X123946646Y-118394653D01*
X123714725Y-118518618D01*
X123511445Y-118685445D01*
X123344618Y-118888725D01*
X123220653Y-119120646D01*
X123144317Y-119372294D01*
X123118541Y-119634000D01*
X123142450Y-119876749D01*
X123120198Y-119899001D01*
X121964683Y-119899001D01*
X121965683Y-119895706D01*
X121991459Y-119634000D01*
X121965683Y-119372294D01*
X121889347Y-119120646D01*
X121765382Y-118888725D01*
X121598555Y-118685445D01*
X121395275Y-118518618D01*
X121163354Y-118394653D01*
X120911706Y-118318317D01*
X120715579Y-118299000D01*
X120584421Y-118299000D01*
X120388294Y-118318317D01*
X120136646Y-118394653D01*
X119904725Y-118518618D01*
X119748051Y-118647197D01*
X116986806Y-115885953D01*
X117229405Y-115837696D01*
X117472359Y-115737061D01*
X117691013Y-115590962D01*
X117876962Y-115405013D01*
X118023061Y-115186359D01*
X118123696Y-114943405D01*
X118175000Y-114685486D01*
X118175000Y-114422514D01*
X119315000Y-114422514D01*
X119315000Y-114685486D01*
X119366304Y-114943405D01*
X119466939Y-115186359D01*
X119613038Y-115405013D01*
X119798987Y-115590962D01*
X120017641Y-115737061D01*
X120260595Y-115837696D01*
X120518514Y-115889000D01*
X120781486Y-115889000D01*
X121039405Y-115837696D01*
X121282359Y-115737061D01*
X121501013Y-115590962D01*
X121686962Y-115405013D01*
X121833061Y-115186359D01*
X121933696Y-114943405D01*
X121985000Y-114685486D01*
X121985000Y-114422514D01*
X123125000Y-114422514D01*
X123125000Y-114685486D01*
X123176304Y-114943405D01*
X123276939Y-115186359D01*
X123423038Y-115405013D01*
X123608987Y-115590962D01*
X123827641Y-115737061D01*
X124070595Y-115837696D01*
X124328514Y-115889000D01*
X124591486Y-115889000D01*
X124849405Y-115837696D01*
X125092359Y-115737061D01*
X125311013Y-115590962D01*
X125496962Y-115405013D01*
X125643061Y-115186359D01*
X125743696Y-114943405D01*
X125795000Y-114685486D01*
X125795000Y-114422514D01*
X125743696Y-114164595D01*
X125643061Y-113921641D01*
X125496962Y-113702987D01*
X125311013Y-113517038D01*
X125092359Y-113370939D01*
X124849405Y-113270304D01*
X124591486Y-113219000D01*
X124328514Y-113219000D01*
X124070595Y-113270304D01*
X123827641Y-113370939D01*
X123608987Y-113517038D01*
X123423038Y-113702987D01*
X123276939Y-113921641D01*
X123176304Y-114164595D01*
X123125000Y-114422514D01*
X121985000Y-114422514D01*
X121933696Y-114164595D01*
X121833061Y-113921641D01*
X121686962Y-113702987D01*
X121501013Y-113517038D01*
X121282359Y-113370939D01*
X121039405Y-113270304D01*
X120781486Y-113219000D01*
X120518514Y-113219000D01*
X120260595Y-113270304D01*
X120017641Y-113370939D01*
X119798987Y-113517038D01*
X119613038Y-113702987D01*
X119466939Y-113921641D01*
X119366304Y-114164595D01*
X119315000Y-114422514D01*
X118175000Y-114422514D01*
X118123696Y-114164595D01*
X118023061Y-113921641D01*
X117876962Y-113702987D01*
X117691013Y-113517038D01*
X117472359Y-113370939D01*
X117229405Y-113270304D01*
X116971486Y-113219000D01*
X116708514Y-113219000D01*
X116450595Y-113270304D01*
X116207641Y-113370939D01*
X115988987Y-113517038D01*
X115803038Y-113702987D01*
X115656939Y-113921641D01*
X115556304Y-114164595D01*
X115508047Y-114407195D01*
X113026863Y-111926011D01*
X113092182Y-111803808D01*
X113174236Y-111533309D01*
X113201943Y-111252000D01*
X113174236Y-110970691D01*
X113092182Y-110700192D01*
X113037025Y-110597001D01*
X128136200Y-110597001D01*
X128807823Y-111268624D01*
X128801832Y-111283088D01*
X128739000Y-111598967D01*
X128739000Y-111921033D01*
X128801832Y-112236912D01*
X128925082Y-112534463D01*
X129104013Y-112802252D01*
X129331748Y-113029987D01*
X129599537Y-113208918D01*
X129614001Y-113214909D01*
X129614000Y-116805091D01*
X129599537Y-116811082D01*
X129331748Y-116990013D01*
X129104013Y-117217748D01*
X128925082Y-117485537D01*
X128801832Y-117783088D01*
X128739000Y-118098967D01*
X128739000Y-118421033D01*
X128801832Y-118736912D01*
X128925082Y-119034463D01*
X129104013Y-119302252D01*
X129331748Y-119529987D01*
X129599537Y-119708918D01*
X129897088Y-119832168D01*
X130212967Y-119895000D01*
X130535033Y-119895000D01*
X130850912Y-119832168D01*
X131148463Y-119708918D01*
X131416252Y-119529987D01*
X131550826Y-119395413D01*
X133918192Y-119395413D01*
X134013956Y-119659814D01*
X134303571Y-119800704D01*
X134615108Y-119882384D01*
X134936595Y-119901718D01*
X135255675Y-119857961D01*
X135560088Y-119752795D01*
X135734044Y-119659814D01*
X135829808Y-119395413D01*
X134874000Y-118439605D01*
X133918192Y-119395413D01*
X131550826Y-119395413D01*
X131643987Y-119302252D01*
X131822918Y-119034463D01*
X131946168Y-118736912D01*
X132009000Y-118421033D01*
X132009000Y-118322595D01*
X133232282Y-118322595D01*
X133276039Y-118641675D01*
X133381205Y-118946088D01*
X133474186Y-119120044D01*
X133738587Y-119215808D01*
X134694395Y-118260000D01*
X135053605Y-118260000D01*
X136009413Y-119215808D01*
X136273814Y-119120044D01*
X136414704Y-118830429D01*
X136496384Y-118518892D01*
X136515718Y-118197405D01*
X136471961Y-117878325D01*
X136366795Y-117573912D01*
X136273814Y-117399956D01*
X136009413Y-117304192D01*
X135053605Y-118260000D01*
X134694395Y-118260000D01*
X133738587Y-117304192D01*
X133474186Y-117399956D01*
X133333296Y-117689571D01*
X133251616Y-118001108D01*
X133232282Y-118322595D01*
X132009000Y-118322595D01*
X132009000Y-118098967D01*
X131946168Y-117783088D01*
X131822918Y-117485537D01*
X131643987Y-117217748D01*
X131550826Y-117124587D01*
X133918192Y-117124587D01*
X134874000Y-118080395D01*
X135829808Y-117124587D01*
X135734044Y-116860186D01*
X135444429Y-116719296D01*
X135132892Y-116637616D01*
X134811405Y-116618282D01*
X134492325Y-116662039D01*
X134187912Y-116767205D01*
X134013956Y-116860186D01*
X133918192Y-117124587D01*
X131550826Y-117124587D01*
X131416252Y-116990013D01*
X131148463Y-116811082D01*
X131134000Y-116805091D01*
X131134000Y-113214909D01*
X131148463Y-113208918D01*
X131416252Y-113029987D01*
X131550826Y-112895413D01*
X133918192Y-112895413D01*
X134013956Y-113159814D01*
X134303571Y-113300704D01*
X134615108Y-113382384D01*
X134936595Y-113401718D01*
X135255675Y-113357961D01*
X135560088Y-113252795D01*
X135734044Y-113159814D01*
X135829808Y-112895413D01*
X134874000Y-111939605D01*
X133918192Y-112895413D01*
X131550826Y-112895413D01*
X131643987Y-112802252D01*
X131822918Y-112534463D01*
X131946168Y-112236912D01*
X132009000Y-111921033D01*
X132009000Y-111822595D01*
X133232282Y-111822595D01*
X133276039Y-112141675D01*
X133381205Y-112446088D01*
X133474186Y-112620044D01*
X133738587Y-112715808D01*
X134694395Y-111760000D01*
X135053605Y-111760000D01*
X136009413Y-112715808D01*
X136273814Y-112620044D01*
X136414704Y-112330429D01*
X136496384Y-112018892D01*
X136515718Y-111697405D01*
X136471961Y-111378325D01*
X136366795Y-111073912D01*
X136273814Y-110899956D01*
X136009413Y-110804192D01*
X135053605Y-111760000D01*
X134694395Y-111760000D01*
X133738587Y-110804192D01*
X133474186Y-110899956D01*
X133333296Y-111189571D01*
X133251616Y-111501108D01*
X133232282Y-111822595D01*
X132009000Y-111822595D01*
X132009000Y-111598967D01*
X131946168Y-111283088D01*
X131822918Y-110985537D01*
X131643987Y-110717748D01*
X131550826Y-110624587D01*
X133918192Y-110624587D01*
X134874000Y-111580395D01*
X135829808Y-110624587D01*
X135734044Y-110360186D01*
X135444429Y-110219296D01*
X135132892Y-110137616D01*
X134811405Y-110118282D01*
X134492325Y-110162039D01*
X134187912Y-110267205D01*
X134013956Y-110360186D01*
X133918192Y-110624587D01*
X131550826Y-110624587D01*
X131416252Y-110490013D01*
X131148463Y-110311082D01*
X130850912Y-110187832D01*
X130535033Y-110125000D01*
X130212967Y-110125000D01*
X129897088Y-110187832D01*
X129882624Y-110193823D01*
X129014805Y-109326004D01*
X128991002Y-109297000D01*
X128875277Y-109202027D01*
X128743248Y-109131455D01*
X128599987Y-109087998D01*
X128488334Y-109077001D01*
X128488323Y-109077001D01*
X128451001Y-109073325D01*
X128413679Y-109077001D01*
X113148849Y-109077001D01*
X113174236Y-108993309D01*
X113184848Y-108885560D01*
X143770045Y-108885560D01*
X143831932Y-109121368D01*
X144073790Y-109234266D01*
X144333027Y-109297811D01*
X144599680Y-109309561D01*
X144863501Y-109269063D01*
X145114353Y-109177875D01*
X145220068Y-109121368D01*
X145281955Y-108885560D01*
X144526000Y-108129605D01*
X143770045Y-108885560D01*
X113184848Y-108885560D01*
X113201943Y-108712000D01*
X113198003Y-108672001D01*
X139446677Y-108672001D01*
X139483999Y-108675677D01*
X139521321Y-108672001D01*
X139521332Y-108672001D01*
X139632985Y-108661004D01*
X139776246Y-108617547D01*
X139908275Y-108546975D01*
X140024000Y-108452002D01*
X140047802Y-108422999D01*
X140447121Y-108023680D01*
X143166439Y-108023680D01*
X143206937Y-108287501D01*
X143298125Y-108538353D01*
X143354632Y-108644068D01*
X143590440Y-108705955D01*
X144346395Y-107950000D01*
X144705605Y-107950000D01*
X145461560Y-108705955D01*
X145697368Y-108644068D01*
X145810266Y-108402210D01*
X145873811Y-108142973D01*
X145885561Y-107876320D01*
X145845063Y-107612499D01*
X145753875Y-107361647D01*
X145697368Y-107255932D01*
X145461560Y-107194045D01*
X144705605Y-107950000D01*
X144346395Y-107950000D01*
X143590440Y-107194045D01*
X143354632Y-107255932D01*
X143241734Y-107497790D01*
X143178189Y-107757027D01*
X143166439Y-108023680D01*
X140447121Y-108023680D01*
X141456362Y-107014440D01*
X143770045Y-107014440D01*
X144526000Y-107770395D01*
X145281955Y-107014440D01*
X145220068Y-106778632D01*
X144978210Y-106665734D01*
X144718973Y-106602189D01*
X144452320Y-106590439D01*
X144188499Y-106630937D01*
X143937647Y-106722125D01*
X143831932Y-106778632D01*
X143770045Y-107014440D01*
X141456362Y-107014440D01*
X141730149Y-106740654D01*
X141852544Y-106765000D01*
X142119456Y-106765000D01*
X142381239Y-106712928D01*
X142627833Y-106610785D01*
X142849762Y-106462497D01*
X143038497Y-106273762D01*
X143186785Y-106051833D01*
X143288928Y-105805239D01*
X143341000Y-105543456D01*
X143341000Y-105276544D01*
X143288928Y-105014761D01*
X143186785Y-104768167D01*
X143038497Y-104546238D01*
X142849762Y-104357503D01*
X142627833Y-104209215D01*
X142381239Y-104107072D01*
X142119456Y-104055000D01*
X141852544Y-104055000D01*
X141590761Y-104107072D01*
X141344167Y-104209215D01*
X141122238Y-104357503D01*
X140933503Y-104546238D01*
X140785215Y-104768167D01*
X140683072Y-105014761D01*
X140631000Y-105276544D01*
X140631000Y-105543456D01*
X140655346Y-105665851D01*
X139169198Y-107152001D01*
X129888800Y-107152001D01*
X141730148Y-95310654D01*
X141852544Y-95335000D01*
X142119456Y-95335000D01*
X142381239Y-95282928D01*
X142627833Y-95180785D01*
X142721000Y-95118533D01*
X142720999Y-101787677D01*
X142717323Y-101824999D01*
X142720999Y-101862321D01*
X142720999Y-101862331D01*
X142731996Y-101973984D01*
X142770998Y-102102557D01*
X142775453Y-102117245D01*
X142846025Y-102249275D01*
X142885870Y-102297825D01*
X142940998Y-102365000D01*
X142970001Y-102388803D01*
X143195346Y-102614147D01*
X143171000Y-102736544D01*
X143171000Y-103003456D01*
X143223072Y-103265239D01*
X143325215Y-103511833D01*
X143473503Y-103733762D01*
X143662238Y-103922497D01*
X143884167Y-104070785D01*
X144130761Y-104172928D01*
X144392544Y-104225000D01*
X144659456Y-104225000D01*
X144921239Y-104172928D01*
X145167833Y-104070785D01*
X145389762Y-103922497D01*
X145578497Y-103733762D01*
X145726785Y-103511833D01*
X145828928Y-103265239D01*
X145881000Y-103003456D01*
X145881000Y-102736544D01*
X145828928Y-102474761D01*
X145726785Y-102228167D01*
X145578497Y-102006238D01*
X145389762Y-101817503D01*
X145167833Y-101669215D01*
X144921239Y-101567072D01*
X144659456Y-101515000D01*
X144392544Y-101515000D01*
X144270147Y-101539346D01*
X144240999Y-101510198D01*
X144240999Y-97845253D01*
X144333027Y-97867811D01*
X144599680Y-97879561D01*
X144863501Y-97839063D01*
X145114353Y-97747875D01*
X145220068Y-97691368D01*
X145281955Y-97455560D01*
X144526000Y-96699605D01*
X144511858Y-96713748D01*
X144332253Y-96534143D01*
X144346395Y-96520000D01*
X144705605Y-96520000D01*
X145461560Y-97275955D01*
X145697368Y-97214068D01*
X145810266Y-96972210D01*
X145873811Y-96712973D01*
X145885561Y-96446320D01*
X145845063Y-96182499D01*
X145753875Y-95931647D01*
X145697368Y-95825932D01*
X145461560Y-95764045D01*
X144705605Y-96520000D01*
X144346395Y-96520000D01*
X144332253Y-96505858D01*
X144511858Y-96326253D01*
X144526000Y-96340395D01*
X145281955Y-95584440D01*
X145220068Y-95348632D01*
X144978210Y-95235734D01*
X144718973Y-95172189D01*
X144452320Y-95160439D01*
X144240999Y-95192878D01*
X144240999Y-92799802D01*
X144270147Y-92770654D01*
X144392544Y-92795000D01*
X144659456Y-92795000D01*
X144921239Y-92742928D01*
X145167833Y-92640785D01*
X145389762Y-92492497D01*
X145578497Y-92303762D01*
X145726785Y-92081833D01*
X145828928Y-91835239D01*
X145881000Y-91573456D01*
X145881000Y-91306544D01*
X145828928Y-91044761D01*
X145726785Y-90798167D01*
X145578497Y-90576238D01*
X145389762Y-90387503D01*
X145167833Y-90239215D01*
X144921239Y-90137072D01*
X144659456Y-90085000D01*
X144392544Y-90085000D01*
X144270147Y-90109346D01*
X144240999Y-90080198D01*
X144240999Y-86669253D01*
X144333027Y-86691811D01*
X144599680Y-86703561D01*
X144863501Y-86663063D01*
X145114353Y-86571875D01*
X145220068Y-86515368D01*
X145281955Y-86279560D01*
X144526000Y-85523605D01*
X144511858Y-85537748D01*
X144332253Y-85358143D01*
X144346395Y-85344000D01*
X144705605Y-85344000D01*
X145461560Y-86099955D01*
X145697368Y-86038068D01*
X145810266Y-85796210D01*
X145873811Y-85536973D01*
X145885561Y-85270320D01*
X145845063Y-85006499D01*
X145753875Y-84755647D01*
X145697368Y-84649932D01*
X145461560Y-84588045D01*
X144705605Y-85344000D01*
X144346395Y-85344000D01*
X144332253Y-85329858D01*
X144511858Y-85150253D01*
X144526000Y-85164395D01*
X145281955Y-84408440D01*
X145220068Y-84172632D01*
X144978210Y-84059734D01*
X144718973Y-83996189D01*
X144452320Y-83984439D01*
X144240999Y-84016878D01*
X144240999Y-83170404D01*
X145037003Y-82374401D01*
X145066001Y-82350603D01*
X145160974Y-82234878D01*
X145231546Y-82102849D01*
X145275003Y-81959588D01*
X145286000Y-81847935D01*
X145289677Y-81810602D01*
X145286000Y-81773269D01*
X145286000Y-81385828D01*
X145389762Y-81316497D01*
X145578497Y-81127762D01*
X145726785Y-80905833D01*
X145828928Y-80659239D01*
X145881000Y-80397456D01*
X145881000Y-80130544D01*
X145828928Y-79868761D01*
X145726785Y-79622167D01*
X145578497Y-79400238D01*
X145389762Y-79211503D01*
X145167833Y-79063215D01*
X144921239Y-78961072D01*
X144659456Y-78909000D01*
X144392544Y-78909000D01*
X144130761Y-78961072D01*
X143884167Y-79063215D01*
X143662238Y-79211503D01*
X143473503Y-79400238D01*
X143404172Y-79504000D01*
X134367479Y-79504000D01*
X134367676Y-79502000D01*
X134364000Y-79464677D01*
X134364000Y-79464667D01*
X134353003Y-79353014D01*
X134309546Y-79209753D01*
X134285238Y-79164276D01*
X134238974Y-79077723D01*
X134167799Y-78990997D01*
X134144001Y-78961999D01*
X134115003Y-78938201D01*
X132049801Y-76873000D01*
X132150492Y-76873000D01*
X132361309Y-76852236D01*
X132631808Y-76770182D01*
X132881101Y-76636932D01*
X133099608Y-76457608D01*
X133278932Y-76239101D01*
X133300901Y-76198000D01*
X133399099Y-76198000D01*
X133421068Y-76239101D01*
X133600392Y-76457608D01*
X133818899Y-76636932D01*
X134068192Y-76770182D01*
X134338691Y-76852236D01*
X134549508Y-76873000D01*
X134690492Y-76873000D01*
X134901309Y-76852236D01*
X135171808Y-76770182D01*
X135421101Y-76636932D01*
X135639608Y-76457608D01*
X135818932Y-76239101D01*
X135952182Y-75989808D01*
X136034236Y-75719309D01*
X136061943Y-75438000D01*
X136034236Y-75156691D01*
X135952182Y-74886192D01*
X135818932Y-74636899D01*
X135639608Y-74418392D01*
X135421101Y-74239068D01*
X135171808Y-74105818D01*
X134901309Y-74023764D01*
X134690492Y-74003000D01*
X134549508Y-74003000D01*
X134338691Y-74023764D01*
X134068192Y-74105818D01*
X133818899Y-74239068D01*
X133600392Y-74418392D01*
X133421068Y-74636899D01*
X133399099Y-74678000D01*
X133300901Y-74678000D01*
X133278932Y-74636899D01*
X133099608Y-74418392D01*
X132881101Y-74239068D01*
X132631808Y-74105818D01*
X132361309Y-74023764D01*
X132150492Y-74003000D01*
X132009508Y-74003000D01*
X131798691Y-74023764D01*
X131528192Y-74105818D01*
X131278899Y-74239068D01*
X131060392Y-74418392D01*
X130881068Y-74636899D01*
X130810000Y-74769858D01*
X130738932Y-74636899D01*
X130559608Y-74418392D01*
X130341101Y-74239068D01*
X130091808Y-74105818D01*
X129821309Y-74023764D01*
X129610492Y-74003000D01*
X129469508Y-74003000D01*
X129258691Y-74023764D01*
X128988192Y-74105818D01*
X128738899Y-74239068D01*
X128520392Y-74418392D01*
X128341068Y-74636899D01*
X128270000Y-74769858D01*
X128198932Y-74636899D01*
X128019608Y-74418392D01*
X127801101Y-74239068D01*
X127551808Y-74105818D01*
X127281309Y-74023764D01*
X127070492Y-74003000D01*
X126969803Y-74003000D01*
X127511009Y-73461794D01*
X127540001Y-73438001D01*
X127563795Y-73409008D01*
X127563799Y-73409004D01*
X127626220Y-73332943D01*
X127634974Y-73322276D01*
X127705546Y-73190247D01*
X127749003Y-73046986D01*
X127760000Y-72935333D01*
X127760000Y-72935324D01*
X127763676Y-72898001D01*
X127760000Y-72860678D01*
X127760000Y-69038901D01*
X127801101Y-69016932D01*
X128019608Y-68837608D01*
X128198932Y-68619101D01*
X128270000Y-68486142D01*
X128341068Y-68619101D01*
X128520392Y-68837608D01*
X128738899Y-69016932D01*
X128988192Y-69150182D01*
X129258691Y-69232236D01*
X129469508Y-69253000D01*
X129610492Y-69253000D01*
X129821309Y-69232236D01*
X130091808Y-69150182D01*
X130341101Y-69016932D01*
X130559608Y-68837608D01*
X130738932Y-68619101D01*
X130810000Y-68486142D01*
X130881068Y-68619101D01*
X131060392Y-68837608D01*
X131278899Y-69016932D01*
X131528192Y-69150182D01*
X131798691Y-69232236D01*
X132009508Y-69253000D01*
X132150492Y-69253000D01*
X132361309Y-69232236D01*
X132631808Y-69150182D01*
X132881101Y-69016932D01*
X133099608Y-68837608D01*
X133192419Y-68724518D01*
X133194188Y-68742482D01*
X133230498Y-68862180D01*
X133289463Y-68972494D01*
X133368815Y-69069185D01*
X133465506Y-69148537D01*
X133575820Y-69207502D01*
X133695518Y-69243812D01*
X133820000Y-69256072D01*
X135420000Y-69256072D01*
X135544482Y-69243812D01*
X135664180Y-69207502D01*
X135774494Y-69148537D01*
X135871185Y-69069185D01*
X135950537Y-68972494D01*
X136009502Y-68862180D01*
X136045812Y-68742482D01*
X136058072Y-68618000D01*
X136058072Y-67018000D01*
X136045812Y-66893518D01*
X136009502Y-66773820D01*
X135950537Y-66663506D01*
X135871185Y-66566815D01*
X135774494Y-66487463D01*
X135664180Y-66428498D01*
X135544482Y-66392188D01*
X135420000Y-66379928D01*
X133820000Y-66379928D01*
X133695518Y-66392188D01*
X133575820Y-66428498D01*
X133465506Y-66487463D01*
X133368815Y-66566815D01*
X133289463Y-66663506D01*
X133230498Y-66773820D01*
X133194188Y-66893518D01*
X133192419Y-66911482D01*
X133099608Y-66798392D01*
X132881101Y-66619068D01*
X132631808Y-66485818D01*
X132361309Y-66403764D01*
X132150492Y-66383000D01*
X132009508Y-66383000D01*
X131798691Y-66403764D01*
X131528192Y-66485818D01*
X131278899Y-66619068D01*
X131060392Y-66798392D01*
X130881068Y-67016899D01*
X130810000Y-67149858D01*
X130738932Y-67016899D01*
X130559608Y-66798392D01*
X130341101Y-66619068D01*
X130300000Y-66597099D01*
X130300000Y-66331332D01*
X130303677Y-66294000D01*
X130300000Y-66256667D01*
X130300000Y-64018046D01*
X130936661Y-64224909D01*
X131058839Y-64251715D01*
X131183899Y-64254171D01*
X131307035Y-64232182D01*
X131423515Y-64186592D01*
X131528863Y-64119155D01*
X131619030Y-64032460D01*
X131690551Y-63929841D01*
X131740679Y-63815241D01*
X131926286Y-63244000D01*
X135067199Y-63244000D01*
X150668999Y-78845801D01*
G36*
X126182205Y-64011008D02*
G01*
X126205999Y-64040001D01*
X126234992Y-64063795D01*
X126234996Y-64063799D01*
X126302448Y-64119155D01*
X126321724Y-64134974D01*
X126453753Y-64205546D01*
X126597014Y-64249003D01*
X126708667Y-64260000D01*
X126708676Y-64260000D01*
X126745999Y-64263676D01*
X126783322Y-64260000D01*
X128780001Y-64260000D01*
X128780000Y-65534000D01*
X123481322Y-65534000D01*
X123443999Y-65530324D01*
X123406676Y-65534000D01*
X118401322Y-65534000D01*
X118363999Y-65530324D01*
X118326676Y-65534000D01*
X118326667Y-65534000D01*
X118215014Y-65544997D01*
X118071753Y-65588454D01*
X117939724Y-65659026D01*
X117939722Y-65659027D01*
X117939723Y-65659027D01*
X117852996Y-65730201D01*
X117852992Y-65730205D01*
X117823999Y-65753999D01*
X117800205Y-65782992D01*
X117165906Y-66417292D01*
X117121309Y-66403764D01*
X116910492Y-66383000D01*
X116769508Y-66383000D01*
X116558691Y-66403764D01*
X116288192Y-66485818D01*
X116038899Y-66619068D01*
X115820392Y-66798392D01*
X115641068Y-67016899D01*
X115507818Y-67266192D01*
X115425764Y-67536691D01*
X115398057Y-67818000D01*
X115425764Y-68099309D01*
X115439292Y-68143907D01*
X115203997Y-68379202D01*
X115174999Y-68403000D01*
X115151201Y-68431998D01*
X115151200Y-68431999D01*
X115080025Y-68518725D01*
X115009453Y-68650755D01*
X115002666Y-68673131D01*
X114965997Y-68794015D01*
X114955000Y-68905668D01*
X114951323Y-68943001D01*
X114955000Y-68980333D01*
X114954999Y-75940678D01*
X114951323Y-75978001D01*
X114954999Y-76015323D01*
X114954999Y-76015333D01*
X114965996Y-76126986D01*
X114988653Y-76201676D01*
X115009453Y-76270247D01*
X115080025Y-76402277D01*
X115091702Y-76416505D01*
X115174998Y-76518002D01*
X115204001Y-76541804D01*
X115736199Y-77074003D01*
X115759998Y-77103002D01*
X115788996Y-77126800D01*
X115875722Y-77197975D01*
X116007752Y-77268547D01*
X116151013Y-77312004D01*
X116262666Y-77323001D01*
X116262676Y-77323001D01*
X116299999Y-77326677D01*
X116337322Y-77323001D01*
X120757677Y-77323001D01*
X120794999Y-77326677D01*
X120832321Y-77323001D01*
X120832332Y-77323001D01*
X120943985Y-77312004D01*
X121087246Y-77268547D01*
X121219275Y-77197975D01*
X121335000Y-77103002D01*
X121358803Y-77073999D01*
X121594094Y-76838708D01*
X121638691Y-76852236D01*
X121849508Y-76873000D01*
X121990492Y-76873000D01*
X122201309Y-76852236D01*
X122471808Y-76770182D01*
X122721101Y-76636932D01*
X122939608Y-76457608D01*
X123118932Y-76239101D01*
X123190000Y-76106142D01*
X123261068Y-76239101D01*
X123440392Y-76457608D01*
X123658899Y-76636932D01*
X123908192Y-76770182D01*
X124178691Y-76852236D01*
X124389508Y-76873000D01*
X124530492Y-76873000D01*
X124741309Y-76852236D01*
X125011808Y-76770182D01*
X125261101Y-76636932D01*
X125479608Y-76457608D01*
X125658932Y-76239101D01*
X125730000Y-76106142D01*
X125801068Y-76239101D01*
X125980392Y-76457608D01*
X126198899Y-76636932D01*
X126448192Y-76770182D01*
X126718691Y-76852236D01*
X126929508Y-76873000D01*
X127070492Y-76873000D01*
X127281309Y-76852236D01*
X127551808Y-76770182D01*
X127801101Y-76636932D01*
X128019608Y-76457608D01*
X128198932Y-76239101D01*
X128270000Y-76106142D01*
X128341068Y-76239101D01*
X128520392Y-76457608D01*
X128738899Y-76636932D01*
X128988192Y-76770182D01*
X129258691Y-76852236D01*
X129469508Y-76873000D01*
X129610492Y-76873000D01*
X129821309Y-76852236D01*
X129865906Y-76838708D01*
X132844000Y-79816802D01*
X132844000Y-80226667D01*
X132840323Y-80264000D01*
X132844001Y-80301342D01*
X132844001Y-80369793D01*
X132830812Y-80376843D01*
X132619919Y-80549919D01*
X132446843Y-80760812D01*
X132439794Y-80774000D01*
X130378320Y-80774000D01*
X130340997Y-80770324D01*
X130303674Y-80774000D01*
X128097775Y-80774000D01*
X128036962Y-80682987D01*
X127851013Y-80497038D01*
X127632359Y-80350939D01*
X127389405Y-80250304D01*
X127131486Y-80199000D01*
X126868514Y-80199000D01*
X126610595Y-80250304D01*
X126367641Y-80350939D01*
X126148987Y-80497038D01*
X125963038Y-80682987D01*
X125816939Y-80901641D01*
X125716304Y-81144595D01*
X125665000Y-81402514D01*
X125665000Y-81665486D01*
X125716304Y-81923405D01*
X125816939Y-82166359D01*
X125963038Y-82385013D01*
X126148987Y-82570962D01*
X126367641Y-82717061D01*
X126610595Y-82817696D01*
X126868514Y-82869000D01*
X127131486Y-82869000D01*
X127389405Y-82817696D01*
X127632359Y-82717061D01*
X127851013Y-82570962D01*
X128036962Y-82385013D01*
X128097775Y-82294000D01*
X128506195Y-82294000D01*
X123695003Y-87105194D01*
X123665999Y-87128997D01*
X123620710Y-87184182D01*
X123571026Y-87244722D01*
X123500455Y-87376751D01*
X123500454Y-87376752D01*
X123456997Y-87520013D01*
X123446000Y-87631666D01*
X123446000Y-87631676D01*
X123442324Y-87668998D01*
X123446000Y-87706321D01*
X123446001Y-90355687D01*
X123227495Y-90501688D01*
X123013688Y-90715495D01*
X122867687Y-90934000D01*
X115376802Y-90934000D01*
X113160708Y-88717906D01*
X113174236Y-88673309D01*
X113201943Y-88392000D01*
X113174236Y-88110691D01*
X113092182Y-87840192D01*
X112958932Y-87590899D01*
X112779608Y-87372392D01*
X112561101Y-87193068D01*
X112428142Y-87122000D01*
X112561101Y-87050932D01*
X112779608Y-86871608D01*
X112958932Y-86653101D01*
X113092182Y-86403808D01*
X113156577Y-86191523D01*
X115416000Y-86191523D01*
X115416000Y-87036476D01*
X115432929Y-87208359D01*
X115499831Y-87428905D01*
X115608474Y-87632161D01*
X115754682Y-87810318D01*
X115932838Y-87956526D01*
X116136094Y-88065169D01*
X116356640Y-88132071D01*
X116586000Y-88154661D01*
X116815359Y-88132071D01*
X117035905Y-88065169D01*
X117221000Y-87966234D01*
X117406094Y-88065169D01*
X117626640Y-88132071D01*
X117856000Y-88154661D01*
X118085359Y-88132071D01*
X118305905Y-88065169D01*
X118493596Y-87964846D01*
X118581579Y-88022377D01*
X118818617Y-88107900D01*
X118999000Y-87982244D01*
X118999000Y-87241560D01*
X119009071Y-87208360D01*
X119026000Y-87036477D01*
X119026000Y-86191524D01*
X119009071Y-86019641D01*
X118999000Y-85986441D01*
X118999000Y-85714000D01*
X119222928Y-85714000D01*
X119222928Y-87514000D01*
X119235188Y-87638482D01*
X119253000Y-87697200D01*
X119253000Y-87982244D01*
X119433383Y-88107900D01*
X119547810Y-88066615D01*
X119616820Y-88103502D01*
X119736518Y-88139812D01*
X119861000Y-88152072D01*
X120931000Y-88152072D01*
X121055482Y-88139812D01*
X121175180Y-88103502D01*
X121285494Y-88044537D01*
X121382185Y-87965185D01*
X121461537Y-87868494D01*
X121520502Y-87758180D01*
X121556812Y-87638482D01*
X121569072Y-87514000D01*
X121569072Y-85714000D01*
X121556812Y-85589518D01*
X121520502Y-85469820D01*
X121461537Y-85359506D01*
X121382185Y-85262815D01*
X121285494Y-85183463D01*
X121175180Y-85124498D01*
X121055482Y-85088188D01*
X120931000Y-85075928D01*
X119861000Y-85075928D01*
X119736518Y-85088188D01*
X119616820Y-85124498D01*
X119547810Y-85161385D01*
X119433383Y-85120100D01*
X119253000Y-85245756D01*
X119253000Y-85530800D01*
X119235188Y-85589518D01*
X119222928Y-85714000D01*
X118999000Y-85714000D01*
X118999000Y-85245756D01*
X118818617Y-85120100D01*
X118581579Y-85205623D01*
X118493596Y-85263154D01*
X118305906Y-85162831D01*
X118085360Y-85095929D01*
X117856000Y-85073339D01*
X117626641Y-85095929D01*
X117406095Y-85162831D01*
X117221001Y-85261766D01*
X117035906Y-85162831D01*
X116815360Y-85095929D01*
X116586000Y-85073339D01*
X116356641Y-85095929D01*
X116136095Y-85162831D01*
X115932839Y-85271474D01*
X115754683Y-85417682D01*
X115608475Y-85595838D01*
X115499831Y-85799094D01*
X115432929Y-86019640D01*
X115416000Y-86191523D01*
X113156577Y-86191523D01*
X113174236Y-86133309D01*
X113201943Y-85852000D01*
X113174236Y-85570691D01*
X113092182Y-85300192D01*
X112958932Y-85050899D01*
X112779608Y-84832392D01*
X112561101Y-84653068D01*
X112423318Y-84579421D01*
X112615131Y-84464385D01*
X112823519Y-84275414D01*
X112991037Y-84049420D01*
X113111246Y-83795087D01*
X113151904Y-83661039D01*
X113029915Y-83439000D01*
X111887000Y-83439000D01*
X111887000Y-83459000D01*
X111633000Y-83459000D01*
X111633000Y-83439000D01*
X110490085Y-83439000D01*
X110368096Y-83661039D01*
X110408754Y-83795087D01*
X110528963Y-84049420D01*
X110696481Y-84275414D01*
X110904869Y-84464385D01*
X111096682Y-84579421D01*
X110958899Y-84653068D01*
X110740392Y-84832392D01*
X110561068Y-85050899D01*
X110427818Y-85300192D01*
X110345764Y-85570691D01*
X110318057Y-85852000D01*
X110345764Y-86133309D01*
X110427818Y-86403808D01*
X110561068Y-86653101D01*
X110740392Y-86871608D01*
X110958899Y-87050932D01*
X111091858Y-87122000D01*
X110958899Y-87193068D01*
X110740392Y-87372392D01*
X110561068Y-87590899D01*
X110427818Y-87840192D01*
X110345764Y-88110691D01*
X110318057Y-88392000D01*
X110345764Y-88673309D01*
X110427818Y-88943808D01*
X110561068Y-89193101D01*
X110740392Y-89411608D01*
X110958899Y-89590932D01*
X111091858Y-89662000D01*
X110958899Y-89733068D01*
X110740392Y-89912392D01*
X110561068Y-90130899D01*
X110427818Y-90380192D01*
X110345764Y-90650691D01*
X110318057Y-90932000D01*
X110345764Y-91213309D01*
X110371151Y-91297001D01*
X105579803Y-91297001D01*
X97920708Y-83637907D01*
X97934236Y-83593309D01*
X97961943Y-83312000D01*
X97934236Y-83030691D01*
X97852182Y-82760192D01*
X97718932Y-82510899D01*
X97539608Y-82292392D01*
X97426518Y-82199581D01*
X97444482Y-82197812D01*
X97564180Y-82161502D01*
X97674494Y-82102537D01*
X97771185Y-82023185D01*
X97850537Y-81926494D01*
X97909502Y-81816180D01*
X97945812Y-81696482D01*
X97958072Y-81572000D01*
X97958072Y-80772000D01*
X110318057Y-80772000D01*
X110345764Y-81053309D01*
X110427818Y-81323808D01*
X110561068Y-81573101D01*
X110740392Y-81791608D01*
X110958899Y-81970932D01*
X111096682Y-82044579D01*
X110904869Y-82159615D01*
X110696481Y-82348586D01*
X110528963Y-82574580D01*
X110408754Y-82828913D01*
X110368096Y-82962961D01*
X110490085Y-83185000D01*
X111633000Y-83185000D01*
X111633000Y-83165000D01*
X111887000Y-83165000D01*
X111887000Y-83185000D01*
X113029915Y-83185000D01*
X113151904Y-82962961D01*
X113111246Y-82828913D01*
X112991037Y-82574580D01*
X112823519Y-82348586D01*
X112615131Y-82159615D01*
X112423318Y-82044579D01*
X112561101Y-81970932D01*
X112779608Y-81791608D01*
X112958932Y-81573101D01*
X112979831Y-81534000D01*
X120578541Y-81534000D01*
X120604317Y-81795706D01*
X120680653Y-82047354D01*
X120804618Y-82279275D01*
X120971445Y-82482555D01*
X121174725Y-82649382D01*
X121406646Y-82773347D01*
X121658294Y-82849683D01*
X121854421Y-82869000D01*
X121985579Y-82869000D01*
X122181706Y-82849683D01*
X122433354Y-82773347D01*
X122665275Y-82649382D01*
X122868555Y-82482555D01*
X123035382Y-82279275D01*
X123159347Y-82047354D01*
X123235683Y-81795706D01*
X123261459Y-81534000D01*
X123235683Y-81272294D01*
X123159347Y-81020646D01*
X123035382Y-80788725D01*
X122868555Y-80585445D01*
X122665275Y-80418618D01*
X122433354Y-80294653D01*
X122181706Y-80218317D01*
X121985579Y-80199000D01*
X121854421Y-80199000D01*
X121658294Y-80218317D01*
X121406646Y-80294653D01*
X121174725Y-80418618D01*
X120971445Y-80585445D01*
X120804618Y-80788725D01*
X120680653Y-81020646D01*
X120604317Y-81272294D01*
X120578541Y-81534000D01*
X112979831Y-81534000D01*
X113092182Y-81323808D01*
X113174236Y-81053309D01*
X113201943Y-80772000D01*
X113174236Y-80490691D01*
X113092182Y-80220192D01*
X112958932Y-79970899D01*
X112779608Y-79752392D01*
X112561101Y-79573068D01*
X112311808Y-79439818D01*
X112041309Y-79357764D01*
X111830492Y-79337000D01*
X111689508Y-79337000D01*
X111478691Y-79357764D01*
X111208192Y-79439818D01*
X110958899Y-79573068D01*
X110740392Y-79752392D01*
X110561068Y-79970899D01*
X110427818Y-80220192D01*
X110345764Y-80490691D01*
X110318057Y-80772000D01*
X97958072Y-80772000D01*
X97958072Y-79972000D01*
X97945812Y-79847518D01*
X97909502Y-79727820D01*
X97850537Y-79617506D01*
X97771185Y-79520815D01*
X97674494Y-79441463D01*
X97564180Y-79382498D01*
X97444482Y-79346188D01*
X97320000Y-79333928D01*
X95720000Y-79333928D01*
X95595518Y-79346188D01*
X95475820Y-79382498D01*
X95365506Y-79441463D01*
X95268815Y-79520815D01*
X95189463Y-79617506D01*
X95130498Y-79727820D01*
X95094188Y-79847518D01*
X95081928Y-79972000D01*
X95081928Y-81572000D01*
X95094188Y-81696482D01*
X95130498Y-81816180D01*
X95189463Y-81926494D01*
X95268815Y-82023185D01*
X95365506Y-82102537D01*
X95475820Y-82161502D01*
X95595518Y-82197812D01*
X95613482Y-82199581D01*
X95500392Y-82292392D01*
X95321068Y-82510899D01*
X95187818Y-82760192D01*
X95105764Y-83030691D01*
X95078057Y-83312000D01*
X95105764Y-83593309D01*
X95187818Y-83863808D01*
X95321068Y-84113101D01*
X95500392Y-84331608D01*
X95718899Y-84510932D01*
X95851858Y-84582000D01*
X95718899Y-84653068D01*
X95500392Y-84832392D01*
X95321068Y-85050899D01*
X95187818Y-85300192D01*
X95105764Y-85570691D01*
X95078057Y-85852000D01*
X95105764Y-86133309D01*
X95187818Y-86403808D01*
X95321068Y-86653101D01*
X95500392Y-86871608D01*
X95718899Y-87050932D01*
X95856682Y-87124579D01*
X95664869Y-87239615D01*
X95456481Y-87428586D01*
X95288963Y-87654580D01*
X95168754Y-87908913D01*
X95128096Y-88042961D01*
X95250085Y-88265000D01*
X96393000Y-88265000D01*
X96393000Y-88245000D01*
X96647000Y-88245000D01*
X96647000Y-88265000D01*
X97789915Y-88265000D01*
X97911904Y-88042961D01*
X97871246Y-87908913D01*
X97751037Y-87654580D01*
X97583519Y-87428586D01*
X97375131Y-87239615D01*
X97183318Y-87124579D01*
X97321101Y-87050932D01*
X97539608Y-86871608D01*
X97718932Y-86653101D01*
X97852182Y-86403808D01*
X97934236Y-86133309D01*
X97961943Y-85852000D01*
X97959402Y-85826203D01*
X104701201Y-92568003D01*
X104725000Y-92597002D01*
X104753998Y-92620800D01*
X104840725Y-92691975D01*
X104972754Y-92762547D01*
X105116015Y-92806004D01*
X105265001Y-92820678D01*
X105302334Y-92817001D01*
X110482975Y-92817001D01*
X110427818Y-92920192D01*
X110345764Y-93190691D01*
X110318057Y-93472000D01*
X110345764Y-93753309D01*
X110427818Y-94023808D01*
X110561068Y-94273101D01*
X110740392Y-94491608D01*
X110958899Y-94670932D01*
X111091858Y-94742000D01*
X110958899Y-94813068D01*
X110740392Y-94992392D01*
X110561068Y-95210899D01*
X110427818Y-95460192D01*
X110345764Y-95730691D01*
X110318057Y-96012000D01*
X110345764Y-96293309D01*
X110427818Y-96563808D01*
X110561068Y-96813101D01*
X110740392Y-97031608D01*
X110958899Y-97210932D01*
X111005428Y-97235802D01*
X111009586Y-97278014D01*
X111010998Y-97292355D01*
X111019576Y-97320635D01*
X110958899Y-97353068D01*
X110740392Y-97532392D01*
X110561068Y-97750899D01*
X110427818Y-98000192D01*
X110345764Y-98270691D01*
X110318057Y-98552000D01*
X110345764Y-98833309D01*
X110427818Y-99103808D01*
X110561068Y-99353101D01*
X110740392Y-99571608D01*
X110958899Y-99750932D01*
X111091858Y-99822000D01*
X110958899Y-99893068D01*
X110740392Y-100072392D01*
X110561068Y-100290899D01*
X110427818Y-100540192D01*
X110345764Y-100810691D01*
X110318057Y-101092000D01*
X110345764Y-101373309D01*
X110427818Y-101643808D01*
X110561068Y-101893101D01*
X110740392Y-102111608D01*
X110958899Y-102290932D01*
X111091858Y-102362000D01*
X110958899Y-102433068D01*
X110740392Y-102612392D01*
X110561068Y-102830899D01*
X110427818Y-103080192D01*
X110345764Y-103350691D01*
X110318057Y-103632000D01*
X110345764Y-103913309D01*
X110427818Y-104183808D01*
X110561068Y-104433101D01*
X110740392Y-104651608D01*
X110958899Y-104830932D01*
X111091858Y-104902000D01*
X110958899Y-104973068D01*
X110740392Y-105152392D01*
X110561068Y-105370899D01*
X110427818Y-105620192D01*
X110345764Y-105890691D01*
X110318057Y-106172000D01*
X110345764Y-106453309D01*
X110427818Y-106723808D01*
X110561068Y-106973101D01*
X110740392Y-107191608D01*
X110958899Y-107370932D01*
X111091858Y-107442000D01*
X110958899Y-107513068D01*
X110740392Y-107692392D01*
X110561068Y-107910899D01*
X110427818Y-108160192D01*
X110345764Y-108430691D01*
X110318057Y-108712000D01*
X110345764Y-108993309D01*
X110371151Y-109077001D01*
X105579804Y-109077001D01*
X102925803Y-106423002D01*
X102925799Y-106422997D01*
X97920708Y-101417907D01*
X97934236Y-101373309D01*
X97961943Y-101092000D01*
X97934236Y-100810691D01*
X97852182Y-100540192D01*
X97718932Y-100290899D01*
X97539608Y-100072392D01*
X97321101Y-99893068D01*
X97188142Y-99822000D01*
X97321101Y-99750932D01*
X97539608Y-99571608D01*
X97718932Y-99353101D01*
X97852182Y-99103808D01*
X97934236Y-98833309D01*
X97961943Y-98552000D01*
X97934236Y-98270691D01*
X97852182Y-98000192D01*
X97718932Y-97750899D01*
X97539608Y-97532392D01*
X97321101Y-97353068D01*
X97188142Y-97282000D01*
X97321101Y-97210932D01*
X97539608Y-97031608D01*
X97718932Y-96813101D01*
X97852182Y-96563808D01*
X97934236Y-96293309D01*
X97961943Y-96012000D01*
X97934236Y-95730691D01*
X97852182Y-95460192D01*
X97718932Y-95210899D01*
X97539608Y-94992392D01*
X97321101Y-94813068D01*
X97188142Y-94742000D01*
X97321101Y-94670932D01*
X97539608Y-94491608D01*
X97718932Y-94273101D01*
X97852182Y-94023808D01*
X97934236Y-93753309D01*
X97961943Y-93472000D01*
X97934236Y-93190691D01*
X97852182Y-92920192D01*
X97718932Y-92670899D01*
X97539608Y-92452392D01*
X97321101Y-92273068D01*
X97188142Y-92202000D01*
X97321101Y-92130932D01*
X97539608Y-91951608D01*
X97718932Y-91733101D01*
X97852182Y-91483808D01*
X97934236Y-91213309D01*
X97961943Y-90932000D01*
X97934236Y-90650691D01*
X97852182Y-90380192D01*
X97718932Y-90130899D01*
X97539608Y-89912392D01*
X97321101Y-89733068D01*
X97183318Y-89659421D01*
X97375131Y-89544385D01*
X97583519Y-89355414D01*
X97751037Y-89129420D01*
X97871246Y-88875087D01*
X97911904Y-88741039D01*
X97789915Y-88519000D01*
X96647000Y-88519000D01*
X96647000Y-88539000D01*
X96393000Y-88539000D01*
X96393000Y-88519000D01*
X95250085Y-88519000D01*
X95128096Y-88741039D01*
X95168754Y-88875087D01*
X95288963Y-89129420D01*
X95456481Y-89355414D01*
X95664869Y-89544385D01*
X95856682Y-89659421D01*
X95718899Y-89733068D01*
X95500392Y-89912392D01*
X95321068Y-90130899D01*
X95187818Y-90380192D01*
X95105764Y-90650691D01*
X95078057Y-90932000D01*
X95105764Y-91213309D01*
X95187818Y-91483808D01*
X95321068Y-91733101D01*
X95500392Y-91951608D01*
X95718899Y-92130932D01*
X95851858Y-92202000D01*
X95718899Y-92273068D01*
X95500392Y-92452392D01*
X95321068Y-92670899D01*
X95187818Y-92920192D01*
X95105764Y-93190691D01*
X95078057Y-93472000D01*
X95105764Y-93753309D01*
X95187818Y-94023808D01*
X95321068Y-94273101D01*
X95500392Y-94491608D01*
X95718899Y-94670932D01*
X95851858Y-94742000D01*
X95718899Y-94813068D01*
X95500392Y-94992392D01*
X95321068Y-95210899D01*
X95187818Y-95460192D01*
X95105764Y-95730691D01*
X95078057Y-96012000D01*
X95105764Y-96293309D01*
X95187818Y-96563808D01*
X95321068Y-96813101D01*
X95500392Y-97031608D01*
X95718899Y-97210932D01*
X95851858Y-97282000D01*
X95718899Y-97353068D01*
X95500392Y-97532392D01*
X95321068Y-97750899D01*
X95187818Y-98000192D01*
X95105764Y-98270691D01*
X95078057Y-98552000D01*
X95105764Y-98833309D01*
X95187818Y-99103808D01*
X95321068Y-99353101D01*
X95500392Y-99571608D01*
X95718899Y-99750932D01*
X95851858Y-99822000D01*
X95718899Y-99893068D01*
X95500392Y-100072392D01*
X95321068Y-100290899D01*
X95187818Y-100540192D01*
X95105764Y-100810691D01*
X95078057Y-101092000D01*
X95105764Y-101373309D01*
X95187818Y-101643808D01*
X95321068Y-101893101D01*
X95500392Y-102111608D01*
X95718899Y-102290932D01*
X95851858Y-102362000D01*
X95718899Y-102433068D01*
X95500392Y-102612392D01*
X95321068Y-102830899D01*
X95187818Y-103080192D01*
X95105764Y-103350691D01*
X95078057Y-103632000D01*
X95105764Y-103913309D01*
X95187818Y-104183808D01*
X95321068Y-104433101D01*
X95500392Y-104651608D01*
X95718899Y-104830932D01*
X95851858Y-104902000D01*
X95718899Y-104973068D01*
X95500392Y-105152392D01*
X95321068Y-105370899D01*
X95187818Y-105620192D01*
X95105764Y-105890691D01*
X95078057Y-106172000D01*
X95105764Y-106453309D01*
X95187818Y-106723808D01*
X95321068Y-106973101D01*
X95500392Y-107191608D01*
X95718899Y-107370932D01*
X95851858Y-107442000D01*
X95718899Y-107513068D01*
X95500392Y-107692392D01*
X95321068Y-107910899D01*
X95187818Y-108160192D01*
X95105764Y-108430691D01*
X95078057Y-108712000D01*
X95105764Y-108993309D01*
X95187818Y-109263808D01*
X95321068Y-109513101D01*
X95500392Y-109731608D01*
X95718899Y-109910932D01*
X95851858Y-109982000D01*
X95718899Y-110053068D01*
X95500392Y-110232392D01*
X95321068Y-110450899D01*
X95187818Y-110700192D01*
X95105764Y-110970691D01*
X95078057Y-111252000D01*
X95105764Y-111533309D01*
X95187818Y-111803808D01*
X95321068Y-112053101D01*
X95500392Y-112271608D01*
X95718899Y-112450932D01*
X95851858Y-112522000D01*
X95718899Y-112593068D01*
X95500392Y-112772392D01*
X95321068Y-112990899D01*
X95187818Y-113240192D01*
X95105764Y-113510691D01*
X95078057Y-113792000D01*
X95105764Y-114073309D01*
X95187818Y-114343808D01*
X95321068Y-114593101D01*
X95500392Y-114811608D01*
X95718899Y-114990932D01*
X95851858Y-115062000D01*
X95718899Y-115133068D01*
X95500392Y-115312392D01*
X95321068Y-115530899D01*
X95187818Y-115780192D01*
X95105764Y-116050691D01*
X95078057Y-116332000D01*
X95105764Y-116613309D01*
X95187818Y-116883808D01*
X95290255Y-117075453D01*
X94187001Y-115972200D01*
X94187001Y-114549935D01*
X94190677Y-114512612D01*
X94187001Y-114475289D01*
X94187001Y-114475280D01*
X94176004Y-114363627D01*
X94132547Y-114220366D01*
X94130361Y-114216276D01*
X94061975Y-114088336D01*
X93990800Y-114001610D01*
X93967002Y-113972612D01*
X93938004Y-113948814D01*
X92485289Y-112496100D01*
X92461486Y-112467096D01*
X92345761Y-112372123D01*
X92213732Y-112301551D01*
X92070471Y-112258094D01*
X92065659Y-112257620D01*
X91424345Y-111374926D01*
X91341258Y-111281425D01*
X91241526Y-111205929D01*
X91128982Y-111151341D01*
X91007951Y-111119759D01*
X90883084Y-111112395D01*
X90759179Y-111129533D01*
X90640999Y-111170514D01*
X90533085Y-111233764D01*
X89076854Y-112291777D01*
X88983353Y-112374864D01*
X88907857Y-112474596D01*
X88853269Y-112587140D01*
X88821687Y-112708171D01*
X88814323Y-112833038D01*
X88831461Y-112956943D01*
X88872442Y-113075123D01*
X88935692Y-113183037D01*
X89748666Y-114302000D01*
X88683322Y-114302000D01*
X88646000Y-114298324D01*
X88608678Y-114302000D01*
X88452802Y-114302000D01*
X85148801Y-110998000D01*
X87690802Y-108456000D01*
X88032172Y-108456000D01*
X88101503Y-108559762D01*
X88290238Y-108748497D01*
X88512167Y-108896785D01*
X88758761Y-108998928D01*
X89020544Y-109051000D01*
X89287456Y-109051000D01*
X89549239Y-108998928D01*
X89795833Y-108896785D01*
X90017762Y-108748497D01*
X90206497Y-108559762D01*
X90354785Y-108337833D01*
X90456928Y-108091239D01*
X90509000Y-107829456D01*
X90509000Y-107562544D01*
X90456928Y-107300761D01*
X90354785Y-107054167D01*
X90206497Y-106832238D01*
X90017762Y-106643503D01*
X89795833Y-106495215D01*
X89549239Y-106393072D01*
X89287456Y-106341000D01*
X89020544Y-106341000D01*
X88758761Y-106393072D01*
X88512167Y-106495215D01*
X88290238Y-106643503D01*
X88101503Y-106832238D01*
X88032172Y-106936000D01*
X87413322Y-106936000D01*
X87375999Y-106932324D01*
X87338676Y-106936000D01*
X87338667Y-106936000D01*
X87227014Y-106946997D01*
X87083753Y-106990454D01*
X86951724Y-107061026D01*
X86835999Y-107155999D01*
X86812201Y-107184997D01*
X84834000Y-109163199D01*
X84834000Y-105022544D01*
X85259000Y-105022544D01*
X85259000Y-105289456D01*
X85311072Y-105551239D01*
X85413215Y-105797833D01*
X85561503Y-106019762D01*
X85750238Y-106208497D01*
X85972167Y-106356785D01*
X86218761Y-106458928D01*
X86480544Y-106511000D01*
X86747456Y-106511000D01*
X87009239Y-106458928D01*
X87255833Y-106356785D01*
X87477762Y-106208497D01*
X87666497Y-106019762D01*
X87814785Y-105797833D01*
X87916928Y-105551239D01*
X87969000Y-105289456D01*
X87969000Y-105022544D01*
X87916928Y-104760761D01*
X87814785Y-104514167D01*
X87666497Y-104292238D01*
X87477762Y-104103503D01*
X87374000Y-104034172D01*
X87374000Y-102482544D01*
X87799000Y-102482544D01*
X87799000Y-102749456D01*
X87851072Y-103011239D01*
X87953215Y-103257833D01*
X88101503Y-103479762D01*
X88290238Y-103668497D01*
X88512167Y-103816785D01*
X88758761Y-103918928D01*
X89020544Y-103971000D01*
X89287456Y-103971000D01*
X89549239Y-103918928D01*
X89795833Y-103816785D01*
X90017762Y-103668497D01*
X90206497Y-103479762D01*
X90354785Y-103257833D01*
X90456928Y-103011239D01*
X90509000Y-102749456D01*
X90509000Y-102482544D01*
X90456928Y-102220761D01*
X90354785Y-101974167D01*
X90206497Y-101752238D01*
X90017762Y-101563503D01*
X89795833Y-101415215D01*
X89549239Y-101313072D01*
X89287456Y-101261000D01*
X89020544Y-101261000D01*
X88758761Y-101313072D01*
X88512167Y-101415215D01*
X88290238Y-101563503D01*
X88101503Y-101752238D01*
X87953215Y-101974167D01*
X87851072Y-102220761D01*
X87799000Y-102482544D01*
X87374000Y-102482544D01*
X87374000Y-99147298D01*
X87562555Y-98992555D01*
X87729382Y-98789275D01*
X87853347Y-98557354D01*
X87929683Y-98305706D01*
X87955459Y-98044000D01*
X87942509Y-97912514D01*
X90359000Y-97912514D01*
X90359000Y-98175486D01*
X90410304Y-98433405D01*
X90510939Y-98676359D01*
X90657038Y-98895013D01*
X90842987Y-99080962D01*
X91061641Y-99227061D01*
X91304595Y-99327696D01*
X91562514Y-99379000D01*
X91825486Y-99379000D01*
X92083405Y-99327696D01*
X92326359Y-99227061D01*
X92545013Y-99080962D01*
X92730962Y-98895013D01*
X92877061Y-98676359D01*
X92977696Y-98433405D01*
X93029000Y-98175486D01*
X93029000Y-97912514D01*
X92977696Y-97654595D01*
X92877061Y-97411641D01*
X92730962Y-97192987D01*
X92545013Y-97007038D01*
X92326359Y-96860939D01*
X92083405Y-96760304D01*
X91825486Y-96709000D01*
X91562514Y-96709000D01*
X91304595Y-96760304D01*
X91061641Y-96860939D01*
X90842987Y-97007038D01*
X90657038Y-97192987D01*
X90510939Y-97411641D01*
X90410304Y-97654595D01*
X90359000Y-97912514D01*
X87942509Y-97912514D01*
X87929683Y-97782294D01*
X87853347Y-97530646D01*
X87729382Y-97298725D01*
X87562555Y-97095445D01*
X87359275Y-96928618D01*
X87127354Y-96804653D01*
X86875706Y-96728317D01*
X86679579Y-96709000D01*
X86548421Y-96709000D01*
X86352294Y-96728317D01*
X86100646Y-96804653D01*
X85868725Y-96928618D01*
X85665445Y-97095445D01*
X85498618Y-97298725D01*
X85374653Y-97530646D01*
X85298317Y-97782294D01*
X85272541Y-98044000D01*
X85298317Y-98305706D01*
X85374653Y-98557354D01*
X85498618Y-98789275D01*
X85665445Y-98992555D01*
X85854001Y-99147298D01*
X85854000Y-104034171D01*
X85750238Y-104103503D01*
X85561503Y-104292238D01*
X85413215Y-104514167D01*
X85311072Y-104760761D01*
X85259000Y-105022544D01*
X84834000Y-105022544D01*
X84834000Y-79054801D01*
X89069220Y-74819582D01*
X89072455Y-74830247D01*
X89143027Y-74962277D01*
X89194966Y-75025564D01*
X89143000Y-75286816D01*
X89143000Y-75589184D01*
X89201989Y-75885743D01*
X89317701Y-76165095D01*
X89485688Y-76416505D01*
X89699495Y-76630312D01*
X89950905Y-76798299D01*
X90230257Y-76914011D01*
X90526816Y-76973000D01*
X90829184Y-76973000D01*
X91125743Y-76914011D01*
X91405095Y-76798299D01*
X91656505Y-76630312D01*
X91870312Y-76416505D01*
X92038299Y-76165095D01*
X92154011Y-75885743D01*
X92213000Y-75589184D01*
X92213000Y-75286816D01*
X92206810Y-75255696D01*
X92221129Y-75260661D01*
X92345034Y-75277799D01*
X92469901Y-75270435D01*
X92590932Y-75238853D01*
X92703476Y-75184265D01*
X92803208Y-75108769D01*
X92886295Y-75015268D01*
X93944308Y-73559037D01*
X94007558Y-73451123D01*
X94048539Y-73332943D01*
X94065677Y-73209038D01*
X94058313Y-73084171D01*
X94026731Y-72963140D01*
X93972143Y-72850596D01*
X93896647Y-72750864D01*
X93803146Y-72667777D01*
X93190290Y-72222511D01*
X97444817Y-67967984D01*
X99235000Y-67967984D01*
X99235000Y-68684016D01*
X99374691Y-69386290D01*
X99648705Y-70047818D01*
X100046511Y-70643177D01*
X100552823Y-71149489D01*
X101148182Y-71547295D01*
X101809710Y-71821309D01*
X102511984Y-71961000D01*
X103228016Y-71961000D01*
X103930290Y-71821309D01*
X104591818Y-71547295D01*
X105187177Y-71149489D01*
X105693489Y-70643177D01*
X106091295Y-70047818D01*
X106365309Y-69386290D01*
X106505000Y-68684016D01*
X106505000Y-67967984D01*
X106365309Y-67265710D01*
X106091295Y-66604182D01*
X105693489Y-66008823D01*
X105187177Y-65502511D01*
X104591818Y-65104705D01*
X103930290Y-64830691D01*
X103228016Y-64691000D01*
X102511984Y-64691000D01*
X101809710Y-64830691D01*
X101148182Y-65104705D01*
X100552823Y-65502511D01*
X100046511Y-66008823D01*
X99648705Y-66604182D01*
X99374691Y-67265710D01*
X99235000Y-67967984D01*
X97444817Y-67967984D01*
X104708802Y-60704000D01*
X122875199Y-60704000D01*
X126182205Y-64011008D01*
X126182205Y-64011008D01*
G37*
X126182205Y-64011008D02*
X126205999Y-64040001D01*
X126234992Y-64063795D01*
X126234996Y-64063799D01*
X126302448Y-64119155D01*
X126321724Y-64134974D01*
X126453753Y-64205546D01*
X126597014Y-64249003D01*
X126708667Y-64260000D01*
X126708676Y-64260000D01*
X126745999Y-64263676D01*
X126783322Y-64260000D01*
X128780001Y-64260000D01*
X128780000Y-65534000D01*
X123481322Y-65534000D01*
X123443999Y-65530324D01*
X123406676Y-65534000D01*
X118401322Y-65534000D01*
X118363999Y-65530324D01*
X118326676Y-65534000D01*
X118326667Y-65534000D01*
X118215014Y-65544997D01*
X118071753Y-65588454D01*
X117939724Y-65659026D01*
X117939722Y-65659027D01*
X117939723Y-65659027D01*
X117852996Y-65730201D01*
X117852992Y-65730205D01*
X117823999Y-65753999D01*
X117800205Y-65782992D01*
X117165906Y-66417292D01*
X117121309Y-66403764D01*
X116910492Y-66383000D01*
X116769508Y-66383000D01*
X116558691Y-66403764D01*
X116288192Y-66485818D01*
X116038899Y-66619068D01*
X115820392Y-66798392D01*
X115641068Y-67016899D01*
X115507818Y-67266192D01*
X115425764Y-67536691D01*
X115398057Y-67818000D01*
X115425764Y-68099309D01*
X115439292Y-68143907D01*
X115203997Y-68379202D01*
X115174999Y-68403000D01*
X115151201Y-68431998D01*
X115151200Y-68431999D01*
X115080025Y-68518725D01*
X115009453Y-68650755D01*
X115002666Y-68673131D01*
X114965997Y-68794015D01*
X114955000Y-68905668D01*
X114951323Y-68943001D01*
X114955000Y-68980333D01*
X114954999Y-75940678D01*
X114951323Y-75978001D01*
X114954999Y-76015323D01*
X114954999Y-76015333D01*
X114965996Y-76126986D01*
X114988653Y-76201676D01*
X115009453Y-76270247D01*
X115080025Y-76402277D01*
X115091702Y-76416505D01*
X115174998Y-76518002D01*
X115204001Y-76541804D01*
X115736199Y-77074003D01*
X115759998Y-77103002D01*
X115788996Y-77126800D01*
X115875722Y-77197975D01*
X116007752Y-77268547D01*
X116151013Y-77312004D01*
X116262666Y-77323001D01*
X116262676Y-77323001D01*
X116299999Y-77326677D01*
X116337322Y-77323001D01*
X120757677Y-77323001D01*
X120794999Y-77326677D01*
X120832321Y-77323001D01*
X120832332Y-77323001D01*
X120943985Y-77312004D01*
X121087246Y-77268547D01*
X121219275Y-77197975D01*
X121335000Y-77103002D01*
X121358803Y-77073999D01*
X121594094Y-76838708D01*
X121638691Y-76852236D01*
X121849508Y-76873000D01*
X121990492Y-76873000D01*
X122201309Y-76852236D01*
X122471808Y-76770182D01*
X122721101Y-76636932D01*
X122939608Y-76457608D01*
X123118932Y-76239101D01*
X123190000Y-76106142D01*
X123261068Y-76239101D01*
X123440392Y-76457608D01*
X123658899Y-76636932D01*
X123908192Y-76770182D01*
X124178691Y-76852236D01*
X124389508Y-76873000D01*
X124530492Y-76873000D01*
X124741309Y-76852236D01*
X125011808Y-76770182D01*
X125261101Y-76636932D01*
X125479608Y-76457608D01*
X125658932Y-76239101D01*
X125730000Y-76106142D01*
X125801068Y-76239101D01*
X125980392Y-76457608D01*
X126198899Y-76636932D01*
X126448192Y-76770182D01*
X126718691Y-76852236D01*
X126929508Y-76873000D01*
X127070492Y-76873000D01*
X127281309Y-76852236D01*
X127551808Y-76770182D01*
X127801101Y-76636932D01*
X128019608Y-76457608D01*
X128198932Y-76239101D01*
X128270000Y-76106142D01*
X128341068Y-76239101D01*
X128520392Y-76457608D01*
X128738899Y-76636932D01*
X128988192Y-76770182D01*
X129258691Y-76852236D01*
X129469508Y-76873000D01*
X129610492Y-76873000D01*
X129821309Y-76852236D01*
X129865906Y-76838708D01*
X132844000Y-79816802D01*
X132844000Y-80226667D01*
X132840323Y-80264000D01*
X132844001Y-80301342D01*
X132844001Y-80369793D01*
X132830812Y-80376843D01*
X132619919Y-80549919D01*
X132446843Y-80760812D01*
X132439794Y-80774000D01*
X130378320Y-80774000D01*
X130340997Y-80770324D01*
X130303674Y-80774000D01*
X128097775Y-80774000D01*
X128036962Y-80682987D01*
X127851013Y-80497038D01*
X127632359Y-80350939D01*
X127389405Y-80250304D01*
X127131486Y-80199000D01*
X126868514Y-80199000D01*
X126610595Y-80250304D01*
X126367641Y-80350939D01*
X126148987Y-80497038D01*
X125963038Y-80682987D01*
X125816939Y-80901641D01*
X125716304Y-81144595D01*
X125665000Y-81402514D01*
X125665000Y-81665486D01*
X125716304Y-81923405D01*
X125816939Y-82166359D01*
X125963038Y-82385013D01*
X126148987Y-82570962D01*
X126367641Y-82717061D01*
X126610595Y-82817696D01*
X126868514Y-82869000D01*
X127131486Y-82869000D01*
X127389405Y-82817696D01*
X127632359Y-82717061D01*
X127851013Y-82570962D01*
X128036962Y-82385013D01*
X128097775Y-82294000D01*
X128506195Y-82294000D01*
X123695003Y-87105194D01*
X123665999Y-87128997D01*
X123620710Y-87184182D01*
X123571026Y-87244722D01*
X123500455Y-87376751D01*
X123500454Y-87376752D01*
X123456997Y-87520013D01*
X123446000Y-87631666D01*
X123446000Y-87631676D01*
X123442324Y-87668998D01*
X123446000Y-87706321D01*
X123446001Y-90355687D01*
X123227495Y-90501688D01*
X123013688Y-90715495D01*
X122867687Y-90934000D01*
X115376802Y-90934000D01*
X113160708Y-88717906D01*
X113174236Y-88673309D01*
X113201943Y-88392000D01*
X113174236Y-88110691D01*
X113092182Y-87840192D01*
X112958932Y-87590899D01*
X112779608Y-87372392D01*
X112561101Y-87193068D01*
X112428142Y-87122000D01*
X112561101Y-87050932D01*
X112779608Y-86871608D01*
X112958932Y-86653101D01*
X113092182Y-86403808D01*
X113156577Y-86191523D01*
X115416000Y-86191523D01*
X115416000Y-87036476D01*
X115432929Y-87208359D01*
X115499831Y-87428905D01*
X115608474Y-87632161D01*
X115754682Y-87810318D01*
X115932838Y-87956526D01*
X116136094Y-88065169D01*
X116356640Y-88132071D01*
X116586000Y-88154661D01*
X116815359Y-88132071D01*
X117035905Y-88065169D01*
X117221000Y-87966234D01*
X117406094Y-88065169D01*
X117626640Y-88132071D01*
X117856000Y-88154661D01*
X118085359Y-88132071D01*
X118305905Y-88065169D01*
X118493596Y-87964846D01*
X118581579Y-88022377D01*
X118818617Y-88107900D01*
X118999000Y-87982244D01*
X118999000Y-87241560D01*
X119009071Y-87208360D01*
X119026000Y-87036477D01*
X119026000Y-86191524D01*
X119009071Y-86019641D01*
X118999000Y-85986441D01*
X118999000Y-85714000D01*
X119222928Y-85714000D01*
X119222928Y-87514000D01*
X119235188Y-87638482D01*
X119253000Y-87697200D01*
X119253000Y-87982244D01*
X119433383Y-88107900D01*
X119547810Y-88066615D01*
X119616820Y-88103502D01*
X119736518Y-88139812D01*
X119861000Y-88152072D01*
X120931000Y-88152072D01*
X121055482Y-88139812D01*
X121175180Y-88103502D01*
X121285494Y-88044537D01*
X121382185Y-87965185D01*
X121461537Y-87868494D01*
X121520502Y-87758180D01*
X121556812Y-87638482D01*
X121569072Y-87514000D01*
X121569072Y-85714000D01*
X121556812Y-85589518D01*
X121520502Y-85469820D01*
X121461537Y-85359506D01*
X121382185Y-85262815D01*
X121285494Y-85183463D01*
X121175180Y-85124498D01*
X121055482Y-85088188D01*
X120931000Y-85075928D01*
X119861000Y-85075928D01*
X119736518Y-85088188D01*
X119616820Y-85124498D01*
X119547810Y-85161385D01*
X119433383Y-85120100D01*
X119253000Y-85245756D01*
X119253000Y-85530800D01*
X119235188Y-85589518D01*
X119222928Y-85714000D01*
X118999000Y-85714000D01*
X118999000Y-85245756D01*
X118818617Y-85120100D01*
X118581579Y-85205623D01*
X118493596Y-85263154D01*
X118305906Y-85162831D01*
X118085360Y-85095929D01*
X117856000Y-85073339D01*
X117626641Y-85095929D01*
X117406095Y-85162831D01*
X117221001Y-85261766D01*
X117035906Y-85162831D01*
X116815360Y-85095929D01*
X116586000Y-85073339D01*
X116356641Y-85095929D01*
X116136095Y-85162831D01*
X115932839Y-85271474D01*
X115754683Y-85417682D01*
X115608475Y-85595838D01*
X115499831Y-85799094D01*
X115432929Y-86019640D01*
X115416000Y-86191523D01*
X113156577Y-86191523D01*
X113174236Y-86133309D01*
X113201943Y-85852000D01*
X113174236Y-85570691D01*
X113092182Y-85300192D01*
X112958932Y-85050899D01*
X112779608Y-84832392D01*
X112561101Y-84653068D01*
X112423318Y-84579421D01*
X112615131Y-84464385D01*
X112823519Y-84275414D01*
X112991037Y-84049420D01*
X113111246Y-83795087D01*
X113151904Y-83661039D01*
X113029915Y-83439000D01*
X111887000Y-83439000D01*
X111887000Y-83459000D01*
X111633000Y-83459000D01*
X111633000Y-83439000D01*
X110490085Y-83439000D01*
X110368096Y-83661039D01*
X110408754Y-83795087D01*
X110528963Y-84049420D01*
X110696481Y-84275414D01*
X110904869Y-84464385D01*
X111096682Y-84579421D01*
X110958899Y-84653068D01*
X110740392Y-84832392D01*
X110561068Y-85050899D01*
X110427818Y-85300192D01*
X110345764Y-85570691D01*
X110318057Y-85852000D01*
X110345764Y-86133309D01*
X110427818Y-86403808D01*
X110561068Y-86653101D01*
X110740392Y-86871608D01*
X110958899Y-87050932D01*
X111091858Y-87122000D01*
X110958899Y-87193068D01*
X110740392Y-87372392D01*
X110561068Y-87590899D01*
X110427818Y-87840192D01*
X110345764Y-88110691D01*
X110318057Y-88392000D01*
X110345764Y-88673309D01*
X110427818Y-88943808D01*
X110561068Y-89193101D01*
X110740392Y-89411608D01*
X110958899Y-89590932D01*
X111091858Y-89662000D01*
X110958899Y-89733068D01*
X110740392Y-89912392D01*
X110561068Y-90130899D01*
X110427818Y-90380192D01*
X110345764Y-90650691D01*
X110318057Y-90932000D01*
X110345764Y-91213309D01*
X110371151Y-91297001D01*
X105579803Y-91297001D01*
X97920708Y-83637907D01*
X97934236Y-83593309D01*
X97961943Y-83312000D01*
X97934236Y-83030691D01*
X97852182Y-82760192D01*
X97718932Y-82510899D01*
X97539608Y-82292392D01*
X97426518Y-82199581D01*
X97444482Y-82197812D01*
X97564180Y-82161502D01*
X97674494Y-82102537D01*
X97771185Y-82023185D01*
X97850537Y-81926494D01*
X97909502Y-81816180D01*
X97945812Y-81696482D01*
X97958072Y-81572000D01*
X97958072Y-80772000D01*
X110318057Y-80772000D01*
X110345764Y-81053309D01*
X110427818Y-81323808D01*
X110561068Y-81573101D01*
X110740392Y-81791608D01*
X110958899Y-81970932D01*
X111096682Y-82044579D01*
X110904869Y-82159615D01*
X110696481Y-82348586D01*
X110528963Y-82574580D01*
X110408754Y-82828913D01*
X110368096Y-82962961D01*
X110490085Y-83185000D01*
X111633000Y-83185000D01*
X111633000Y-83165000D01*
X111887000Y-83165000D01*
X111887000Y-83185000D01*
X113029915Y-83185000D01*
X113151904Y-82962961D01*
X113111246Y-82828913D01*
X112991037Y-82574580D01*
X112823519Y-82348586D01*
X112615131Y-82159615D01*
X112423318Y-82044579D01*
X112561101Y-81970932D01*
X112779608Y-81791608D01*
X112958932Y-81573101D01*
X112979831Y-81534000D01*
X120578541Y-81534000D01*
X120604317Y-81795706D01*
X120680653Y-82047354D01*
X120804618Y-82279275D01*
X120971445Y-82482555D01*
X121174725Y-82649382D01*
X121406646Y-82773347D01*
X121658294Y-82849683D01*
X121854421Y-82869000D01*
X121985579Y-82869000D01*
X122181706Y-82849683D01*
X122433354Y-82773347D01*
X122665275Y-82649382D01*
X122868555Y-82482555D01*
X123035382Y-82279275D01*
X123159347Y-82047354D01*
X123235683Y-81795706D01*
X123261459Y-81534000D01*
X123235683Y-81272294D01*
X123159347Y-81020646D01*
X123035382Y-80788725D01*
X122868555Y-80585445D01*
X122665275Y-80418618D01*
X122433354Y-80294653D01*
X122181706Y-80218317D01*
X121985579Y-80199000D01*
X121854421Y-80199000D01*
X121658294Y-80218317D01*
X121406646Y-80294653D01*
X121174725Y-80418618D01*
X120971445Y-80585445D01*
X120804618Y-80788725D01*
X120680653Y-81020646D01*
X120604317Y-81272294D01*
X120578541Y-81534000D01*
X112979831Y-81534000D01*
X113092182Y-81323808D01*
X113174236Y-81053309D01*
X113201943Y-80772000D01*
X113174236Y-80490691D01*
X113092182Y-80220192D01*
X112958932Y-79970899D01*
X112779608Y-79752392D01*
X112561101Y-79573068D01*
X112311808Y-79439818D01*
X112041309Y-79357764D01*
X111830492Y-79337000D01*
X111689508Y-79337000D01*
X111478691Y-79357764D01*
X111208192Y-79439818D01*
X110958899Y-79573068D01*
X110740392Y-79752392D01*
X110561068Y-79970899D01*
X110427818Y-80220192D01*
X110345764Y-80490691D01*
X110318057Y-80772000D01*
X97958072Y-80772000D01*
X97958072Y-79972000D01*
X97945812Y-79847518D01*
X97909502Y-79727820D01*
X97850537Y-79617506D01*
X97771185Y-79520815D01*
X97674494Y-79441463D01*
X97564180Y-79382498D01*
X97444482Y-79346188D01*
X97320000Y-79333928D01*
X95720000Y-79333928D01*
X95595518Y-79346188D01*
X95475820Y-79382498D01*
X95365506Y-79441463D01*
X95268815Y-79520815D01*
X95189463Y-79617506D01*
X95130498Y-79727820D01*
X95094188Y-79847518D01*
X95081928Y-79972000D01*
X95081928Y-81572000D01*
X95094188Y-81696482D01*
X95130498Y-81816180D01*
X95189463Y-81926494D01*
X95268815Y-82023185D01*
X95365506Y-82102537D01*
X95475820Y-82161502D01*
X95595518Y-82197812D01*
X95613482Y-82199581D01*
X95500392Y-82292392D01*
X95321068Y-82510899D01*
X95187818Y-82760192D01*
X95105764Y-83030691D01*
X95078057Y-83312000D01*
X95105764Y-83593309D01*
X95187818Y-83863808D01*
X95321068Y-84113101D01*
X95500392Y-84331608D01*
X95718899Y-84510932D01*
X95851858Y-84582000D01*
X95718899Y-84653068D01*
X95500392Y-84832392D01*
X95321068Y-85050899D01*
X95187818Y-85300192D01*
X95105764Y-85570691D01*
X95078057Y-85852000D01*
X95105764Y-86133309D01*
X95187818Y-86403808D01*
X95321068Y-86653101D01*
X95500392Y-86871608D01*
X95718899Y-87050932D01*
X95856682Y-87124579D01*
X95664869Y-87239615D01*
X95456481Y-87428586D01*
X95288963Y-87654580D01*
X95168754Y-87908913D01*
X95128096Y-88042961D01*
X95250085Y-88265000D01*
X96393000Y-88265000D01*
X96393000Y-88245000D01*
X96647000Y-88245000D01*
X96647000Y-88265000D01*
X97789915Y-88265000D01*
X97911904Y-88042961D01*
X97871246Y-87908913D01*
X97751037Y-87654580D01*
X97583519Y-87428586D01*
X97375131Y-87239615D01*
X97183318Y-87124579D01*
X97321101Y-87050932D01*
X97539608Y-86871608D01*
X97718932Y-86653101D01*
X97852182Y-86403808D01*
X97934236Y-86133309D01*
X97961943Y-85852000D01*
X97959402Y-85826203D01*
X104701201Y-92568003D01*
X104725000Y-92597002D01*
X104753998Y-92620800D01*
X104840725Y-92691975D01*
X104972754Y-92762547D01*
X105116015Y-92806004D01*
X105265001Y-92820678D01*
X105302334Y-92817001D01*
X110482975Y-92817001D01*
X110427818Y-92920192D01*
X110345764Y-93190691D01*
X110318057Y-93472000D01*
X110345764Y-93753309D01*
X110427818Y-94023808D01*
X110561068Y-94273101D01*
X110740392Y-94491608D01*
X110958899Y-94670932D01*
X111091858Y-94742000D01*
X110958899Y-94813068D01*
X110740392Y-94992392D01*
X110561068Y-95210899D01*
X110427818Y-95460192D01*
X110345764Y-95730691D01*
X110318057Y-96012000D01*
X110345764Y-96293309D01*
X110427818Y-96563808D01*
X110561068Y-96813101D01*
X110740392Y-97031608D01*
X110958899Y-97210932D01*
X111005428Y-97235802D01*
X111009586Y-97278014D01*
X111010998Y-97292355D01*
X111019576Y-97320635D01*
X110958899Y-97353068D01*
X110740392Y-97532392D01*
X110561068Y-97750899D01*
X110427818Y-98000192D01*
X110345764Y-98270691D01*
X110318057Y-98552000D01*
X110345764Y-98833309D01*
X110427818Y-99103808D01*
X110561068Y-99353101D01*
X110740392Y-99571608D01*
X110958899Y-99750932D01*
X111091858Y-99822000D01*
X110958899Y-99893068D01*
X110740392Y-100072392D01*
X110561068Y-100290899D01*
X110427818Y-100540192D01*
X110345764Y-100810691D01*
X110318057Y-101092000D01*
X110345764Y-101373309D01*
X110427818Y-101643808D01*
X110561068Y-101893101D01*
X110740392Y-102111608D01*
X110958899Y-102290932D01*
X111091858Y-102362000D01*
X110958899Y-102433068D01*
X110740392Y-102612392D01*
X110561068Y-102830899D01*
X110427818Y-103080192D01*
X110345764Y-103350691D01*
X110318057Y-103632000D01*
X110345764Y-103913309D01*
X110427818Y-104183808D01*
X110561068Y-104433101D01*
X110740392Y-104651608D01*
X110958899Y-104830932D01*
X111091858Y-104902000D01*
X110958899Y-104973068D01*
X110740392Y-105152392D01*
X110561068Y-105370899D01*
X110427818Y-105620192D01*
X110345764Y-105890691D01*
X110318057Y-106172000D01*
X110345764Y-106453309D01*
X110427818Y-106723808D01*
X110561068Y-106973101D01*
X110740392Y-107191608D01*
X110958899Y-107370932D01*
X111091858Y-107442000D01*
X110958899Y-107513068D01*
X110740392Y-107692392D01*
X110561068Y-107910899D01*
X110427818Y-108160192D01*
X110345764Y-108430691D01*
X110318057Y-108712000D01*
X110345764Y-108993309D01*
X110371151Y-109077001D01*
X105579804Y-109077001D01*
X102925803Y-106423002D01*
X102925799Y-106422997D01*
X97920708Y-101417907D01*
X97934236Y-101373309D01*
X97961943Y-101092000D01*
X97934236Y-100810691D01*
X97852182Y-100540192D01*
X97718932Y-100290899D01*
X97539608Y-100072392D01*
X97321101Y-99893068D01*
X97188142Y-99822000D01*
X97321101Y-99750932D01*
X97539608Y-99571608D01*
X97718932Y-99353101D01*
X97852182Y-99103808D01*
X97934236Y-98833309D01*
X97961943Y-98552000D01*
X97934236Y-98270691D01*
X97852182Y-98000192D01*
X97718932Y-97750899D01*
X97539608Y-97532392D01*
X97321101Y-97353068D01*
X97188142Y-97282000D01*
X97321101Y-97210932D01*
X97539608Y-97031608D01*
X97718932Y-96813101D01*
X97852182Y-96563808D01*
X97934236Y-96293309D01*
X97961943Y-96012000D01*
X97934236Y-95730691D01*
X97852182Y-95460192D01*
X97718932Y-95210899D01*
X97539608Y-94992392D01*
X97321101Y-94813068D01*
X97188142Y-94742000D01*
X97321101Y-94670932D01*
X97539608Y-94491608D01*
X97718932Y-94273101D01*
X97852182Y-94023808D01*
X97934236Y-93753309D01*
X97961943Y-93472000D01*
X97934236Y-93190691D01*
X97852182Y-92920192D01*
X97718932Y-92670899D01*
X97539608Y-92452392D01*
X97321101Y-92273068D01*
X97188142Y-92202000D01*
X97321101Y-92130932D01*
X97539608Y-91951608D01*
X97718932Y-91733101D01*
X97852182Y-91483808D01*
X97934236Y-91213309D01*
X97961943Y-90932000D01*
X97934236Y-90650691D01*
X97852182Y-90380192D01*
X97718932Y-90130899D01*
X97539608Y-89912392D01*
X97321101Y-89733068D01*
X97183318Y-89659421D01*
X97375131Y-89544385D01*
X97583519Y-89355414D01*
X97751037Y-89129420D01*
X97871246Y-88875087D01*
X97911904Y-88741039D01*
X97789915Y-88519000D01*
X96647000Y-88519000D01*
X96647000Y-88539000D01*
X96393000Y-88539000D01*
X96393000Y-88519000D01*
X95250085Y-88519000D01*
X95128096Y-88741039D01*
X95168754Y-88875087D01*
X95288963Y-89129420D01*
X95456481Y-89355414D01*
X95664869Y-89544385D01*
X95856682Y-89659421D01*
X95718899Y-89733068D01*
X95500392Y-89912392D01*
X95321068Y-90130899D01*
X95187818Y-90380192D01*
X95105764Y-90650691D01*
X95078057Y-90932000D01*
X95105764Y-91213309D01*
X95187818Y-91483808D01*
X95321068Y-91733101D01*
X95500392Y-91951608D01*
X95718899Y-92130932D01*
X95851858Y-92202000D01*
X95718899Y-92273068D01*
X95500392Y-92452392D01*
X95321068Y-92670899D01*
X95187818Y-92920192D01*
X95105764Y-93190691D01*
X95078057Y-93472000D01*
X95105764Y-93753309D01*
X95187818Y-94023808D01*
X95321068Y-94273101D01*
X95500392Y-94491608D01*
X95718899Y-94670932D01*
X95851858Y-94742000D01*
X95718899Y-94813068D01*
X95500392Y-94992392D01*
X95321068Y-95210899D01*
X95187818Y-95460192D01*
X95105764Y-95730691D01*
X95078057Y-96012000D01*
X95105764Y-96293309D01*
X95187818Y-96563808D01*
X95321068Y-96813101D01*
X95500392Y-97031608D01*
X95718899Y-97210932D01*
X95851858Y-97282000D01*
X95718899Y-97353068D01*
X95500392Y-97532392D01*
X95321068Y-97750899D01*
X95187818Y-98000192D01*
X95105764Y-98270691D01*
X95078057Y-98552000D01*
X95105764Y-98833309D01*
X95187818Y-99103808D01*
X95321068Y-99353101D01*
X95500392Y-99571608D01*
X95718899Y-99750932D01*
X95851858Y-99822000D01*
X95718899Y-99893068D01*
X95500392Y-100072392D01*
X95321068Y-100290899D01*
X95187818Y-100540192D01*
X95105764Y-100810691D01*
X95078057Y-101092000D01*
X95105764Y-101373309D01*
X95187818Y-101643808D01*
X95321068Y-101893101D01*
X95500392Y-102111608D01*
X95718899Y-102290932D01*
X95851858Y-102362000D01*
X95718899Y-102433068D01*
X95500392Y-102612392D01*
X95321068Y-102830899D01*
X95187818Y-103080192D01*
X95105764Y-103350691D01*
X95078057Y-103632000D01*
X95105764Y-103913309D01*
X95187818Y-104183808D01*
X95321068Y-104433101D01*
X95500392Y-104651608D01*
X95718899Y-104830932D01*
X95851858Y-104902000D01*
X95718899Y-104973068D01*
X95500392Y-105152392D01*
X95321068Y-105370899D01*
X95187818Y-105620192D01*
X95105764Y-105890691D01*
X95078057Y-106172000D01*
X95105764Y-106453309D01*
X95187818Y-106723808D01*
X95321068Y-106973101D01*
X95500392Y-107191608D01*
X95718899Y-107370932D01*
X95851858Y-107442000D01*
X95718899Y-107513068D01*
X95500392Y-107692392D01*
X95321068Y-107910899D01*
X95187818Y-108160192D01*
X95105764Y-108430691D01*
X95078057Y-108712000D01*
X95105764Y-108993309D01*
X95187818Y-109263808D01*
X95321068Y-109513101D01*
X95500392Y-109731608D01*
X95718899Y-109910932D01*
X95851858Y-109982000D01*
X95718899Y-110053068D01*
X95500392Y-110232392D01*
X95321068Y-110450899D01*
X95187818Y-110700192D01*
X95105764Y-110970691D01*
X95078057Y-111252000D01*
X95105764Y-111533309D01*
X95187818Y-111803808D01*
X95321068Y-112053101D01*
X95500392Y-112271608D01*
X95718899Y-112450932D01*
X95851858Y-112522000D01*
X95718899Y-112593068D01*
X95500392Y-112772392D01*
X95321068Y-112990899D01*
X95187818Y-113240192D01*
X95105764Y-113510691D01*
X95078057Y-113792000D01*
X95105764Y-114073309D01*
X95187818Y-114343808D01*
X95321068Y-114593101D01*
X95500392Y-114811608D01*
X95718899Y-114990932D01*
X95851858Y-115062000D01*
X95718899Y-115133068D01*
X95500392Y-115312392D01*
X95321068Y-115530899D01*
X95187818Y-115780192D01*
X95105764Y-116050691D01*
X95078057Y-116332000D01*
X95105764Y-116613309D01*
X95187818Y-116883808D01*
X95290255Y-117075453D01*
X94187001Y-115972200D01*
X94187001Y-114549935D01*
X94190677Y-114512612D01*
X94187001Y-114475289D01*
X94187001Y-114475280D01*
X94176004Y-114363627D01*
X94132547Y-114220366D01*
X94130361Y-114216276D01*
X94061975Y-114088336D01*
X93990800Y-114001610D01*
X93967002Y-113972612D01*
X93938004Y-113948814D01*
X92485289Y-112496100D01*
X92461486Y-112467096D01*
X92345761Y-112372123D01*
X92213732Y-112301551D01*
X92070471Y-112258094D01*
X92065659Y-112257620D01*
X91424345Y-111374926D01*
X91341258Y-111281425D01*
X91241526Y-111205929D01*
X91128982Y-111151341D01*
X91007951Y-111119759D01*
X90883084Y-111112395D01*
X90759179Y-111129533D01*
X90640999Y-111170514D01*
X90533085Y-111233764D01*
X89076854Y-112291777D01*
X88983353Y-112374864D01*
X88907857Y-112474596D01*
X88853269Y-112587140D01*
X88821687Y-112708171D01*
X88814323Y-112833038D01*
X88831461Y-112956943D01*
X88872442Y-113075123D01*
X88935692Y-113183037D01*
X89748666Y-114302000D01*
X88683322Y-114302000D01*
X88646000Y-114298324D01*
X88608678Y-114302000D01*
X88452802Y-114302000D01*
X85148801Y-110998000D01*
X87690802Y-108456000D01*
X88032172Y-108456000D01*
X88101503Y-108559762D01*
X88290238Y-108748497D01*
X88512167Y-108896785D01*
X88758761Y-108998928D01*
X89020544Y-109051000D01*
X89287456Y-109051000D01*
X89549239Y-108998928D01*
X89795833Y-108896785D01*
X90017762Y-108748497D01*
X90206497Y-108559762D01*
X90354785Y-108337833D01*
X90456928Y-108091239D01*
X90509000Y-107829456D01*
X90509000Y-107562544D01*
X90456928Y-107300761D01*
X90354785Y-107054167D01*
X90206497Y-106832238D01*
X90017762Y-106643503D01*
X89795833Y-106495215D01*
X89549239Y-106393072D01*
X89287456Y-106341000D01*
X89020544Y-106341000D01*
X88758761Y-106393072D01*
X88512167Y-106495215D01*
X88290238Y-106643503D01*
X88101503Y-106832238D01*
X88032172Y-106936000D01*
X87413322Y-106936000D01*
X87375999Y-106932324D01*
X87338676Y-106936000D01*
X87338667Y-106936000D01*
X87227014Y-106946997D01*
X87083753Y-106990454D01*
X86951724Y-107061026D01*
X86835999Y-107155999D01*
X86812201Y-107184997D01*
X84834000Y-109163199D01*
X84834000Y-105022544D01*
X85259000Y-105022544D01*
X85259000Y-105289456D01*
X85311072Y-105551239D01*
X85413215Y-105797833D01*
X85561503Y-106019762D01*
X85750238Y-106208497D01*
X85972167Y-106356785D01*
X86218761Y-106458928D01*
X86480544Y-106511000D01*
X86747456Y-106511000D01*
X87009239Y-106458928D01*
X87255833Y-106356785D01*
X87477762Y-106208497D01*
X87666497Y-106019762D01*
X87814785Y-105797833D01*
X87916928Y-105551239D01*
X87969000Y-105289456D01*
X87969000Y-105022544D01*
X87916928Y-104760761D01*
X87814785Y-104514167D01*
X87666497Y-104292238D01*
X87477762Y-104103503D01*
X87374000Y-104034172D01*
X87374000Y-102482544D01*
X87799000Y-102482544D01*
X87799000Y-102749456D01*
X87851072Y-103011239D01*
X87953215Y-103257833D01*
X88101503Y-103479762D01*
X88290238Y-103668497D01*
X88512167Y-103816785D01*
X88758761Y-103918928D01*
X89020544Y-103971000D01*
X89287456Y-103971000D01*
X89549239Y-103918928D01*
X89795833Y-103816785D01*
X90017762Y-103668497D01*
X90206497Y-103479762D01*
X90354785Y-103257833D01*
X90456928Y-103011239D01*
X90509000Y-102749456D01*
X90509000Y-102482544D01*
X90456928Y-102220761D01*
X90354785Y-101974167D01*
X90206497Y-101752238D01*
X90017762Y-101563503D01*
X89795833Y-101415215D01*
X89549239Y-101313072D01*
X89287456Y-101261000D01*
X89020544Y-101261000D01*
X88758761Y-101313072D01*
X88512167Y-101415215D01*
X88290238Y-101563503D01*
X88101503Y-101752238D01*
X87953215Y-101974167D01*
X87851072Y-102220761D01*
X87799000Y-102482544D01*
X87374000Y-102482544D01*
X87374000Y-99147298D01*
X87562555Y-98992555D01*
X87729382Y-98789275D01*
X87853347Y-98557354D01*
X87929683Y-98305706D01*
X87955459Y-98044000D01*
X87942509Y-97912514D01*
X90359000Y-97912514D01*
X90359000Y-98175486D01*
X90410304Y-98433405D01*
X90510939Y-98676359D01*
X90657038Y-98895013D01*
X90842987Y-99080962D01*
X91061641Y-99227061D01*
X91304595Y-99327696D01*
X91562514Y-99379000D01*
X91825486Y-99379000D01*
X92083405Y-99327696D01*
X92326359Y-99227061D01*
X92545013Y-99080962D01*
X92730962Y-98895013D01*
X92877061Y-98676359D01*
X92977696Y-98433405D01*
X93029000Y-98175486D01*
X93029000Y-97912514D01*
X92977696Y-97654595D01*
X92877061Y-97411641D01*
X92730962Y-97192987D01*
X92545013Y-97007038D01*
X92326359Y-96860939D01*
X92083405Y-96760304D01*
X91825486Y-96709000D01*
X91562514Y-96709000D01*
X91304595Y-96760304D01*
X91061641Y-96860939D01*
X90842987Y-97007038D01*
X90657038Y-97192987D01*
X90510939Y-97411641D01*
X90410304Y-97654595D01*
X90359000Y-97912514D01*
X87942509Y-97912514D01*
X87929683Y-97782294D01*
X87853347Y-97530646D01*
X87729382Y-97298725D01*
X87562555Y-97095445D01*
X87359275Y-96928618D01*
X87127354Y-96804653D01*
X86875706Y-96728317D01*
X86679579Y-96709000D01*
X86548421Y-96709000D01*
X86352294Y-96728317D01*
X86100646Y-96804653D01*
X85868725Y-96928618D01*
X85665445Y-97095445D01*
X85498618Y-97298725D01*
X85374653Y-97530646D01*
X85298317Y-97782294D01*
X85272541Y-98044000D01*
X85298317Y-98305706D01*
X85374653Y-98557354D01*
X85498618Y-98789275D01*
X85665445Y-98992555D01*
X85854001Y-99147298D01*
X85854000Y-104034171D01*
X85750238Y-104103503D01*
X85561503Y-104292238D01*
X85413215Y-104514167D01*
X85311072Y-104760761D01*
X85259000Y-105022544D01*
X84834000Y-105022544D01*
X84834000Y-79054801D01*
X89069220Y-74819582D01*
X89072455Y-74830247D01*
X89143027Y-74962277D01*
X89194966Y-75025564D01*
X89143000Y-75286816D01*
X89143000Y-75589184D01*
X89201989Y-75885743D01*
X89317701Y-76165095D01*
X89485688Y-76416505D01*
X89699495Y-76630312D01*
X89950905Y-76798299D01*
X90230257Y-76914011D01*
X90526816Y-76973000D01*
X90829184Y-76973000D01*
X91125743Y-76914011D01*
X91405095Y-76798299D01*
X91656505Y-76630312D01*
X91870312Y-76416505D01*
X92038299Y-76165095D01*
X92154011Y-75885743D01*
X92213000Y-75589184D01*
X92213000Y-75286816D01*
X92206810Y-75255696D01*
X92221129Y-75260661D01*
X92345034Y-75277799D01*
X92469901Y-75270435D01*
X92590932Y-75238853D01*
X92703476Y-75184265D01*
X92803208Y-75108769D01*
X92886295Y-75015268D01*
X93944308Y-73559037D01*
X94007558Y-73451123D01*
X94048539Y-73332943D01*
X94065677Y-73209038D01*
X94058313Y-73084171D01*
X94026731Y-72963140D01*
X93972143Y-72850596D01*
X93896647Y-72750864D01*
X93803146Y-72667777D01*
X93190290Y-72222511D01*
X97444817Y-67967984D01*
X99235000Y-67967984D01*
X99235000Y-68684016D01*
X99374691Y-69386290D01*
X99648705Y-70047818D01*
X100046511Y-70643177D01*
X100552823Y-71149489D01*
X101148182Y-71547295D01*
X101809710Y-71821309D01*
X102511984Y-71961000D01*
X103228016Y-71961000D01*
X103930290Y-71821309D01*
X104591818Y-71547295D01*
X105187177Y-71149489D01*
X105693489Y-70643177D01*
X106091295Y-70047818D01*
X106365309Y-69386290D01*
X106505000Y-68684016D01*
X106505000Y-67967984D01*
X106365309Y-67265710D01*
X106091295Y-66604182D01*
X105693489Y-66008823D01*
X105187177Y-65502511D01*
X104591818Y-65104705D01*
X103930290Y-64830691D01*
X103228016Y-64691000D01*
X102511984Y-64691000D01*
X101809710Y-64830691D01*
X101148182Y-65104705D01*
X100552823Y-65502511D01*
X100046511Y-66008823D01*
X99648705Y-66604182D01*
X99374691Y-67265710D01*
X99235000Y-67967984D01*
X97444817Y-67967984D01*
X104708802Y-60704000D01*
X122875199Y-60704000D01*
X126182205Y-64011008D01*
G36*
X117581799Y-101908013D02*
G01*
X117605598Y-101937012D01*
X117721323Y-102031985D01*
X117749429Y-102047008D01*
X117635329Y-102080486D01*
X117514429Y-102335996D01*
X117445700Y-102610184D01*
X117431783Y-102892512D01*
X117473213Y-103172130D01*
X117478531Y-103187001D01*
X117469803Y-103187001D01*
X113160708Y-98877906D01*
X113174236Y-98833309D01*
X113201943Y-98552000D01*
X113174236Y-98270691D01*
X113148849Y-98186999D01*
X113860786Y-98186999D01*
X117581799Y-101908013D01*
X117581799Y-101908013D01*
G37*
X117581799Y-101908013D02*
X117605598Y-101937012D01*
X117721323Y-102031985D01*
X117749429Y-102047008D01*
X117635329Y-102080486D01*
X117514429Y-102335996D01*
X117445700Y-102610184D01*
X117431783Y-102892512D01*
X117473213Y-103172130D01*
X117478531Y-103187001D01*
X117469803Y-103187001D01*
X113160708Y-98877906D01*
X113174236Y-98833309D01*
X113201943Y-98552000D01*
X113174236Y-98270691D01*
X113148849Y-98186999D01*
X113860786Y-98186999D01*
X117581799Y-101908013D01*
G36*
X119065748Y-102807858D02*
G01*
X119051605Y-102822000D01*
X119065748Y-102836143D01*
X118886143Y-103015748D01*
X118872000Y-103001605D01*
X118857858Y-103015748D01*
X118678253Y-102836143D01*
X118692395Y-102822000D01*
X118678253Y-102807858D01*
X118857858Y-102628253D01*
X118872000Y-102642395D01*
X118886143Y-102628253D01*
X119065748Y-102807858D01*
X119065748Y-102807858D01*
G37*
X119065748Y-102807858D02*
X119051605Y-102822000D01*
X119065748Y-102836143D01*
X118886143Y-103015748D01*
X118872000Y-103001605D01*
X118857858Y-103015748D01*
X118678253Y-102836143D01*
X118692395Y-102822000D01*
X118678253Y-102807858D01*
X118857858Y-102628253D01*
X118872000Y-102642395D01*
X118886143Y-102628253D01*
X119065748Y-102807858D01*
G36*
X143473503Y-81127762D02*
G01*
X143662238Y-81316497D01*
X143766001Y-81385829D01*
X143766001Y-81495799D01*
X143151877Y-82109924D01*
X143038497Y-81940238D01*
X142849762Y-81751503D01*
X142627833Y-81603215D01*
X142381239Y-81501072D01*
X142119456Y-81449000D01*
X141852544Y-81449000D01*
X141590761Y-81501072D01*
X141344167Y-81603215D01*
X141122238Y-81751503D01*
X140933503Y-81940238D01*
X140785215Y-82162167D01*
X140683072Y-82408761D01*
X140631000Y-82670544D01*
X140631000Y-82937456D01*
X140683072Y-83199239D01*
X140785215Y-83445833D01*
X140933503Y-83667762D01*
X141122238Y-83856497D01*
X141226000Y-83925829D01*
X141226001Y-91378198D01*
X131006902Y-101597298D01*
X131003513Y-101562889D01*
X130918599Y-101282966D01*
X130780706Y-101024986D01*
X130595134Y-100798866D01*
X130369014Y-100613294D01*
X130111034Y-100475401D01*
X129831111Y-100390487D01*
X129612950Y-100369000D01*
X129467050Y-100369000D01*
X129248889Y-100390487D01*
X129174004Y-100413203D01*
X128928803Y-100168002D01*
X128905000Y-100138998D01*
X128789275Y-100044025D01*
X128657246Y-99973453D01*
X128513985Y-99929996D01*
X128402332Y-99918999D01*
X128402321Y-99918999D01*
X128364999Y-99915323D01*
X128327677Y-99918999D01*
X125927332Y-99918999D01*
X125889999Y-99915322D01*
X125852666Y-99918999D01*
X125741013Y-99929996D01*
X125597752Y-99973453D01*
X125465723Y-100044025D01*
X125349998Y-100138998D01*
X125326200Y-100167996D01*
X123950187Y-101544010D01*
X123050791Y-101544010D01*
X126610793Y-97984009D01*
X130068669Y-97984009D01*
X130105991Y-97987685D01*
X130143313Y-97984009D01*
X130143324Y-97984009D01*
X130254977Y-97973012D01*
X130398238Y-97929555D01*
X130530267Y-97858983D01*
X130645992Y-97764010D01*
X130669795Y-97735006D01*
X134508005Y-93896797D01*
X134582889Y-93919513D01*
X134801050Y-93941000D01*
X134946950Y-93941000D01*
X135165111Y-93919513D01*
X135445034Y-93834599D01*
X135703014Y-93696706D01*
X135929134Y-93511134D01*
X136114706Y-93285014D01*
X136252599Y-93027034D01*
X136337513Y-92747111D01*
X136366185Y-92456000D01*
X136337513Y-92164889D01*
X136252599Y-91884966D01*
X136114706Y-91626986D01*
X135929134Y-91400866D01*
X135703014Y-91215294D01*
X135445034Y-91077401D01*
X135165111Y-90992487D01*
X134946950Y-90971000D01*
X134801050Y-90971000D01*
X134582889Y-90992487D01*
X134302966Y-91077401D01*
X134044986Y-91215294D01*
X133818866Y-91400866D01*
X133794393Y-91430687D01*
X133773502Y-91361820D01*
X133714537Y-91251506D01*
X133635185Y-91154815D01*
X133538494Y-91075463D01*
X133428180Y-91016498D01*
X133308482Y-90980188D01*
X133184000Y-90967928D01*
X131484000Y-90967928D01*
X131359518Y-90980188D01*
X131239820Y-91016498D01*
X131129506Y-91075463D01*
X131032815Y-91154815D01*
X130953463Y-91251506D01*
X130894498Y-91361820D01*
X130858188Y-91481518D01*
X130845928Y-91606000D01*
X130845928Y-93306000D01*
X130858188Y-93430482D01*
X130894498Y-93550180D01*
X130953463Y-93660494D01*
X131032815Y-93757185D01*
X131046655Y-93768543D01*
X128801199Y-96014000D01*
X125733396Y-96014000D01*
X125727039Y-95949458D01*
X125676593Y-95783162D01*
X125594675Y-95629903D01*
X125484430Y-95495570D01*
X125350097Y-95385325D01*
X125196838Y-95303407D01*
X125051807Y-95259412D01*
X124206000Y-94413605D01*
X123360193Y-95259412D01*
X123215162Y-95303407D01*
X123061903Y-95385325D01*
X122927570Y-95495570D01*
X122817325Y-95629903D01*
X122735407Y-95783162D01*
X122684961Y-95949458D01*
X122667928Y-96122400D01*
X122667928Y-97425600D01*
X122684961Y-97598542D01*
X122687216Y-97605976D01*
X122694998Y-97684985D01*
X122738454Y-97828246D01*
X122809026Y-97960276D01*
X122903999Y-98076001D01*
X123019724Y-98170974D01*
X123151754Y-98241546D01*
X123295015Y-98285002D01*
X123374024Y-98292784D01*
X123381458Y-98295039D01*
X123554400Y-98312072D01*
X124133126Y-98312072D01*
X121351199Y-101094000D01*
X120778721Y-101094000D01*
X120156206Y-100471486D01*
X120251853Y-100240574D01*
X120307000Y-99963335D01*
X120307000Y-99680665D01*
X120251853Y-99403426D01*
X120143680Y-99142273D01*
X119986637Y-98907241D01*
X119786759Y-98707363D01*
X119632000Y-98603957D01*
X119632000Y-98081323D01*
X119635676Y-98044000D01*
X119632000Y-98006677D01*
X119632000Y-98006667D01*
X119621003Y-97895014D01*
X119577546Y-97751753D01*
X119506974Y-97619724D01*
X119412001Y-97503999D01*
X119383004Y-97480202D01*
X116203355Y-94300553D01*
X122665009Y-94300553D01*
X122707603Y-94599907D01*
X122807778Y-94885199D01*
X122887739Y-95034792D01*
X123141920Y-95118475D01*
X124026395Y-94234000D01*
X124385605Y-94234000D01*
X125270080Y-95118475D01*
X125524261Y-95034792D01*
X125655158Y-94762225D01*
X125730365Y-94469358D01*
X125746991Y-94167447D01*
X125704397Y-93868093D01*
X125604222Y-93582801D01*
X125524261Y-93433208D01*
X125270080Y-93349525D01*
X124385605Y-94234000D01*
X124026395Y-94234000D01*
X123141920Y-93349525D01*
X122887739Y-93433208D01*
X122756842Y-93705775D01*
X122681635Y-93998642D01*
X122665009Y-94300553D01*
X116203355Y-94300553D01*
X113160708Y-91257907D01*
X113174236Y-91213309D01*
X113201943Y-90932000D01*
X113199402Y-90906204D01*
X114498201Y-92205003D01*
X114521999Y-92234001D01*
X114637724Y-92328974D01*
X114769753Y-92399546D01*
X114913014Y-92443003D01*
X115024667Y-92454000D01*
X115024676Y-92454000D01*
X115061999Y-92457676D01*
X115099322Y-92454000D01*
X122867687Y-92454000D01*
X123013688Y-92672505D01*
X123227495Y-92886312D01*
X123381105Y-92988951D01*
X123321525Y-93169920D01*
X124206000Y-94054395D01*
X125090475Y-93169920D01*
X125030895Y-92988951D01*
X125184505Y-92886312D01*
X125398312Y-92672505D01*
X125566299Y-92421095D01*
X125682011Y-92141743D01*
X125741000Y-91845184D01*
X125741000Y-91542816D01*
X125682011Y-91246257D01*
X125566299Y-90966905D01*
X125398312Y-90715495D01*
X125184505Y-90501688D01*
X124966000Y-90355687D01*
X124966000Y-87983799D01*
X125674025Y-87275775D01*
X125804822Y-87495355D01*
X125999731Y-87711588D01*
X126228756Y-87882416D01*
X126170986Y-87913294D01*
X125944866Y-88098866D01*
X125759294Y-88324986D01*
X125621401Y-88582966D01*
X125536487Y-88862889D01*
X125507815Y-89154000D01*
X125536487Y-89445111D01*
X125621401Y-89725034D01*
X125759294Y-89983014D01*
X125944866Y-90209134D01*
X126170986Y-90394706D01*
X126428966Y-90532599D01*
X126708889Y-90617513D01*
X126927050Y-90639000D01*
X127072950Y-90639000D01*
X127291111Y-90617513D01*
X127571034Y-90532599D01*
X127829014Y-90394706D01*
X128055134Y-90209134D01*
X128079607Y-90179313D01*
X128100498Y-90248180D01*
X128159463Y-90358494D01*
X128238815Y-90455185D01*
X128335506Y-90534537D01*
X128445820Y-90593502D01*
X128565518Y-90629812D01*
X128690000Y-90642072D01*
X130390000Y-90642072D01*
X130514482Y-90629812D01*
X130634180Y-90593502D01*
X130744494Y-90534537D01*
X130841185Y-90455185D01*
X130920537Y-90358494D01*
X130979502Y-90248180D01*
X131015812Y-90128482D01*
X131028072Y-90004000D01*
X131028072Y-89914000D01*
X132216913Y-89914000D01*
X132228188Y-90028482D01*
X132264498Y-90148180D01*
X132323463Y-90258494D01*
X132402815Y-90355185D01*
X132499506Y-90434537D01*
X132609820Y-90493502D01*
X132729518Y-90529812D01*
X132854000Y-90542072D01*
X134354000Y-90542072D01*
X134478482Y-90529812D01*
X134598180Y-90493502D01*
X134708494Y-90434537D01*
X134805185Y-90355185D01*
X134884537Y-90258494D01*
X134943502Y-90148180D01*
X134979812Y-90028482D01*
X134992072Y-89904000D01*
X134992072Y-88404000D01*
X134979812Y-88279518D01*
X134943502Y-88159820D01*
X134884537Y-88049506D01*
X134805185Y-87952815D01*
X134708494Y-87873463D01*
X134598180Y-87814498D01*
X134478482Y-87778188D01*
X134354000Y-87765928D01*
X132854000Y-87765928D01*
X132729518Y-87778188D01*
X132609820Y-87814498D01*
X132499506Y-87873463D01*
X132402815Y-87952815D01*
X132323463Y-88049506D01*
X132264498Y-88159820D01*
X132228188Y-88279518D01*
X132216913Y-88394000D01*
X131028072Y-88394000D01*
X131028072Y-88304000D01*
X131015812Y-88179518D01*
X130979502Y-88059820D01*
X130920537Y-87949506D01*
X130866778Y-87884000D01*
X130920537Y-87818494D01*
X130979502Y-87708180D01*
X131015812Y-87588482D01*
X131028072Y-87464000D01*
X131025000Y-86899750D01*
X130866250Y-86741000D01*
X129667000Y-86741000D01*
X129667000Y-86761000D01*
X129413000Y-86761000D01*
X129413000Y-86741000D01*
X127127000Y-86741000D01*
X127127000Y-86761000D01*
X126873000Y-86761000D01*
X126873000Y-86741000D01*
X126853000Y-86741000D01*
X126853000Y-86487000D01*
X126873000Y-86487000D01*
X126873000Y-86467000D01*
X127127000Y-86467000D01*
X127127000Y-86487000D01*
X129413000Y-86487000D01*
X129413000Y-85287750D01*
X129667000Y-85287750D01*
X129667000Y-86487000D01*
X130866250Y-86487000D01*
X131025000Y-86328250D01*
X131028072Y-85764000D01*
X131015812Y-85639518D01*
X130979502Y-85519820D01*
X130920537Y-85409506D01*
X130841185Y-85312815D01*
X130744494Y-85233463D01*
X130634180Y-85174498D01*
X130514482Y-85138188D01*
X130390000Y-85125928D01*
X129825750Y-85129000D01*
X129667000Y-85287750D01*
X129413000Y-85287750D01*
X129254250Y-85129000D01*
X128690000Y-85125928D01*
X128565518Y-85138188D01*
X128445820Y-85174498D01*
X128335506Y-85233463D01*
X128238815Y-85312815D01*
X128159463Y-85409506D01*
X128100498Y-85519820D01*
X128076034Y-85600466D01*
X128000269Y-85516412D01*
X127766920Y-85342359D01*
X127658894Y-85290905D01*
X130655801Y-82294000D01*
X132439794Y-82294000D01*
X132446843Y-82307188D01*
X132619919Y-82518081D01*
X132830812Y-82691157D01*
X133071419Y-82819764D01*
X133332493Y-82898960D01*
X133535963Y-82919000D01*
X133672037Y-82919000D01*
X133875507Y-82898960D01*
X134136581Y-82819764D01*
X134377188Y-82691157D01*
X134588081Y-82518081D01*
X134761157Y-82307188D01*
X134889764Y-82066581D01*
X134968960Y-81805507D01*
X134995701Y-81534000D01*
X134968960Y-81262493D01*
X134896614Y-81024000D01*
X143404172Y-81024000D01*
X143473503Y-81127762D01*
X143473503Y-81127762D01*
G37*
X143473503Y-81127762D02*
X143662238Y-81316497D01*
X143766001Y-81385829D01*
X143766001Y-81495799D01*
X143151877Y-82109924D01*
X143038497Y-81940238D01*
X142849762Y-81751503D01*
X142627833Y-81603215D01*
X142381239Y-81501072D01*
X142119456Y-81449000D01*
X141852544Y-81449000D01*
X141590761Y-81501072D01*
X141344167Y-81603215D01*
X141122238Y-81751503D01*
X140933503Y-81940238D01*
X140785215Y-82162167D01*
X140683072Y-82408761D01*
X140631000Y-82670544D01*
X140631000Y-82937456D01*
X140683072Y-83199239D01*
X140785215Y-83445833D01*
X140933503Y-83667762D01*
X141122238Y-83856497D01*
X141226000Y-83925829D01*
X141226001Y-91378198D01*
X131006902Y-101597298D01*
X131003513Y-101562889D01*
X130918599Y-101282966D01*
X130780706Y-101024986D01*
X130595134Y-100798866D01*
X130369014Y-100613294D01*
X130111034Y-100475401D01*
X129831111Y-100390487D01*
X129612950Y-100369000D01*
X129467050Y-100369000D01*
X129248889Y-100390487D01*
X129174004Y-100413203D01*
X128928803Y-100168002D01*
X128905000Y-100138998D01*
X128789275Y-100044025D01*
X128657246Y-99973453D01*
X128513985Y-99929996D01*
X128402332Y-99918999D01*
X128402321Y-99918999D01*
X128364999Y-99915323D01*
X128327677Y-99918999D01*
X125927332Y-99918999D01*
X125889999Y-99915322D01*
X125852666Y-99918999D01*
X125741013Y-99929996D01*
X125597752Y-99973453D01*
X125465723Y-100044025D01*
X125349998Y-100138998D01*
X125326200Y-100167996D01*
X123950187Y-101544010D01*
X123050791Y-101544010D01*
X126610793Y-97984009D01*
X130068669Y-97984009D01*
X130105991Y-97987685D01*
X130143313Y-97984009D01*
X130143324Y-97984009D01*
X130254977Y-97973012D01*
X130398238Y-97929555D01*
X130530267Y-97858983D01*
X130645992Y-97764010D01*
X130669795Y-97735006D01*
X134508005Y-93896797D01*
X134582889Y-93919513D01*
X134801050Y-93941000D01*
X134946950Y-93941000D01*
X135165111Y-93919513D01*
X135445034Y-93834599D01*
X135703014Y-93696706D01*
X135929134Y-93511134D01*
X136114706Y-93285014D01*
X136252599Y-93027034D01*
X136337513Y-92747111D01*
X136366185Y-92456000D01*
X136337513Y-92164889D01*
X136252599Y-91884966D01*
X136114706Y-91626986D01*
X135929134Y-91400866D01*
X135703014Y-91215294D01*
X135445034Y-91077401D01*
X135165111Y-90992487D01*
X134946950Y-90971000D01*
X134801050Y-90971000D01*
X134582889Y-90992487D01*
X134302966Y-91077401D01*
X134044986Y-91215294D01*
X133818866Y-91400866D01*
X133794393Y-91430687D01*
X133773502Y-91361820D01*
X133714537Y-91251506D01*
X133635185Y-91154815D01*
X133538494Y-91075463D01*
X133428180Y-91016498D01*
X133308482Y-90980188D01*
X133184000Y-90967928D01*
X131484000Y-90967928D01*
X131359518Y-90980188D01*
X131239820Y-91016498D01*
X131129506Y-91075463D01*
X131032815Y-91154815D01*
X130953463Y-91251506D01*
X130894498Y-91361820D01*
X130858188Y-91481518D01*
X130845928Y-91606000D01*
X130845928Y-93306000D01*
X130858188Y-93430482D01*
X130894498Y-93550180D01*
X130953463Y-93660494D01*
X131032815Y-93757185D01*
X131046655Y-93768543D01*
X128801199Y-96014000D01*
X125733396Y-96014000D01*
X125727039Y-95949458D01*
X125676593Y-95783162D01*
X125594675Y-95629903D01*
X125484430Y-95495570D01*
X125350097Y-95385325D01*
X125196838Y-95303407D01*
X125051807Y-95259412D01*
X124206000Y-94413605D01*
X123360193Y-95259412D01*
X123215162Y-95303407D01*
X123061903Y-95385325D01*
X122927570Y-95495570D01*
X122817325Y-95629903D01*
X122735407Y-95783162D01*
X122684961Y-95949458D01*
X122667928Y-96122400D01*
X122667928Y-97425600D01*
X122684961Y-97598542D01*
X122687216Y-97605976D01*
X122694998Y-97684985D01*
X122738454Y-97828246D01*
X122809026Y-97960276D01*
X122903999Y-98076001D01*
X123019724Y-98170974D01*
X123151754Y-98241546D01*
X123295015Y-98285002D01*
X123374024Y-98292784D01*
X123381458Y-98295039D01*
X123554400Y-98312072D01*
X124133126Y-98312072D01*
X121351199Y-101094000D01*
X120778721Y-101094000D01*
X120156206Y-100471486D01*
X120251853Y-100240574D01*
X120307000Y-99963335D01*
X120307000Y-99680665D01*
X120251853Y-99403426D01*
X120143680Y-99142273D01*
X119986637Y-98907241D01*
X119786759Y-98707363D01*
X119632000Y-98603957D01*
X119632000Y-98081323D01*
X119635676Y-98044000D01*
X119632000Y-98006677D01*
X119632000Y-98006667D01*
X119621003Y-97895014D01*
X119577546Y-97751753D01*
X119506974Y-97619724D01*
X119412001Y-97503999D01*
X119383004Y-97480202D01*
X116203355Y-94300553D01*
X122665009Y-94300553D01*
X122707603Y-94599907D01*
X122807778Y-94885199D01*
X122887739Y-95034792D01*
X123141920Y-95118475D01*
X124026395Y-94234000D01*
X124385605Y-94234000D01*
X125270080Y-95118475D01*
X125524261Y-95034792D01*
X125655158Y-94762225D01*
X125730365Y-94469358D01*
X125746991Y-94167447D01*
X125704397Y-93868093D01*
X125604222Y-93582801D01*
X125524261Y-93433208D01*
X125270080Y-93349525D01*
X124385605Y-94234000D01*
X124026395Y-94234000D01*
X123141920Y-93349525D01*
X122887739Y-93433208D01*
X122756842Y-93705775D01*
X122681635Y-93998642D01*
X122665009Y-94300553D01*
X116203355Y-94300553D01*
X113160708Y-91257907D01*
X113174236Y-91213309D01*
X113201943Y-90932000D01*
X113199402Y-90906204D01*
X114498201Y-92205003D01*
X114521999Y-92234001D01*
X114637724Y-92328974D01*
X114769753Y-92399546D01*
X114913014Y-92443003D01*
X115024667Y-92454000D01*
X115024676Y-92454000D01*
X115061999Y-92457676D01*
X115099322Y-92454000D01*
X122867687Y-92454000D01*
X123013688Y-92672505D01*
X123227495Y-92886312D01*
X123381105Y-92988951D01*
X123321525Y-93169920D01*
X124206000Y-94054395D01*
X125090475Y-93169920D01*
X125030895Y-92988951D01*
X125184505Y-92886312D01*
X125398312Y-92672505D01*
X125566299Y-92421095D01*
X125682011Y-92141743D01*
X125741000Y-91845184D01*
X125741000Y-91542816D01*
X125682011Y-91246257D01*
X125566299Y-90966905D01*
X125398312Y-90715495D01*
X125184505Y-90501688D01*
X124966000Y-90355687D01*
X124966000Y-87983799D01*
X125674025Y-87275775D01*
X125804822Y-87495355D01*
X125999731Y-87711588D01*
X126228756Y-87882416D01*
X126170986Y-87913294D01*
X125944866Y-88098866D01*
X125759294Y-88324986D01*
X125621401Y-88582966D01*
X125536487Y-88862889D01*
X125507815Y-89154000D01*
X125536487Y-89445111D01*
X125621401Y-89725034D01*
X125759294Y-89983014D01*
X125944866Y-90209134D01*
X126170986Y-90394706D01*
X126428966Y-90532599D01*
X126708889Y-90617513D01*
X126927050Y-90639000D01*
X127072950Y-90639000D01*
X127291111Y-90617513D01*
X127571034Y-90532599D01*
X127829014Y-90394706D01*
X128055134Y-90209134D01*
X128079607Y-90179313D01*
X128100498Y-90248180D01*
X128159463Y-90358494D01*
X128238815Y-90455185D01*
X128335506Y-90534537D01*
X128445820Y-90593502D01*
X128565518Y-90629812D01*
X128690000Y-90642072D01*
X130390000Y-90642072D01*
X130514482Y-90629812D01*
X130634180Y-90593502D01*
X130744494Y-90534537D01*
X130841185Y-90455185D01*
X130920537Y-90358494D01*
X130979502Y-90248180D01*
X131015812Y-90128482D01*
X131028072Y-90004000D01*
X131028072Y-89914000D01*
X132216913Y-89914000D01*
X132228188Y-90028482D01*
X132264498Y-90148180D01*
X132323463Y-90258494D01*
X132402815Y-90355185D01*
X132499506Y-90434537D01*
X132609820Y-90493502D01*
X132729518Y-90529812D01*
X132854000Y-90542072D01*
X134354000Y-90542072D01*
X134478482Y-90529812D01*
X134598180Y-90493502D01*
X134708494Y-90434537D01*
X134805185Y-90355185D01*
X134884537Y-90258494D01*
X134943502Y-90148180D01*
X134979812Y-90028482D01*
X134992072Y-89904000D01*
X134992072Y-88404000D01*
X134979812Y-88279518D01*
X134943502Y-88159820D01*
X134884537Y-88049506D01*
X134805185Y-87952815D01*
X134708494Y-87873463D01*
X134598180Y-87814498D01*
X134478482Y-87778188D01*
X134354000Y-87765928D01*
X132854000Y-87765928D01*
X132729518Y-87778188D01*
X132609820Y-87814498D01*
X132499506Y-87873463D01*
X132402815Y-87952815D01*
X132323463Y-88049506D01*
X132264498Y-88159820D01*
X132228188Y-88279518D01*
X132216913Y-88394000D01*
X131028072Y-88394000D01*
X131028072Y-88304000D01*
X131015812Y-88179518D01*
X130979502Y-88059820D01*
X130920537Y-87949506D01*
X130866778Y-87884000D01*
X130920537Y-87818494D01*
X130979502Y-87708180D01*
X131015812Y-87588482D01*
X131028072Y-87464000D01*
X131025000Y-86899750D01*
X130866250Y-86741000D01*
X129667000Y-86741000D01*
X129667000Y-86761000D01*
X129413000Y-86761000D01*
X129413000Y-86741000D01*
X127127000Y-86741000D01*
X127127000Y-86761000D01*
X126873000Y-86761000D01*
X126873000Y-86741000D01*
X126853000Y-86741000D01*
X126853000Y-86487000D01*
X126873000Y-86487000D01*
X126873000Y-86467000D01*
X127127000Y-86467000D01*
X127127000Y-86487000D01*
X129413000Y-86487000D01*
X129413000Y-85287750D01*
X129667000Y-85287750D01*
X129667000Y-86487000D01*
X130866250Y-86487000D01*
X131025000Y-86328250D01*
X131028072Y-85764000D01*
X131015812Y-85639518D01*
X130979502Y-85519820D01*
X130920537Y-85409506D01*
X130841185Y-85312815D01*
X130744494Y-85233463D01*
X130634180Y-85174498D01*
X130514482Y-85138188D01*
X130390000Y-85125928D01*
X129825750Y-85129000D01*
X129667000Y-85287750D01*
X129413000Y-85287750D01*
X129254250Y-85129000D01*
X128690000Y-85125928D01*
X128565518Y-85138188D01*
X128445820Y-85174498D01*
X128335506Y-85233463D01*
X128238815Y-85312815D01*
X128159463Y-85409506D01*
X128100498Y-85519820D01*
X128076034Y-85600466D01*
X128000269Y-85516412D01*
X127766920Y-85342359D01*
X127658894Y-85290905D01*
X130655801Y-82294000D01*
X132439794Y-82294000D01*
X132446843Y-82307188D01*
X132619919Y-82518081D01*
X132830812Y-82691157D01*
X133071419Y-82819764D01*
X133332493Y-82898960D01*
X133535963Y-82919000D01*
X133672037Y-82919000D01*
X133875507Y-82898960D01*
X134136581Y-82819764D01*
X134377188Y-82691157D01*
X134588081Y-82518081D01*
X134761157Y-82307188D01*
X134889764Y-82066581D01*
X134968960Y-81805507D01*
X134995701Y-81534000D01*
X134968960Y-81262493D01*
X134896614Y-81024000D01*
X143404172Y-81024000D01*
X143473503Y-81127762D01*
G36*
X119507000Y-67691000D02*
G01*
X119527000Y-67691000D01*
X119527000Y-67945000D01*
X119507000Y-67945000D01*
X119507000Y-69087915D01*
X119729039Y-69209904D01*
X119863087Y-69169246D01*
X120117420Y-69049037D01*
X120343414Y-68881519D01*
X120532385Y-68673131D01*
X120647421Y-68481318D01*
X120721068Y-68619101D01*
X120900392Y-68837608D01*
X121118899Y-69016932D01*
X121368192Y-69150182D01*
X121638691Y-69232236D01*
X121849508Y-69253000D01*
X121990492Y-69253000D01*
X122201309Y-69232236D01*
X122471808Y-69150182D01*
X122721101Y-69016932D01*
X122939608Y-68837608D01*
X123118932Y-68619101D01*
X123190000Y-68486142D01*
X123261068Y-68619101D01*
X123440392Y-68837608D01*
X123658899Y-69016932D01*
X123908192Y-69150182D01*
X124178691Y-69232236D01*
X124389508Y-69253000D01*
X124530492Y-69253000D01*
X124741309Y-69232236D01*
X125011808Y-69150182D01*
X125261101Y-69016932D01*
X125479608Y-68837608D01*
X125658932Y-68619101D01*
X125730000Y-68486142D01*
X125801068Y-68619101D01*
X125980392Y-68837608D01*
X126198899Y-69016932D01*
X126240001Y-69038901D01*
X126240000Y-72583197D01*
X124785906Y-74037292D01*
X124741309Y-74023764D01*
X124530492Y-74003000D01*
X124389508Y-74003000D01*
X124178691Y-74023764D01*
X124134093Y-74037292D01*
X123898803Y-73802002D01*
X123875000Y-73772998D01*
X123759275Y-73678025D01*
X123627246Y-73607453D01*
X123483985Y-73563996D01*
X123372332Y-73552999D01*
X123372321Y-73552999D01*
X123334999Y-73549323D01*
X123297677Y-73552999D01*
X118002326Y-73552999D01*
X117965001Y-73549323D01*
X117927676Y-73552999D01*
X117927668Y-73552999D01*
X117816015Y-73563996D01*
X117672754Y-73607453D01*
X117540725Y-73678025D01*
X117425000Y-73772998D01*
X117401202Y-73801996D01*
X117165906Y-74037292D01*
X117121309Y-74023764D01*
X116910492Y-74003000D01*
X116769508Y-74003000D01*
X116558691Y-74023764D01*
X116474999Y-74049151D01*
X116474999Y-69257802D01*
X116514093Y-69218708D01*
X116558691Y-69232236D01*
X116769508Y-69253000D01*
X116910492Y-69253000D01*
X117121309Y-69232236D01*
X117391808Y-69150182D01*
X117641101Y-69016932D01*
X117859608Y-68837608D01*
X118038932Y-68619101D01*
X118112579Y-68481318D01*
X118227615Y-68673131D01*
X118416586Y-68881519D01*
X118642580Y-69049037D01*
X118896913Y-69169246D01*
X119030961Y-69209904D01*
X119253000Y-69087915D01*
X119253000Y-67945000D01*
X119233000Y-67945000D01*
X119233000Y-67691000D01*
X119253000Y-67691000D01*
X119253000Y-67671000D01*
X119507000Y-67671000D01*
X119507000Y-67691000D01*
X119507000Y-67691000D01*
G37*
X119507000Y-67691000D02*
X119527000Y-67691000D01*
X119527000Y-67945000D01*
X119507000Y-67945000D01*
X119507000Y-69087915D01*
X119729039Y-69209904D01*
X119863087Y-69169246D01*
X120117420Y-69049037D01*
X120343414Y-68881519D01*
X120532385Y-68673131D01*
X120647421Y-68481318D01*
X120721068Y-68619101D01*
X120900392Y-68837608D01*
X121118899Y-69016932D01*
X121368192Y-69150182D01*
X121638691Y-69232236D01*
X121849508Y-69253000D01*
X121990492Y-69253000D01*
X122201309Y-69232236D01*
X122471808Y-69150182D01*
X122721101Y-69016932D01*
X122939608Y-68837608D01*
X123118932Y-68619101D01*
X123190000Y-68486142D01*
X123261068Y-68619101D01*
X123440392Y-68837608D01*
X123658899Y-69016932D01*
X123908192Y-69150182D01*
X124178691Y-69232236D01*
X124389508Y-69253000D01*
X124530492Y-69253000D01*
X124741309Y-69232236D01*
X125011808Y-69150182D01*
X125261101Y-69016932D01*
X125479608Y-68837608D01*
X125658932Y-68619101D01*
X125730000Y-68486142D01*
X125801068Y-68619101D01*
X125980392Y-68837608D01*
X126198899Y-69016932D01*
X126240001Y-69038901D01*
X126240000Y-72583197D01*
X124785906Y-74037292D01*
X124741309Y-74023764D01*
X124530492Y-74003000D01*
X124389508Y-74003000D01*
X124178691Y-74023764D01*
X124134093Y-74037292D01*
X123898803Y-73802002D01*
X123875000Y-73772998D01*
X123759275Y-73678025D01*
X123627246Y-73607453D01*
X123483985Y-73563996D01*
X123372332Y-73552999D01*
X123372321Y-73552999D01*
X123334999Y-73549323D01*
X123297677Y-73552999D01*
X118002326Y-73552999D01*
X117965001Y-73549323D01*
X117927676Y-73552999D01*
X117927668Y-73552999D01*
X117816015Y-73563996D01*
X117672754Y-73607453D01*
X117540725Y-73678025D01*
X117425000Y-73772998D01*
X117401202Y-73801996D01*
X117165906Y-74037292D01*
X117121309Y-74023764D01*
X116910492Y-74003000D01*
X116769508Y-74003000D01*
X116558691Y-74023764D01*
X116474999Y-74049151D01*
X116474999Y-69257802D01*
X116514093Y-69218708D01*
X116558691Y-69232236D01*
X116769508Y-69253000D01*
X116910492Y-69253000D01*
X117121309Y-69232236D01*
X117391808Y-69150182D01*
X117641101Y-69016932D01*
X117859608Y-68837608D01*
X118038932Y-68619101D01*
X118112579Y-68481318D01*
X118227615Y-68673131D01*
X118416586Y-68881519D01*
X118642580Y-69049037D01*
X118896913Y-69169246D01*
X119030961Y-69209904D01*
X119253000Y-69087915D01*
X119253000Y-67945000D01*
X119233000Y-67945000D01*
X119233000Y-67691000D01*
X119253000Y-67691000D01*
X119253000Y-67671000D01*
X119507000Y-67671000D01*
X119507000Y-67691000D01*
M02*
