G04 #@! TF.GenerationSoftware,KiCad,Pcbnew,(5.1.4)-1*
G04 #@! TF.CreationDate,2022-03-17T09:06:06+00:00*
G04 #@! TF.ProjectId,Swarm-B,53776172-6d2d-4422-9e6b-696361645f70,rev?*
G04 #@! TF.SameCoordinates,Original*
G04 #@! TF.FileFunction,Copper,L2,Bot*
G04 #@! TF.FilePolarity,Positive*
%FSLAX46Y46*%
G04 Gerber Fmt 4.6, Leading zero omitted, Abs format (unit mm)*
G04 Created by KiCad (PCBNEW (5.1.4)-1) date 2022-03-17 09:06:06*
%MOMM*%
%LPD*%
G04 APERTURE LIST*
%ADD10C,1.440000*%
%ADD11C,1.800000*%
%ADD12C,0.100000*%
%ADD13R,1.800000X1.800000*%
%ADD14R,1.700000X1.700000*%
%ADD15O,1.700000X1.700000*%
%ADD16O,1.500000X1.500000*%
%ADD17R,1.500000X1.500000*%
%ADD18C,1.600000*%
%ADD19O,1.070000X1.800000*%
%ADD20R,1.070000X1.800000*%
%ADD21O,1.600000X1.600000*%
%ADD22R,1.600000X1.600000*%
%ADD23O,1.400000X1.400000*%
%ADD24C,1.400000*%
%ADD25C,2.000000*%
%ADD26C,0.800000*%
%ADD27C,0.250000*%
%ADD28C,0.254000*%
G04 APERTURE END LIST*
D10*
X89154000Y-107696000D03*
X86614000Y-105156000D03*
X89154000Y-102616000D03*
D11*
X128140316Y-61699097D03*
X130556000Y-62484000D03*
D12*
G36*
X131690066Y-61906164D02*
G01*
X131133836Y-63618066D01*
X129421934Y-63061836D01*
X129978164Y-61349934D01*
X131690066Y-61906164D01*
X131690066Y-61906164D01*
G37*
D11*
X90678000Y-75438000D03*
X92170975Y-73383097D03*
D12*
G36*
X91971866Y-72125975D02*
G01*
X93428097Y-73183988D01*
X92370084Y-74640219D01*
X90913853Y-73582206D01*
X91971866Y-72125975D01*
X91971866Y-72125975D01*
G37*
D11*
X92202000Y-115062000D03*
X90709025Y-113007097D03*
D12*
G36*
X89451903Y-112807988D02*
G01*
X90908134Y-111749975D01*
X91966147Y-113206206D01*
X90509916Y-114264219D01*
X89451903Y-112807988D01*
X89451903Y-112807988D01*
G37*
D11*
X130431684Y-126215097D03*
X128016000Y-127000000D03*
D12*
G36*
X127438164Y-128134066D02*
G01*
X126881934Y-126422164D01*
X128593836Y-125865934D01*
X129150066Y-127577836D01*
X127438164Y-128134066D01*
X127438164Y-128134066D01*
G37*
D11*
X152654000Y-92964000D03*
D13*
X152654000Y-95504000D03*
D14*
X127000000Y-101854000D03*
D15*
X129540000Y-101854000D03*
D16*
X133604000Y-81534000D03*
D17*
X133604000Y-89154000D03*
D18*
X118872000Y-102822000D03*
X118872000Y-99822000D03*
D15*
X127000000Y-86614000D03*
D14*
X129540000Y-86614000D03*
D15*
X127000000Y-89154000D03*
D14*
X129540000Y-89154000D03*
D15*
X134874000Y-92456000D03*
D14*
X132334000Y-92456000D03*
D19*
X116586000Y-86614000D03*
X117856000Y-86614000D03*
X119126000Y-86614000D03*
D20*
X120396000Y-86614000D03*
D10*
X144526000Y-85344000D03*
X141986000Y-82804000D03*
X144526000Y-80264000D03*
X144526000Y-107950000D03*
X141986000Y-105410000D03*
X144526000Y-102870000D03*
X144526000Y-96520000D03*
X141986000Y-93980000D03*
X144526000Y-91440000D03*
D11*
X124206000Y-91694000D03*
X124206000Y-94234000D03*
D12*
G36*
X124881947Y-95875196D02*
G01*
X124906060Y-95878773D01*
X124929707Y-95884696D01*
X124952659Y-95892908D01*
X124974695Y-95903331D01*
X124995604Y-95915863D01*
X125015183Y-95930384D01*
X125033245Y-95946755D01*
X125049616Y-95964817D01*
X125064137Y-95984396D01*
X125076669Y-96005305D01*
X125087092Y-96027341D01*
X125095304Y-96050293D01*
X125101227Y-96073940D01*
X125104804Y-96098053D01*
X125106000Y-96122400D01*
X125106000Y-97425600D01*
X125104804Y-97449947D01*
X125101227Y-97474060D01*
X125095304Y-97497707D01*
X125087092Y-97520659D01*
X125076669Y-97542695D01*
X125064137Y-97563604D01*
X125049616Y-97583183D01*
X125033245Y-97601245D01*
X125015183Y-97617616D01*
X124995604Y-97632137D01*
X124974695Y-97644669D01*
X124952659Y-97655092D01*
X124929707Y-97663304D01*
X124906060Y-97669227D01*
X124881947Y-97672804D01*
X124857600Y-97674000D01*
X123554400Y-97674000D01*
X123530053Y-97672804D01*
X123505940Y-97669227D01*
X123482293Y-97663304D01*
X123459341Y-97655092D01*
X123437305Y-97644669D01*
X123416396Y-97632137D01*
X123396817Y-97617616D01*
X123378755Y-97601245D01*
X123362384Y-97583183D01*
X123347863Y-97563604D01*
X123335331Y-97542695D01*
X123324908Y-97520659D01*
X123316696Y-97497707D01*
X123310773Y-97474060D01*
X123307196Y-97449947D01*
X123306000Y-97425600D01*
X123306000Y-96122400D01*
X123307196Y-96098053D01*
X123310773Y-96073940D01*
X123316696Y-96050293D01*
X123324908Y-96027341D01*
X123335331Y-96005305D01*
X123347863Y-95984396D01*
X123362384Y-95964817D01*
X123378755Y-95946755D01*
X123396817Y-95930384D01*
X123416396Y-95915863D01*
X123437305Y-95903331D01*
X123459341Y-95892908D01*
X123482293Y-95884696D01*
X123505940Y-95878773D01*
X123530053Y-95875196D01*
X123554400Y-95874000D01*
X124857600Y-95874000D01*
X124881947Y-95875196D01*
X124881947Y-95875196D01*
G37*
D11*
X124206000Y-96774000D03*
D21*
X134620000Y-75438000D03*
X116840000Y-67818000D03*
X132080000Y-75438000D03*
X119380000Y-67818000D03*
X129540000Y-75438000D03*
X121920000Y-67818000D03*
X127000000Y-75438000D03*
X124460000Y-67818000D03*
X124460000Y-75438000D03*
X127000000Y-67818000D03*
X121920000Y-75438000D03*
X129540000Y-67818000D03*
X119380000Y-75438000D03*
X132080000Y-67818000D03*
X116840000Y-75438000D03*
D22*
X134620000Y-67818000D03*
D21*
X111760000Y-116332000D03*
X96520000Y-116332000D03*
X111760000Y-80772000D03*
X96520000Y-113792000D03*
X111760000Y-83312000D03*
X96520000Y-111252000D03*
X111760000Y-85852000D03*
X96520000Y-108712000D03*
X111760000Y-88392000D03*
X96520000Y-106172000D03*
X111760000Y-90932000D03*
X96520000Y-103632000D03*
X111760000Y-93472000D03*
X96520000Y-101092000D03*
X111760000Y-96012000D03*
X96520000Y-98552000D03*
X111760000Y-98552000D03*
X96520000Y-96012000D03*
X111760000Y-101092000D03*
X96520000Y-93472000D03*
X111760000Y-103632000D03*
X96520000Y-90932000D03*
X111760000Y-106172000D03*
X96520000Y-88392000D03*
X111760000Y-108712000D03*
X96520000Y-85852000D03*
X111760000Y-111252000D03*
X96520000Y-83312000D03*
X111760000Y-113792000D03*
D22*
X96520000Y-80772000D03*
D23*
X86614000Y-98044000D03*
D24*
X91694000Y-98044000D03*
X124460000Y-114554000D03*
D23*
X124460000Y-119634000D03*
X116840000Y-119634000D03*
D24*
X116840000Y-114554000D03*
X120650000Y-114554000D03*
D23*
X120650000Y-119634000D03*
D24*
X127000000Y-81534000D03*
D23*
X121920000Y-81534000D03*
D25*
X130374000Y-111760000D03*
X134874000Y-111760000D03*
X130374000Y-118260000D03*
X134874000Y-118260000D03*
D26*
X135636000Y-126492000D03*
X129286000Y-94234000D03*
X114554000Y-99568000D03*
X119634000Y-71374000D03*
D27*
X112559999Y-90132001D02*
X111760000Y-90932000D01*
X112885001Y-89806999D02*
X112559999Y-90132001D01*
X112885001Y-88733762D02*
X112885001Y-89806999D01*
X120084763Y-81534000D02*
X112885001Y-88733762D01*
X121920000Y-81534000D02*
X120084763Y-81534000D01*
X118580001Y-76237999D02*
X119380000Y-75438000D01*
X118254999Y-76563001D02*
X118580001Y-76237999D01*
X114303997Y-76563001D02*
X118254999Y-76563001D01*
X97645001Y-93221997D02*
X114303997Y-76563001D01*
X97645001Y-94886999D02*
X97645001Y-93221997D01*
X96520000Y-96012000D02*
X97645001Y-94886999D01*
X124460000Y-70358000D02*
X124460000Y-67818000D01*
X119380000Y-75438000D02*
X124460000Y-70358000D01*
X129286000Y-73152000D02*
X127000000Y-75438000D01*
X129286000Y-70612000D02*
X129286000Y-73152000D01*
X129286000Y-70358000D02*
X129413000Y-70485000D01*
X124460000Y-70358000D02*
X129286000Y-70358000D01*
X132080000Y-67818000D02*
X129413000Y-70485000D01*
X129413000Y-70485000D02*
X129286000Y-70612000D01*
X115708630Y-75438000D02*
X116840000Y-75438000D01*
X114792588Y-75438000D02*
X115708630Y-75438000D01*
X109458588Y-80772000D02*
X114792588Y-75438000D01*
X96520000Y-80772000D02*
X109458588Y-80772000D01*
X127799999Y-67018001D02*
X127000000Y-67818000D01*
X128125001Y-66692999D02*
X127799999Y-67018001D01*
X134544999Y-66692999D02*
X128125001Y-66692999D01*
X134620000Y-66768000D02*
X134544999Y-66692999D01*
X134620000Y-67818000D02*
X134620000Y-66768000D01*
X116840000Y-86868000D02*
X116586000Y-86614000D01*
X116840000Y-114554000D02*
X116840000Y-86868000D01*
X117856000Y-86979000D02*
X117856000Y-86614000D01*
X119997001Y-89120001D02*
X119959500Y-89082500D01*
X119997001Y-112911052D02*
X119997001Y-89120001D01*
X120650000Y-113564051D02*
X119997001Y-112911052D01*
X120650000Y-114554000D02*
X120650000Y-113564051D01*
X119959500Y-89082500D02*
X117856000Y-86979000D01*
X120396000Y-87764000D02*
X120396000Y-86614000D01*
X120447011Y-87815011D02*
X120396000Y-87764000D01*
X120447011Y-109551062D02*
X120447011Y-87815011D01*
X124460000Y-113564051D02*
X120447011Y-109551062D01*
X124460000Y-114554000D02*
X124460000Y-113564051D01*
X110960001Y-89191999D02*
X111760000Y-88392000D01*
X102807999Y-97344001D02*
X110960001Y-89191999D01*
X92393999Y-97344001D02*
X102807999Y-97344001D01*
X91694000Y-98044000D02*
X92393999Y-97344001D01*
D28*
G36*
X153991000Y-78265879D02*
G01*
X153991000Y-92202036D01*
X153846312Y-91985495D01*
X153632505Y-91771688D01*
X153381095Y-91603701D01*
X153101743Y-91487989D01*
X152805184Y-91429000D01*
X152502816Y-91429000D01*
X152206257Y-91487989D01*
X151926905Y-91603701D01*
X151675495Y-91771688D01*
X151461688Y-91985495D01*
X151293701Y-92236905D01*
X151177989Y-92516257D01*
X151119000Y-92812816D01*
X151119000Y-93115184D01*
X151177989Y-93411743D01*
X151293701Y-93691095D01*
X151461688Y-93942505D01*
X151528127Y-94008944D01*
X151509820Y-94014498D01*
X151399506Y-94073463D01*
X151302815Y-94152815D01*
X151223463Y-94249506D01*
X151164498Y-94359820D01*
X151128188Y-94479518D01*
X151115928Y-94604000D01*
X151115928Y-96404000D01*
X151128188Y-96528482D01*
X151164498Y-96648180D01*
X151223463Y-96758494D01*
X151302815Y-96855185D01*
X151399506Y-96934537D01*
X151509820Y-96993502D01*
X151629518Y-97029812D01*
X151754000Y-97042072D01*
X153554000Y-97042072D01*
X153678482Y-97029812D01*
X153798180Y-96993502D01*
X153908494Y-96934537D01*
X153991001Y-96866826D01*
X153991001Y-109953393D01*
X135088821Y-129353000D01*
X102647221Y-129353000D01*
X99627100Y-126372101D01*
X126245829Y-126372101D01*
X126248285Y-126497161D01*
X126275091Y-126619339D01*
X126831321Y-128331241D01*
X126881449Y-128445841D01*
X126952970Y-128548460D01*
X127043137Y-128635155D01*
X127148485Y-128702592D01*
X127264965Y-128748182D01*
X127388101Y-128770171D01*
X127513161Y-128767715D01*
X127635339Y-128740909D01*
X129347241Y-128184679D01*
X129461841Y-128134551D01*
X129564460Y-128063030D01*
X129651155Y-127972863D01*
X129718592Y-127867515D01*
X129764182Y-127751035D01*
X129786171Y-127627899D01*
X129785801Y-127609035D01*
X129983941Y-127691108D01*
X130280500Y-127750097D01*
X130582868Y-127750097D01*
X130879427Y-127691108D01*
X131158779Y-127575396D01*
X131410189Y-127407409D01*
X131623996Y-127193602D01*
X131791983Y-126942192D01*
X131907695Y-126662840D01*
X131966684Y-126366281D01*
X131966684Y-126063913D01*
X131907695Y-125767354D01*
X131791983Y-125488002D01*
X131623996Y-125236592D01*
X131410189Y-125022785D01*
X131158779Y-124854798D01*
X130879427Y-124739086D01*
X130582868Y-124680097D01*
X130280500Y-124680097D01*
X129983941Y-124739086D01*
X129704589Y-124854798D01*
X129453179Y-125022785D01*
X129239372Y-125236592D01*
X129087565Y-125463787D01*
X129079030Y-125451540D01*
X128988863Y-125364845D01*
X128883515Y-125297408D01*
X128767035Y-125251818D01*
X128643899Y-125229829D01*
X128518839Y-125232285D01*
X128396661Y-125259091D01*
X126684759Y-125815321D01*
X126570159Y-125865449D01*
X126467540Y-125936970D01*
X126380845Y-126027137D01*
X126313408Y-126132485D01*
X126267818Y-126248965D01*
X126245829Y-126372101D01*
X99627100Y-126372101D01*
X92800340Y-119634000D01*
X115498541Y-119634000D01*
X115524317Y-119895706D01*
X115600653Y-120147354D01*
X115724618Y-120379275D01*
X115891445Y-120582555D01*
X116094725Y-120749382D01*
X116326646Y-120873347D01*
X116578294Y-120949683D01*
X116774421Y-120969000D01*
X116905579Y-120969000D01*
X117101706Y-120949683D01*
X117353354Y-120873347D01*
X117585275Y-120749382D01*
X117788555Y-120582555D01*
X117955382Y-120379275D01*
X118079347Y-120147354D01*
X118155683Y-119895706D01*
X118181459Y-119634000D01*
X119308541Y-119634000D01*
X119334317Y-119895706D01*
X119410653Y-120147354D01*
X119534618Y-120379275D01*
X119701445Y-120582555D01*
X119904725Y-120749382D01*
X120136646Y-120873347D01*
X120388294Y-120949683D01*
X120584421Y-120969000D01*
X120715579Y-120969000D01*
X120911706Y-120949683D01*
X121163354Y-120873347D01*
X121395275Y-120749382D01*
X121598555Y-120582555D01*
X121765382Y-120379275D01*
X121889347Y-120147354D01*
X121965683Y-119895706D01*
X121991459Y-119634000D01*
X123118541Y-119634000D01*
X123144317Y-119895706D01*
X123220653Y-120147354D01*
X123344618Y-120379275D01*
X123511445Y-120582555D01*
X123714725Y-120749382D01*
X123946646Y-120873347D01*
X124198294Y-120949683D01*
X124394421Y-120969000D01*
X124525579Y-120969000D01*
X124721706Y-120949683D01*
X124973354Y-120873347D01*
X125205275Y-120749382D01*
X125408555Y-120582555D01*
X125575382Y-120379275D01*
X125699347Y-120147354D01*
X125775683Y-119895706D01*
X125801459Y-119634000D01*
X125775683Y-119372294D01*
X125699347Y-119120646D01*
X125575382Y-118888725D01*
X125408555Y-118685445D01*
X125205275Y-118518618D01*
X124973354Y-118394653D01*
X124721706Y-118318317D01*
X124525579Y-118299000D01*
X124394421Y-118299000D01*
X124198294Y-118318317D01*
X123946646Y-118394653D01*
X123714725Y-118518618D01*
X123511445Y-118685445D01*
X123344618Y-118888725D01*
X123220653Y-119120646D01*
X123144317Y-119372294D01*
X123118541Y-119634000D01*
X121991459Y-119634000D01*
X121965683Y-119372294D01*
X121889347Y-119120646D01*
X121765382Y-118888725D01*
X121598555Y-118685445D01*
X121395275Y-118518618D01*
X121163354Y-118394653D01*
X120911706Y-118318317D01*
X120715579Y-118299000D01*
X120584421Y-118299000D01*
X120388294Y-118318317D01*
X120136646Y-118394653D01*
X119904725Y-118518618D01*
X119701445Y-118685445D01*
X119534618Y-118888725D01*
X119410653Y-119120646D01*
X119334317Y-119372294D01*
X119308541Y-119634000D01*
X118181459Y-119634000D01*
X118155683Y-119372294D01*
X118079347Y-119120646D01*
X117955382Y-118888725D01*
X117788555Y-118685445D01*
X117585275Y-118518618D01*
X117353354Y-118394653D01*
X117101706Y-118318317D01*
X116905579Y-118299000D01*
X116774421Y-118299000D01*
X116578294Y-118318317D01*
X116326646Y-118394653D01*
X116094725Y-118518618D01*
X115891445Y-118685445D01*
X115724618Y-118888725D01*
X115600653Y-119120646D01*
X115524317Y-119372294D01*
X115498541Y-119634000D01*
X92800340Y-119634000D01*
X91245110Y-118098967D01*
X128739000Y-118098967D01*
X128739000Y-118421033D01*
X128801832Y-118736912D01*
X128925082Y-119034463D01*
X129104013Y-119302252D01*
X129331748Y-119529987D01*
X129599537Y-119708918D01*
X129897088Y-119832168D01*
X130212967Y-119895000D01*
X130535033Y-119895000D01*
X130850912Y-119832168D01*
X131148463Y-119708918D01*
X131416252Y-119529987D01*
X131550826Y-119395413D01*
X133918192Y-119395413D01*
X134013956Y-119659814D01*
X134303571Y-119800704D01*
X134615108Y-119882384D01*
X134936595Y-119901718D01*
X135255675Y-119857961D01*
X135560088Y-119752795D01*
X135734044Y-119659814D01*
X135829808Y-119395413D01*
X134874000Y-118439605D01*
X133918192Y-119395413D01*
X131550826Y-119395413D01*
X131643987Y-119302252D01*
X131822918Y-119034463D01*
X131946168Y-118736912D01*
X132009000Y-118421033D01*
X132009000Y-118322595D01*
X133232282Y-118322595D01*
X133276039Y-118641675D01*
X133381205Y-118946088D01*
X133474186Y-119120044D01*
X133738587Y-119215808D01*
X134694395Y-118260000D01*
X135053605Y-118260000D01*
X136009413Y-119215808D01*
X136273814Y-119120044D01*
X136414704Y-118830429D01*
X136496384Y-118518892D01*
X136515718Y-118197405D01*
X136471961Y-117878325D01*
X136366795Y-117573912D01*
X136273814Y-117399956D01*
X136009413Y-117304192D01*
X135053605Y-118260000D01*
X134694395Y-118260000D01*
X133738587Y-117304192D01*
X133474186Y-117399956D01*
X133333296Y-117689571D01*
X133251616Y-118001108D01*
X133232282Y-118322595D01*
X132009000Y-118322595D01*
X132009000Y-118098967D01*
X131946168Y-117783088D01*
X131822918Y-117485537D01*
X131643987Y-117217748D01*
X131550826Y-117124587D01*
X133918192Y-117124587D01*
X134874000Y-118080395D01*
X135829808Y-117124587D01*
X135734044Y-116860186D01*
X135444429Y-116719296D01*
X135132892Y-116637616D01*
X134811405Y-116618282D01*
X134492325Y-116662039D01*
X134187912Y-116767205D01*
X134013956Y-116860186D01*
X133918192Y-117124587D01*
X131550826Y-117124587D01*
X131416252Y-116990013D01*
X131148463Y-116811082D01*
X130850912Y-116687832D01*
X130535033Y-116625000D01*
X130212967Y-116625000D01*
X129897088Y-116687832D01*
X129599537Y-116811082D01*
X129331748Y-116990013D01*
X129104013Y-117217748D01*
X128925082Y-117485537D01*
X128801832Y-117783088D01*
X128739000Y-118098967D01*
X91245110Y-118098967D01*
X85909891Y-112833038D01*
X88814323Y-112833038D01*
X88831461Y-112956943D01*
X88872442Y-113075123D01*
X88935692Y-113183037D01*
X89993705Y-114639268D01*
X90076792Y-114732769D01*
X90176524Y-114808265D01*
X90289068Y-114862853D01*
X90410099Y-114894435D01*
X90534966Y-114901799D01*
X90658871Y-114884661D01*
X90673190Y-114879696D01*
X90667000Y-114910816D01*
X90667000Y-115213184D01*
X90725989Y-115509743D01*
X90841701Y-115789095D01*
X91009688Y-116040505D01*
X91223495Y-116254312D01*
X91474905Y-116422299D01*
X91754257Y-116538011D01*
X92050816Y-116597000D01*
X92353184Y-116597000D01*
X92649743Y-116538011D01*
X92929095Y-116422299D01*
X93180505Y-116254312D01*
X93394312Y-116040505D01*
X93562299Y-115789095D01*
X93678011Y-115509743D01*
X93737000Y-115213184D01*
X93737000Y-114910816D01*
X93678011Y-114614257D01*
X93562299Y-114334905D01*
X93394312Y-114083495D01*
X93180505Y-113869688D01*
X92929095Y-113701701D01*
X92649743Y-113585989D01*
X92497934Y-113555792D01*
X92510193Y-113539598D01*
X92564781Y-113427054D01*
X92596363Y-113306023D01*
X92603727Y-113181156D01*
X92586589Y-113057251D01*
X92545608Y-112939071D01*
X92482358Y-112831157D01*
X91424345Y-111374926D01*
X91341258Y-111281425D01*
X91241526Y-111205929D01*
X91128982Y-111151341D01*
X91007951Y-111119759D01*
X90883084Y-111112395D01*
X90759179Y-111129533D01*
X90640999Y-111170514D01*
X90533085Y-111233764D01*
X89076854Y-112291777D01*
X88983353Y-112374864D01*
X88907857Y-112474596D01*
X88853269Y-112587140D01*
X88821687Y-112708171D01*
X88814323Y-112833038D01*
X85909891Y-112833038D01*
X83499000Y-110453458D01*
X83499000Y-107562544D01*
X87799000Y-107562544D01*
X87799000Y-107829456D01*
X87851072Y-108091239D01*
X87953215Y-108337833D01*
X88101503Y-108559762D01*
X88290238Y-108748497D01*
X88512167Y-108896785D01*
X88758761Y-108998928D01*
X89020544Y-109051000D01*
X89287456Y-109051000D01*
X89549239Y-108998928D01*
X89795833Y-108896785D01*
X90017762Y-108748497D01*
X90206497Y-108559762D01*
X90354785Y-108337833D01*
X90456928Y-108091239D01*
X90509000Y-107829456D01*
X90509000Y-107562544D01*
X90456928Y-107300761D01*
X90354785Y-107054167D01*
X90206497Y-106832238D01*
X90017762Y-106643503D01*
X89795833Y-106495215D01*
X89549239Y-106393072D01*
X89287456Y-106341000D01*
X89020544Y-106341000D01*
X88758761Y-106393072D01*
X88512167Y-106495215D01*
X88290238Y-106643503D01*
X88101503Y-106832238D01*
X87953215Y-107054167D01*
X87851072Y-107300761D01*
X87799000Y-107562544D01*
X83499000Y-107562544D01*
X83499000Y-105022544D01*
X85259000Y-105022544D01*
X85259000Y-105289456D01*
X85311072Y-105551239D01*
X85413215Y-105797833D01*
X85561503Y-106019762D01*
X85750238Y-106208497D01*
X85972167Y-106356785D01*
X86218761Y-106458928D01*
X86480544Y-106511000D01*
X86747456Y-106511000D01*
X87009239Y-106458928D01*
X87255833Y-106356785D01*
X87477762Y-106208497D01*
X87666497Y-106019762D01*
X87814785Y-105797833D01*
X87916928Y-105551239D01*
X87969000Y-105289456D01*
X87969000Y-105022544D01*
X87916928Y-104760761D01*
X87814785Y-104514167D01*
X87666497Y-104292238D01*
X87477762Y-104103503D01*
X87255833Y-103955215D01*
X87009239Y-103853072D01*
X86747456Y-103801000D01*
X86480544Y-103801000D01*
X86218761Y-103853072D01*
X85972167Y-103955215D01*
X85750238Y-104103503D01*
X85561503Y-104292238D01*
X85413215Y-104514167D01*
X85311072Y-104760761D01*
X85259000Y-105022544D01*
X83499000Y-105022544D01*
X83499000Y-102482544D01*
X87799000Y-102482544D01*
X87799000Y-102749456D01*
X87851072Y-103011239D01*
X87953215Y-103257833D01*
X88101503Y-103479762D01*
X88290238Y-103668497D01*
X88512167Y-103816785D01*
X88758761Y-103918928D01*
X89020544Y-103971000D01*
X89287456Y-103971000D01*
X89549239Y-103918928D01*
X89795833Y-103816785D01*
X90017762Y-103668497D01*
X90206497Y-103479762D01*
X90354785Y-103257833D01*
X90456928Y-103011239D01*
X90509000Y-102749456D01*
X90509000Y-102482544D01*
X90456928Y-102220761D01*
X90354785Y-101974167D01*
X90206497Y-101752238D01*
X90017762Y-101563503D01*
X89795833Y-101415215D01*
X89549239Y-101313072D01*
X89287456Y-101261000D01*
X89020544Y-101261000D01*
X88758761Y-101313072D01*
X88512167Y-101415215D01*
X88290238Y-101563503D01*
X88101503Y-101752238D01*
X87953215Y-101974167D01*
X87851072Y-102220761D01*
X87799000Y-102482544D01*
X83499000Y-102482544D01*
X83499000Y-98044000D01*
X85272541Y-98044000D01*
X85298317Y-98305706D01*
X85374653Y-98557354D01*
X85498618Y-98789275D01*
X85665445Y-98992555D01*
X85868725Y-99159382D01*
X86100646Y-99283347D01*
X86352294Y-99359683D01*
X86548421Y-99379000D01*
X86679579Y-99379000D01*
X86875706Y-99359683D01*
X87127354Y-99283347D01*
X87359275Y-99159382D01*
X87562555Y-98992555D01*
X87729382Y-98789275D01*
X87853347Y-98557354D01*
X87929683Y-98305706D01*
X87955459Y-98044000D01*
X87942509Y-97912514D01*
X90359000Y-97912514D01*
X90359000Y-98175486D01*
X90410304Y-98433405D01*
X90510939Y-98676359D01*
X90657038Y-98895013D01*
X90842987Y-99080962D01*
X91061641Y-99227061D01*
X91304595Y-99327696D01*
X91562514Y-99379000D01*
X91825486Y-99379000D01*
X92083405Y-99327696D01*
X92326359Y-99227061D01*
X92545013Y-99080962D01*
X92730962Y-98895013D01*
X92877061Y-98676359D01*
X92977696Y-98433405D01*
X93029000Y-98175486D01*
X93029000Y-98104001D01*
X95156328Y-98104001D01*
X95105764Y-98270691D01*
X95078057Y-98552000D01*
X95105764Y-98833309D01*
X95187818Y-99103808D01*
X95321068Y-99353101D01*
X95500392Y-99571608D01*
X95718899Y-99750932D01*
X95851858Y-99822000D01*
X95718899Y-99893068D01*
X95500392Y-100072392D01*
X95321068Y-100290899D01*
X95187818Y-100540192D01*
X95105764Y-100810691D01*
X95078057Y-101092000D01*
X95105764Y-101373309D01*
X95187818Y-101643808D01*
X95321068Y-101893101D01*
X95500392Y-102111608D01*
X95718899Y-102290932D01*
X95851858Y-102362000D01*
X95718899Y-102433068D01*
X95500392Y-102612392D01*
X95321068Y-102830899D01*
X95187818Y-103080192D01*
X95105764Y-103350691D01*
X95078057Y-103632000D01*
X95105764Y-103913309D01*
X95187818Y-104183808D01*
X95321068Y-104433101D01*
X95500392Y-104651608D01*
X95718899Y-104830932D01*
X95851858Y-104902000D01*
X95718899Y-104973068D01*
X95500392Y-105152392D01*
X95321068Y-105370899D01*
X95187818Y-105620192D01*
X95105764Y-105890691D01*
X95078057Y-106172000D01*
X95105764Y-106453309D01*
X95187818Y-106723808D01*
X95321068Y-106973101D01*
X95500392Y-107191608D01*
X95718899Y-107370932D01*
X95851858Y-107442000D01*
X95718899Y-107513068D01*
X95500392Y-107692392D01*
X95321068Y-107910899D01*
X95187818Y-108160192D01*
X95105764Y-108430691D01*
X95078057Y-108712000D01*
X95105764Y-108993309D01*
X95187818Y-109263808D01*
X95321068Y-109513101D01*
X95500392Y-109731608D01*
X95718899Y-109910932D01*
X95851858Y-109982000D01*
X95718899Y-110053068D01*
X95500392Y-110232392D01*
X95321068Y-110450899D01*
X95187818Y-110700192D01*
X95105764Y-110970691D01*
X95078057Y-111252000D01*
X95105764Y-111533309D01*
X95187818Y-111803808D01*
X95321068Y-112053101D01*
X95500392Y-112271608D01*
X95718899Y-112450932D01*
X95851858Y-112522000D01*
X95718899Y-112593068D01*
X95500392Y-112772392D01*
X95321068Y-112990899D01*
X95187818Y-113240192D01*
X95105764Y-113510691D01*
X95078057Y-113792000D01*
X95105764Y-114073309D01*
X95187818Y-114343808D01*
X95321068Y-114593101D01*
X95500392Y-114811608D01*
X95718899Y-114990932D01*
X95851858Y-115062000D01*
X95718899Y-115133068D01*
X95500392Y-115312392D01*
X95321068Y-115530899D01*
X95187818Y-115780192D01*
X95105764Y-116050691D01*
X95078057Y-116332000D01*
X95105764Y-116613309D01*
X95187818Y-116883808D01*
X95321068Y-117133101D01*
X95500392Y-117351608D01*
X95718899Y-117530932D01*
X95968192Y-117664182D01*
X96238691Y-117746236D01*
X96449508Y-117767000D01*
X96590492Y-117767000D01*
X96801309Y-117746236D01*
X97071808Y-117664182D01*
X97321101Y-117530932D01*
X97539608Y-117351608D01*
X97718932Y-117133101D01*
X97852182Y-116883808D01*
X97934236Y-116613309D01*
X97961943Y-116332000D01*
X97934236Y-116050691D01*
X97852182Y-115780192D01*
X97718932Y-115530899D01*
X97539608Y-115312392D01*
X97321101Y-115133068D01*
X97188142Y-115062000D01*
X97321101Y-114990932D01*
X97539608Y-114811608D01*
X97718932Y-114593101D01*
X97852182Y-114343808D01*
X97934236Y-114073309D01*
X97961943Y-113792000D01*
X97934236Y-113510691D01*
X97852182Y-113240192D01*
X97718932Y-112990899D01*
X97539608Y-112772392D01*
X97321101Y-112593068D01*
X97188142Y-112522000D01*
X97321101Y-112450932D01*
X97539608Y-112271608D01*
X97718932Y-112053101D01*
X97852182Y-111803808D01*
X97934236Y-111533309D01*
X97961943Y-111252000D01*
X97934236Y-110970691D01*
X97852182Y-110700192D01*
X97718932Y-110450899D01*
X97539608Y-110232392D01*
X97321101Y-110053068D01*
X97188142Y-109982000D01*
X97321101Y-109910932D01*
X97539608Y-109731608D01*
X97718932Y-109513101D01*
X97852182Y-109263808D01*
X97934236Y-108993309D01*
X97961943Y-108712000D01*
X97934236Y-108430691D01*
X97852182Y-108160192D01*
X97718932Y-107910899D01*
X97539608Y-107692392D01*
X97321101Y-107513068D01*
X97188142Y-107442000D01*
X97321101Y-107370932D01*
X97539608Y-107191608D01*
X97718932Y-106973101D01*
X97852182Y-106723808D01*
X97934236Y-106453309D01*
X97961943Y-106172000D01*
X97934236Y-105890691D01*
X97852182Y-105620192D01*
X97718932Y-105370899D01*
X97539608Y-105152392D01*
X97321101Y-104973068D01*
X97188142Y-104902000D01*
X97321101Y-104830932D01*
X97539608Y-104651608D01*
X97718932Y-104433101D01*
X97852182Y-104183808D01*
X97934236Y-103913309D01*
X97961943Y-103632000D01*
X97934236Y-103350691D01*
X97852182Y-103080192D01*
X97718932Y-102830899D01*
X97539608Y-102612392D01*
X97321101Y-102433068D01*
X97188142Y-102362000D01*
X97321101Y-102290932D01*
X97539608Y-102111608D01*
X97718932Y-101893101D01*
X97852182Y-101643808D01*
X97934236Y-101373309D01*
X97961943Y-101092000D01*
X97934236Y-100810691D01*
X97852182Y-100540192D01*
X97718932Y-100290899D01*
X97539608Y-100072392D01*
X97321101Y-99893068D01*
X97188142Y-99822000D01*
X97321101Y-99750932D01*
X97539608Y-99571608D01*
X97718932Y-99353101D01*
X97852182Y-99103808D01*
X97934236Y-98833309D01*
X97961943Y-98552000D01*
X97934236Y-98270691D01*
X97883672Y-98104001D01*
X102770677Y-98104001D01*
X102807999Y-98107677D01*
X102845321Y-98104001D01*
X102845332Y-98104001D01*
X102956985Y-98093004D01*
X103100246Y-98049547D01*
X103232275Y-97978975D01*
X103348000Y-97884002D01*
X103371803Y-97854998D01*
X110320598Y-90906204D01*
X110318057Y-90932000D01*
X110345764Y-91213309D01*
X110427818Y-91483808D01*
X110561068Y-91733101D01*
X110740392Y-91951608D01*
X110958899Y-92130932D01*
X111091858Y-92202000D01*
X110958899Y-92273068D01*
X110740392Y-92452392D01*
X110561068Y-92670899D01*
X110427818Y-92920192D01*
X110345764Y-93190691D01*
X110318057Y-93472000D01*
X110345764Y-93753309D01*
X110427818Y-94023808D01*
X110561068Y-94273101D01*
X110740392Y-94491608D01*
X110958899Y-94670932D01*
X111091858Y-94742000D01*
X110958899Y-94813068D01*
X110740392Y-94992392D01*
X110561068Y-95210899D01*
X110427818Y-95460192D01*
X110345764Y-95730691D01*
X110318057Y-96012000D01*
X110345764Y-96293309D01*
X110427818Y-96563808D01*
X110561068Y-96813101D01*
X110740392Y-97031608D01*
X110958899Y-97210932D01*
X111091858Y-97282000D01*
X110958899Y-97353068D01*
X110740392Y-97532392D01*
X110561068Y-97750899D01*
X110427818Y-98000192D01*
X110345764Y-98270691D01*
X110318057Y-98552000D01*
X110345764Y-98833309D01*
X110427818Y-99103808D01*
X110561068Y-99353101D01*
X110740392Y-99571608D01*
X110958899Y-99750932D01*
X111091858Y-99822000D01*
X110958899Y-99893068D01*
X110740392Y-100072392D01*
X110561068Y-100290899D01*
X110427818Y-100540192D01*
X110345764Y-100810691D01*
X110318057Y-101092000D01*
X110345764Y-101373309D01*
X110427818Y-101643808D01*
X110561068Y-101893101D01*
X110740392Y-102111608D01*
X110958899Y-102290932D01*
X111091858Y-102362000D01*
X110958899Y-102433068D01*
X110740392Y-102612392D01*
X110561068Y-102830899D01*
X110427818Y-103080192D01*
X110345764Y-103350691D01*
X110318057Y-103632000D01*
X110345764Y-103913309D01*
X110427818Y-104183808D01*
X110561068Y-104433101D01*
X110740392Y-104651608D01*
X110958899Y-104830932D01*
X111091858Y-104902000D01*
X110958899Y-104973068D01*
X110740392Y-105152392D01*
X110561068Y-105370899D01*
X110427818Y-105620192D01*
X110345764Y-105890691D01*
X110318057Y-106172000D01*
X110345764Y-106453309D01*
X110427818Y-106723808D01*
X110561068Y-106973101D01*
X110740392Y-107191608D01*
X110958899Y-107370932D01*
X111091858Y-107442000D01*
X110958899Y-107513068D01*
X110740392Y-107692392D01*
X110561068Y-107910899D01*
X110427818Y-108160192D01*
X110345764Y-108430691D01*
X110318057Y-108712000D01*
X110345764Y-108993309D01*
X110427818Y-109263808D01*
X110561068Y-109513101D01*
X110740392Y-109731608D01*
X110958899Y-109910932D01*
X111091858Y-109982000D01*
X110958899Y-110053068D01*
X110740392Y-110232392D01*
X110561068Y-110450899D01*
X110427818Y-110700192D01*
X110345764Y-110970691D01*
X110318057Y-111252000D01*
X110345764Y-111533309D01*
X110427818Y-111803808D01*
X110561068Y-112053101D01*
X110740392Y-112271608D01*
X110958899Y-112450932D01*
X111091858Y-112522000D01*
X110958899Y-112593068D01*
X110740392Y-112772392D01*
X110561068Y-112990899D01*
X110427818Y-113240192D01*
X110345764Y-113510691D01*
X110318057Y-113792000D01*
X110345764Y-114073309D01*
X110427818Y-114343808D01*
X110561068Y-114593101D01*
X110740392Y-114811608D01*
X110958899Y-114990932D01*
X111091858Y-115062000D01*
X110958899Y-115133068D01*
X110740392Y-115312392D01*
X110561068Y-115530899D01*
X110427818Y-115780192D01*
X110345764Y-116050691D01*
X110318057Y-116332000D01*
X110345764Y-116613309D01*
X110427818Y-116883808D01*
X110561068Y-117133101D01*
X110740392Y-117351608D01*
X110958899Y-117530932D01*
X111208192Y-117664182D01*
X111478691Y-117746236D01*
X111689508Y-117767000D01*
X111830492Y-117767000D01*
X112041309Y-117746236D01*
X112311808Y-117664182D01*
X112561101Y-117530932D01*
X112779608Y-117351608D01*
X112958932Y-117133101D01*
X113092182Y-116883808D01*
X113174236Y-116613309D01*
X113201943Y-116332000D01*
X113174236Y-116050691D01*
X113092182Y-115780192D01*
X112958932Y-115530899D01*
X112779608Y-115312392D01*
X112561101Y-115133068D01*
X112428142Y-115062000D01*
X112561101Y-114990932D01*
X112779608Y-114811608D01*
X112958932Y-114593101D01*
X113092182Y-114343808D01*
X113174236Y-114073309D01*
X113201943Y-113792000D01*
X113174236Y-113510691D01*
X113092182Y-113240192D01*
X112958932Y-112990899D01*
X112779608Y-112772392D01*
X112561101Y-112593068D01*
X112428142Y-112522000D01*
X112561101Y-112450932D01*
X112779608Y-112271608D01*
X112958932Y-112053101D01*
X113092182Y-111803808D01*
X113174236Y-111533309D01*
X113201943Y-111252000D01*
X113174236Y-110970691D01*
X113092182Y-110700192D01*
X112958932Y-110450899D01*
X112779608Y-110232392D01*
X112561101Y-110053068D01*
X112428142Y-109982000D01*
X112561101Y-109910932D01*
X112779608Y-109731608D01*
X112958932Y-109513101D01*
X113092182Y-109263808D01*
X113174236Y-108993309D01*
X113201943Y-108712000D01*
X113174236Y-108430691D01*
X113092182Y-108160192D01*
X112958932Y-107910899D01*
X112779608Y-107692392D01*
X112561101Y-107513068D01*
X112428142Y-107442000D01*
X112561101Y-107370932D01*
X112779608Y-107191608D01*
X112958932Y-106973101D01*
X113092182Y-106723808D01*
X113174236Y-106453309D01*
X113201943Y-106172000D01*
X113174236Y-105890691D01*
X113092182Y-105620192D01*
X112958932Y-105370899D01*
X112779608Y-105152392D01*
X112561101Y-104973068D01*
X112428142Y-104902000D01*
X112561101Y-104830932D01*
X112779608Y-104651608D01*
X112958932Y-104433101D01*
X113092182Y-104183808D01*
X113174236Y-103913309D01*
X113201943Y-103632000D01*
X113174236Y-103350691D01*
X113092182Y-103080192D01*
X112958932Y-102830899D01*
X112779608Y-102612392D01*
X112561101Y-102433068D01*
X112428142Y-102362000D01*
X112561101Y-102290932D01*
X112779608Y-102111608D01*
X112958932Y-101893101D01*
X113092182Y-101643808D01*
X113174236Y-101373309D01*
X113201943Y-101092000D01*
X113174236Y-100810691D01*
X113092182Y-100540192D01*
X112958932Y-100290899D01*
X112779608Y-100072392D01*
X112561101Y-99893068D01*
X112428142Y-99822000D01*
X112561101Y-99750932D01*
X112779608Y-99571608D01*
X112958932Y-99353101D01*
X113092182Y-99103808D01*
X113174236Y-98833309D01*
X113201943Y-98552000D01*
X113174236Y-98270691D01*
X113092182Y-98000192D01*
X112958932Y-97750899D01*
X112779608Y-97532392D01*
X112561101Y-97353068D01*
X112428142Y-97282000D01*
X112561101Y-97210932D01*
X112779608Y-97031608D01*
X112958932Y-96813101D01*
X113092182Y-96563808D01*
X113174236Y-96293309D01*
X113201943Y-96012000D01*
X113174236Y-95730691D01*
X113092182Y-95460192D01*
X112958932Y-95210899D01*
X112779608Y-94992392D01*
X112561101Y-94813068D01*
X112428142Y-94742000D01*
X112561101Y-94670932D01*
X112779608Y-94491608D01*
X112958932Y-94273101D01*
X113092182Y-94023808D01*
X113174236Y-93753309D01*
X113201943Y-93472000D01*
X113174236Y-93190691D01*
X113092182Y-92920192D01*
X112958932Y-92670899D01*
X112779608Y-92452392D01*
X112561101Y-92273068D01*
X112428142Y-92202000D01*
X112561101Y-92130932D01*
X112779608Y-91951608D01*
X112958932Y-91733101D01*
X113092182Y-91483808D01*
X113174236Y-91213309D01*
X113201943Y-90932000D01*
X113174236Y-90650691D01*
X113160708Y-90606093D01*
X113395998Y-90370803D01*
X113425002Y-90347000D01*
X113519975Y-90231275D01*
X113590547Y-90099246D01*
X113634004Y-89955985D01*
X113645001Y-89844332D01*
X113645001Y-89844323D01*
X113648677Y-89807000D01*
X113645001Y-89769677D01*
X113645001Y-89048563D01*
X115445096Y-87248468D01*
X115499831Y-87428905D01*
X115608474Y-87632161D01*
X115754682Y-87810318D01*
X115932838Y-87956526D01*
X116080001Y-88035187D01*
X116080000Y-113456225D01*
X115988987Y-113517038D01*
X115803038Y-113702987D01*
X115656939Y-113921641D01*
X115556304Y-114164595D01*
X115505000Y-114422514D01*
X115505000Y-114685486D01*
X115556304Y-114943405D01*
X115656939Y-115186359D01*
X115803038Y-115405013D01*
X115988987Y-115590962D01*
X116207641Y-115737061D01*
X116450595Y-115837696D01*
X116708514Y-115889000D01*
X116971486Y-115889000D01*
X117229405Y-115837696D01*
X117472359Y-115737061D01*
X117691013Y-115590962D01*
X117876962Y-115405013D01*
X118023061Y-115186359D01*
X118123696Y-114943405D01*
X118175000Y-114685486D01*
X118175000Y-114422514D01*
X118123696Y-114164595D01*
X118023061Y-113921641D01*
X117876962Y-113702987D01*
X117691013Y-113517038D01*
X117600000Y-113456225D01*
X117600000Y-103497418D01*
X117635329Y-103563514D01*
X117879298Y-103635097D01*
X118692395Y-102822000D01*
X117879298Y-102008903D01*
X117635329Y-102080486D01*
X117600000Y-102155150D01*
X117600000Y-100500954D01*
X117600320Y-100501727D01*
X117757363Y-100736759D01*
X117957241Y-100936637D01*
X118192273Y-101093680D01*
X118453426Y-101201853D01*
X118730665Y-101257000D01*
X119013335Y-101257000D01*
X119237001Y-101212509D01*
X119237001Y-101434098D01*
X119083816Y-101395700D01*
X118801488Y-101381783D01*
X118521870Y-101423213D01*
X118255708Y-101518397D01*
X118130486Y-101585329D01*
X118058903Y-101829298D01*
X118872000Y-102642395D01*
X118886143Y-102628253D01*
X119065748Y-102807858D01*
X119051605Y-102822000D01*
X119065748Y-102836143D01*
X118886143Y-103015748D01*
X118872000Y-103001605D01*
X118058903Y-103814702D01*
X118130486Y-104058671D01*
X118385996Y-104179571D01*
X118660184Y-104248300D01*
X118942512Y-104262217D01*
X119222130Y-104220787D01*
X119237001Y-104215469D01*
X119237001Y-112873730D01*
X119233325Y-112911052D01*
X119237001Y-112948374D01*
X119237001Y-112948384D01*
X119247998Y-113060037D01*
X119285309Y-113183037D01*
X119291455Y-113203298D01*
X119362027Y-113335328D01*
X119380602Y-113357961D01*
X119457000Y-113451053D01*
X119486003Y-113474855D01*
X119663586Y-113652439D01*
X119613038Y-113702987D01*
X119466939Y-113921641D01*
X119366304Y-114164595D01*
X119315000Y-114422514D01*
X119315000Y-114685486D01*
X119366304Y-114943405D01*
X119466939Y-115186359D01*
X119613038Y-115405013D01*
X119798987Y-115590962D01*
X120017641Y-115737061D01*
X120260595Y-115837696D01*
X120518514Y-115889000D01*
X120781486Y-115889000D01*
X121039405Y-115837696D01*
X121282359Y-115737061D01*
X121501013Y-115590962D01*
X121686962Y-115405013D01*
X121833061Y-115186359D01*
X121933696Y-114943405D01*
X121985000Y-114685486D01*
X121985000Y-114422514D01*
X121933696Y-114164595D01*
X121833061Y-113921641D01*
X121686962Y-113702987D01*
X121501013Y-113517038D01*
X121402568Y-113451260D01*
X121399003Y-113415065D01*
X121355546Y-113271804D01*
X121318929Y-113203299D01*
X121284974Y-113139774D01*
X121213799Y-113053048D01*
X121213798Y-113053047D01*
X121190001Y-113024050D01*
X121161002Y-113000251D01*
X120757001Y-112596251D01*
X120757001Y-110935853D01*
X123473586Y-113652439D01*
X123423038Y-113702987D01*
X123276939Y-113921641D01*
X123176304Y-114164595D01*
X123125000Y-114422514D01*
X123125000Y-114685486D01*
X123176304Y-114943405D01*
X123276939Y-115186359D01*
X123423038Y-115405013D01*
X123608987Y-115590962D01*
X123827641Y-115737061D01*
X124070595Y-115837696D01*
X124328514Y-115889000D01*
X124591486Y-115889000D01*
X124849405Y-115837696D01*
X125092359Y-115737061D01*
X125311013Y-115590962D01*
X125496962Y-115405013D01*
X125643061Y-115186359D01*
X125743696Y-114943405D01*
X125795000Y-114685486D01*
X125795000Y-114422514D01*
X125743696Y-114164595D01*
X125643061Y-113921641D01*
X125496962Y-113702987D01*
X125311013Y-113517038D01*
X125212568Y-113451260D01*
X125209003Y-113415065D01*
X125165546Y-113271804D01*
X125094974Y-113139775D01*
X125029535Y-113060037D01*
X125023799Y-113053047D01*
X125023795Y-113053043D01*
X125000001Y-113024050D01*
X124971008Y-113000256D01*
X123569719Y-111598967D01*
X128739000Y-111598967D01*
X128739000Y-111921033D01*
X128801832Y-112236912D01*
X128925082Y-112534463D01*
X129104013Y-112802252D01*
X129331748Y-113029987D01*
X129599537Y-113208918D01*
X129897088Y-113332168D01*
X130212967Y-113395000D01*
X130535033Y-113395000D01*
X130850912Y-113332168D01*
X131148463Y-113208918D01*
X131416252Y-113029987D01*
X131550826Y-112895413D01*
X133918192Y-112895413D01*
X134013956Y-113159814D01*
X134303571Y-113300704D01*
X134615108Y-113382384D01*
X134936595Y-113401718D01*
X135255675Y-113357961D01*
X135560088Y-113252795D01*
X135734044Y-113159814D01*
X135829808Y-112895413D01*
X134874000Y-111939605D01*
X133918192Y-112895413D01*
X131550826Y-112895413D01*
X131643987Y-112802252D01*
X131822918Y-112534463D01*
X131946168Y-112236912D01*
X132009000Y-111921033D01*
X132009000Y-111822595D01*
X133232282Y-111822595D01*
X133276039Y-112141675D01*
X133381205Y-112446088D01*
X133474186Y-112620044D01*
X133738587Y-112715808D01*
X134694395Y-111760000D01*
X135053605Y-111760000D01*
X136009413Y-112715808D01*
X136273814Y-112620044D01*
X136414704Y-112330429D01*
X136496384Y-112018892D01*
X136515718Y-111697405D01*
X136471961Y-111378325D01*
X136366795Y-111073912D01*
X136273814Y-110899956D01*
X136009413Y-110804192D01*
X135053605Y-111760000D01*
X134694395Y-111760000D01*
X133738587Y-110804192D01*
X133474186Y-110899956D01*
X133333296Y-111189571D01*
X133251616Y-111501108D01*
X133232282Y-111822595D01*
X132009000Y-111822595D01*
X132009000Y-111598967D01*
X131946168Y-111283088D01*
X131822918Y-110985537D01*
X131643987Y-110717748D01*
X131550826Y-110624587D01*
X133918192Y-110624587D01*
X134874000Y-111580395D01*
X135829808Y-110624587D01*
X135734044Y-110360186D01*
X135444429Y-110219296D01*
X135132892Y-110137616D01*
X134811405Y-110118282D01*
X134492325Y-110162039D01*
X134187912Y-110267205D01*
X134013956Y-110360186D01*
X133918192Y-110624587D01*
X131550826Y-110624587D01*
X131416252Y-110490013D01*
X131148463Y-110311082D01*
X130850912Y-110187832D01*
X130535033Y-110125000D01*
X130212967Y-110125000D01*
X129897088Y-110187832D01*
X129599537Y-110311082D01*
X129331748Y-110490013D01*
X129104013Y-110717748D01*
X128925082Y-110985537D01*
X128801832Y-111283088D01*
X128739000Y-111598967D01*
X123569719Y-111598967D01*
X121207011Y-109236261D01*
X121207011Y-108885560D01*
X143770045Y-108885560D01*
X143831932Y-109121368D01*
X144073790Y-109234266D01*
X144333027Y-109297811D01*
X144599680Y-109309561D01*
X144863501Y-109269063D01*
X145114353Y-109177875D01*
X145220068Y-109121368D01*
X145281955Y-108885560D01*
X144526000Y-108129605D01*
X143770045Y-108885560D01*
X121207011Y-108885560D01*
X121207011Y-108023680D01*
X143166439Y-108023680D01*
X143206937Y-108287501D01*
X143298125Y-108538353D01*
X143354632Y-108644068D01*
X143590440Y-108705955D01*
X144346395Y-107950000D01*
X144705605Y-107950000D01*
X145461560Y-108705955D01*
X145697368Y-108644068D01*
X145810266Y-108402210D01*
X145873811Y-108142973D01*
X145885561Y-107876320D01*
X145845063Y-107612499D01*
X145753875Y-107361647D01*
X145697368Y-107255932D01*
X145461560Y-107194045D01*
X144705605Y-107950000D01*
X144346395Y-107950000D01*
X143590440Y-107194045D01*
X143354632Y-107255932D01*
X143241734Y-107497790D01*
X143178189Y-107757027D01*
X143166439Y-108023680D01*
X121207011Y-108023680D01*
X121207011Y-107014440D01*
X143770045Y-107014440D01*
X144526000Y-107770395D01*
X145281955Y-107014440D01*
X145220068Y-106778632D01*
X144978210Y-106665734D01*
X144718973Y-106602189D01*
X144452320Y-106590439D01*
X144188499Y-106630937D01*
X143937647Y-106722125D01*
X143831932Y-106778632D01*
X143770045Y-107014440D01*
X121207011Y-107014440D01*
X121207011Y-105276544D01*
X140631000Y-105276544D01*
X140631000Y-105543456D01*
X140683072Y-105805239D01*
X140785215Y-106051833D01*
X140933503Y-106273762D01*
X141122238Y-106462497D01*
X141344167Y-106610785D01*
X141590761Y-106712928D01*
X141852544Y-106765000D01*
X142119456Y-106765000D01*
X142381239Y-106712928D01*
X142627833Y-106610785D01*
X142849762Y-106462497D01*
X143038497Y-106273762D01*
X143186785Y-106051833D01*
X143288928Y-105805239D01*
X143341000Y-105543456D01*
X143341000Y-105276544D01*
X143288928Y-105014761D01*
X143186785Y-104768167D01*
X143038497Y-104546238D01*
X142849762Y-104357503D01*
X142627833Y-104209215D01*
X142381239Y-104107072D01*
X142119456Y-104055000D01*
X141852544Y-104055000D01*
X141590761Y-104107072D01*
X141344167Y-104209215D01*
X141122238Y-104357503D01*
X140933503Y-104546238D01*
X140785215Y-104768167D01*
X140683072Y-105014761D01*
X140631000Y-105276544D01*
X121207011Y-105276544D01*
X121207011Y-101004000D01*
X125511928Y-101004000D01*
X125511928Y-102704000D01*
X125524188Y-102828482D01*
X125560498Y-102948180D01*
X125619463Y-103058494D01*
X125698815Y-103155185D01*
X125795506Y-103234537D01*
X125905820Y-103293502D01*
X126025518Y-103329812D01*
X126150000Y-103342072D01*
X127850000Y-103342072D01*
X127974482Y-103329812D01*
X128094180Y-103293502D01*
X128204494Y-103234537D01*
X128301185Y-103155185D01*
X128380537Y-103058494D01*
X128439502Y-102948180D01*
X128460393Y-102879313D01*
X128484866Y-102909134D01*
X128710986Y-103094706D01*
X128968966Y-103232599D01*
X129248889Y-103317513D01*
X129467050Y-103339000D01*
X129612950Y-103339000D01*
X129831111Y-103317513D01*
X130111034Y-103232599D01*
X130369014Y-103094706D01*
X130595134Y-102909134D01*
X130736775Y-102736544D01*
X143171000Y-102736544D01*
X143171000Y-103003456D01*
X143223072Y-103265239D01*
X143325215Y-103511833D01*
X143473503Y-103733762D01*
X143662238Y-103922497D01*
X143884167Y-104070785D01*
X144130761Y-104172928D01*
X144392544Y-104225000D01*
X144659456Y-104225000D01*
X144921239Y-104172928D01*
X145167833Y-104070785D01*
X145389762Y-103922497D01*
X145578497Y-103733762D01*
X145726785Y-103511833D01*
X145828928Y-103265239D01*
X145881000Y-103003456D01*
X145881000Y-102736544D01*
X145828928Y-102474761D01*
X145726785Y-102228167D01*
X145578497Y-102006238D01*
X145389762Y-101817503D01*
X145167833Y-101669215D01*
X144921239Y-101567072D01*
X144659456Y-101515000D01*
X144392544Y-101515000D01*
X144130761Y-101567072D01*
X143884167Y-101669215D01*
X143662238Y-101817503D01*
X143473503Y-102006238D01*
X143325215Y-102228167D01*
X143223072Y-102474761D01*
X143171000Y-102736544D01*
X130736775Y-102736544D01*
X130780706Y-102683014D01*
X130918599Y-102425034D01*
X131003513Y-102145111D01*
X131032185Y-101854000D01*
X131003513Y-101562889D01*
X130918599Y-101282966D01*
X130780706Y-101024986D01*
X130595134Y-100798866D01*
X130369014Y-100613294D01*
X130111034Y-100475401D01*
X129831111Y-100390487D01*
X129612950Y-100369000D01*
X129467050Y-100369000D01*
X129248889Y-100390487D01*
X128968966Y-100475401D01*
X128710986Y-100613294D01*
X128484866Y-100798866D01*
X128460393Y-100828687D01*
X128439502Y-100759820D01*
X128380537Y-100649506D01*
X128301185Y-100552815D01*
X128204494Y-100473463D01*
X128094180Y-100414498D01*
X127974482Y-100378188D01*
X127850000Y-100365928D01*
X126150000Y-100365928D01*
X126025518Y-100378188D01*
X125905820Y-100414498D01*
X125795506Y-100473463D01*
X125698815Y-100552815D01*
X125619463Y-100649506D01*
X125560498Y-100759820D01*
X125524188Y-100879518D01*
X125511928Y-101004000D01*
X121207011Y-101004000D01*
X121207011Y-96122400D01*
X122667928Y-96122400D01*
X122667928Y-97425600D01*
X122684961Y-97598542D01*
X122735407Y-97764838D01*
X122817325Y-97918097D01*
X122927570Y-98052430D01*
X123061903Y-98162675D01*
X123215162Y-98244593D01*
X123381458Y-98295039D01*
X123554400Y-98312072D01*
X124857600Y-98312072D01*
X125030542Y-98295039D01*
X125196838Y-98244593D01*
X125350097Y-98162675D01*
X125484430Y-98052430D01*
X125594675Y-97918097D01*
X125676593Y-97764838D01*
X125727039Y-97598542D01*
X125741121Y-97455560D01*
X143770045Y-97455560D01*
X143831932Y-97691368D01*
X144073790Y-97804266D01*
X144333027Y-97867811D01*
X144599680Y-97879561D01*
X144863501Y-97839063D01*
X145114353Y-97747875D01*
X145220068Y-97691368D01*
X145281955Y-97455560D01*
X144526000Y-96699605D01*
X143770045Y-97455560D01*
X125741121Y-97455560D01*
X125744072Y-97425600D01*
X125744072Y-96593680D01*
X143166439Y-96593680D01*
X143206937Y-96857501D01*
X143298125Y-97108353D01*
X143354632Y-97214068D01*
X143590440Y-97275955D01*
X144346395Y-96520000D01*
X144705605Y-96520000D01*
X145461560Y-97275955D01*
X145697368Y-97214068D01*
X145810266Y-96972210D01*
X145873811Y-96712973D01*
X145885561Y-96446320D01*
X145845063Y-96182499D01*
X145753875Y-95931647D01*
X145697368Y-95825932D01*
X145461560Y-95764045D01*
X144705605Y-96520000D01*
X144346395Y-96520000D01*
X143590440Y-95764045D01*
X143354632Y-95825932D01*
X143241734Y-96067790D01*
X143178189Y-96327027D01*
X143166439Y-96593680D01*
X125744072Y-96593680D01*
X125744072Y-96122400D01*
X125727039Y-95949458D01*
X125676593Y-95783162D01*
X125594675Y-95629903D01*
X125557365Y-95584440D01*
X143770045Y-95584440D01*
X144526000Y-96340395D01*
X145281955Y-95584440D01*
X145220068Y-95348632D01*
X144978210Y-95235734D01*
X144718973Y-95172189D01*
X144452320Y-95160439D01*
X144188499Y-95200937D01*
X143937647Y-95292125D01*
X143831932Y-95348632D01*
X143770045Y-95584440D01*
X125557365Y-95584440D01*
X125484430Y-95495570D01*
X125350097Y-95385325D01*
X125196838Y-95303407D01*
X125051807Y-95259412D01*
X124206000Y-94413605D01*
X123360193Y-95259412D01*
X123215162Y-95303407D01*
X123061903Y-95385325D01*
X122927570Y-95495570D01*
X122817325Y-95629903D01*
X122735407Y-95783162D01*
X122684961Y-95949458D01*
X122667928Y-96122400D01*
X121207011Y-96122400D01*
X121207011Y-94300553D01*
X122665009Y-94300553D01*
X122707603Y-94599907D01*
X122807778Y-94885199D01*
X122887739Y-95034792D01*
X123141920Y-95118475D01*
X124026395Y-94234000D01*
X124385605Y-94234000D01*
X125270080Y-95118475D01*
X125524261Y-95034792D01*
X125655158Y-94762225D01*
X125730365Y-94469358D01*
X125746991Y-94167447D01*
X125704397Y-93868093D01*
X125604222Y-93582801D01*
X125524261Y-93433208D01*
X125270080Y-93349525D01*
X124385605Y-94234000D01*
X124026395Y-94234000D01*
X123141920Y-93349525D01*
X122887739Y-93433208D01*
X122756842Y-93705775D01*
X122681635Y-93998642D01*
X122665009Y-94300553D01*
X121207011Y-94300553D01*
X121207011Y-91542816D01*
X122671000Y-91542816D01*
X122671000Y-91845184D01*
X122729989Y-92141743D01*
X122845701Y-92421095D01*
X123013688Y-92672505D01*
X123227495Y-92886312D01*
X123381105Y-92988951D01*
X123321525Y-93169920D01*
X124206000Y-94054395D01*
X125090475Y-93169920D01*
X125030895Y-92988951D01*
X125184505Y-92886312D01*
X125398312Y-92672505D01*
X125566299Y-92421095D01*
X125682011Y-92141743D01*
X125741000Y-91845184D01*
X125741000Y-91606000D01*
X130845928Y-91606000D01*
X130845928Y-93306000D01*
X130858188Y-93430482D01*
X130894498Y-93550180D01*
X130953463Y-93660494D01*
X131032815Y-93757185D01*
X131129506Y-93836537D01*
X131239820Y-93895502D01*
X131359518Y-93931812D01*
X131484000Y-93944072D01*
X133184000Y-93944072D01*
X133308482Y-93931812D01*
X133428180Y-93895502D01*
X133538494Y-93836537D01*
X133635185Y-93757185D01*
X133714537Y-93660494D01*
X133773502Y-93550180D01*
X133794393Y-93481313D01*
X133818866Y-93511134D01*
X134044986Y-93696706D01*
X134302966Y-93834599D01*
X134582889Y-93919513D01*
X134801050Y-93941000D01*
X134946950Y-93941000D01*
X135165111Y-93919513D01*
X135405656Y-93846544D01*
X140631000Y-93846544D01*
X140631000Y-94113456D01*
X140683072Y-94375239D01*
X140785215Y-94621833D01*
X140933503Y-94843762D01*
X141122238Y-95032497D01*
X141344167Y-95180785D01*
X141590761Y-95282928D01*
X141852544Y-95335000D01*
X142119456Y-95335000D01*
X142381239Y-95282928D01*
X142627833Y-95180785D01*
X142849762Y-95032497D01*
X143038497Y-94843762D01*
X143186785Y-94621833D01*
X143288928Y-94375239D01*
X143341000Y-94113456D01*
X143341000Y-93846544D01*
X143288928Y-93584761D01*
X143186785Y-93338167D01*
X143038497Y-93116238D01*
X142849762Y-92927503D01*
X142627833Y-92779215D01*
X142381239Y-92677072D01*
X142119456Y-92625000D01*
X141852544Y-92625000D01*
X141590761Y-92677072D01*
X141344167Y-92779215D01*
X141122238Y-92927503D01*
X140933503Y-93116238D01*
X140785215Y-93338167D01*
X140683072Y-93584761D01*
X140631000Y-93846544D01*
X135405656Y-93846544D01*
X135445034Y-93834599D01*
X135703014Y-93696706D01*
X135929134Y-93511134D01*
X136114706Y-93285014D01*
X136252599Y-93027034D01*
X136337513Y-92747111D01*
X136366185Y-92456000D01*
X136337513Y-92164889D01*
X136252599Y-91884966D01*
X136114706Y-91626986D01*
X135929134Y-91400866D01*
X135814203Y-91306544D01*
X143171000Y-91306544D01*
X143171000Y-91573456D01*
X143223072Y-91835239D01*
X143325215Y-92081833D01*
X143473503Y-92303762D01*
X143662238Y-92492497D01*
X143884167Y-92640785D01*
X144130761Y-92742928D01*
X144392544Y-92795000D01*
X144659456Y-92795000D01*
X144921239Y-92742928D01*
X145167833Y-92640785D01*
X145389762Y-92492497D01*
X145578497Y-92303762D01*
X145726785Y-92081833D01*
X145828928Y-91835239D01*
X145881000Y-91573456D01*
X145881000Y-91306544D01*
X145828928Y-91044761D01*
X145726785Y-90798167D01*
X145578497Y-90576238D01*
X145389762Y-90387503D01*
X145167833Y-90239215D01*
X144921239Y-90137072D01*
X144659456Y-90085000D01*
X144392544Y-90085000D01*
X144130761Y-90137072D01*
X143884167Y-90239215D01*
X143662238Y-90387503D01*
X143473503Y-90576238D01*
X143325215Y-90798167D01*
X143223072Y-91044761D01*
X143171000Y-91306544D01*
X135814203Y-91306544D01*
X135703014Y-91215294D01*
X135445034Y-91077401D01*
X135165111Y-90992487D01*
X134946950Y-90971000D01*
X134801050Y-90971000D01*
X134582889Y-90992487D01*
X134302966Y-91077401D01*
X134044986Y-91215294D01*
X133818866Y-91400866D01*
X133794393Y-91430687D01*
X133773502Y-91361820D01*
X133714537Y-91251506D01*
X133635185Y-91154815D01*
X133538494Y-91075463D01*
X133428180Y-91016498D01*
X133308482Y-90980188D01*
X133184000Y-90967928D01*
X131484000Y-90967928D01*
X131359518Y-90980188D01*
X131239820Y-91016498D01*
X131129506Y-91075463D01*
X131032815Y-91154815D01*
X130953463Y-91251506D01*
X130894498Y-91361820D01*
X130858188Y-91481518D01*
X130845928Y-91606000D01*
X125741000Y-91606000D01*
X125741000Y-91542816D01*
X125682011Y-91246257D01*
X125566299Y-90966905D01*
X125398312Y-90715495D01*
X125184505Y-90501688D01*
X124933095Y-90333701D01*
X124653743Y-90217989D01*
X124357184Y-90159000D01*
X124054816Y-90159000D01*
X123758257Y-90217989D01*
X123478905Y-90333701D01*
X123227495Y-90501688D01*
X123013688Y-90715495D01*
X122845701Y-90966905D01*
X122729989Y-91246257D01*
X122671000Y-91542816D01*
X121207011Y-91542816D01*
X121207011Y-89154000D01*
X125507815Y-89154000D01*
X125536487Y-89445111D01*
X125621401Y-89725034D01*
X125759294Y-89983014D01*
X125944866Y-90209134D01*
X126170986Y-90394706D01*
X126428966Y-90532599D01*
X126708889Y-90617513D01*
X126927050Y-90639000D01*
X127072950Y-90639000D01*
X127291111Y-90617513D01*
X127571034Y-90532599D01*
X127829014Y-90394706D01*
X128055134Y-90209134D01*
X128079607Y-90179313D01*
X128100498Y-90248180D01*
X128159463Y-90358494D01*
X128238815Y-90455185D01*
X128335506Y-90534537D01*
X128445820Y-90593502D01*
X128565518Y-90629812D01*
X128690000Y-90642072D01*
X130390000Y-90642072D01*
X130514482Y-90629812D01*
X130634180Y-90593502D01*
X130744494Y-90534537D01*
X130841185Y-90455185D01*
X130920537Y-90358494D01*
X130979502Y-90248180D01*
X131015812Y-90128482D01*
X131028072Y-90004000D01*
X131028072Y-88404000D01*
X132215928Y-88404000D01*
X132215928Y-89904000D01*
X132228188Y-90028482D01*
X132264498Y-90148180D01*
X132323463Y-90258494D01*
X132402815Y-90355185D01*
X132499506Y-90434537D01*
X132609820Y-90493502D01*
X132729518Y-90529812D01*
X132854000Y-90542072D01*
X134354000Y-90542072D01*
X134478482Y-90529812D01*
X134598180Y-90493502D01*
X134708494Y-90434537D01*
X134805185Y-90355185D01*
X134884537Y-90258494D01*
X134943502Y-90148180D01*
X134979812Y-90028482D01*
X134992072Y-89904000D01*
X134992072Y-88404000D01*
X134979812Y-88279518D01*
X134943502Y-88159820D01*
X134884537Y-88049506D01*
X134805185Y-87952815D01*
X134708494Y-87873463D01*
X134598180Y-87814498D01*
X134478482Y-87778188D01*
X134354000Y-87765928D01*
X132854000Y-87765928D01*
X132729518Y-87778188D01*
X132609820Y-87814498D01*
X132499506Y-87873463D01*
X132402815Y-87952815D01*
X132323463Y-88049506D01*
X132264498Y-88159820D01*
X132228188Y-88279518D01*
X132215928Y-88404000D01*
X131028072Y-88404000D01*
X131028072Y-88304000D01*
X131015812Y-88179518D01*
X130979502Y-88059820D01*
X130920537Y-87949506D01*
X130866778Y-87884000D01*
X130920537Y-87818494D01*
X130979502Y-87708180D01*
X131015812Y-87588482D01*
X131028072Y-87464000D01*
X131025000Y-86899750D01*
X130866250Y-86741000D01*
X129667000Y-86741000D01*
X129667000Y-86761000D01*
X129413000Y-86761000D01*
X129413000Y-86741000D01*
X127127000Y-86741000D01*
X127127000Y-86761000D01*
X126873000Y-86761000D01*
X126873000Y-86741000D01*
X125679186Y-86741000D01*
X125558519Y-86970891D01*
X125655843Y-87245252D01*
X125804822Y-87495355D01*
X125999731Y-87711588D01*
X126228756Y-87882416D01*
X126170986Y-87913294D01*
X125944866Y-88098866D01*
X125759294Y-88324986D01*
X125621401Y-88582966D01*
X125536487Y-88862889D01*
X125507815Y-89154000D01*
X121207011Y-89154000D01*
X121207011Y-88086488D01*
X121285494Y-88044537D01*
X121382185Y-87965185D01*
X121461537Y-87868494D01*
X121520502Y-87758180D01*
X121556812Y-87638482D01*
X121569072Y-87514000D01*
X121569072Y-86257109D01*
X125558519Y-86257109D01*
X125679186Y-86487000D01*
X126873000Y-86487000D01*
X126873000Y-85293845D01*
X127127000Y-85293845D01*
X127127000Y-86487000D01*
X129413000Y-86487000D01*
X129413000Y-85287750D01*
X129667000Y-85287750D01*
X129667000Y-86487000D01*
X130866250Y-86487000D01*
X131025000Y-86328250D01*
X131025265Y-86279560D01*
X143770045Y-86279560D01*
X143831932Y-86515368D01*
X144073790Y-86628266D01*
X144333027Y-86691811D01*
X144599680Y-86703561D01*
X144863501Y-86663063D01*
X145114353Y-86571875D01*
X145220068Y-86515368D01*
X145281955Y-86279560D01*
X144526000Y-85523605D01*
X143770045Y-86279560D01*
X131025265Y-86279560D01*
X131028072Y-85764000D01*
X131015812Y-85639518D01*
X130979502Y-85519820D01*
X130924907Y-85417680D01*
X143166439Y-85417680D01*
X143206937Y-85681501D01*
X143298125Y-85932353D01*
X143354632Y-86038068D01*
X143590440Y-86099955D01*
X144346395Y-85344000D01*
X144705605Y-85344000D01*
X145461560Y-86099955D01*
X145697368Y-86038068D01*
X145810266Y-85796210D01*
X145873811Y-85536973D01*
X145885561Y-85270320D01*
X145845063Y-85006499D01*
X145753875Y-84755647D01*
X145697368Y-84649932D01*
X145461560Y-84588045D01*
X144705605Y-85344000D01*
X144346395Y-85344000D01*
X143590440Y-84588045D01*
X143354632Y-84649932D01*
X143241734Y-84891790D01*
X143178189Y-85151027D01*
X143166439Y-85417680D01*
X130924907Y-85417680D01*
X130920537Y-85409506D01*
X130841185Y-85312815D01*
X130744494Y-85233463D01*
X130634180Y-85174498D01*
X130514482Y-85138188D01*
X130390000Y-85125928D01*
X129825750Y-85129000D01*
X129667000Y-85287750D01*
X129413000Y-85287750D01*
X129254250Y-85129000D01*
X128690000Y-85125928D01*
X128565518Y-85138188D01*
X128445820Y-85174498D01*
X128335506Y-85233463D01*
X128238815Y-85312815D01*
X128159463Y-85409506D01*
X128100498Y-85519820D01*
X128076034Y-85600466D01*
X128000269Y-85516412D01*
X127766920Y-85342359D01*
X127504099Y-85217175D01*
X127356890Y-85172524D01*
X127127000Y-85293845D01*
X126873000Y-85293845D01*
X126643110Y-85172524D01*
X126495901Y-85217175D01*
X126233080Y-85342359D01*
X125999731Y-85516412D01*
X125804822Y-85732645D01*
X125655843Y-85982748D01*
X125558519Y-86257109D01*
X121569072Y-86257109D01*
X121569072Y-85714000D01*
X121556812Y-85589518D01*
X121520502Y-85469820D01*
X121461537Y-85359506D01*
X121382185Y-85262815D01*
X121285494Y-85183463D01*
X121175180Y-85124498D01*
X121055482Y-85088188D01*
X120931000Y-85075928D01*
X119861000Y-85075928D01*
X119736518Y-85088188D01*
X119616820Y-85124498D01*
X119547810Y-85161385D01*
X119433383Y-85120100D01*
X119253000Y-85245756D01*
X119253000Y-85530800D01*
X119235188Y-85589518D01*
X119222928Y-85714000D01*
X119222928Y-86761000D01*
X119026000Y-86761000D01*
X119026000Y-86191524D01*
X119009071Y-86019641D01*
X118999000Y-85986441D01*
X118999000Y-85245756D01*
X118818617Y-85120100D01*
X118581579Y-85205623D01*
X118493596Y-85263154D01*
X118305906Y-85162831D01*
X118085360Y-85095929D01*
X117856000Y-85073339D01*
X117626641Y-85095929D01*
X117585006Y-85108559D01*
X118285125Y-84408440D01*
X143770045Y-84408440D01*
X144526000Y-85164395D01*
X145281955Y-84408440D01*
X145220068Y-84172632D01*
X144978210Y-84059734D01*
X144718973Y-83996189D01*
X144452320Y-83984439D01*
X144188499Y-84024937D01*
X143937647Y-84116125D01*
X143831932Y-84172632D01*
X143770045Y-84408440D01*
X118285125Y-84408440D01*
X120399565Y-82294000D01*
X120816702Y-82294000D01*
X120971445Y-82482555D01*
X121174725Y-82649382D01*
X121406646Y-82773347D01*
X121658294Y-82849683D01*
X121854421Y-82869000D01*
X121985579Y-82869000D01*
X122181706Y-82849683D01*
X122433354Y-82773347D01*
X122665275Y-82649382D01*
X122868555Y-82482555D01*
X123035382Y-82279275D01*
X123159347Y-82047354D01*
X123235683Y-81795706D01*
X123261459Y-81534000D01*
X123248509Y-81402514D01*
X125665000Y-81402514D01*
X125665000Y-81665486D01*
X125716304Y-81923405D01*
X125816939Y-82166359D01*
X125963038Y-82385013D01*
X126148987Y-82570962D01*
X126367641Y-82717061D01*
X126610595Y-82817696D01*
X126868514Y-82869000D01*
X127131486Y-82869000D01*
X127389405Y-82817696D01*
X127632359Y-82717061D01*
X127851013Y-82570962D01*
X128036962Y-82385013D01*
X128183061Y-82166359D01*
X128283696Y-81923405D01*
X128335000Y-81665486D01*
X128335000Y-81534000D01*
X132212299Y-81534000D01*
X132239040Y-81805507D01*
X132318236Y-82066581D01*
X132446843Y-82307188D01*
X132619919Y-82518081D01*
X132830812Y-82691157D01*
X133071419Y-82819764D01*
X133332493Y-82898960D01*
X133535963Y-82919000D01*
X133672037Y-82919000D01*
X133875507Y-82898960D01*
X134136581Y-82819764D01*
X134377188Y-82691157D01*
X134402304Y-82670544D01*
X140631000Y-82670544D01*
X140631000Y-82937456D01*
X140683072Y-83199239D01*
X140785215Y-83445833D01*
X140933503Y-83667762D01*
X141122238Y-83856497D01*
X141344167Y-84004785D01*
X141590761Y-84106928D01*
X141852544Y-84159000D01*
X142119456Y-84159000D01*
X142381239Y-84106928D01*
X142627833Y-84004785D01*
X142849762Y-83856497D01*
X143038497Y-83667762D01*
X143186785Y-83445833D01*
X143288928Y-83199239D01*
X143341000Y-82937456D01*
X143341000Y-82670544D01*
X143288928Y-82408761D01*
X143186785Y-82162167D01*
X143038497Y-81940238D01*
X142849762Y-81751503D01*
X142627833Y-81603215D01*
X142381239Y-81501072D01*
X142119456Y-81449000D01*
X141852544Y-81449000D01*
X141590761Y-81501072D01*
X141344167Y-81603215D01*
X141122238Y-81751503D01*
X140933503Y-81940238D01*
X140785215Y-82162167D01*
X140683072Y-82408761D01*
X140631000Y-82670544D01*
X134402304Y-82670544D01*
X134588081Y-82518081D01*
X134761157Y-82307188D01*
X134889764Y-82066581D01*
X134968960Y-81805507D01*
X134995701Y-81534000D01*
X134968960Y-81262493D01*
X134889764Y-81001419D01*
X134761157Y-80760812D01*
X134588081Y-80549919D01*
X134377188Y-80376843D01*
X134136581Y-80248236D01*
X133875507Y-80169040D01*
X133672037Y-80149000D01*
X133535963Y-80149000D01*
X133332493Y-80169040D01*
X133071419Y-80248236D01*
X132830812Y-80376843D01*
X132619919Y-80549919D01*
X132446843Y-80760812D01*
X132318236Y-81001419D01*
X132239040Y-81262493D01*
X132212299Y-81534000D01*
X128335000Y-81534000D01*
X128335000Y-81402514D01*
X128283696Y-81144595D01*
X128183061Y-80901641D01*
X128036962Y-80682987D01*
X127851013Y-80497038D01*
X127632359Y-80350939D01*
X127389405Y-80250304D01*
X127131486Y-80199000D01*
X126868514Y-80199000D01*
X126610595Y-80250304D01*
X126367641Y-80350939D01*
X126148987Y-80497038D01*
X125963038Y-80682987D01*
X125816939Y-80901641D01*
X125716304Y-81144595D01*
X125665000Y-81402514D01*
X123248509Y-81402514D01*
X123235683Y-81272294D01*
X123159347Y-81020646D01*
X123035382Y-80788725D01*
X122868555Y-80585445D01*
X122665275Y-80418618D01*
X122433354Y-80294653D01*
X122181706Y-80218317D01*
X121985579Y-80199000D01*
X121854421Y-80199000D01*
X121658294Y-80218317D01*
X121406646Y-80294653D01*
X121174725Y-80418618D01*
X120971445Y-80585445D01*
X120816702Y-80774000D01*
X120122085Y-80774000D01*
X120084762Y-80770324D01*
X120047439Y-80774000D01*
X120047430Y-80774000D01*
X119935777Y-80784997D01*
X119792516Y-80828454D01*
X119660486Y-80899026D01*
X119576846Y-80967668D01*
X119544762Y-80993999D01*
X119520964Y-81022997D01*
X112956286Y-87587675D01*
X112779608Y-87372392D01*
X112561101Y-87193068D01*
X112428142Y-87122000D01*
X112561101Y-87050932D01*
X112779608Y-86871608D01*
X112958932Y-86653101D01*
X113092182Y-86403808D01*
X113174236Y-86133309D01*
X113201943Y-85852000D01*
X113174236Y-85570691D01*
X113092182Y-85300192D01*
X112958932Y-85050899D01*
X112779608Y-84832392D01*
X112561101Y-84653068D01*
X112423318Y-84579421D01*
X112615131Y-84464385D01*
X112823519Y-84275414D01*
X112991037Y-84049420D01*
X113111246Y-83795087D01*
X113151904Y-83661039D01*
X113029915Y-83439000D01*
X111887000Y-83439000D01*
X111887000Y-83459000D01*
X111633000Y-83459000D01*
X111633000Y-83439000D01*
X110490085Y-83439000D01*
X110368096Y-83661039D01*
X110408754Y-83795087D01*
X110528963Y-84049420D01*
X110696481Y-84275414D01*
X110904869Y-84464385D01*
X111096682Y-84579421D01*
X110958899Y-84653068D01*
X110740392Y-84832392D01*
X110561068Y-85050899D01*
X110427818Y-85300192D01*
X110345764Y-85570691D01*
X110318057Y-85852000D01*
X110345764Y-86133309D01*
X110427818Y-86403808D01*
X110561068Y-86653101D01*
X110740392Y-86871608D01*
X110958899Y-87050932D01*
X111091858Y-87122000D01*
X110958899Y-87193068D01*
X110740392Y-87372392D01*
X110561068Y-87590899D01*
X110427818Y-87840192D01*
X110345764Y-88110691D01*
X110318057Y-88392000D01*
X110345764Y-88673309D01*
X110359292Y-88717906D01*
X102493198Y-96584001D01*
X97841389Y-96584001D01*
X97852182Y-96563808D01*
X97934236Y-96293309D01*
X97961943Y-96012000D01*
X97934236Y-95730691D01*
X97920708Y-95686094D01*
X98156005Y-95450797D01*
X98185002Y-95427000D01*
X98279975Y-95311275D01*
X98350547Y-95179246D01*
X98394004Y-95035985D01*
X98405001Y-94924332D01*
X98405001Y-94924324D01*
X98408677Y-94886999D01*
X98405001Y-94849674D01*
X98405001Y-93536798D01*
X110494061Y-81447739D01*
X110561068Y-81573101D01*
X110740392Y-81791608D01*
X110958899Y-81970932D01*
X111096682Y-82044579D01*
X110904869Y-82159615D01*
X110696481Y-82348586D01*
X110528963Y-82574580D01*
X110408754Y-82828913D01*
X110368096Y-82962961D01*
X110490085Y-83185000D01*
X111633000Y-83185000D01*
X111633000Y-83165000D01*
X111887000Y-83165000D01*
X111887000Y-83185000D01*
X113029915Y-83185000D01*
X113151904Y-82962961D01*
X113111246Y-82828913D01*
X112991037Y-82574580D01*
X112823519Y-82348586D01*
X112615131Y-82159615D01*
X112423318Y-82044579D01*
X112561101Y-81970932D01*
X112779608Y-81791608D01*
X112958932Y-81573101D01*
X113092182Y-81323808D01*
X113174236Y-81053309D01*
X113201943Y-80772000D01*
X113174236Y-80490691D01*
X113092182Y-80220192D01*
X113044265Y-80130544D01*
X143171000Y-80130544D01*
X143171000Y-80397456D01*
X143223072Y-80659239D01*
X143325215Y-80905833D01*
X143473503Y-81127762D01*
X143662238Y-81316497D01*
X143884167Y-81464785D01*
X144130761Y-81566928D01*
X144392544Y-81619000D01*
X144659456Y-81619000D01*
X144921239Y-81566928D01*
X145167833Y-81464785D01*
X145389762Y-81316497D01*
X145578497Y-81127762D01*
X145726785Y-80905833D01*
X145828928Y-80659239D01*
X145881000Y-80397456D01*
X145881000Y-80130544D01*
X145828928Y-79868761D01*
X145726785Y-79622167D01*
X145578497Y-79400238D01*
X145389762Y-79211503D01*
X145167833Y-79063215D01*
X144921239Y-78961072D01*
X144659456Y-78909000D01*
X144392544Y-78909000D01*
X144130761Y-78961072D01*
X143884167Y-79063215D01*
X143662238Y-79211503D01*
X143473503Y-79400238D01*
X143325215Y-79622167D01*
X143223072Y-79868761D01*
X143171000Y-80130544D01*
X113044265Y-80130544D01*
X112958932Y-79970899D01*
X112779608Y-79752392D01*
X112561101Y-79573068D01*
X112435739Y-79506061D01*
X114618799Y-77323001D01*
X118217677Y-77323001D01*
X118254999Y-77326677D01*
X118292321Y-77323001D01*
X118292332Y-77323001D01*
X118403985Y-77312004D01*
X118547246Y-77268547D01*
X118679275Y-77197975D01*
X118795000Y-77103002D01*
X118818803Y-77073998D01*
X119054093Y-76838708D01*
X119098691Y-76852236D01*
X119309508Y-76873000D01*
X119450492Y-76873000D01*
X119661309Y-76852236D01*
X119931808Y-76770182D01*
X120181101Y-76636932D01*
X120399608Y-76457608D01*
X120578932Y-76239101D01*
X120650000Y-76106142D01*
X120721068Y-76239101D01*
X120900392Y-76457608D01*
X121118899Y-76636932D01*
X121368192Y-76770182D01*
X121638691Y-76852236D01*
X121849508Y-76873000D01*
X121990492Y-76873000D01*
X122201309Y-76852236D01*
X122471808Y-76770182D01*
X122721101Y-76636932D01*
X122939608Y-76457608D01*
X123118932Y-76239101D01*
X123190000Y-76106142D01*
X123261068Y-76239101D01*
X123440392Y-76457608D01*
X123658899Y-76636932D01*
X123908192Y-76770182D01*
X124178691Y-76852236D01*
X124389508Y-76873000D01*
X124530492Y-76873000D01*
X124741309Y-76852236D01*
X125011808Y-76770182D01*
X125261101Y-76636932D01*
X125479608Y-76457608D01*
X125658932Y-76239101D01*
X125730000Y-76106142D01*
X125801068Y-76239101D01*
X125980392Y-76457608D01*
X126198899Y-76636932D01*
X126448192Y-76770182D01*
X126718691Y-76852236D01*
X126929508Y-76873000D01*
X127070492Y-76873000D01*
X127281309Y-76852236D01*
X127551808Y-76770182D01*
X127801101Y-76636932D01*
X128019608Y-76457608D01*
X128198932Y-76239101D01*
X128270000Y-76106142D01*
X128341068Y-76239101D01*
X128520392Y-76457608D01*
X128738899Y-76636932D01*
X128988192Y-76770182D01*
X129258691Y-76852236D01*
X129469508Y-76873000D01*
X129610492Y-76873000D01*
X129821309Y-76852236D01*
X130091808Y-76770182D01*
X130341101Y-76636932D01*
X130559608Y-76457608D01*
X130738932Y-76239101D01*
X130810000Y-76106142D01*
X130881068Y-76239101D01*
X131060392Y-76457608D01*
X131278899Y-76636932D01*
X131528192Y-76770182D01*
X131798691Y-76852236D01*
X132009508Y-76873000D01*
X132150492Y-76873000D01*
X132361309Y-76852236D01*
X132631808Y-76770182D01*
X132881101Y-76636932D01*
X133099608Y-76457608D01*
X133278932Y-76239101D01*
X133350000Y-76106142D01*
X133421068Y-76239101D01*
X133600392Y-76457608D01*
X133818899Y-76636932D01*
X134068192Y-76770182D01*
X134338691Y-76852236D01*
X134549508Y-76873000D01*
X134690492Y-76873000D01*
X134901309Y-76852236D01*
X135171808Y-76770182D01*
X135421101Y-76636932D01*
X135639608Y-76457608D01*
X135818932Y-76239101D01*
X135952182Y-75989808D01*
X136034236Y-75719309D01*
X136061943Y-75438000D01*
X136034236Y-75156691D01*
X135952182Y-74886192D01*
X135818932Y-74636899D01*
X135639608Y-74418392D01*
X135421101Y-74239068D01*
X135171808Y-74105818D01*
X134901309Y-74023764D01*
X134690492Y-74003000D01*
X134549508Y-74003000D01*
X134338691Y-74023764D01*
X134068192Y-74105818D01*
X133818899Y-74239068D01*
X133600392Y-74418392D01*
X133421068Y-74636899D01*
X133350000Y-74769858D01*
X133278932Y-74636899D01*
X133099608Y-74418392D01*
X132881101Y-74239068D01*
X132631808Y-74105818D01*
X132361309Y-74023764D01*
X132150492Y-74003000D01*
X132009508Y-74003000D01*
X131798691Y-74023764D01*
X131528192Y-74105818D01*
X131278899Y-74239068D01*
X131060392Y-74418392D01*
X130881068Y-74636899D01*
X130810000Y-74769858D01*
X130738932Y-74636899D01*
X130559608Y-74418392D01*
X130341101Y-74239068D01*
X130091808Y-74105818D01*
X129821309Y-74023764D01*
X129610492Y-74003000D01*
X129509802Y-74003000D01*
X129797003Y-73715799D01*
X129826001Y-73692001D01*
X129920974Y-73576276D01*
X129991546Y-73444247D01*
X130035003Y-73300986D01*
X130046000Y-73189333D01*
X130046000Y-73189324D01*
X130049676Y-73152001D01*
X130046000Y-73114678D01*
X130046000Y-70926801D01*
X131754094Y-69218708D01*
X131798691Y-69232236D01*
X132009508Y-69253000D01*
X132150492Y-69253000D01*
X132361309Y-69232236D01*
X132631808Y-69150182D01*
X132881101Y-69016932D01*
X133099608Y-68837608D01*
X133192419Y-68724518D01*
X133194188Y-68742482D01*
X133230498Y-68862180D01*
X133289463Y-68972494D01*
X133368815Y-69069185D01*
X133465506Y-69148537D01*
X133575820Y-69207502D01*
X133695518Y-69243812D01*
X133820000Y-69256072D01*
X135420000Y-69256072D01*
X135544482Y-69243812D01*
X135664180Y-69207502D01*
X135774494Y-69148537D01*
X135871185Y-69069185D01*
X135950537Y-68972494D01*
X136009502Y-68862180D01*
X136045812Y-68742482D01*
X136058072Y-68618000D01*
X136058072Y-67018000D01*
X136045812Y-66893518D01*
X136009502Y-66773820D01*
X135950537Y-66663506D01*
X135871185Y-66566815D01*
X135774494Y-66487463D01*
X135664180Y-66428498D01*
X135544482Y-66392188D01*
X135420000Y-66379928D01*
X135274326Y-66379928D01*
X135254974Y-66343724D01*
X135160001Y-66227999D01*
X135131001Y-66204199D01*
X135108801Y-66181999D01*
X135085000Y-66152998D01*
X134969275Y-66058025D01*
X134837246Y-65987453D01*
X134693985Y-65943996D01*
X134582332Y-65932999D01*
X134582321Y-65932999D01*
X134544999Y-65929323D01*
X134507677Y-65932999D01*
X128162323Y-65932999D01*
X128125000Y-65929323D01*
X128087677Y-65932999D01*
X128087668Y-65932999D01*
X127976015Y-65943996D01*
X127832754Y-65987453D01*
X127700725Y-66058025D01*
X127585000Y-66152998D01*
X127561197Y-66182002D01*
X127325907Y-66417292D01*
X127281309Y-66403764D01*
X127070492Y-66383000D01*
X126929508Y-66383000D01*
X126718691Y-66403764D01*
X126448192Y-66485818D01*
X126198899Y-66619068D01*
X125980392Y-66798392D01*
X125801068Y-67016899D01*
X125730000Y-67149858D01*
X125658932Y-67016899D01*
X125479608Y-66798392D01*
X125261101Y-66619068D01*
X125011808Y-66485818D01*
X124741309Y-66403764D01*
X124530492Y-66383000D01*
X124389508Y-66383000D01*
X124178691Y-66403764D01*
X123908192Y-66485818D01*
X123658899Y-66619068D01*
X123440392Y-66798392D01*
X123261068Y-67016899D01*
X123190000Y-67149858D01*
X123118932Y-67016899D01*
X122939608Y-66798392D01*
X122721101Y-66619068D01*
X122471808Y-66485818D01*
X122201309Y-66403764D01*
X121990492Y-66383000D01*
X121849508Y-66383000D01*
X121638691Y-66403764D01*
X121368192Y-66485818D01*
X121118899Y-66619068D01*
X120900392Y-66798392D01*
X120721068Y-67016899D01*
X120647421Y-67154682D01*
X120532385Y-66962869D01*
X120343414Y-66754481D01*
X120117420Y-66586963D01*
X119863087Y-66466754D01*
X119729039Y-66426096D01*
X119507000Y-66548085D01*
X119507000Y-67691000D01*
X119527000Y-67691000D01*
X119527000Y-67945000D01*
X119507000Y-67945000D01*
X119507000Y-69087915D01*
X119729039Y-69209904D01*
X119863087Y-69169246D01*
X120117420Y-69049037D01*
X120343414Y-68881519D01*
X120532385Y-68673131D01*
X120647421Y-68481318D01*
X120721068Y-68619101D01*
X120900392Y-68837608D01*
X121118899Y-69016932D01*
X121368192Y-69150182D01*
X121638691Y-69232236D01*
X121849508Y-69253000D01*
X121990492Y-69253000D01*
X122201309Y-69232236D01*
X122471808Y-69150182D01*
X122721101Y-69016932D01*
X122939608Y-68837608D01*
X123118932Y-68619101D01*
X123190000Y-68486142D01*
X123261068Y-68619101D01*
X123440392Y-68837608D01*
X123658899Y-69016932D01*
X123700001Y-69038901D01*
X123700000Y-70043198D01*
X119705906Y-74037292D01*
X119661309Y-74023764D01*
X119450492Y-74003000D01*
X119309508Y-74003000D01*
X119098691Y-74023764D01*
X118828192Y-74105818D01*
X118578899Y-74239068D01*
X118360392Y-74418392D01*
X118181068Y-74636899D01*
X118110000Y-74769858D01*
X118038932Y-74636899D01*
X117859608Y-74418392D01*
X117641101Y-74239068D01*
X117391808Y-74105818D01*
X117121309Y-74023764D01*
X116910492Y-74003000D01*
X116769508Y-74003000D01*
X116558691Y-74023764D01*
X116288192Y-74105818D01*
X116038899Y-74239068D01*
X115820392Y-74418392D01*
X115641068Y-74636899D01*
X115619099Y-74678000D01*
X114829910Y-74678000D01*
X114792587Y-74674324D01*
X114755264Y-74678000D01*
X114755255Y-74678000D01*
X114643602Y-74688997D01*
X114500341Y-74732454D01*
X114368311Y-74803026D01*
X114284671Y-74871668D01*
X114252587Y-74897999D01*
X114228789Y-74926997D01*
X109143787Y-80012000D01*
X97958072Y-80012000D01*
X97958072Y-79972000D01*
X97945812Y-79847518D01*
X97909502Y-79727820D01*
X97850537Y-79617506D01*
X97771185Y-79520815D01*
X97674494Y-79441463D01*
X97564180Y-79382498D01*
X97444482Y-79346188D01*
X97320000Y-79333928D01*
X95720000Y-79333928D01*
X95595518Y-79346188D01*
X95475820Y-79382498D01*
X95365506Y-79441463D01*
X95268815Y-79520815D01*
X95189463Y-79617506D01*
X95130498Y-79727820D01*
X95094188Y-79847518D01*
X95081928Y-79972000D01*
X95081928Y-81572000D01*
X95094188Y-81696482D01*
X95130498Y-81816180D01*
X95189463Y-81926494D01*
X95268815Y-82023185D01*
X95365506Y-82102537D01*
X95475820Y-82161502D01*
X95595518Y-82197812D01*
X95613482Y-82199581D01*
X95500392Y-82292392D01*
X95321068Y-82510899D01*
X95187818Y-82760192D01*
X95105764Y-83030691D01*
X95078057Y-83312000D01*
X95105764Y-83593309D01*
X95187818Y-83863808D01*
X95321068Y-84113101D01*
X95500392Y-84331608D01*
X95718899Y-84510932D01*
X95851858Y-84582000D01*
X95718899Y-84653068D01*
X95500392Y-84832392D01*
X95321068Y-85050899D01*
X95187818Y-85300192D01*
X95105764Y-85570691D01*
X95078057Y-85852000D01*
X95105764Y-86133309D01*
X95187818Y-86403808D01*
X95321068Y-86653101D01*
X95500392Y-86871608D01*
X95718899Y-87050932D01*
X95856682Y-87124579D01*
X95664869Y-87239615D01*
X95456481Y-87428586D01*
X95288963Y-87654580D01*
X95168754Y-87908913D01*
X95128096Y-88042961D01*
X95250085Y-88265000D01*
X96393000Y-88265000D01*
X96393000Y-88245000D01*
X96647000Y-88245000D01*
X96647000Y-88265000D01*
X97789915Y-88265000D01*
X97911904Y-88042961D01*
X97871246Y-87908913D01*
X97751037Y-87654580D01*
X97583519Y-87428586D01*
X97375131Y-87239615D01*
X97183318Y-87124579D01*
X97321101Y-87050932D01*
X97539608Y-86871608D01*
X97718932Y-86653101D01*
X97852182Y-86403808D01*
X97934236Y-86133309D01*
X97961943Y-85852000D01*
X97934236Y-85570691D01*
X97852182Y-85300192D01*
X97718932Y-85050899D01*
X97539608Y-84832392D01*
X97321101Y-84653068D01*
X97188142Y-84582000D01*
X97321101Y-84510932D01*
X97539608Y-84331608D01*
X97718932Y-84113101D01*
X97852182Y-83863808D01*
X97934236Y-83593309D01*
X97961943Y-83312000D01*
X97934236Y-83030691D01*
X97852182Y-82760192D01*
X97718932Y-82510899D01*
X97539608Y-82292392D01*
X97426518Y-82199581D01*
X97444482Y-82197812D01*
X97564180Y-82161502D01*
X97674494Y-82102537D01*
X97771185Y-82023185D01*
X97850537Y-81926494D01*
X97909502Y-81816180D01*
X97945812Y-81696482D01*
X97958072Y-81572000D01*
X97958072Y-81532000D01*
X108260196Y-81532000D01*
X97429867Y-92362330D01*
X97321101Y-92273068D01*
X97188142Y-92202000D01*
X97321101Y-92130932D01*
X97539608Y-91951608D01*
X97718932Y-91733101D01*
X97852182Y-91483808D01*
X97934236Y-91213309D01*
X97961943Y-90932000D01*
X97934236Y-90650691D01*
X97852182Y-90380192D01*
X97718932Y-90130899D01*
X97539608Y-89912392D01*
X97321101Y-89733068D01*
X97183318Y-89659421D01*
X97375131Y-89544385D01*
X97583519Y-89355414D01*
X97751037Y-89129420D01*
X97871246Y-88875087D01*
X97911904Y-88741039D01*
X97789915Y-88519000D01*
X96647000Y-88519000D01*
X96647000Y-88539000D01*
X96393000Y-88539000D01*
X96393000Y-88519000D01*
X95250085Y-88519000D01*
X95128096Y-88741039D01*
X95168754Y-88875087D01*
X95288963Y-89129420D01*
X95456481Y-89355414D01*
X95664869Y-89544385D01*
X95856682Y-89659421D01*
X95718899Y-89733068D01*
X95500392Y-89912392D01*
X95321068Y-90130899D01*
X95187818Y-90380192D01*
X95105764Y-90650691D01*
X95078057Y-90932000D01*
X95105764Y-91213309D01*
X95187818Y-91483808D01*
X95321068Y-91733101D01*
X95500392Y-91951608D01*
X95718899Y-92130932D01*
X95851858Y-92202000D01*
X95718899Y-92273068D01*
X95500392Y-92452392D01*
X95321068Y-92670899D01*
X95187818Y-92920192D01*
X95105764Y-93190691D01*
X95078057Y-93472000D01*
X95105764Y-93753309D01*
X95187818Y-94023808D01*
X95321068Y-94273101D01*
X95500392Y-94491608D01*
X95718899Y-94670932D01*
X95851858Y-94742000D01*
X95718899Y-94813068D01*
X95500392Y-94992392D01*
X95321068Y-95210899D01*
X95187818Y-95460192D01*
X95105764Y-95730691D01*
X95078057Y-96012000D01*
X95105764Y-96293309D01*
X95187818Y-96563808D01*
X95198611Y-96584001D01*
X92431321Y-96584001D01*
X92393998Y-96580325D01*
X92356675Y-96584001D01*
X92356666Y-96584001D01*
X92245013Y-96594998D01*
X92101752Y-96638455D01*
X91969722Y-96709027D01*
X91941609Y-96732099D01*
X91825486Y-96709000D01*
X91562514Y-96709000D01*
X91304595Y-96760304D01*
X91061641Y-96860939D01*
X90842987Y-97007038D01*
X90657038Y-97192987D01*
X90510939Y-97411641D01*
X90410304Y-97654595D01*
X90359000Y-97912514D01*
X87942509Y-97912514D01*
X87929683Y-97782294D01*
X87853347Y-97530646D01*
X87729382Y-97298725D01*
X87562555Y-97095445D01*
X87359275Y-96928618D01*
X87127354Y-96804653D01*
X86875706Y-96728317D01*
X86679579Y-96709000D01*
X86548421Y-96709000D01*
X86352294Y-96728317D01*
X86100646Y-96804653D01*
X85868725Y-96928618D01*
X85665445Y-97095445D01*
X85498618Y-97298725D01*
X85374653Y-97530646D01*
X85298317Y-97782294D01*
X85272541Y-98044000D01*
X83499000Y-98044000D01*
X83499000Y-78268474D01*
X86518884Y-75286816D01*
X89143000Y-75286816D01*
X89143000Y-75589184D01*
X89201989Y-75885743D01*
X89317701Y-76165095D01*
X89485688Y-76416505D01*
X89699495Y-76630312D01*
X89950905Y-76798299D01*
X90230257Y-76914011D01*
X90526816Y-76973000D01*
X90829184Y-76973000D01*
X91125743Y-76914011D01*
X91405095Y-76798299D01*
X91656505Y-76630312D01*
X91870312Y-76416505D01*
X92038299Y-76165095D01*
X92154011Y-75885743D01*
X92213000Y-75589184D01*
X92213000Y-75286816D01*
X92206810Y-75255696D01*
X92221129Y-75260661D01*
X92345034Y-75277799D01*
X92469901Y-75270435D01*
X92590932Y-75238853D01*
X92703476Y-75184265D01*
X92803208Y-75108769D01*
X92886295Y-75015268D01*
X93944308Y-73559037D01*
X94007558Y-73451123D01*
X94048539Y-73332943D01*
X94065677Y-73209038D01*
X94058313Y-73084171D01*
X94026731Y-72963140D01*
X93972143Y-72850596D01*
X93896647Y-72750864D01*
X93803146Y-72667777D01*
X92346915Y-71609764D01*
X92239001Y-71546514D01*
X92120821Y-71505533D01*
X91996916Y-71488395D01*
X91872049Y-71495759D01*
X91751018Y-71527341D01*
X91638474Y-71581929D01*
X91538742Y-71657425D01*
X91455655Y-71750926D01*
X90397642Y-73207157D01*
X90334392Y-73315071D01*
X90293411Y-73433251D01*
X90276273Y-73557156D01*
X90283637Y-73682023D01*
X90315219Y-73803054D01*
X90369807Y-73915598D01*
X90382066Y-73931792D01*
X90230257Y-73961989D01*
X89950905Y-74077701D01*
X89699495Y-74245688D01*
X89485688Y-74459495D01*
X89317701Y-74710905D01*
X89201989Y-74990257D01*
X89143000Y-75286816D01*
X86518884Y-75286816D01*
X93931547Y-67967984D01*
X99235000Y-67967984D01*
X99235000Y-68684016D01*
X99374691Y-69386290D01*
X99648705Y-70047818D01*
X100046511Y-70643177D01*
X100552823Y-71149489D01*
X101148182Y-71547295D01*
X101809710Y-71821309D01*
X102511984Y-71961000D01*
X103228016Y-71961000D01*
X103930290Y-71821309D01*
X104591818Y-71547295D01*
X105187177Y-71149489D01*
X105693489Y-70643177D01*
X106091295Y-70047818D01*
X106365309Y-69386290D01*
X106505000Y-68684016D01*
X106505000Y-67967984D01*
X106475167Y-67818000D01*
X115398057Y-67818000D01*
X115425764Y-68099309D01*
X115507818Y-68369808D01*
X115641068Y-68619101D01*
X115820392Y-68837608D01*
X116038899Y-69016932D01*
X116288192Y-69150182D01*
X116558691Y-69232236D01*
X116769508Y-69253000D01*
X116910492Y-69253000D01*
X117121309Y-69232236D01*
X117391808Y-69150182D01*
X117641101Y-69016932D01*
X117859608Y-68837608D01*
X118038932Y-68619101D01*
X118112579Y-68481318D01*
X118227615Y-68673131D01*
X118416586Y-68881519D01*
X118642580Y-69049037D01*
X118896913Y-69169246D01*
X119030961Y-69209904D01*
X119253000Y-69087915D01*
X119253000Y-67945000D01*
X119233000Y-67945000D01*
X119233000Y-67691000D01*
X119253000Y-67691000D01*
X119253000Y-66548085D01*
X119030961Y-66426096D01*
X118896913Y-66466754D01*
X118642580Y-66586963D01*
X118416586Y-66754481D01*
X118227615Y-66962869D01*
X118112579Y-67154682D01*
X118038932Y-67016899D01*
X117859608Y-66798392D01*
X117641101Y-66619068D01*
X117391808Y-66485818D01*
X117121309Y-66403764D01*
X116910492Y-66383000D01*
X116769508Y-66383000D01*
X116558691Y-66403764D01*
X116288192Y-66485818D01*
X116038899Y-66619068D01*
X115820392Y-66798392D01*
X115641068Y-67016899D01*
X115507818Y-67266192D01*
X115425764Y-67536691D01*
X115398057Y-67818000D01*
X106475167Y-67818000D01*
X106365309Y-67265710D01*
X106091295Y-66604182D01*
X105693489Y-66008823D01*
X105187177Y-65502511D01*
X104591818Y-65104705D01*
X103930290Y-64830691D01*
X103228016Y-64691000D01*
X102511984Y-64691000D01*
X101809710Y-64830691D01*
X101148182Y-65104705D01*
X100552823Y-65502511D01*
X100046511Y-66008823D01*
X99648705Y-66604182D01*
X99374691Y-67265710D01*
X99235000Y-67967984D01*
X93931547Y-67967984D01*
X100433927Y-61547913D01*
X126605316Y-61547913D01*
X126605316Y-61850281D01*
X126664305Y-62146840D01*
X126780017Y-62426192D01*
X126948004Y-62677602D01*
X127161811Y-62891409D01*
X127413221Y-63059396D01*
X127692573Y-63175108D01*
X127989132Y-63234097D01*
X128291500Y-63234097D01*
X128588059Y-63175108D01*
X128786199Y-63093035D01*
X128785829Y-63111899D01*
X128807818Y-63235035D01*
X128853408Y-63351515D01*
X128920845Y-63456863D01*
X129007540Y-63547030D01*
X129110159Y-63618551D01*
X129224759Y-63668679D01*
X130936661Y-64224909D01*
X131058839Y-64251715D01*
X131183899Y-64254171D01*
X131307035Y-64232182D01*
X131423515Y-64186592D01*
X131528863Y-64119155D01*
X131619030Y-64032460D01*
X131690551Y-63929841D01*
X131740679Y-63815241D01*
X132296909Y-62103339D01*
X132323715Y-61981161D01*
X132326171Y-61856101D01*
X132304182Y-61732965D01*
X132258592Y-61616485D01*
X132191155Y-61511137D01*
X132104460Y-61420970D01*
X132001841Y-61349449D01*
X131887241Y-61299321D01*
X130175339Y-60743091D01*
X130053161Y-60716285D01*
X129928101Y-60713829D01*
X129804965Y-60735818D01*
X129688485Y-60781408D01*
X129583137Y-60848845D01*
X129492970Y-60935540D01*
X129484435Y-60947787D01*
X129332628Y-60720592D01*
X129118821Y-60506785D01*
X128867411Y-60338798D01*
X128588059Y-60223086D01*
X128291500Y-60164097D01*
X127989132Y-60164097D01*
X127692573Y-60223086D01*
X127413221Y-60338798D01*
X127161811Y-60506785D01*
X126948004Y-60720592D01*
X126780017Y-60972002D01*
X126664305Y-61251354D01*
X126605316Y-61547913D01*
X100433927Y-61547913D01*
X103155289Y-58861000D01*
X134586122Y-58861000D01*
X153991000Y-78265879D01*
X153991000Y-78265879D01*
G37*
X153991000Y-78265879D02*
X153991000Y-92202036D01*
X153846312Y-91985495D01*
X153632505Y-91771688D01*
X153381095Y-91603701D01*
X153101743Y-91487989D01*
X152805184Y-91429000D01*
X152502816Y-91429000D01*
X152206257Y-91487989D01*
X151926905Y-91603701D01*
X151675495Y-91771688D01*
X151461688Y-91985495D01*
X151293701Y-92236905D01*
X151177989Y-92516257D01*
X151119000Y-92812816D01*
X151119000Y-93115184D01*
X151177989Y-93411743D01*
X151293701Y-93691095D01*
X151461688Y-93942505D01*
X151528127Y-94008944D01*
X151509820Y-94014498D01*
X151399506Y-94073463D01*
X151302815Y-94152815D01*
X151223463Y-94249506D01*
X151164498Y-94359820D01*
X151128188Y-94479518D01*
X151115928Y-94604000D01*
X151115928Y-96404000D01*
X151128188Y-96528482D01*
X151164498Y-96648180D01*
X151223463Y-96758494D01*
X151302815Y-96855185D01*
X151399506Y-96934537D01*
X151509820Y-96993502D01*
X151629518Y-97029812D01*
X151754000Y-97042072D01*
X153554000Y-97042072D01*
X153678482Y-97029812D01*
X153798180Y-96993502D01*
X153908494Y-96934537D01*
X153991001Y-96866826D01*
X153991001Y-109953393D01*
X135088821Y-129353000D01*
X102647221Y-129353000D01*
X99627100Y-126372101D01*
X126245829Y-126372101D01*
X126248285Y-126497161D01*
X126275091Y-126619339D01*
X126831321Y-128331241D01*
X126881449Y-128445841D01*
X126952970Y-128548460D01*
X127043137Y-128635155D01*
X127148485Y-128702592D01*
X127264965Y-128748182D01*
X127388101Y-128770171D01*
X127513161Y-128767715D01*
X127635339Y-128740909D01*
X129347241Y-128184679D01*
X129461841Y-128134551D01*
X129564460Y-128063030D01*
X129651155Y-127972863D01*
X129718592Y-127867515D01*
X129764182Y-127751035D01*
X129786171Y-127627899D01*
X129785801Y-127609035D01*
X129983941Y-127691108D01*
X130280500Y-127750097D01*
X130582868Y-127750097D01*
X130879427Y-127691108D01*
X131158779Y-127575396D01*
X131410189Y-127407409D01*
X131623996Y-127193602D01*
X131791983Y-126942192D01*
X131907695Y-126662840D01*
X131966684Y-126366281D01*
X131966684Y-126063913D01*
X131907695Y-125767354D01*
X131791983Y-125488002D01*
X131623996Y-125236592D01*
X131410189Y-125022785D01*
X131158779Y-124854798D01*
X130879427Y-124739086D01*
X130582868Y-124680097D01*
X130280500Y-124680097D01*
X129983941Y-124739086D01*
X129704589Y-124854798D01*
X129453179Y-125022785D01*
X129239372Y-125236592D01*
X129087565Y-125463787D01*
X129079030Y-125451540D01*
X128988863Y-125364845D01*
X128883515Y-125297408D01*
X128767035Y-125251818D01*
X128643899Y-125229829D01*
X128518839Y-125232285D01*
X128396661Y-125259091D01*
X126684759Y-125815321D01*
X126570159Y-125865449D01*
X126467540Y-125936970D01*
X126380845Y-126027137D01*
X126313408Y-126132485D01*
X126267818Y-126248965D01*
X126245829Y-126372101D01*
X99627100Y-126372101D01*
X92800340Y-119634000D01*
X115498541Y-119634000D01*
X115524317Y-119895706D01*
X115600653Y-120147354D01*
X115724618Y-120379275D01*
X115891445Y-120582555D01*
X116094725Y-120749382D01*
X116326646Y-120873347D01*
X116578294Y-120949683D01*
X116774421Y-120969000D01*
X116905579Y-120969000D01*
X117101706Y-120949683D01*
X117353354Y-120873347D01*
X117585275Y-120749382D01*
X117788555Y-120582555D01*
X117955382Y-120379275D01*
X118079347Y-120147354D01*
X118155683Y-119895706D01*
X118181459Y-119634000D01*
X119308541Y-119634000D01*
X119334317Y-119895706D01*
X119410653Y-120147354D01*
X119534618Y-120379275D01*
X119701445Y-120582555D01*
X119904725Y-120749382D01*
X120136646Y-120873347D01*
X120388294Y-120949683D01*
X120584421Y-120969000D01*
X120715579Y-120969000D01*
X120911706Y-120949683D01*
X121163354Y-120873347D01*
X121395275Y-120749382D01*
X121598555Y-120582555D01*
X121765382Y-120379275D01*
X121889347Y-120147354D01*
X121965683Y-119895706D01*
X121991459Y-119634000D01*
X123118541Y-119634000D01*
X123144317Y-119895706D01*
X123220653Y-120147354D01*
X123344618Y-120379275D01*
X123511445Y-120582555D01*
X123714725Y-120749382D01*
X123946646Y-120873347D01*
X124198294Y-120949683D01*
X124394421Y-120969000D01*
X124525579Y-120969000D01*
X124721706Y-120949683D01*
X124973354Y-120873347D01*
X125205275Y-120749382D01*
X125408555Y-120582555D01*
X125575382Y-120379275D01*
X125699347Y-120147354D01*
X125775683Y-119895706D01*
X125801459Y-119634000D01*
X125775683Y-119372294D01*
X125699347Y-119120646D01*
X125575382Y-118888725D01*
X125408555Y-118685445D01*
X125205275Y-118518618D01*
X124973354Y-118394653D01*
X124721706Y-118318317D01*
X124525579Y-118299000D01*
X124394421Y-118299000D01*
X124198294Y-118318317D01*
X123946646Y-118394653D01*
X123714725Y-118518618D01*
X123511445Y-118685445D01*
X123344618Y-118888725D01*
X123220653Y-119120646D01*
X123144317Y-119372294D01*
X123118541Y-119634000D01*
X121991459Y-119634000D01*
X121965683Y-119372294D01*
X121889347Y-119120646D01*
X121765382Y-118888725D01*
X121598555Y-118685445D01*
X121395275Y-118518618D01*
X121163354Y-118394653D01*
X120911706Y-118318317D01*
X120715579Y-118299000D01*
X120584421Y-118299000D01*
X120388294Y-118318317D01*
X120136646Y-118394653D01*
X119904725Y-118518618D01*
X119701445Y-118685445D01*
X119534618Y-118888725D01*
X119410653Y-119120646D01*
X119334317Y-119372294D01*
X119308541Y-119634000D01*
X118181459Y-119634000D01*
X118155683Y-119372294D01*
X118079347Y-119120646D01*
X117955382Y-118888725D01*
X117788555Y-118685445D01*
X117585275Y-118518618D01*
X117353354Y-118394653D01*
X117101706Y-118318317D01*
X116905579Y-118299000D01*
X116774421Y-118299000D01*
X116578294Y-118318317D01*
X116326646Y-118394653D01*
X116094725Y-118518618D01*
X115891445Y-118685445D01*
X115724618Y-118888725D01*
X115600653Y-119120646D01*
X115524317Y-119372294D01*
X115498541Y-119634000D01*
X92800340Y-119634000D01*
X91245110Y-118098967D01*
X128739000Y-118098967D01*
X128739000Y-118421033D01*
X128801832Y-118736912D01*
X128925082Y-119034463D01*
X129104013Y-119302252D01*
X129331748Y-119529987D01*
X129599537Y-119708918D01*
X129897088Y-119832168D01*
X130212967Y-119895000D01*
X130535033Y-119895000D01*
X130850912Y-119832168D01*
X131148463Y-119708918D01*
X131416252Y-119529987D01*
X131550826Y-119395413D01*
X133918192Y-119395413D01*
X134013956Y-119659814D01*
X134303571Y-119800704D01*
X134615108Y-119882384D01*
X134936595Y-119901718D01*
X135255675Y-119857961D01*
X135560088Y-119752795D01*
X135734044Y-119659814D01*
X135829808Y-119395413D01*
X134874000Y-118439605D01*
X133918192Y-119395413D01*
X131550826Y-119395413D01*
X131643987Y-119302252D01*
X131822918Y-119034463D01*
X131946168Y-118736912D01*
X132009000Y-118421033D01*
X132009000Y-118322595D01*
X133232282Y-118322595D01*
X133276039Y-118641675D01*
X133381205Y-118946088D01*
X133474186Y-119120044D01*
X133738587Y-119215808D01*
X134694395Y-118260000D01*
X135053605Y-118260000D01*
X136009413Y-119215808D01*
X136273814Y-119120044D01*
X136414704Y-118830429D01*
X136496384Y-118518892D01*
X136515718Y-118197405D01*
X136471961Y-117878325D01*
X136366795Y-117573912D01*
X136273814Y-117399956D01*
X136009413Y-117304192D01*
X135053605Y-118260000D01*
X134694395Y-118260000D01*
X133738587Y-117304192D01*
X133474186Y-117399956D01*
X133333296Y-117689571D01*
X133251616Y-118001108D01*
X133232282Y-118322595D01*
X132009000Y-118322595D01*
X132009000Y-118098967D01*
X131946168Y-117783088D01*
X131822918Y-117485537D01*
X131643987Y-117217748D01*
X131550826Y-117124587D01*
X133918192Y-117124587D01*
X134874000Y-118080395D01*
X135829808Y-117124587D01*
X135734044Y-116860186D01*
X135444429Y-116719296D01*
X135132892Y-116637616D01*
X134811405Y-116618282D01*
X134492325Y-116662039D01*
X134187912Y-116767205D01*
X134013956Y-116860186D01*
X133918192Y-117124587D01*
X131550826Y-117124587D01*
X131416252Y-116990013D01*
X131148463Y-116811082D01*
X130850912Y-116687832D01*
X130535033Y-116625000D01*
X130212967Y-116625000D01*
X129897088Y-116687832D01*
X129599537Y-116811082D01*
X129331748Y-116990013D01*
X129104013Y-117217748D01*
X128925082Y-117485537D01*
X128801832Y-117783088D01*
X128739000Y-118098967D01*
X91245110Y-118098967D01*
X85909891Y-112833038D01*
X88814323Y-112833038D01*
X88831461Y-112956943D01*
X88872442Y-113075123D01*
X88935692Y-113183037D01*
X89993705Y-114639268D01*
X90076792Y-114732769D01*
X90176524Y-114808265D01*
X90289068Y-114862853D01*
X90410099Y-114894435D01*
X90534966Y-114901799D01*
X90658871Y-114884661D01*
X90673190Y-114879696D01*
X90667000Y-114910816D01*
X90667000Y-115213184D01*
X90725989Y-115509743D01*
X90841701Y-115789095D01*
X91009688Y-116040505D01*
X91223495Y-116254312D01*
X91474905Y-116422299D01*
X91754257Y-116538011D01*
X92050816Y-116597000D01*
X92353184Y-116597000D01*
X92649743Y-116538011D01*
X92929095Y-116422299D01*
X93180505Y-116254312D01*
X93394312Y-116040505D01*
X93562299Y-115789095D01*
X93678011Y-115509743D01*
X93737000Y-115213184D01*
X93737000Y-114910816D01*
X93678011Y-114614257D01*
X93562299Y-114334905D01*
X93394312Y-114083495D01*
X93180505Y-113869688D01*
X92929095Y-113701701D01*
X92649743Y-113585989D01*
X92497934Y-113555792D01*
X92510193Y-113539598D01*
X92564781Y-113427054D01*
X92596363Y-113306023D01*
X92603727Y-113181156D01*
X92586589Y-113057251D01*
X92545608Y-112939071D01*
X92482358Y-112831157D01*
X91424345Y-111374926D01*
X91341258Y-111281425D01*
X91241526Y-111205929D01*
X91128982Y-111151341D01*
X91007951Y-111119759D01*
X90883084Y-111112395D01*
X90759179Y-111129533D01*
X90640999Y-111170514D01*
X90533085Y-111233764D01*
X89076854Y-112291777D01*
X88983353Y-112374864D01*
X88907857Y-112474596D01*
X88853269Y-112587140D01*
X88821687Y-112708171D01*
X88814323Y-112833038D01*
X85909891Y-112833038D01*
X83499000Y-110453458D01*
X83499000Y-107562544D01*
X87799000Y-107562544D01*
X87799000Y-107829456D01*
X87851072Y-108091239D01*
X87953215Y-108337833D01*
X88101503Y-108559762D01*
X88290238Y-108748497D01*
X88512167Y-108896785D01*
X88758761Y-108998928D01*
X89020544Y-109051000D01*
X89287456Y-109051000D01*
X89549239Y-108998928D01*
X89795833Y-108896785D01*
X90017762Y-108748497D01*
X90206497Y-108559762D01*
X90354785Y-108337833D01*
X90456928Y-108091239D01*
X90509000Y-107829456D01*
X90509000Y-107562544D01*
X90456928Y-107300761D01*
X90354785Y-107054167D01*
X90206497Y-106832238D01*
X90017762Y-106643503D01*
X89795833Y-106495215D01*
X89549239Y-106393072D01*
X89287456Y-106341000D01*
X89020544Y-106341000D01*
X88758761Y-106393072D01*
X88512167Y-106495215D01*
X88290238Y-106643503D01*
X88101503Y-106832238D01*
X87953215Y-107054167D01*
X87851072Y-107300761D01*
X87799000Y-107562544D01*
X83499000Y-107562544D01*
X83499000Y-105022544D01*
X85259000Y-105022544D01*
X85259000Y-105289456D01*
X85311072Y-105551239D01*
X85413215Y-105797833D01*
X85561503Y-106019762D01*
X85750238Y-106208497D01*
X85972167Y-106356785D01*
X86218761Y-106458928D01*
X86480544Y-106511000D01*
X86747456Y-106511000D01*
X87009239Y-106458928D01*
X87255833Y-106356785D01*
X87477762Y-106208497D01*
X87666497Y-106019762D01*
X87814785Y-105797833D01*
X87916928Y-105551239D01*
X87969000Y-105289456D01*
X87969000Y-105022544D01*
X87916928Y-104760761D01*
X87814785Y-104514167D01*
X87666497Y-104292238D01*
X87477762Y-104103503D01*
X87255833Y-103955215D01*
X87009239Y-103853072D01*
X86747456Y-103801000D01*
X86480544Y-103801000D01*
X86218761Y-103853072D01*
X85972167Y-103955215D01*
X85750238Y-104103503D01*
X85561503Y-104292238D01*
X85413215Y-104514167D01*
X85311072Y-104760761D01*
X85259000Y-105022544D01*
X83499000Y-105022544D01*
X83499000Y-102482544D01*
X87799000Y-102482544D01*
X87799000Y-102749456D01*
X87851072Y-103011239D01*
X87953215Y-103257833D01*
X88101503Y-103479762D01*
X88290238Y-103668497D01*
X88512167Y-103816785D01*
X88758761Y-103918928D01*
X89020544Y-103971000D01*
X89287456Y-103971000D01*
X89549239Y-103918928D01*
X89795833Y-103816785D01*
X90017762Y-103668497D01*
X90206497Y-103479762D01*
X90354785Y-103257833D01*
X90456928Y-103011239D01*
X90509000Y-102749456D01*
X90509000Y-102482544D01*
X90456928Y-102220761D01*
X90354785Y-101974167D01*
X90206497Y-101752238D01*
X90017762Y-101563503D01*
X89795833Y-101415215D01*
X89549239Y-101313072D01*
X89287456Y-101261000D01*
X89020544Y-101261000D01*
X88758761Y-101313072D01*
X88512167Y-101415215D01*
X88290238Y-101563503D01*
X88101503Y-101752238D01*
X87953215Y-101974167D01*
X87851072Y-102220761D01*
X87799000Y-102482544D01*
X83499000Y-102482544D01*
X83499000Y-98044000D01*
X85272541Y-98044000D01*
X85298317Y-98305706D01*
X85374653Y-98557354D01*
X85498618Y-98789275D01*
X85665445Y-98992555D01*
X85868725Y-99159382D01*
X86100646Y-99283347D01*
X86352294Y-99359683D01*
X86548421Y-99379000D01*
X86679579Y-99379000D01*
X86875706Y-99359683D01*
X87127354Y-99283347D01*
X87359275Y-99159382D01*
X87562555Y-98992555D01*
X87729382Y-98789275D01*
X87853347Y-98557354D01*
X87929683Y-98305706D01*
X87955459Y-98044000D01*
X87942509Y-97912514D01*
X90359000Y-97912514D01*
X90359000Y-98175486D01*
X90410304Y-98433405D01*
X90510939Y-98676359D01*
X90657038Y-98895013D01*
X90842987Y-99080962D01*
X91061641Y-99227061D01*
X91304595Y-99327696D01*
X91562514Y-99379000D01*
X91825486Y-99379000D01*
X92083405Y-99327696D01*
X92326359Y-99227061D01*
X92545013Y-99080962D01*
X92730962Y-98895013D01*
X92877061Y-98676359D01*
X92977696Y-98433405D01*
X93029000Y-98175486D01*
X93029000Y-98104001D01*
X95156328Y-98104001D01*
X95105764Y-98270691D01*
X95078057Y-98552000D01*
X95105764Y-98833309D01*
X95187818Y-99103808D01*
X95321068Y-99353101D01*
X95500392Y-99571608D01*
X95718899Y-99750932D01*
X95851858Y-99822000D01*
X95718899Y-99893068D01*
X95500392Y-100072392D01*
X95321068Y-100290899D01*
X95187818Y-100540192D01*
X95105764Y-100810691D01*
X95078057Y-101092000D01*
X95105764Y-101373309D01*
X95187818Y-101643808D01*
X95321068Y-101893101D01*
X95500392Y-102111608D01*
X95718899Y-102290932D01*
X95851858Y-102362000D01*
X95718899Y-102433068D01*
X95500392Y-102612392D01*
X95321068Y-102830899D01*
X95187818Y-103080192D01*
X95105764Y-103350691D01*
X95078057Y-103632000D01*
X95105764Y-103913309D01*
X95187818Y-104183808D01*
X95321068Y-104433101D01*
X95500392Y-104651608D01*
X95718899Y-104830932D01*
X95851858Y-104902000D01*
X95718899Y-104973068D01*
X95500392Y-105152392D01*
X95321068Y-105370899D01*
X95187818Y-105620192D01*
X95105764Y-105890691D01*
X95078057Y-106172000D01*
X95105764Y-106453309D01*
X95187818Y-106723808D01*
X95321068Y-106973101D01*
X95500392Y-107191608D01*
X95718899Y-107370932D01*
X95851858Y-107442000D01*
X95718899Y-107513068D01*
X95500392Y-107692392D01*
X95321068Y-107910899D01*
X95187818Y-108160192D01*
X95105764Y-108430691D01*
X95078057Y-108712000D01*
X95105764Y-108993309D01*
X95187818Y-109263808D01*
X95321068Y-109513101D01*
X95500392Y-109731608D01*
X95718899Y-109910932D01*
X95851858Y-109982000D01*
X95718899Y-110053068D01*
X95500392Y-110232392D01*
X95321068Y-110450899D01*
X95187818Y-110700192D01*
X95105764Y-110970691D01*
X95078057Y-111252000D01*
X95105764Y-111533309D01*
X95187818Y-111803808D01*
X95321068Y-112053101D01*
X95500392Y-112271608D01*
X95718899Y-112450932D01*
X95851858Y-112522000D01*
X95718899Y-112593068D01*
X95500392Y-112772392D01*
X95321068Y-112990899D01*
X95187818Y-113240192D01*
X95105764Y-113510691D01*
X95078057Y-113792000D01*
X95105764Y-114073309D01*
X95187818Y-114343808D01*
X95321068Y-114593101D01*
X95500392Y-114811608D01*
X95718899Y-114990932D01*
X95851858Y-115062000D01*
X95718899Y-115133068D01*
X95500392Y-115312392D01*
X95321068Y-115530899D01*
X95187818Y-115780192D01*
X95105764Y-116050691D01*
X95078057Y-116332000D01*
X95105764Y-116613309D01*
X95187818Y-116883808D01*
X95321068Y-117133101D01*
X95500392Y-117351608D01*
X95718899Y-117530932D01*
X95968192Y-117664182D01*
X96238691Y-117746236D01*
X96449508Y-117767000D01*
X96590492Y-117767000D01*
X96801309Y-117746236D01*
X97071808Y-117664182D01*
X97321101Y-117530932D01*
X97539608Y-117351608D01*
X97718932Y-117133101D01*
X97852182Y-116883808D01*
X97934236Y-116613309D01*
X97961943Y-116332000D01*
X97934236Y-116050691D01*
X97852182Y-115780192D01*
X97718932Y-115530899D01*
X97539608Y-115312392D01*
X97321101Y-115133068D01*
X97188142Y-115062000D01*
X97321101Y-114990932D01*
X97539608Y-114811608D01*
X97718932Y-114593101D01*
X97852182Y-114343808D01*
X97934236Y-114073309D01*
X97961943Y-113792000D01*
X97934236Y-113510691D01*
X97852182Y-113240192D01*
X97718932Y-112990899D01*
X97539608Y-112772392D01*
X97321101Y-112593068D01*
X97188142Y-112522000D01*
X97321101Y-112450932D01*
X97539608Y-112271608D01*
X97718932Y-112053101D01*
X97852182Y-111803808D01*
X97934236Y-111533309D01*
X97961943Y-111252000D01*
X97934236Y-110970691D01*
X97852182Y-110700192D01*
X97718932Y-110450899D01*
X97539608Y-110232392D01*
X97321101Y-110053068D01*
X97188142Y-109982000D01*
X97321101Y-109910932D01*
X97539608Y-109731608D01*
X97718932Y-109513101D01*
X97852182Y-109263808D01*
X97934236Y-108993309D01*
X97961943Y-108712000D01*
X97934236Y-108430691D01*
X97852182Y-108160192D01*
X97718932Y-107910899D01*
X97539608Y-107692392D01*
X97321101Y-107513068D01*
X97188142Y-107442000D01*
X97321101Y-107370932D01*
X97539608Y-107191608D01*
X97718932Y-106973101D01*
X97852182Y-106723808D01*
X97934236Y-106453309D01*
X97961943Y-106172000D01*
X97934236Y-105890691D01*
X97852182Y-105620192D01*
X97718932Y-105370899D01*
X97539608Y-105152392D01*
X97321101Y-104973068D01*
X97188142Y-104902000D01*
X97321101Y-104830932D01*
X97539608Y-104651608D01*
X97718932Y-104433101D01*
X97852182Y-104183808D01*
X97934236Y-103913309D01*
X97961943Y-103632000D01*
X97934236Y-103350691D01*
X97852182Y-103080192D01*
X97718932Y-102830899D01*
X97539608Y-102612392D01*
X97321101Y-102433068D01*
X97188142Y-102362000D01*
X97321101Y-102290932D01*
X97539608Y-102111608D01*
X97718932Y-101893101D01*
X97852182Y-101643808D01*
X97934236Y-101373309D01*
X97961943Y-101092000D01*
X97934236Y-100810691D01*
X97852182Y-100540192D01*
X97718932Y-100290899D01*
X97539608Y-100072392D01*
X97321101Y-99893068D01*
X97188142Y-99822000D01*
X97321101Y-99750932D01*
X97539608Y-99571608D01*
X97718932Y-99353101D01*
X97852182Y-99103808D01*
X97934236Y-98833309D01*
X97961943Y-98552000D01*
X97934236Y-98270691D01*
X97883672Y-98104001D01*
X102770677Y-98104001D01*
X102807999Y-98107677D01*
X102845321Y-98104001D01*
X102845332Y-98104001D01*
X102956985Y-98093004D01*
X103100246Y-98049547D01*
X103232275Y-97978975D01*
X103348000Y-97884002D01*
X103371803Y-97854998D01*
X110320598Y-90906204D01*
X110318057Y-90932000D01*
X110345764Y-91213309D01*
X110427818Y-91483808D01*
X110561068Y-91733101D01*
X110740392Y-91951608D01*
X110958899Y-92130932D01*
X111091858Y-92202000D01*
X110958899Y-92273068D01*
X110740392Y-92452392D01*
X110561068Y-92670899D01*
X110427818Y-92920192D01*
X110345764Y-93190691D01*
X110318057Y-93472000D01*
X110345764Y-93753309D01*
X110427818Y-94023808D01*
X110561068Y-94273101D01*
X110740392Y-94491608D01*
X110958899Y-94670932D01*
X111091858Y-94742000D01*
X110958899Y-94813068D01*
X110740392Y-94992392D01*
X110561068Y-95210899D01*
X110427818Y-95460192D01*
X110345764Y-95730691D01*
X110318057Y-96012000D01*
X110345764Y-96293309D01*
X110427818Y-96563808D01*
X110561068Y-96813101D01*
X110740392Y-97031608D01*
X110958899Y-97210932D01*
X111091858Y-97282000D01*
X110958899Y-97353068D01*
X110740392Y-97532392D01*
X110561068Y-97750899D01*
X110427818Y-98000192D01*
X110345764Y-98270691D01*
X110318057Y-98552000D01*
X110345764Y-98833309D01*
X110427818Y-99103808D01*
X110561068Y-99353101D01*
X110740392Y-99571608D01*
X110958899Y-99750932D01*
X111091858Y-99822000D01*
X110958899Y-99893068D01*
X110740392Y-100072392D01*
X110561068Y-100290899D01*
X110427818Y-100540192D01*
X110345764Y-100810691D01*
X110318057Y-101092000D01*
X110345764Y-101373309D01*
X110427818Y-101643808D01*
X110561068Y-101893101D01*
X110740392Y-102111608D01*
X110958899Y-102290932D01*
X111091858Y-102362000D01*
X110958899Y-102433068D01*
X110740392Y-102612392D01*
X110561068Y-102830899D01*
X110427818Y-103080192D01*
X110345764Y-103350691D01*
X110318057Y-103632000D01*
X110345764Y-103913309D01*
X110427818Y-104183808D01*
X110561068Y-104433101D01*
X110740392Y-104651608D01*
X110958899Y-104830932D01*
X111091858Y-104902000D01*
X110958899Y-104973068D01*
X110740392Y-105152392D01*
X110561068Y-105370899D01*
X110427818Y-105620192D01*
X110345764Y-105890691D01*
X110318057Y-106172000D01*
X110345764Y-106453309D01*
X110427818Y-106723808D01*
X110561068Y-106973101D01*
X110740392Y-107191608D01*
X110958899Y-107370932D01*
X111091858Y-107442000D01*
X110958899Y-107513068D01*
X110740392Y-107692392D01*
X110561068Y-107910899D01*
X110427818Y-108160192D01*
X110345764Y-108430691D01*
X110318057Y-108712000D01*
X110345764Y-108993309D01*
X110427818Y-109263808D01*
X110561068Y-109513101D01*
X110740392Y-109731608D01*
X110958899Y-109910932D01*
X111091858Y-109982000D01*
X110958899Y-110053068D01*
X110740392Y-110232392D01*
X110561068Y-110450899D01*
X110427818Y-110700192D01*
X110345764Y-110970691D01*
X110318057Y-111252000D01*
X110345764Y-111533309D01*
X110427818Y-111803808D01*
X110561068Y-112053101D01*
X110740392Y-112271608D01*
X110958899Y-112450932D01*
X111091858Y-112522000D01*
X110958899Y-112593068D01*
X110740392Y-112772392D01*
X110561068Y-112990899D01*
X110427818Y-113240192D01*
X110345764Y-113510691D01*
X110318057Y-113792000D01*
X110345764Y-114073309D01*
X110427818Y-114343808D01*
X110561068Y-114593101D01*
X110740392Y-114811608D01*
X110958899Y-114990932D01*
X111091858Y-115062000D01*
X110958899Y-115133068D01*
X110740392Y-115312392D01*
X110561068Y-115530899D01*
X110427818Y-115780192D01*
X110345764Y-116050691D01*
X110318057Y-116332000D01*
X110345764Y-116613309D01*
X110427818Y-116883808D01*
X110561068Y-117133101D01*
X110740392Y-117351608D01*
X110958899Y-117530932D01*
X111208192Y-117664182D01*
X111478691Y-117746236D01*
X111689508Y-117767000D01*
X111830492Y-117767000D01*
X112041309Y-117746236D01*
X112311808Y-117664182D01*
X112561101Y-117530932D01*
X112779608Y-117351608D01*
X112958932Y-117133101D01*
X113092182Y-116883808D01*
X113174236Y-116613309D01*
X113201943Y-116332000D01*
X113174236Y-116050691D01*
X113092182Y-115780192D01*
X112958932Y-115530899D01*
X112779608Y-115312392D01*
X112561101Y-115133068D01*
X112428142Y-115062000D01*
X112561101Y-114990932D01*
X112779608Y-114811608D01*
X112958932Y-114593101D01*
X113092182Y-114343808D01*
X113174236Y-114073309D01*
X113201943Y-113792000D01*
X113174236Y-113510691D01*
X113092182Y-113240192D01*
X112958932Y-112990899D01*
X112779608Y-112772392D01*
X112561101Y-112593068D01*
X112428142Y-112522000D01*
X112561101Y-112450932D01*
X112779608Y-112271608D01*
X112958932Y-112053101D01*
X113092182Y-111803808D01*
X113174236Y-111533309D01*
X113201943Y-111252000D01*
X113174236Y-110970691D01*
X113092182Y-110700192D01*
X112958932Y-110450899D01*
X112779608Y-110232392D01*
X112561101Y-110053068D01*
X112428142Y-109982000D01*
X112561101Y-109910932D01*
X112779608Y-109731608D01*
X112958932Y-109513101D01*
X113092182Y-109263808D01*
X113174236Y-108993309D01*
X113201943Y-108712000D01*
X113174236Y-108430691D01*
X113092182Y-108160192D01*
X112958932Y-107910899D01*
X112779608Y-107692392D01*
X112561101Y-107513068D01*
X112428142Y-107442000D01*
X112561101Y-107370932D01*
X112779608Y-107191608D01*
X112958932Y-106973101D01*
X113092182Y-106723808D01*
X113174236Y-106453309D01*
X113201943Y-106172000D01*
X113174236Y-105890691D01*
X113092182Y-105620192D01*
X112958932Y-105370899D01*
X112779608Y-105152392D01*
X112561101Y-104973068D01*
X112428142Y-104902000D01*
X112561101Y-104830932D01*
X112779608Y-104651608D01*
X112958932Y-104433101D01*
X113092182Y-104183808D01*
X113174236Y-103913309D01*
X113201943Y-103632000D01*
X113174236Y-103350691D01*
X113092182Y-103080192D01*
X112958932Y-102830899D01*
X112779608Y-102612392D01*
X112561101Y-102433068D01*
X112428142Y-102362000D01*
X112561101Y-102290932D01*
X112779608Y-102111608D01*
X112958932Y-101893101D01*
X113092182Y-101643808D01*
X113174236Y-101373309D01*
X113201943Y-101092000D01*
X113174236Y-100810691D01*
X113092182Y-100540192D01*
X112958932Y-100290899D01*
X112779608Y-100072392D01*
X112561101Y-99893068D01*
X112428142Y-99822000D01*
X112561101Y-99750932D01*
X112779608Y-99571608D01*
X112958932Y-99353101D01*
X113092182Y-99103808D01*
X113174236Y-98833309D01*
X113201943Y-98552000D01*
X113174236Y-98270691D01*
X113092182Y-98000192D01*
X112958932Y-97750899D01*
X112779608Y-97532392D01*
X112561101Y-97353068D01*
X112428142Y-97282000D01*
X112561101Y-97210932D01*
X112779608Y-97031608D01*
X112958932Y-96813101D01*
X113092182Y-96563808D01*
X113174236Y-96293309D01*
X113201943Y-96012000D01*
X113174236Y-95730691D01*
X113092182Y-95460192D01*
X112958932Y-95210899D01*
X112779608Y-94992392D01*
X112561101Y-94813068D01*
X112428142Y-94742000D01*
X112561101Y-94670932D01*
X112779608Y-94491608D01*
X112958932Y-94273101D01*
X113092182Y-94023808D01*
X113174236Y-93753309D01*
X113201943Y-93472000D01*
X113174236Y-93190691D01*
X113092182Y-92920192D01*
X112958932Y-92670899D01*
X112779608Y-92452392D01*
X112561101Y-92273068D01*
X112428142Y-92202000D01*
X112561101Y-92130932D01*
X112779608Y-91951608D01*
X112958932Y-91733101D01*
X113092182Y-91483808D01*
X113174236Y-91213309D01*
X113201943Y-90932000D01*
X113174236Y-90650691D01*
X113160708Y-90606093D01*
X113395998Y-90370803D01*
X113425002Y-90347000D01*
X113519975Y-90231275D01*
X113590547Y-90099246D01*
X113634004Y-89955985D01*
X113645001Y-89844332D01*
X113645001Y-89844323D01*
X113648677Y-89807000D01*
X113645001Y-89769677D01*
X113645001Y-89048563D01*
X115445096Y-87248468D01*
X115499831Y-87428905D01*
X115608474Y-87632161D01*
X115754682Y-87810318D01*
X115932838Y-87956526D01*
X116080001Y-88035187D01*
X116080000Y-113456225D01*
X115988987Y-113517038D01*
X115803038Y-113702987D01*
X115656939Y-113921641D01*
X115556304Y-114164595D01*
X115505000Y-114422514D01*
X115505000Y-114685486D01*
X115556304Y-114943405D01*
X115656939Y-115186359D01*
X115803038Y-115405013D01*
X115988987Y-115590962D01*
X116207641Y-115737061D01*
X116450595Y-115837696D01*
X116708514Y-115889000D01*
X116971486Y-115889000D01*
X117229405Y-115837696D01*
X117472359Y-115737061D01*
X117691013Y-115590962D01*
X117876962Y-115405013D01*
X118023061Y-115186359D01*
X118123696Y-114943405D01*
X118175000Y-114685486D01*
X118175000Y-114422514D01*
X118123696Y-114164595D01*
X118023061Y-113921641D01*
X117876962Y-113702987D01*
X117691013Y-113517038D01*
X117600000Y-113456225D01*
X117600000Y-103497418D01*
X117635329Y-103563514D01*
X117879298Y-103635097D01*
X118692395Y-102822000D01*
X117879298Y-102008903D01*
X117635329Y-102080486D01*
X117600000Y-102155150D01*
X117600000Y-100500954D01*
X117600320Y-100501727D01*
X117757363Y-100736759D01*
X117957241Y-100936637D01*
X118192273Y-101093680D01*
X118453426Y-101201853D01*
X118730665Y-101257000D01*
X119013335Y-101257000D01*
X119237001Y-101212509D01*
X119237001Y-101434098D01*
X119083816Y-101395700D01*
X118801488Y-101381783D01*
X118521870Y-101423213D01*
X118255708Y-101518397D01*
X118130486Y-101585329D01*
X118058903Y-101829298D01*
X118872000Y-102642395D01*
X118886143Y-102628253D01*
X119065748Y-102807858D01*
X119051605Y-102822000D01*
X119065748Y-102836143D01*
X118886143Y-103015748D01*
X118872000Y-103001605D01*
X118058903Y-103814702D01*
X118130486Y-104058671D01*
X118385996Y-104179571D01*
X118660184Y-104248300D01*
X118942512Y-104262217D01*
X119222130Y-104220787D01*
X119237001Y-104215469D01*
X119237001Y-112873730D01*
X119233325Y-112911052D01*
X119237001Y-112948374D01*
X119237001Y-112948384D01*
X119247998Y-113060037D01*
X119285309Y-113183037D01*
X119291455Y-113203298D01*
X119362027Y-113335328D01*
X119380602Y-113357961D01*
X119457000Y-113451053D01*
X119486003Y-113474855D01*
X119663586Y-113652439D01*
X119613038Y-113702987D01*
X119466939Y-113921641D01*
X119366304Y-114164595D01*
X119315000Y-114422514D01*
X119315000Y-114685486D01*
X119366304Y-114943405D01*
X119466939Y-115186359D01*
X119613038Y-115405013D01*
X119798987Y-115590962D01*
X120017641Y-115737061D01*
X120260595Y-115837696D01*
X120518514Y-115889000D01*
X120781486Y-115889000D01*
X121039405Y-115837696D01*
X121282359Y-115737061D01*
X121501013Y-115590962D01*
X121686962Y-115405013D01*
X121833061Y-115186359D01*
X121933696Y-114943405D01*
X121985000Y-114685486D01*
X121985000Y-114422514D01*
X121933696Y-114164595D01*
X121833061Y-113921641D01*
X121686962Y-113702987D01*
X121501013Y-113517038D01*
X121402568Y-113451260D01*
X121399003Y-113415065D01*
X121355546Y-113271804D01*
X121318929Y-113203299D01*
X121284974Y-113139774D01*
X121213799Y-113053048D01*
X121213798Y-113053047D01*
X121190001Y-113024050D01*
X121161002Y-113000251D01*
X120757001Y-112596251D01*
X120757001Y-110935853D01*
X123473586Y-113652439D01*
X123423038Y-113702987D01*
X123276939Y-113921641D01*
X123176304Y-114164595D01*
X123125000Y-114422514D01*
X123125000Y-114685486D01*
X123176304Y-114943405D01*
X123276939Y-115186359D01*
X123423038Y-115405013D01*
X123608987Y-115590962D01*
X123827641Y-115737061D01*
X124070595Y-115837696D01*
X124328514Y-115889000D01*
X124591486Y-115889000D01*
X124849405Y-115837696D01*
X125092359Y-115737061D01*
X125311013Y-115590962D01*
X125496962Y-115405013D01*
X125643061Y-115186359D01*
X125743696Y-114943405D01*
X125795000Y-114685486D01*
X125795000Y-114422514D01*
X125743696Y-114164595D01*
X125643061Y-113921641D01*
X125496962Y-113702987D01*
X125311013Y-113517038D01*
X125212568Y-113451260D01*
X125209003Y-113415065D01*
X125165546Y-113271804D01*
X125094974Y-113139775D01*
X125029535Y-113060037D01*
X125023799Y-113053047D01*
X125023795Y-113053043D01*
X125000001Y-113024050D01*
X124971008Y-113000256D01*
X123569719Y-111598967D01*
X128739000Y-111598967D01*
X128739000Y-111921033D01*
X128801832Y-112236912D01*
X128925082Y-112534463D01*
X129104013Y-112802252D01*
X129331748Y-113029987D01*
X129599537Y-113208918D01*
X129897088Y-113332168D01*
X130212967Y-113395000D01*
X130535033Y-113395000D01*
X130850912Y-113332168D01*
X131148463Y-113208918D01*
X131416252Y-113029987D01*
X131550826Y-112895413D01*
X133918192Y-112895413D01*
X134013956Y-113159814D01*
X134303571Y-113300704D01*
X134615108Y-113382384D01*
X134936595Y-113401718D01*
X135255675Y-113357961D01*
X135560088Y-113252795D01*
X135734044Y-113159814D01*
X135829808Y-112895413D01*
X134874000Y-111939605D01*
X133918192Y-112895413D01*
X131550826Y-112895413D01*
X131643987Y-112802252D01*
X131822918Y-112534463D01*
X131946168Y-112236912D01*
X132009000Y-111921033D01*
X132009000Y-111822595D01*
X133232282Y-111822595D01*
X133276039Y-112141675D01*
X133381205Y-112446088D01*
X133474186Y-112620044D01*
X133738587Y-112715808D01*
X134694395Y-111760000D01*
X135053605Y-111760000D01*
X136009413Y-112715808D01*
X136273814Y-112620044D01*
X136414704Y-112330429D01*
X136496384Y-112018892D01*
X136515718Y-111697405D01*
X136471961Y-111378325D01*
X136366795Y-111073912D01*
X136273814Y-110899956D01*
X136009413Y-110804192D01*
X135053605Y-111760000D01*
X134694395Y-111760000D01*
X133738587Y-110804192D01*
X133474186Y-110899956D01*
X133333296Y-111189571D01*
X133251616Y-111501108D01*
X133232282Y-111822595D01*
X132009000Y-111822595D01*
X132009000Y-111598967D01*
X131946168Y-111283088D01*
X131822918Y-110985537D01*
X131643987Y-110717748D01*
X131550826Y-110624587D01*
X133918192Y-110624587D01*
X134874000Y-111580395D01*
X135829808Y-110624587D01*
X135734044Y-110360186D01*
X135444429Y-110219296D01*
X135132892Y-110137616D01*
X134811405Y-110118282D01*
X134492325Y-110162039D01*
X134187912Y-110267205D01*
X134013956Y-110360186D01*
X133918192Y-110624587D01*
X131550826Y-110624587D01*
X131416252Y-110490013D01*
X131148463Y-110311082D01*
X130850912Y-110187832D01*
X130535033Y-110125000D01*
X130212967Y-110125000D01*
X129897088Y-110187832D01*
X129599537Y-110311082D01*
X129331748Y-110490013D01*
X129104013Y-110717748D01*
X128925082Y-110985537D01*
X128801832Y-111283088D01*
X128739000Y-111598967D01*
X123569719Y-111598967D01*
X121207011Y-109236261D01*
X121207011Y-108885560D01*
X143770045Y-108885560D01*
X143831932Y-109121368D01*
X144073790Y-109234266D01*
X144333027Y-109297811D01*
X144599680Y-109309561D01*
X144863501Y-109269063D01*
X145114353Y-109177875D01*
X145220068Y-109121368D01*
X145281955Y-108885560D01*
X144526000Y-108129605D01*
X143770045Y-108885560D01*
X121207011Y-108885560D01*
X121207011Y-108023680D01*
X143166439Y-108023680D01*
X143206937Y-108287501D01*
X143298125Y-108538353D01*
X143354632Y-108644068D01*
X143590440Y-108705955D01*
X144346395Y-107950000D01*
X144705605Y-107950000D01*
X145461560Y-108705955D01*
X145697368Y-108644068D01*
X145810266Y-108402210D01*
X145873811Y-108142973D01*
X145885561Y-107876320D01*
X145845063Y-107612499D01*
X145753875Y-107361647D01*
X145697368Y-107255932D01*
X145461560Y-107194045D01*
X144705605Y-107950000D01*
X144346395Y-107950000D01*
X143590440Y-107194045D01*
X143354632Y-107255932D01*
X143241734Y-107497790D01*
X143178189Y-107757027D01*
X143166439Y-108023680D01*
X121207011Y-108023680D01*
X121207011Y-107014440D01*
X143770045Y-107014440D01*
X144526000Y-107770395D01*
X145281955Y-107014440D01*
X145220068Y-106778632D01*
X144978210Y-106665734D01*
X144718973Y-106602189D01*
X144452320Y-106590439D01*
X144188499Y-106630937D01*
X143937647Y-106722125D01*
X143831932Y-106778632D01*
X143770045Y-107014440D01*
X121207011Y-107014440D01*
X121207011Y-105276544D01*
X140631000Y-105276544D01*
X140631000Y-105543456D01*
X140683072Y-105805239D01*
X140785215Y-106051833D01*
X140933503Y-106273762D01*
X141122238Y-106462497D01*
X141344167Y-106610785D01*
X141590761Y-106712928D01*
X141852544Y-106765000D01*
X142119456Y-106765000D01*
X142381239Y-106712928D01*
X142627833Y-106610785D01*
X142849762Y-106462497D01*
X143038497Y-106273762D01*
X143186785Y-106051833D01*
X143288928Y-105805239D01*
X143341000Y-105543456D01*
X143341000Y-105276544D01*
X143288928Y-105014761D01*
X143186785Y-104768167D01*
X143038497Y-104546238D01*
X142849762Y-104357503D01*
X142627833Y-104209215D01*
X142381239Y-104107072D01*
X142119456Y-104055000D01*
X141852544Y-104055000D01*
X141590761Y-104107072D01*
X141344167Y-104209215D01*
X141122238Y-104357503D01*
X140933503Y-104546238D01*
X140785215Y-104768167D01*
X140683072Y-105014761D01*
X140631000Y-105276544D01*
X121207011Y-105276544D01*
X121207011Y-101004000D01*
X125511928Y-101004000D01*
X125511928Y-102704000D01*
X125524188Y-102828482D01*
X125560498Y-102948180D01*
X125619463Y-103058494D01*
X125698815Y-103155185D01*
X125795506Y-103234537D01*
X125905820Y-103293502D01*
X126025518Y-103329812D01*
X126150000Y-103342072D01*
X127850000Y-103342072D01*
X127974482Y-103329812D01*
X128094180Y-103293502D01*
X128204494Y-103234537D01*
X128301185Y-103155185D01*
X128380537Y-103058494D01*
X128439502Y-102948180D01*
X128460393Y-102879313D01*
X128484866Y-102909134D01*
X128710986Y-103094706D01*
X128968966Y-103232599D01*
X129248889Y-103317513D01*
X129467050Y-103339000D01*
X129612950Y-103339000D01*
X129831111Y-103317513D01*
X130111034Y-103232599D01*
X130369014Y-103094706D01*
X130595134Y-102909134D01*
X130736775Y-102736544D01*
X143171000Y-102736544D01*
X143171000Y-103003456D01*
X143223072Y-103265239D01*
X143325215Y-103511833D01*
X143473503Y-103733762D01*
X143662238Y-103922497D01*
X143884167Y-104070785D01*
X144130761Y-104172928D01*
X144392544Y-104225000D01*
X144659456Y-104225000D01*
X144921239Y-104172928D01*
X145167833Y-104070785D01*
X145389762Y-103922497D01*
X145578497Y-103733762D01*
X145726785Y-103511833D01*
X145828928Y-103265239D01*
X145881000Y-103003456D01*
X145881000Y-102736544D01*
X145828928Y-102474761D01*
X145726785Y-102228167D01*
X145578497Y-102006238D01*
X145389762Y-101817503D01*
X145167833Y-101669215D01*
X144921239Y-101567072D01*
X144659456Y-101515000D01*
X144392544Y-101515000D01*
X144130761Y-101567072D01*
X143884167Y-101669215D01*
X143662238Y-101817503D01*
X143473503Y-102006238D01*
X143325215Y-102228167D01*
X143223072Y-102474761D01*
X143171000Y-102736544D01*
X130736775Y-102736544D01*
X130780706Y-102683014D01*
X130918599Y-102425034D01*
X131003513Y-102145111D01*
X131032185Y-101854000D01*
X131003513Y-101562889D01*
X130918599Y-101282966D01*
X130780706Y-101024986D01*
X130595134Y-100798866D01*
X130369014Y-100613294D01*
X130111034Y-100475401D01*
X129831111Y-100390487D01*
X129612950Y-100369000D01*
X129467050Y-100369000D01*
X129248889Y-100390487D01*
X128968966Y-100475401D01*
X128710986Y-100613294D01*
X128484866Y-100798866D01*
X128460393Y-100828687D01*
X128439502Y-100759820D01*
X128380537Y-100649506D01*
X128301185Y-100552815D01*
X128204494Y-100473463D01*
X128094180Y-100414498D01*
X127974482Y-100378188D01*
X127850000Y-100365928D01*
X126150000Y-100365928D01*
X126025518Y-100378188D01*
X125905820Y-100414498D01*
X125795506Y-100473463D01*
X125698815Y-100552815D01*
X125619463Y-100649506D01*
X125560498Y-100759820D01*
X125524188Y-100879518D01*
X125511928Y-101004000D01*
X121207011Y-101004000D01*
X121207011Y-96122400D01*
X122667928Y-96122400D01*
X122667928Y-97425600D01*
X122684961Y-97598542D01*
X122735407Y-97764838D01*
X122817325Y-97918097D01*
X122927570Y-98052430D01*
X123061903Y-98162675D01*
X123215162Y-98244593D01*
X123381458Y-98295039D01*
X123554400Y-98312072D01*
X124857600Y-98312072D01*
X125030542Y-98295039D01*
X125196838Y-98244593D01*
X125350097Y-98162675D01*
X125484430Y-98052430D01*
X125594675Y-97918097D01*
X125676593Y-97764838D01*
X125727039Y-97598542D01*
X125741121Y-97455560D01*
X143770045Y-97455560D01*
X143831932Y-97691368D01*
X144073790Y-97804266D01*
X144333027Y-97867811D01*
X144599680Y-97879561D01*
X144863501Y-97839063D01*
X145114353Y-97747875D01*
X145220068Y-97691368D01*
X145281955Y-97455560D01*
X144526000Y-96699605D01*
X143770045Y-97455560D01*
X125741121Y-97455560D01*
X125744072Y-97425600D01*
X125744072Y-96593680D01*
X143166439Y-96593680D01*
X143206937Y-96857501D01*
X143298125Y-97108353D01*
X143354632Y-97214068D01*
X143590440Y-97275955D01*
X144346395Y-96520000D01*
X144705605Y-96520000D01*
X145461560Y-97275955D01*
X145697368Y-97214068D01*
X145810266Y-96972210D01*
X145873811Y-96712973D01*
X145885561Y-96446320D01*
X145845063Y-96182499D01*
X145753875Y-95931647D01*
X145697368Y-95825932D01*
X145461560Y-95764045D01*
X144705605Y-96520000D01*
X144346395Y-96520000D01*
X143590440Y-95764045D01*
X143354632Y-95825932D01*
X143241734Y-96067790D01*
X143178189Y-96327027D01*
X143166439Y-96593680D01*
X125744072Y-96593680D01*
X125744072Y-96122400D01*
X125727039Y-95949458D01*
X125676593Y-95783162D01*
X125594675Y-95629903D01*
X125557365Y-95584440D01*
X143770045Y-95584440D01*
X144526000Y-96340395D01*
X145281955Y-95584440D01*
X145220068Y-95348632D01*
X144978210Y-95235734D01*
X144718973Y-95172189D01*
X144452320Y-95160439D01*
X144188499Y-95200937D01*
X143937647Y-95292125D01*
X143831932Y-95348632D01*
X143770045Y-95584440D01*
X125557365Y-95584440D01*
X125484430Y-95495570D01*
X125350097Y-95385325D01*
X125196838Y-95303407D01*
X125051807Y-95259412D01*
X124206000Y-94413605D01*
X123360193Y-95259412D01*
X123215162Y-95303407D01*
X123061903Y-95385325D01*
X122927570Y-95495570D01*
X122817325Y-95629903D01*
X122735407Y-95783162D01*
X122684961Y-95949458D01*
X122667928Y-96122400D01*
X121207011Y-96122400D01*
X121207011Y-94300553D01*
X122665009Y-94300553D01*
X122707603Y-94599907D01*
X122807778Y-94885199D01*
X122887739Y-95034792D01*
X123141920Y-95118475D01*
X124026395Y-94234000D01*
X124385605Y-94234000D01*
X125270080Y-95118475D01*
X125524261Y-95034792D01*
X125655158Y-94762225D01*
X125730365Y-94469358D01*
X125746991Y-94167447D01*
X125704397Y-93868093D01*
X125604222Y-93582801D01*
X125524261Y-93433208D01*
X125270080Y-93349525D01*
X124385605Y-94234000D01*
X124026395Y-94234000D01*
X123141920Y-93349525D01*
X122887739Y-93433208D01*
X122756842Y-93705775D01*
X122681635Y-93998642D01*
X122665009Y-94300553D01*
X121207011Y-94300553D01*
X121207011Y-91542816D01*
X122671000Y-91542816D01*
X122671000Y-91845184D01*
X122729989Y-92141743D01*
X122845701Y-92421095D01*
X123013688Y-92672505D01*
X123227495Y-92886312D01*
X123381105Y-92988951D01*
X123321525Y-93169920D01*
X124206000Y-94054395D01*
X125090475Y-93169920D01*
X125030895Y-92988951D01*
X125184505Y-92886312D01*
X125398312Y-92672505D01*
X125566299Y-92421095D01*
X125682011Y-92141743D01*
X125741000Y-91845184D01*
X125741000Y-91606000D01*
X130845928Y-91606000D01*
X130845928Y-93306000D01*
X130858188Y-93430482D01*
X130894498Y-93550180D01*
X130953463Y-93660494D01*
X131032815Y-93757185D01*
X131129506Y-93836537D01*
X131239820Y-93895502D01*
X131359518Y-93931812D01*
X131484000Y-93944072D01*
X133184000Y-93944072D01*
X133308482Y-93931812D01*
X133428180Y-93895502D01*
X133538494Y-93836537D01*
X133635185Y-93757185D01*
X133714537Y-93660494D01*
X133773502Y-93550180D01*
X133794393Y-93481313D01*
X133818866Y-93511134D01*
X134044986Y-93696706D01*
X134302966Y-93834599D01*
X134582889Y-93919513D01*
X134801050Y-93941000D01*
X134946950Y-93941000D01*
X135165111Y-93919513D01*
X135405656Y-93846544D01*
X140631000Y-93846544D01*
X140631000Y-94113456D01*
X140683072Y-94375239D01*
X140785215Y-94621833D01*
X140933503Y-94843762D01*
X141122238Y-95032497D01*
X141344167Y-95180785D01*
X141590761Y-95282928D01*
X141852544Y-95335000D01*
X142119456Y-95335000D01*
X142381239Y-95282928D01*
X142627833Y-95180785D01*
X142849762Y-95032497D01*
X143038497Y-94843762D01*
X143186785Y-94621833D01*
X143288928Y-94375239D01*
X143341000Y-94113456D01*
X143341000Y-93846544D01*
X143288928Y-93584761D01*
X143186785Y-93338167D01*
X143038497Y-93116238D01*
X142849762Y-92927503D01*
X142627833Y-92779215D01*
X142381239Y-92677072D01*
X142119456Y-92625000D01*
X141852544Y-92625000D01*
X141590761Y-92677072D01*
X141344167Y-92779215D01*
X141122238Y-92927503D01*
X140933503Y-93116238D01*
X140785215Y-93338167D01*
X140683072Y-93584761D01*
X140631000Y-93846544D01*
X135405656Y-93846544D01*
X135445034Y-93834599D01*
X135703014Y-93696706D01*
X135929134Y-93511134D01*
X136114706Y-93285014D01*
X136252599Y-93027034D01*
X136337513Y-92747111D01*
X136366185Y-92456000D01*
X136337513Y-92164889D01*
X136252599Y-91884966D01*
X136114706Y-91626986D01*
X135929134Y-91400866D01*
X135814203Y-91306544D01*
X143171000Y-91306544D01*
X143171000Y-91573456D01*
X143223072Y-91835239D01*
X143325215Y-92081833D01*
X143473503Y-92303762D01*
X143662238Y-92492497D01*
X143884167Y-92640785D01*
X144130761Y-92742928D01*
X144392544Y-92795000D01*
X144659456Y-92795000D01*
X144921239Y-92742928D01*
X145167833Y-92640785D01*
X145389762Y-92492497D01*
X145578497Y-92303762D01*
X145726785Y-92081833D01*
X145828928Y-91835239D01*
X145881000Y-91573456D01*
X145881000Y-91306544D01*
X145828928Y-91044761D01*
X145726785Y-90798167D01*
X145578497Y-90576238D01*
X145389762Y-90387503D01*
X145167833Y-90239215D01*
X144921239Y-90137072D01*
X144659456Y-90085000D01*
X144392544Y-90085000D01*
X144130761Y-90137072D01*
X143884167Y-90239215D01*
X143662238Y-90387503D01*
X143473503Y-90576238D01*
X143325215Y-90798167D01*
X143223072Y-91044761D01*
X143171000Y-91306544D01*
X135814203Y-91306544D01*
X135703014Y-91215294D01*
X135445034Y-91077401D01*
X135165111Y-90992487D01*
X134946950Y-90971000D01*
X134801050Y-90971000D01*
X134582889Y-90992487D01*
X134302966Y-91077401D01*
X134044986Y-91215294D01*
X133818866Y-91400866D01*
X133794393Y-91430687D01*
X133773502Y-91361820D01*
X133714537Y-91251506D01*
X133635185Y-91154815D01*
X133538494Y-91075463D01*
X133428180Y-91016498D01*
X133308482Y-90980188D01*
X133184000Y-90967928D01*
X131484000Y-90967928D01*
X131359518Y-90980188D01*
X131239820Y-91016498D01*
X131129506Y-91075463D01*
X131032815Y-91154815D01*
X130953463Y-91251506D01*
X130894498Y-91361820D01*
X130858188Y-91481518D01*
X130845928Y-91606000D01*
X125741000Y-91606000D01*
X125741000Y-91542816D01*
X125682011Y-91246257D01*
X125566299Y-90966905D01*
X125398312Y-90715495D01*
X125184505Y-90501688D01*
X124933095Y-90333701D01*
X124653743Y-90217989D01*
X124357184Y-90159000D01*
X124054816Y-90159000D01*
X123758257Y-90217989D01*
X123478905Y-90333701D01*
X123227495Y-90501688D01*
X123013688Y-90715495D01*
X122845701Y-90966905D01*
X122729989Y-91246257D01*
X122671000Y-91542816D01*
X121207011Y-91542816D01*
X121207011Y-89154000D01*
X125507815Y-89154000D01*
X125536487Y-89445111D01*
X125621401Y-89725034D01*
X125759294Y-89983014D01*
X125944866Y-90209134D01*
X126170986Y-90394706D01*
X126428966Y-90532599D01*
X126708889Y-90617513D01*
X126927050Y-90639000D01*
X127072950Y-90639000D01*
X127291111Y-90617513D01*
X127571034Y-90532599D01*
X127829014Y-90394706D01*
X128055134Y-90209134D01*
X128079607Y-90179313D01*
X128100498Y-90248180D01*
X128159463Y-90358494D01*
X128238815Y-90455185D01*
X128335506Y-90534537D01*
X128445820Y-90593502D01*
X128565518Y-90629812D01*
X128690000Y-90642072D01*
X130390000Y-90642072D01*
X130514482Y-90629812D01*
X130634180Y-90593502D01*
X130744494Y-90534537D01*
X130841185Y-90455185D01*
X130920537Y-90358494D01*
X130979502Y-90248180D01*
X131015812Y-90128482D01*
X131028072Y-90004000D01*
X131028072Y-88404000D01*
X132215928Y-88404000D01*
X132215928Y-89904000D01*
X132228188Y-90028482D01*
X132264498Y-90148180D01*
X132323463Y-90258494D01*
X132402815Y-90355185D01*
X132499506Y-90434537D01*
X132609820Y-90493502D01*
X132729518Y-90529812D01*
X132854000Y-90542072D01*
X134354000Y-90542072D01*
X134478482Y-90529812D01*
X134598180Y-90493502D01*
X134708494Y-90434537D01*
X134805185Y-90355185D01*
X134884537Y-90258494D01*
X134943502Y-90148180D01*
X134979812Y-90028482D01*
X134992072Y-89904000D01*
X134992072Y-88404000D01*
X134979812Y-88279518D01*
X134943502Y-88159820D01*
X134884537Y-88049506D01*
X134805185Y-87952815D01*
X134708494Y-87873463D01*
X134598180Y-87814498D01*
X134478482Y-87778188D01*
X134354000Y-87765928D01*
X132854000Y-87765928D01*
X132729518Y-87778188D01*
X132609820Y-87814498D01*
X132499506Y-87873463D01*
X132402815Y-87952815D01*
X132323463Y-88049506D01*
X132264498Y-88159820D01*
X132228188Y-88279518D01*
X132215928Y-88404000D01*
X131028072Y-88404000D01*
X131028072Y-88304000D01*
X131015812Y-88179518D01*
X130979502Y-88059820D01*
X130920537Y-87949506D01*
X130866778Y-87884000D01*
X130920537Y-87818494D01*
X130979502Y-87708180D01*
X131015812Y-87588482D01*
X131028072Y-87464000D01*
X131025000Y-86899750D01*
X130866250Y-86741000D01*
X129667000Y-86741000D01*
X129667000Y-86761000D01*
X129413000Y-86761000D01*
X129413000Y-86741000D01*
X127127000Y-86741000D01*
X127127000Y-86761000D01*
X126873000Y-86761000D01*
X126873000Y-86741000D01*
X125679186Y-86741000D01*
X125558519Y-86970891D01*
X125655843Y-87245252D01*
X125804822Y-87495355D01*
X125999731Y-87711588D01*
X126228756Y-87882416D01*
X126170986Y-87913294D01*
X125944866Y-88098866D01*
X125759294Y-88324986D01*
X125621401Y-88582966D01*
X125536487Y-88862889D01*
X125507815Y-89154000D01*
X121207011Y-89154000D01*
X121207011Y-88086488D01*
X121285494Y-88044537D01*
X121382185Y-87965185D01*
X121461537Y-87868494D01*
X121520502Y-87758180D01*
X121556812Y-87638482D01*
X121569072Y-87514000D01*
X121569072Y-86257109D01*
X125558519Y-86257109D01*
X125679186Y-86487000D01*
X126873000Y-86487000D01*
X126873000Y-85293845D01*
X127127000Y-85293845D01*
X127127000Y-86487000D01*
X129413000Y-86487000D01*
X129413000Y-85287750D01*
X129667000Y-85287750D01*
X129667000Y-86487000D01*
X130866250Y-86487000D01*
X131025000Y-86328250D01*
X131025265Y-86279560D01*
X143770045Y-86279560D01*
X143831932Y-86515368D01*
X144073790Y-86628266D01*
X144333027Y-86691811D01*
X144599680Y-86703561D01*
X144863501Y-86663063D01*
X145114353Y-86571875D01*
X145220068Y-86515368D01*
X145281955Y-86279560D01*
X144526000Y-85523605D01*
X143770045Y-86279560D01*
X131025265Y-86279560D01*
X131028072Y-85764000D01*
X131015812Y-85639518D01*
X130979502Y-85519820D01*
X130924907Y-85417680D01*
X143166439Y-85417680D01*
X143206937Y-85681501D01*
X143298125Y-85932353D01*
X143354632Y-86038068D01*
X143590440Y-86099955D01*
X144346395Y-85344000D01*
X144705605Y-85344000D01*
X145461560Y-86099955D01*
X145697368Y-86038068D01*
X145810266Y-85796210D01*
X145873811Y-85536973D01*
X145885561Y-85270320D01*
X145845063Y-85006499D01*
X145753875Y-84755647D01*
X145697368Y-84649932D01*
X145461560Y-84588045D01*
X144705605Y-85344000D01*
X144346395Y-85344000D01*
X143590440Y-84588045D01*
X143354632Y-84649932D01*
X143241734Y-84891790D01*
X143178189Y-85151027D01*
X143166439Y-85417680D01*
X130924907Y-85417680D01*
X130920537Y-85409506D01*
X130841185Y-85312815D01*
X130744494Y-85233463D01*
X130634180Y-85174498D01*
X130514482Y-85138188D01*
X130390000Y-85125928D01*
X129825750Y-85129000D01*
X129667000Y-85287750D01*
X129413000Y-85287750D01*
X129254250Y-85129000D01*
X128690000Y-85125928D01*
X128565518Y-85138188D01*
X128445820Y-85174498D01*
X128335506Y-85233463D01*
X128238815Y-85312815D01*
X128159463Y-85409506D01*
X128100498Y-85519820D01*
X128076034Y-85600466D01*
X128000269Y-85516412D01*
X127766920Y-85342359D01*
X127504099Y-85217175D01*
X127356890Y-85172524D01*
X127127000Y-85293845D01*
X126873000Y-85293845D01*
X126643110Y-85172524D01*
X126495901Y-85217175D01*
X126233080Y-85342359D01*
X125999731Y-85516412D01*
X125804822Y-85732645D01*
X125655843Y-85982748D01*
X125558519Y-86257109D01*
X121569072Y-86257109D01*
X121569072Y-85714000D01*
X121556812Y-85589518D01*
X121520502Y-85469820D01*
X121461537Y-85359506D01*
X121382185Y-85262815D01*
X121285494Y-85183463D01*
X121175180Y-85124498D01*
X121055482Y-85088188D01*
X120931000Y-85075928D01*
X119861000Y-85075928D01*
X119736518Y-85088188D01*
X119616820Y-85124498D01*
X119547810Y-85161385D01*
X119433383Y-85120100D01*
X119253000Y-85245756D01*
X119253000Y-85530800D01*
X119235188Y-85589518D01*
X119222928Y-85714000D01*
X119222928Y-86761000D01*
X119026000Y-86761000D01*
X119026000Y-86191524D01*
X119009071Y-86019641D01*
X118999000Y-85986441D01*
X118999000Y-85245756D01*
X118818617Y-85120100D01*
X118581579Y-85205623D01*
X118493596Y-85263154D01*
X118305906Y-85162831D01*
X118085360Y-85095929D01*
X117856000Y-85073339D01*
X117626641Y-85095929D01*
X117585006Y-85108559D01*
X118285125Y-84408440D01*
X143770045Y-84408440D01*
X144526000Y-85164395D01*
X145281955Y-84408440D01*
X145220068Y-84172632D01*
X144978210Y-84059734D01*
X144718973Y-83996189D01*
X144452320Y-83984439D01*
X144188499Y-84024937D01*
X143937647Y-84116125D01*
X143831932Y-84172632D01*
X143770045Y-84408440D01*
X118285125Y-84408440D01*
X120399565Y-82294000D01*
X120816702Y-82294000D01*
X120971445Y-82482555D01*
X121174725Y-82649382D01*
X121406646Y-82773347D01*
X121658294Y-82849683D01*
X121854421Y-82869000D01*
X121985579Y-82869000D01*
X122181706Y-82849683D01*
X122433354Y-82773347D01*
X122665275Y-82649382D01*
X122868555Y-82482555D01*
X123035382Y-82279275D01*
X123159347Y-82047354D01*
X123235683Y-81795706D01*
X123261459Y-81534000D01*
X123248509Y-81402514D01*
X125665000Y-81402514D01*
X125665000Y-81665486D01*
X125716304Y-81923405D01*
X125816939Y-82166359D01*
X125963038Y-82385013D01*
X126148987Y-82570962D01*
X126367641Y-82717061D01*
X126610595Y-82817696D01*
X126868514Y-82869000D01*
X127131486Y-82869000D01*
X127389405Y-82817696D01*
X127632359Y-82717061D01*
X127851013Y-82570962D01*
X128036962Y-82385013D01*
X128183061Y-82166359D01*
X128283696Y-81923405D01*
X128335000Y-81665486D01*
X128335000Y-81534000D01*
X132212299Y-81534000D01*
X132239040Y-81805507D01*
X132318236Y-82066581D01*
X132446843Y-82307188D01*
X132619919Y-82518081D01*
X132830812Y-82691157D01*
X133071419Y-82819764D01*
X133332493Y-82898960D01*
X133535963Y-82919000D01*
X133672037Y-82919000D01*
X133875507Y-82898960D01*
X134136581Y-82819764D01*
X134377188Y-82691157D01*
X134402304Y-82670544D01*
X140631000Y-82670544D01*
X140631000Y-82937456D01*
X140683072Y-83199239D01*
X140785215Y-83445833D01*
X140933503Y-83667762D01*
X141122238Y-83856497D01*
X141344167Y-84004785D01*
X141590761Y-84106928D01*
X141852544Y-84159000D01*
X142119456Y-84159000D01*
X142381239Y-84106928D01*
X142627833Y-84004785D01*
X142849762Y-83856497D01*
X143038497Y-83667762D01*
X143186785Y-83445833D01*
X143288928Y-83199239D01*
X143341000Y-82937456D01*
X143341000Y-82670544D01*
X143288928Y-82408761D01*
X143186785Y-82162167D01*
X143038497Y-81940238D01*
X142849762Y-81751503D01*
X142627833Y-81603215D01*
X142381239Y-81501072D01*
X142119456Y-81449000D01*
X141852544Y-81449000D01*
X141590761Y-81501072D01*
X141344167Y-81603215D01*
X141122238Y-81751503D01*
X140933503Y-81940238D01*
X140785215Y-82162167D01*
X140683072Y-82408761D01*
X140631000Y-82670544D01*
X134402304Y-82670544D01*
X134588081Y-82518081D01*
X134761157Y-82307188D01*
X134889764Y-82066581D01*
X134968960Y-81805507D01*
X134995701Y-81534000D01*
X134968960Y-81262493D01*
X134889764Y-81001419D01*
X134761157Y-80760812D01*
X134588081Y-80549919D01*
X134377188Y-80376843D01*
X134136581Y-80248236D01*
X133875507Y-80169040D01*
X133672037Y-80149000D01*
X133535963Y-80149000D01*
X133332493Y-80169040D01*
X133071419Y-80248236D01*
X132830812Y-80376843D01*
X132619919Y-80549919D01*
X132446843Y-80760812D01*
X132318236Y-81001419D01*
X132239040Y-81262493D01*
X132212299Y-81534000D01*
X128335000Y-81534000D01*
X128335000Y-81402514D01*
X128283696Y-81144595D01*
X128183061Y-80901641D01*
X128036962Y-80682987D01*
X127851013Y-80497038D01*
X127632359Y-80350939D01*
X127389405Y-80250304D01*
X127131486Y-80199000D01*
X126868514Y-80199000D01*
X126610595Y-80250304D01*
X126367641Y-80350939D01*
X126148987Y-80497038D01*
X125963038Y-80682987D01*
X125816939Y-80901641D01*
X125716304Y-81144595D01*
X125665000Y-81402514D01*
X123248509Y-81402514D01*
X123235683Y-81272294D01*
X123159347Y-81020646D01*
X123035382Y-80788725D01*
X122868555Y-80585445D01*
X122665275Y-80418618D01*
X122433354Y-80294653D01*
X122181706Y-80218317D01*
X121985579Y-80199000D01*
X121854421Y-80199000D01*
X121658294Y-80218317D01*
X121406646Y-80294653D01*
X121174725Y-80418618D01*
X120971445Y-80585445D01*
X120816702Y-80774000D01*
X120122085Y-80774000D01*
X120084762Y-80770324D01*
X120047439Y-80774000D01*
X120047430Y-80774000D01*
X119935777Y-80784997D01*
X119792516Y-80828454D01*
X119660486Y-80899026D01*
X119576846Y-80967668D01*
X119544762Y-80993999D01*
X119520964Y-81022997D01*
X112956286Y-87587675D01*
X112779608Y-87372392D01*
X112561101Y-87193068D01*
X112428142Y-87122000D01*
X112561101Y-87050932D01*
X112779608Y-86871608D01*
X112958932Y-86653101D01*
X113092182Y-86403808D01*
X113174236Y-86133309D01*
X113201943Y-85852000D01*
X113174236Y-85570691D01*
X113092182Y-85300192D01*
X112958932Y-85050899D01*
X112779608Y-84832392D01*
X112561101Y-84653068D01*
X112423318Y-84579421D01*
X112615131Y-84464385D01*
X112823519Y-84275414D01*
X112991037Y-84049420D01*
X113111246Y-83795087D01*
X113151904Y-83661039D01*
X113029915Y-83439000D01*
X111887000Y-83439000D01*
X111887000Y-83459000D01*
X111633000Y-83459000D01*
X111633000Y-83439000D01*
X110490085Y-83439000D01*
X110368096Y-83661039D01*
X110408754Y-83795087D01*
X110528963Y-84049420D01*
X110696481Y-84275414D01*
X110904869Y-84464385D01*
X111096682Y-84579421D01*
X110958899Y-84653068D01*
X110740392Y-84832392D01*
X110561068Y-85050899D01*
X110427818Y-85300192D01*
X110345764Y-85570691D01*
X110318057Y-85852000D01*
X110345764Y-86133309D01*
X110427818Y-86403808D01*
X110561068Y-86653101D01*
X110740392Y-86871608D01*
X110958899Y-87050932D01*
X111091858Y-87122000D01*
X110958899Y-87193068D01*
X110740392Y-87372392D01*
X110561068Y-87590899D01*
X110427818Y-87840192D01*
X110345764Y-88110691D01*
X110318057Y-88392000D01*
X110345764Y-88673309D01*
X110359292Y-88717906D01*
X102493198Y-96584001D01*
X97841389Y-96584001D01*
X97852182Y-96563808D01*
X97934236Y-96293309D01*
X97961943Y-96012000D01*
X97934236Y-95730691D01*
X97920708Y-95686094D01*
X98156005Y-95450797D01*
X98185002Y-95427000D01*
X98279975Y-95311275D01*
X98350547Y-95179246D01*
X98394004Y-95035985D01*
X98405001Y-94924332D01*
X98405001Y-94924324D01*
X98408677Y-94886999D01*
X98405001Y-94849674D01*
X98405001Y-93536798D01*
X110494061Y-81447739D01*
X110561068Y-81573101D01*
X110740392Y-81791608D01*
X110958899Y-81970932D01*
X111096682Y-82044579D01*
X110904869Y-82159615D01*
X110696481Y-82348586D01*
X110528963Y-82574580D01*
X110408754Y-82828913D01*
X110368096Y-82962961D01*
X110490085Y-83185000D01*
X111633000Y-83185000D01*
X111633000Y-83165000D01*
X111887000Y-83165000D01*
X111887000Y-83185000D01*
X113029915Y-83185000D01*
X113151904Y-82962961D01*
X113111246Y-82828913D01*
X112991037Y-82574580D01*
X112823519Y-82348586D01*
X112615131Y-82159615D01*
X112423318Y-82044579D01*
X112561101Y-81970932D01*
X112779608Y-81791608D01*
X112958932Y-81573101D01*
X113092182Y-81323808D01*
X113174236Y-81053309D01*
X113201943Y-80772000D01*
X113174236Y-80490691D01*
X113092182Y-80220192D01*
X113044265Y-80130544D01*
X143171000Y-80130544D01*
X143171000Y-80397456D01*
X143223072Y-80659239D01*
X143325215Y-80905833D01*
X143473503Y-81127762D01*
X143662238Y-81316497D01*
X143884167Y-81464785D01*
X144130761Y-81566928D01*
X144392544Y-81619000D01*
X144659456Y-81619000D01*
X144921239Y-81566928D01*
X145167833Y-81464785D01*
X145389762Y-81316497D01*
X145578497Y-81127762D01*
X145726785Y-80905833D01*
X145828928Y-80659239D01*
X145881000Y-80397456D01*
X145881000Y-80130544D01*
X145828928Y-79868761D01*
X145726785Y-79622167D01*
X145578497Y-79400238D01*
X145389762Y-79211503D01*
X145167833Y-79063215D01*
X144921239Y-78961072D01*
X144659456Y-78909000D01*
X144392544Y-78909000D01*
X144130761Y-78961072D01*
X143884167Y-79063215D01*
X143662238Y-79211503D01*
X143473503Y-79400238D01*
X143325215Y-79622167D01*
X143223072Y-79868761D01*
X143171000Y-80130544D01*
X113044265Y-80130544D01*
X112958932Y-79970899D01*
X112779608Y-79752392D01*
X112561101Y-79573068D01*
X112435739Y-79506061D01*
X114618799Y-77323001D01*
X118217677Y-77323001D01*
X118254999Y-77326677D01*
X118292321Y-77323001D01*
X118292332Y-77323001D01*
X118403985Y-77312004D01*
X118547246Y-77268547D01*
X118679275Y-77197975D01*
X118795000Y-77103002D01*
X118818803Y-77073998D01*
X119054093Y-76838708D01*
X119098691Y-76852236D01*
X119309508Y-76873000D01*
X119450492Y-76873000D01*
X119661309Y-76852236D01*
X119931808Y-76770182D01*
X120181101Y-76636932D01*
X120399608Y-76457608D01*
X120578932Y-76239101D01*
X120650000Y-76106142D01*
X120721068Y-76239101D01*
X120900392Y-76457608D01*
X121118899Y-76636932D01*
X121368192Y-76770182D01*
X121638691Y-76852236D01*
X121849508Y-76873000D01*
X121990492Y-76873000D01*
X122201309Y-76852236D01*
X122471808Y-76770182D01*
X122721101Y-76636932D01*
X122939608Y-76457608D01*
X123118932Y-76239101D01*
X123190000Y-76106142D01*
X123261068Y-76239101D01*
X123440392Y-76457608D01*
X123658899Y-76636932D01*
X123908192Y-76770182D01*
X124178691Y-76852236D01*
X124389508Y-76873000D01*
X124530492Y-76873000D01*
X124741309Y-76852236D01*
X125011808Y-76770182D01*
X125261101Y-76636932D01*
X125479608Y-76457608D01*
X125658932Y-76239101D01*
X125730000Y-76106142D01*
X125801068Y-76239101D01*
X125980392Y-76457608D01*
X126198899Y-76636932D01*
X126448192Y-76770182D01*
X126718691Y-76852236D01*
X126929508Y-76873000D01*
X127070492Y-76873000D01*
X127281309Y-76852236D01*
X127551808Y-76770182D01*
X127801101Y-76636932D01*
X128019608Y-76457608D01*
X128198932Y-76239101D01*
X128270000Y-76106142D01*
X128341068Y-76239101D01*
X128520392Y-76457608D01*
X128738899Y-76636932D01*
X128988192Y-76770182D01*
X129258691Y-76852236D01*
X129469508Y-76873000D01*
X129610492Y-76873000D01*
X129821309Y-76852236D01*
X130091808Y-76770182D01*
X130341101Y-76636932D01*
X130559608Y-76457608D01*
X130738932Y-76239101D01*
X130810000Y-76106142D01*
X130881068Y-76239101D01*
X131060392Y-76457608D01*
X131278899Y-76636932D01*
X131528192Y-76770182D01*
X131798691Y-76852236D01*
X132009508Y-76873000D01*
X132150492Y-76873000D01*
X132361309Y-76852236D01*
X132631808Y-76770182D01*
X132881101Y-76636932D01*
X133099608Y-76457608D01*
X133278932Y-76239101D01*
X133350000Y-76106142D01*
X133421068Y-76239101D01*
X133600392Y-76457608D01*
X133818899Y-76636932D01*
X134068192Y-76770182D01*
X134338691Y-76852236D01*
X134549508Y-76873000D01*
X134690492Y-76873000D01*
X134901309Y-76852236D01*
X135171808Y-76770182D01*
X135421101Y-76636932D01*
X135639608Y-76457608D01*
X135818932Y-76239101D01*
X135952182Y-75989808D01*
X136034236Y-75719309D01*
X136061943Y-75438000D01*
X136034236Y-75156691D01*
X135952182Y-74886192D01*
X135818932Y-74636899D01*
X135639608Y-74418392D01*
X135421101Y-74239068D01*
X135171808Y-74105818D01*
X134901309Y-74023764D01*
X134690492Y-74003000D01*
X134549508Y-74003000D01*
X134338691Y-74023764D01*
X134068192Y-74105818D01*
X133818899Y-74239068D01*
X133600392Y-74418392D01*
X133421068Y-74636899D01*
X133350000Y-74769858D01*
X133278932Y-74636899D01*
X133099608Y-74418392D01*
X132881101Y-74239068D01*
X132631808Y-74105818D01*
X132361309Y-74023764D01*
X132150492Y-74003000D01*
X132009508Y-74003000D01*
X131798691Y-74023764D01*
X131528192Y-74105818D01*
X131278899Y-74239068D01*
X131060392Y-74418392D01*
X130881068Y-74636899D01*
X130810000Y-74769858D01*
X130738932Y-74636899D01*
X130559608Y-74418392D01*
X130341101Y-74239068D01*
X130091808Y-74105818D01*
X129821309Y-74023764D01*
X129610492Y-74003000D01*
X129509802Y-74003000D01*
X129797003Y-73715799D01*
X129826001Y-73692001D01*
X129920974Y-73576276D01*
X129991546Y-73444247D01*
X130035003Y-73300986D01*
X130046000Y-73189333D01*
X130046000Y-73189324D01*
X130049676Y-73152001D01*
X130046000Y-73114678D01*
X130046000Y-70926801D01*
X131754094Y-69218708D01*
X131798691Y-69232236D01*
X132009508Y-69253000D01*
X132150492Y-69253000D01*
X132361309Y-69232236D01*
X132631808Y-69150182D01*
X132881101Y-69016932D01*
X133099608Y-68837608D01*
X133192419Y-68724518D01*
X133194188Y-68742482D01*
X133230498Y-68862180D01*
X133289463Y-68972494D01*
X133368815Y-69069185D01*
X133465506Y-69148537D01*
X133575820Y-69207502D01*
X133695518Y-69243812D01*
X133820000Y-69256072D01*
X135420000Y-69256072D01*
X135544482Y-69243812D01*
X135664180Y-69207502D01*
X135774494Y-69148537D01*
X135871185Y-69069185D01*
X135950537Y-68972494D01*
X136009502Y-68862180D01*
X136045812Y-68742482D01*
X136058072Y-68618000D01*
X136058072Y-67018000D01*
X136045812Y-66893518D01*
X136009502Y-66773820D01*
X135950537Y-66663506D01*
X135871185Y-66566815D01*
X135774494Y-66487463D01*
X135664180Y-66428498D01*
X135544482Y-66392188D01*
X135420000Y-66379928D01*
X135274326Y-66379928D01*
X135254974Y-66343724D01*
X135160001Y-66227999D01*
X135131001Y-66204199D01*
X135108801Y-66181999D01*
X135085000Y-66152998D01*
X134969275Y-66058025D01*
X134837246Y-65987453D01*
X134693985Y-65943996D01*
X134582332Y-65932999D01*
X134582321Y-65932999D01*
X134544999Y-65929323D01*
X134507677Y-65932999D01*
X128162323Y-65932999D01*
X128125000Y-65929323D01*
X128087677Y-65932999D01*
X128087668Y-65932999D01*
X127976015Y-65943996D01*
X127832754Y-65987453D01*
X127700725Y-66058025D01*
X127585000Y-66152998D01*
X127561197Y-66182002D01*
X127325907Y-66417292D01*
X127281309Y-66403764D01*
X127070492Y-66383000D01*
X126929508Y-66383000D01*
X126718691Y-66403764D01*
X126448192Y-66485818D01*
X126198899Y-66619068D01*
X125980392Y-66798392D01*
X125801068Y-67016899D01*
X125730000Y-67149858D01*
X125658932Y-67016899D01*
X125479608Y-66798392D01*
X125261101Y-66619068D01*
X125011808Y-66485818D01*
X124741309Y-66403764D01*
X124530492Y-66383000D01*
X124389508Y-66383000D01*
X124178691Y-66403764D01*
X123908192Y-66485818D01*
X123658899Y-66619068D01*
X123440392Y-66798392D01*
X123261068Y-67016899D01*
X123190000Y-67149858D01*
X123118932Y-67016899D01*
X122939608Y-66798392D01*
X122721101Y-66619068D01*
X122471808Y-66485818D01*
X122201309Y-66403764D01*
X121990492Y-66383000D01*
X121849508Y-66383000D01*
X121638691Y-66403764D01*
X121368192Y-66485818D01*
X121118899Y-66619068D01*
X120900392Y-66798392D01*
X120721068Y-67016899D01*
X120647421Y-67154682D01*
X120532385Y-66962869D01*
X120343414Y-66754481D01*
X120117420Y-66586963D01*
X119863087Y-66466754D01*
X119729039Y-66426096D01*
X119507000Y-66548085D01*
X119507000Y-67691000D01*
X119527000Y-67691000D01*
X119527000Y-67945000D01*
X119507000Y-67945000D01*
X119507000Y-69087915D01*
X119729039Y-69209904D01*
X119863087Y-69169246D01*
X120117420Y-69049037D01*
X120343414Y-68881519D01*
X120532385Y-68673131D01*
X120647421Y-68481318D01*
X120721068Y-68619101D01*
X120900392Y-68837608D01*
X121118899Y-69016932D01*
X121368192Y-69150182D01*
X121638691Y-69232236D01*
X121849508Y-69253000D01*
X121990492Y-69253000D01*
X122201309Y-69232236D01*
X122471808Y-69150182D01*
X122721101Y-69016932D01*
X122939608Y-68837608D01*
X123118932Y-68619101D01*
X123190000Y-68486142D01*
X123261068Y-68619101D01*
X123440392Y-68837608D01*
X123658899Y-69016932D01*
X123700001Y-69038901D01*
X123700000Y-70043198D01*
X119705906Y-74037292D01*
X119661309Y-74023764D01*
X119450492Y-74003000D01*
X119309508Y-74003000D01*
X119098691Y-74023764D01*
X118828192Y-74105818D01*
X118578899Y-74239068D01*
X118360392Y-74418392D01*
X118181068Y-74636899D01*
X118110000Y-74769858D01*
X118038932Y-74636899D01*
X117859608Y-74418392D01*
X117641101Y-74239068D01*
X117391808Y-74105818D01*
X117121309Y-74023764D01*
X116910492Y-74003000D01*
X116769508Y-74003000D01*
X116558691Y-74023764D01*
X116288192Y-74105818D01*
X116038899Y-74239068D01*
X115820392Y-74418392D01*
X115641068Y-74636899D01*
X115619099Y-74678000D01*
X114829910Y-74678000D01*
X114792587Y-74674324D01*
X114755264Y-74678000D01*
X114755255Y-74678000D01*
X114643602Y-74688997D01*
X114500341Y-74732454D01*
X114368311Y-74803026D01*
X114284671Y-74871668D01*
X114252587Y-74897999D01*
X114228789Y-74926997D01*
X109143787Y-80012000D01*
X97958072Y-80012000D01*
X97958072Y-79972000D01*
X97945812Y-79847518D01*
X97909502Y-79727820D01*
X97850537Y-79617506D01*
X97771185Y-79520815D01*
X97674494Y-79441463D01*
X97564180Y-79382498D01*
X97444482Y-79346188D01*
X97320000Y-79333928D01*
X95720000Y-79333928D01*
X95595518Y-79346188D01*
X95475820Y-79382498D01*
X95365506Y-79441463D01*
X95268815Y-79520815D01*
X95189463Y-79617506D01*
X95130498Y-79727820D01*
X95094188Y-79847518D01*
X95081928Y-79972000D01*
X95081928Y-81572000D01*
X95094188Y-81696482D01*
X95130498Y-81816180D01*
X95189463Y-81926494D01*
X95268815Y-82023185D01*
X95365506Y-82102537D01*
X95475820Y-82161502D01*
X95595518Y-82197812D01*
X95613482Y-82199581D01*
X95500392Y-82292392D01*
X95321068Y-82510899D01*
X95187818Y-82760192D01*
X95105764Y-83030691D01*
X95078057Y-83312000D01*
X95105764Y-83593309D01*
X95187818Y-83863808D01*
X95321068Y-84113101D01*
X95500392Y-84331608D01*
X95718899Y-84510932D01*
X95851858Y-84582000D01*
X95718899Y-84653068D01*
X95500392Y-84832392D01*
X95321068Y-85050899D01*
X95187818Y-85300192D01*
X95105764Y-85570691D01*
X95078057Y-85852000D01*
X95105764Y-86133309D01*
X95187818Y-86403808D01*
X95321068Y-86653101D01*
X95500392Y-86871608D01*
X95718899Y-87050932D01*
X95856682Y-87124579D01*
X95664869Y-87239615D01*
X95456481Y-87428586D01*
X95288963Y-87654580D01*
X95168754Y-87908913D01*
X95128096Y-88042961D01*
X95250085Y-88265000D01*
X96393000Y-88265000D01*
X96393000Y-88245000D01*
X96647000Y-88245000D01*
X96647000Y-88265000D01*
X97789915Y-88265000D01*
X97911904Y-88042961D01*
X97871246Y-87908913D01*
X97751037Y-87654580D01*
X97583519Y-87428586D01*
X97375131Y-87239615D01*
X97183318Y-87124579D01*
X97321101Y-87050932D01*
X97539608Y-86871608D01*
X97718932Y-86653101D01*
X97852182Y-86403808D01*
X97934236Y-86133309D01*
X97961943Y-85852000D01*
X97934236Y-85570691D01*
X97852182Y-85300192D01*
X97718932Y-85050899D01*
X97539608Y-84832392D01*
X97321101Y-84653068D01*
X97188142Y-84582000D01*
X97321101Y-84510932D01*
X97539608Y-84331608D01*
X97718932Y-84113101D01*
X97852182Y-83863808D01*
X97934236Y-83593309D01*
X97961943Y-83312000D01*
X97934236Y-83030691D01*
X97852182Y-82760192D01*
X97718932Y-82510899D01*
X97539608Y-82292392D01*
X97426518Y-82199581D01*
X97444482Y-82197812D01*
X97564180Y-82161502D01*
X97674494Y-82102537D01*
X97771185Y-82023185D01*
X97850537Y-81926494D01*
X97909502Y-81816180D01*
X97945812Y-81696482D01*
X97958072Y-81572000D01*
X97958072Y-81532000D01*
X108260196Y-81532000D01*
X97429867Y-92362330D01*
X97321101Y-92273068D01*
X97188142Y-92202000D01*
X97321101Y-92130932D01*
X97539608Y-91951608D01*
X97718932Y-91733101D01*
X97852182Y-91483808D01*
X97934236Y-91213309D01*
X97961943Y-90932000D01*
X97934236Y-90650691D01*
X97852182Y-90380192D01*
X97718932Y-90130899D01*
X97539608Y-89912392D01*
X97321101Y-89733068D01*
X97183318Y-89659421D01*
X97375131Y-89544385D01*
X97583519Y-89355414D01*
X97751037Y-89129420D01*
X97871246Y-88875087D01*
X97911904Y-88741039D01*
X97789915Y-88519000D01*
X96647000Y-88519000D01*
X96647000Y-88539000D01*
X96393000Y-88539000D01*
X96393000Y-88519000D01*
X95250085Y-88519000D01*
X95128096Y-88741039D01*
X95168754Y-88875087D01*
X95288963Y-89129420D01*
X95456481Y-89355414D01*
X95664869Y-89544385D01*
X95856682Y-89659421D01*
X95718899Y-89733068D01*
X95500392Y-89912392D01*
X95321068Y-90130899D01*
X95187818Y-90380192D01*
X95105764Y-90650691D01*
X95078057Y-90932000D01*
X95105764Y-91213309D01*
X95187818Y-91483808D01*
X95321068Y-91733101D01*
X95500392Y-91951608D01*
X95718899Y-92130932D01*
X95851858Y-92202000D01*
X95718899Y-92273068D01*
X95500392Y-92452392D01*
X95321068Y-92670899D01*
X95187818Y-92920192D01*
X95105764Y-93190691D01*
X95078057Y-93472000D01*
X95105764Y-93753309D01*
X95187818Y-94023808D01*
X95321068Y-94273101D01*
X95500392Y-94491608D01*
X95718899Y-94670932D01*
X95851858Y-94742000D01*
X95718899Y-94813068D01*
X95500392Y-94992392D01*
X95321068Y-95210899D01*
X95187818Y-95460192D01*
X95105764Y-95730691D01*
X95078057Y-96012000D01*
X95105764Y-96293309D01*
X95187818Y-96563808D01*
X95198611Y-96584001D01*
X92431321Y-96584001D01*
X92393998Y-96580325D01*
X92356675Y-96584001D01*
X92356666Y-96584001D01*
X92245013Y-96594998D01*
X92101752Y-96638455D01*
X91969722Y-96709027D01*
X91941609Y-96732099D01*
X91825486Y-96709000D01*
X91562514Y-96709000D01*
X91304595Y-96760304D01*
X91061641Y-96860939D01*
X90842987Y-97007038D01*
X90657038Y-97192987D01*
X90510939Y-97411641D01*
X90410304Y-97654595D01*
X90359000Y-97912514D01*
X87942509Y-97912514D01*
X87929683Y-97782294D01*
X87853347Y-97530646D01*
X87729382Y-97298725D01*
X87562555Y-97095445D01*
X87359275Y-96928618D01*
X87127354Y-96804653D01*
X86875706Y-96728317D01*
X86679579Y-96709000D01*
X86548421Y-96709000D01*
X86352294Y-96728317D01*
X86100646Y-96804653D01*
X85868725Y-96928618D01*
X85665445Y-97095445D01*
X85498618Y-97298725D01*
X85374653Y-97530646D01*
X85298317Y-97782294D01*
X85272541Y-98044000D01*
X83499000Y-98044000D01*
X83499000Y-78268474D01*
X86518884Y-75286816D01*
X89143000Y-75286816D01*
X89143000Y-75589184D01*
X89201989Y-75885743D01*
X89317701Y-76165095D01*
X89485688Y-76416505D01*
X89699495Y-76630312D01*
X89950905Y-76798299D01*
X90230257Y-76914011D01*
X90526816Y-76973000D01*
X90829184Y-76973000D01*
X91125743Y-76914011D01*
X91405095Y-76798299D01*
X91656505Y-76630312D01*
X91870312Y-76416505D01*
X92038299Y-76165095D01*
X92154011Y-75885743D01*
X92213000Y-75589184D01*
X92213000Y-75286816D01*
X92206810Y-75255696D01*
X92221129Y-75260661D01*
X92345034Y-75277799D01*
X92469901Y-75270435D01*
X92590932Y-75238853D01*
X92703476Y-75184265D01*
X92803208Y-75108769D01*
X92886295Y-75015268D01*
X93944308Y-73559037D01*
X94007558Y-73451123D01*
X94048539Y-73332943D01*
X94065677Y-73209038D01*
X94058313Y-73084171D01*
X94026731Y-72963140D01*
X93972143Y-72850596D01*
X93896647Y-72750864D01*
X93803146Y-72667777D01*
X92346915Y-71609764D01*
X92239001Y-71546514D01*
X92120821Y-71505533D01*
X91996916Y-71488395D01*
X91872049Y-71495759D01*
X91751018Y-71527341D01*
X91638474Y-71581929D01*
X91538742Y-71657425D01*
X91455655Y-71750926D01*
X90397642Y-73207157D01*
X90334392Y-73315071D01*
X90293411Y-73433251D01*
X90276273Y-73557156D01*
X90283637Y-73682023D01*
X90315219Y-73803054D01*
X90369807Y-73915598D01*
X90382066Y-73931792D01*
X90230257Y-73961989D01*
X89950905Y-74077701D01*
X89699495Y-74245688D01*
X89485688Y-74459495D01*
X89317701Y-74710905D01*
X89201989Y-74990257D01*
X89143000Y-75286816D01*
X86518884Y-75286816D01*
X93931547Y-67967984D01*
X99235000Y-67967984D01*
X99235000Y-68684016D01*
X99374691Y-69386290D01*
X99648705Y-70047818D01*
X100046511Y-70643177D01*
X100552823Y-71149489D01*
X101148182Y-71547295D01*
X101809710Y-71821309D01*
X102511984Y-71961000D01*
X103228016Y-71961000D01*
X103930290Y-71821309D01*
X104591818Y-71547295D01*
X105187177Y-71149489D01*
X105693489Y-70643177D01*
X106091295Y-70047818D01*
X106365309Y-69386290D01*
X106505000Y-68684016D01*
X106505000Y-67967984D01*
X106475167Y-67818000D01*
X115398057Y-67818000D01*
X115425764Y-68099309D01*
X115507818Y-68369808D01*
X115641068Y-68619101D01*
X115820392Y-68837608D01*
X116038899Y-69016932D01*
X116288192Y-69150182D01*
X116558691Y-69232236D01*
X116769508Y-69253000D01*
X116910492Y-69253000D01*
X117121309Y-69232236D01*
X117391808Y-69150182D01*
X117641101Y-69016932D01*
X117859608Y-68837608D01*
X118038932Y-68619101D01*
X118112579Y-68481318D01*
X118227615Y-68673131D01*
X118416586Y-68881519D01*
X118642580Y-69049037D01*
X118896913Y-69169246D01*
X119030961Y-69209904D01*
X119253000Y-69087915D01*
X119253000Y-67945000D01*
X119233000Y-67945000D01*
X119233000Y-67691000D01*
X119253000Y-67691000D01*
X119253000Y-66548085D01*
X119030961Y-66426096D01*
X118896913Y-66466754D01*
X118642580Y-66586963D01*
X118416586Y-66754481D01*
X118227615Y-66962869D01*
X118112579Y-67154682D01*
X118038932Y-67016899D01*
X117859608Y-66798392D01*
X117641101Y-66619068D01*
X117391808Y-66485818D01*
X117121309Y-66403764D01*
X116910492Y-66383000D01*
X116769508Y-66383000D01*
X116558691Y-66403764D01*
X116288192Y-66485818D01*
X116038899Y-66619068D01*
X115820392Y-66798392D01*
X115641068Y-67016899D01*
X115507818Y-67266192D01*
X115425764Y-67536691D01*
X115398057Y-67818000D01*
X106475167Y-67818000D01*
X106365309Y-67265710D01*
X106091295Y-66604182D01*
X105693489Y-66008823D01*
X105187177Y-65502511D01*
X104591818Y-65104705D01*
X103930290Y-64830691D01*
X103228016Y-64691000D01*
X102511984Y-64691000D01*
X101809710Y-64830691D01*
X101148182Y-65104705D01*
X100552823Y-65502511D01*
X100046511Y-66008823D01*
X99648705Y-66604182D01*
X99374691Y-67265710D01*
X99235000Y-67967984D01*
X93931547Y-67967984D01*
X100433927Y-61547913D01*
X126605316Y-61547913D01*
X126605316Y-61850281D01*
X126664305Y-62146840D01*
X126780017Y-62426192D01*
X126948004Y-62677602D01*
X127161811Y-62891409D01*
X127413221Y-63059396D01*
X127692573Y-63175108D01*
X127989132Y-63234097D01*
X128291500Y-63234097D01*
X128588059Y-63175108D01*
X128786199Y-63093035D01*
X128785829Y-63111899D01*
X128807818Y-63235035D01*
X128853408Y-63351515D01*
X128920845Y-63456863D01*
X129007540Y-63547030D01*
X129110159Y-63618551D01*
X129224759Y-63668679D01*
X130936661Y-64224909D01*
X131058839Y-64251715D01*
X131183899Y-64254171D01*
X131307035Y-64232182D01*
X131423515Y-64186592D01*
X131528863Y-64119155D01*
X131619030Y-64032460D01*
X131690551Y-63929841D01*
X131740679Y-63815241D01*
X132296909Y-62103339D01*
X132323715Y-61981161D01*
X132326171Y-61856101D01*
X132304182Y-61732965D01*
X132258592Y-61616485D01*
X132191155Y-61511137D01*
X132104460Y-61420970D01*
X132001841Y-61349449D01*
X131887241Y-61299321D01*
X130175339Y-60743091D01*
X130053161Y-60716285D01*
X129928101Y-60713829D01*
X129804965Y-60735818D01*
X129688485Y-60781408D01*
X129583137Y-60848845D01*
X129492970Y-60935540D01*
X129484435Y-60947787D01*
X129332628Y-60720592D01*
X129118821Y-60506785D01*
X128867411Y-60338798D01*
X128588059Y-60223086D01*
X128291500Y-60164097D01*
X127989132Y-60164097D01*
X127692573Y-60223086D01*
X127413221Y-60338798D01*
X127161811Y-60506785D01*
X126948004Y-60720592D01*
X126780017Y-60972002D01*
X126664305Y-61251354D01*
X126605316Y-61547913D01*
X100433927Y-61547913D01*
X103155289Y-58861000D01*
X134586122Y-58861000D01*
X153991000Y-78265879D01*
M02*
